<svg xmlns="http://www.w3.org/2000/svg" width="47.22" height="47.22" viewBox="0 0 47.22 47.22">
  <g id="_6b" data-name="6b" transform="translate(-51.32 -269.175)">
    <path id="Path_92" data-name="Path 92" d="M22.61,0A22.61,22.61,0,1,1,0,22.61,22.61,22.61,0,0,1,22.61,0Z" transform="translate(52.32 270.175)" fill="#fff" stroke="#b3b3b3" stroke-width="2"/>
    <g id="Isolation_Mode" data-name="Isolation Mode" transform="translate(61.429 285.064)">
      <path id="Path_86" data-name="Path 86" d="M943.981,327.685h-.621a.624.624,0,0,1-.184.441.618.618,0,0,1-.437.178H926.584a.619.619,0,0,1-.439-.178.633.633,0,0,1-.184-.441V314.016a.615.615,0,0,1,.184-.435.6.6,0,0,1,.439-.188h16.154a.635.635,0,0,1,.621.623v13.669H944.6V314.016a1.875,1.875,0,0,0-1.864-1.866H926.584a1.876,1.876,0,0,0-1.866,1.866v13.669a1.865,1.865,0,0,0,1.866,1.864h16.154a1.864,1.864,0,0,0,1.864-1.864h-.621" transform="translate(-924.718 -312.15)" fill="#b3b3b3"/>
      <path id="Path_87" data-name="Path 87" d="M943.132,327.049l.278-.552-7.112-3.556v-5.449l6.213-3.107v12.663h.621l.278-.552-.278.552h.621V313.38a.619.619,0,0,0-.9-.554l-7.456,3.728a.618.618,0,0,0-.343.554v6.211a.625.625,0,0,0,.343.56l7.456,3.728a.624.624,0,0,0,.9-.558h-.621" transform="translate(-913.928 -311.514)" fill="#b3b3b3"/>
    </g>
    <path id="Path_260" data-name="Path 260" d="M0,27.285,22.831,4.69,27.57,0" transform="translate(61.145 279.143)" fill="none" stroke="#fa0f00" stroke-linecap="round" stroke-width="1.2"/>
  </g>
</svg>
