<svg xmlns="http://www.w3.org/2000/svg" width="47.86" height="53.047" viewBox="0 0 47.86 53.047">
  <g id="Group_171" data-name="Group 171" transform="translate(-7.254 -147.342)">
    <circle id="Ellipse_27" data-name="Ellipse 27" cx="22.612" cy="22.612" r="22.612" transform="translate(8.254 154.166)" fill="#5A5A5A" stroke="#b3b3b3" stroke-width="2"/>
    <path id="Path_110" data-name="Path 110" d="M42.611,106.062a11.135,11.135,0,0,1-1.743-.378.655.655,0,0,0-.424.014l-4.692,1.88,1.649-2.885a.643.643,0,0,0-.156-.817A7.717,7.717,0,0,1,34.288,97.9a7.475,7.475,0,0,1,2.949-5.775,12.027,12.027,0,0,1,14.563,0A7.475,7.475,0,0,1,54.75,97.9h1.28a8.762,8.762,0,0,0-3.421-6.764,13.3,13.3,0,0,0-16.18,0A8.755,8.755,0,0,0,33.008,97.9a9,9,0,0,0,3.439,6.977l.4-.5-.554-.314-2.56,4.477a.638.638,0,0,0,.795.907l6.393-2.558-.236-.6-.188.616a12.489,12.489,0,0,0,1.942.421l.174-1.266" transform="translate(-17.801 72.477)" fill="#b3b3b3"/>
    <path id="Path_111" data-name="Path 111" d="M38.674,102.006h-.639a8.1,8.1,0,0,0,2.775,6.011,9.543,9.543,0,0,0,10.272,1.612l-.259-.588-.224.6,5.115,1.919a.64.64,0,0,0,.8-.884l-1.919-3.835-.572.282.4.5a7.569,7.569,0,0,0,2.072-2.5,6.881,6.881,0,0,0,.726-3.116,7.839,7.839,0,0,0-2.842-5.83,10.42,10.42,0,0,0-13.5,0,7.839,7.839,0,0,0-2.842,5.83h1.28a6.571,6.571,0,0,1,2.4-4.866,9.145,9.145,0,0,1,11.82,0,6.571,6.571,0,0,1,2.4,4.866,5.557,5.557,0,0,1-.588,2.539,6.337,6.337,0,0,1-1.729,2.079.64.64,0,0,0-.172.785l1.188,2.379-3.59-1.342a.6.6,0,0,0-.483.011,8.25,8.25,0,0,1-8.9-1.394,6.805,6.805,0,0,1-2.352-5.058h-.641" transform="translate(-11.317 79.319)" fill="#b3b3b3"/>
    
  </g>
</svg>
