<svg xmlns="http://www.w3.org/2000/svg" width="47.223" height="47.223" viewBox="0 0 47.223 47.223">
  <g id="Group_174" data-name="Group 174" transform="translate(-7.254 -312.852)">
    <path id="Path_220" data-name="Path 220" d="M22.612,0A22.612,22.612,0,1,1,0,22.612,22.612,22.612,0,0,1,22.612,0Z" transform="translate(8.254 313.852)" fill="#fff"/>
    <path id="Path_220_-_Outline" data-name="Path 220 - Outline" d="M22.612-1A23.618,23.618,0,0,1,31.8,44.368,23.618,23.618,0,0,1,13.421.856,23.465,23.465,0,0,1,22.612-1Zm0,45.223A21.618,21.618,0,0,0,31.024,2.7,21.618,21.618,0,0,0,14.2,42.525,21.475,21.475,0,0,0,22.612,44.223Z" transform="translate(8.254 313.852)" fill="#b3b3b3"/>
    <g id="Group_173" data-name="Group 173">
      <path id="Path_221" data-name="Path 221" d="M943.981,327.685h-.621a.624.624,0,0,1-.184.441.618.618,0,0,1-.437.178H926.584a.619.619,0,0,1-.439-.178.633.633,0,0,1-.184-.441V314.016a.615.615,0,0,1,.184-.435.6.6,0,0,1,.439-.188h16.154a.635.635,0,0,1,.621.623v13.669H944.6V314.016a1.875,1.875,0,0,0-1.864-1.866H926.584a1.876,1.876,0,0,0-1.866,1.866v13.669a1.865,1.865,0,0,0,1.866,1.864h16.154a1.864,1.864,0,0,0,1.864-1.864h-.621" transform="translate(-908.164 15.557)" fill="#b3b3b3"/>
      <path id="Path_222" data-name="Path 222" d="M943.132,327.049l.278-.552-7.112-3.556v-5.449l6.213-3.107v12.663h.621l.278-.552-.278.552h.621V313.38a.619.619,0,0,0-.9-.554l-7.456,3.728a.618.618,0,0,0-.343.554v6.211a.625.625,0,0,0,.343.56l7.456,3.728a.624.624,0,0,0,.9-.558h-.621" transform="translate(-897.374 16.193)" fill="#b3b3b3"/>
    </g>
  </g>
</svg>
