<svg xmlns="http://www.w3.org/2000/svg" width="47.223" height="47.223" viewBox="0 0 47.223 47.223">
  <g id="Group_174" data-name="Group 174" transform="translate(-7.254 -312.852)">
    <circle id="Ellipse_29" data-name="Ellipse 29" cx="22.612" cy="22.612" r="22.612" transform="translate(8.254 313.852)" fill="#fff"/>
    <path id="Ellipse_29_-_Outline" data-name="Ellipse 29 - Outline" d="M22.612-1A23.618,23.618,0,0,1,31.8,44.368,23.618,23.618,0,0,1,13.421.856,23.465,23.465,0,0,1,22.612-1Zm0,45.223A21.618,21.618,0,0,0,31.024,2.7,21.618,21.618,0,0,0,14.2,42.525,21.475,21.475,0,0,0,22.612,44.223Z" transform="translate(8.254 313.852)" fill="#b3b3b3"/>
    <path id="Path_220" data-name="Path 220" d="M944.94,28.384q0,3.953,0,7.9a2.99,2.99,0,0,1-3.235,3.242q-4.526.007-9.052,0a3.014,3.014,0,0,1-3.258-3.235c0-1.241-.007-2.482,0-3.726,0-.845.443-1.356,1.131-1.342.67.016,1.068.495,1.075,1.324.007,1.241,0,2.482,0,3.726,0,.8.243,1.039,1.039,1.041q4.556.01,9.115,0c.717,0,.98-.261.98-.965q.007-7.963,0-15.928c0-.706-.263-.965-.98-.967q-4.59-.007-9.18,0c-.713,0-.967.259-.974.974-.013,1.264,0,2.527,0,3.791,0,.825-.407,1.311-1.073,1.324-.688.016-1.126-.495-1.133-1.34-.007-1.286-.011-2.57,0-3.854a2.974,2.974,0,0,1,3.062-3.105q4.718-.034,9.436,0a2.944,2.944,0,0,1,3.042,3.107C944.947,23.033,944.938,25.708,944.94,28.384Z" transform="translate(-903.626 308.081)" fill="#b3b3b3"/>
    <path id="Path_221" data-name="Path 221" d="M945.744,25.443c-1.873,1.88-3.692,3.719-5.531,5.538a1.051,1.051,0,0,1-1.551,0,1.068,1.068,0,0,1,.022-1.556c.724-.758,1.477-1.488,2.217-2.233.16-.162.313-.333.589-.632h-.875q-6.806,0-13.612,0a3.21,3.21,0,0,1-.764-.054,1,1,0,0,1-.814-1.079.987.987,0,0,1,.805-1.019,3.211,3.211,0,0,1,.764-.061q6.772,0,13.547,0h.886a5.166,5.166,0,0,0-.337-.443c-.769-.773-1.547-1.54-2.311-2.318a1.107,1.107,0,0,1-.126-1.65A1.083,1.083,0,0,1,940.3,20C942.108,21.792,943.9,23.6,945.744,25.443Z" transform="translate(-908.571 311.015)" fill="#b3b3b3"/>
  </g>
</svg>
