<svg xmlns="http://www.w3.org/2000/svg" width="47.223" height="47.223" viewBox="0 0 47.223 47.223">
  <g id="Group_175" data-name="Group 175" transform="translate(-7.254 -206.971)">
    <circle id="Ellipse_25" data-name="Ellipse 25" cx="22.612" cy="22.612" r="22.612" transform="translate(8.254 207.971)" fill="#fff"/>
    <path id="Ellipse_25_-_Outline" data-name="Ellipse 25 - Outline" d="M22.612-1A23.618,23.618,0,0,1,31.8,44.367,23.618,23.618,0,0,1,13.421.856,23.465,23.465,0,0,1,22.612-1Zm0,45.223A21.618,21.618,0,0,0,31.024,2.7,21.618,21.618,0,0,0,14.2,42.525,21.476,21.476,0,0,0,22.612,44.223Z" transform="translate(8.254 207.971)" fill="#b3b3b3"/>
    <g id="Group_174" data-name="Group 174" transform="translate(-320.429 38.84)">
      <path id="Path_130" data-name="Path 130" d="M335.9,179.418h25.877a.636.636,0,1,0,0-1.271H335.9a.636.636,0,1,0,0,1.271" transform="translate(0 4.595)" fill="#b3b3b3"/>
      <path id="Path_131" data-name="Path 131" d="M336.277,177.9a.649.649,0,0,0-.651.641.646.646,0,1,0,.651-.641" transform="translate(3.508 2.293)" fill="#b3b3b3"/>
      <path id="Path_132" data-name="Path 132" d="M336.519,177.9a.641.641,0,1,0,.651.641.649.649,0,0,0-.651-.641" transform="translate(5.85 2.293)" fill="#b3b3b3"/>
      <path id="Path_133" data-name="Path 133" d="M336.779,177.9a.65.65,0,0,0-.651.641.646.646,0,1,0,.651-.641" transform="translate(8.183 2.293)" fill="#b3b3b3"/>
      <path id="Path_134" data-name="Path 134" d="M347.544,198.03h-9.049a1.925,1.925,0,0,1-1.942-1.912V180.83a1.938,1.938,0,0,1,1.942-1.912h20.691a1.946,1.946,0,0,1,1.942,1.912v10.192a.646.646,0,0,0,1.291,0V180.83a3.207,3.207,0,0,0-3.234-3.184H338.494a3.216,3.216,0,0,0-3.243,3.184v15.288a3.216,3.216,0,0,0,3.243,3.184h9.049a.636.636,0,1,0,0-1.271" transform="translate(0 0)" fill="#b3b3b3"/>
      <path id="Path_135" data-name="Path 135" d="M347.293,180.281v8.279h-9.06v-8.279a.646.646,0,0,0-1.291,0v8.92a.609.609,0,0,0,.186.448.663.663,0,0,0,.465.193h10.351a.667.667,0,0,0,.641-.641v-8.92a.646.646,0,0,0-1.291,0" transform="translate(15.777 18.38)" fill="#b3b3b3"/>
      <path id="Path_136" data-name="Path 136" d="M341.79,185.762v-.641h-3.244v-3.814h2.593v4.455h.651v0h.641v-5.1a.668.668,0,0,0-.641-.641h-3.884a.662.662,0,0,0-.465.193.608.608,0,0,0-.186.447v5.1a.608.608,0,0,0,.186.448.662.662,0,0,0,.465.193h3.884a.632.632,0,0,0,.444-.193.62.62,0,0,0,.2-.448h-.641" transform="translate(18.698 21.819)" fill="#b3b3b3"/>
      <path id="Path_137" data-name="Path 137" d="M337.859,187.25l6.663-6.561,6.653,6.561a.656.656,0,0,0,.909,0,.626.626,0,0,0,0-.905l-7.118-7a.62.62,0,0,0-.909,0l-7.118,7a.643.643,0,0,0,0,.905.669.669,0,0,0,.919,0" transform="translate(14.023 13.78)" fill="#b3b3b3"/>
    </g>
  </g>
</svg>
