<svg xmlns="http://www.w3.org/2000/svg" width="47.223" height="47.223" viewBox="0 0 47.223 47.223">
  <g id="Group_174" data-name="Group 174" transform="translate(-7.254 -312.852)">
    <circle id="Ellipse_29" data-name="Ellipse 29" cx="22.612" cy="22.612" r="22.612" transform="translate(8.254 313.852)" fill="#fff"/>
    <path id="Ellipse_29_-_Outline" data-name="Ellipse 29 - Outline" d="M22.612-1A23.618,23.618,0,0,1,31.8,44.368,23.618,23.618,0,0,1,13.421.856,23.465,23.465,0,0,1,22.612-1Zm0,45.223A21.618,21.618,0,0,0,31.024,2.7,21.618,21.618,0,0,0,14.2,42.525,21.475,21.475,0,0,0,22.612,44.223Z" transform="translate(8.254 313.852)" fill="#b3b3b3"/>
    <g id="Toggle" transform="translate(19.5 324.493)">
      <rect id="Rectangle_197" data-name="Rectangle 197" width="6" height="6" fill="#b3b3b3"/>
      <rect id="Rectangle_198" data-name="Rectangle 198" width="6" height="6" transform="translate(9)" fill="#b3b3b3"/>
      <rect id="Rectangle_199" data-name="Rectangle 199" width="6" height="6" transform="translate(18)" fill="#b3b3b3"/>
      <rect id="Rectangle_200" data-name="Rectangle 200" width="6" height="6" transform="translate(0 9)" fill="#b3b3b3"/>
      <rect id="Rectangle_201" data-name="Rectangle 201" width="6" height="6" transform="translate(9 9)" fill="#b3b3b3"/>
      <rect id="Rectangle_202" data-name="Rectangle 202" width="6" height="6" transform="translate(18 9)" fill="#b3b3b3"/>
      <rect id="Rectangle_203" data-name="Rectangle 203" width="6" height="6" transform="translate(0 18)" fill="#b3b3b3"/>
      <rect id="Rectangle_204" data-name="Rectangle 204" width="6" height="6" transform="translate(9 18)" fill="#b3b3b3"/>
      <rect id="Rectangle_205" data-name="Rectangle 205" width="6" height="6" transform="translate(18 18)" fill="#b3b3b3"/>
    </g>
  </g>
</svg>
