<svg xmlns="http://www.w3.org/2000/svg" width="45.223" height="45.223" viewBox="0 0 45.223 45.223">
  <g id="Group_180" data-name="Group 180" transform="translate(-688.332 -164.75)">
    <g id="_4b" data-name="4b" transform="translate(688.332 164.75)">
      <circle id="Ellipse_30" data-name="Ellipse 30" cx="22.612" cy="22.612" r="22.612" fill="#5a5a5a"/>
    </g>
    <g id="_5b" data-name="5b" transform="translate(773.969 143.222)">
      <path id="Path_19" data-name="Path 19" d="M930.391,287.164c0-.61,0-1.185,0-1.76.006-2.857,1.455-3.874,3.95-2.975a14.147,14.147,0,0,1,1.536-2.232,2.311,2.311,0,0,1,1.546-.419c1.453.04,1.979.839,2.48,3.536a9.021,9.021,0,0,1,1.47-.372,2.489,2.489,0,0,1,2.7,2.623q.04,4.051,0,8.1a1.217,1.217,0,0,0,.712,1.312A2.252,2.252,0,0,1,946,297.114c0,2.6.07,5.192-.015,7.785a9.934,9.934,0,0,1-10.224,9.378,9.825,9.825,0,0,1-9.62-9.741c-.019-4.742-.026-9.48-.051-14.218C926.073,287.209,927.379,286.208,930.391,287.164Zm12.849,7.348c0-3.082.038-6.127-.019-9.164a1.67,1.67,0,0,0-2.321-1.48,1.838,1.838,0,0,0-1.123,1.922c.015,2.975.017,5.949-.013,8.926,0,.248-.272.493-.42.743a2.266,2.266,0,0,1-.365-.718c-.055-.546-.019-1.106-.019-1.658,0-3.53.04-7.059-.047-10.585a2.354,2.354,0,0,0-.934-1.665,1.759,1.759,0,0,0-1.682.117,2.644,2.644,0,0,0-.75,1.778c-.064,3.907-.021,7.819-.053,11.731a3.274,3.274,0,0,1-.427,1.062,3.35,3.35,0,0,1-.363-1.015c-.028-3.151-.01-6.3-.021-9.446,0-1.338-.661-2.126-1.735-2.132s-1.724.786-1.727,2.124q-.011,4.879,0,9.758a4.96,4.96,0,0,1-.017,1.034,4,4,0,0,1-.423.862,8.7,8.7,0,0,1-.38-.913,2.333,2.333,0,0,1-.011-.62c0-1.937.023-3.872-.01-5.812a1.706,1.706,0,0,0-1.633-1.8,1.743,1.743,0,0,0-1.82,1.731c-.032.378-.015.762-.011,1.142q.028,7.008.057,14.01a9.1,9.1,0,0,0,18.173.527c.119-2.591.045-5.188.025-7.785a1.7,1.7,0,1,0-3.406-.019c-.028.9.013,1.8-.013,2.7a4.444,4.444,0,0,1-2.761,4.267,3.929,3.929,0,0,0-2.483,2.967c-.04.2-.308.359-.469.535-.106-.238-.333-.5-.3-.711a4.353,4.353,0,0,1,2.782-3.474,3.733,3.733,0,0,0,2.4-3.663c.01-.588.044-1.181,0-1.763C940.778,296.258,941.34,294.964,943.241,294.512Z" transform="translate(-999.185 -253.263)" fill="#fff" fill-rule="evenodd"/>
    </g>
  </g>
</svg>
