<svg xmlns="http://www.w3.org/2000/svg" width="43.56" height="43.56" viewBox="0 0 43.56 43.56">
  <g id="_14a" data-name="14a" transform="translate(-30.571 9.008)">
    <path id="Path_92" data-name="Path 92" d="M20.78,0A20.78,20.78,0,1,1,0,20.78,20.78,20.78,0,0,1,20.78,0Z" transform="translate(31.571 -8.008)" fill="#fff" stroke="#b3b3b3" stroke-width="2"/>
    <g id="Group_179" data-name="Group 179" transform="translate(-443.708 -375.114)">
      <path id="Path_263" data-name="Path 263" d="M413.54,104.819c0,1.631.019,3.263,0,4.893a5.427,5.427,0,0,1-3.236,5.153,5.5,5.5,0,0,1-7.614-3.568,6.729,6.729,0,0,1-.208-1.59c-.019-3.253-.013-6.506-.008-9.759a5.526,5.526,0,0,1,10.852-1.584,6.536,6.536,0,0,1,.209,1.618C413.557,101.594,413.54,103.207,413.54,104.819Zm-1.737,0c0-1.621.008-3.242-.006-4.863a4.861,4.861,0,0,0-.126-1.117,3.79,3.79,0,0,0-7.453.811c-.026,3.458-.034,6.917,0,10.376a3.792,3.792,0,0,0,7.579-.2C411.813,108.156,411.8,106.488,411.8,104.82Z" transform="translate(88.055 279.111)" fill="#b3b3b3"/>
      <path id="Path_264" data-name="Path 264" d="M343.22,365.468v-2.311c-.377-.066-.749-.114-1.112-.2a9.268,9.268,0,0,1-6.342-4.848,9.088,9.088,0,0,1-1.06-4.29.859.859,0,0,1,1.714-.1,17.384,17.384,0,0,0,.32,2.143,7.217,7.217,0,0,0,3.793,4.694,7.655,7.655,0,0,0,11.136-5.691c.06-.4.059-.808.11-1.209a.826.826,0,0,1,.813-.723.849.849,0,0,1,.888.863,9.4,9.4,0,0,1-6.672,8.973c-.589.184-1.208.273-1.837.41v2.272c.111.005.212.013.313.013.9,0,1.791,0,2.686,0a1.633,1.633,0,0,1,.5.065.845.845,0,0,1,.544.922.866.866,0,0,1-.754.732,1.611,1.611,0,0,1-.2.007q-3.973,0-7.946,0a.863.863,0,0,1-.944-.972.874.874,0,0,1,.966-.754c.914-.006,1.829,0,2.743,0Z" transform="translate(151.967 35.163)" fill="#b3b3b3"/>
    </g>
    <path id="Path_260" data-name="Path 260" d="M0,24.717,20.682,4.248,24.975,0" transform="translate(39.288 -0.244)" fill="none" stroke="#fa0f00" stroke-linecap="round" stroke-width="1.2"/>
  </g>
</svg>
