<svg xmlns="http://www.w3.org/2000/svg" width="47.223" height="47.223" viewBox="0 0 47.223 47.223">
  <g id="Group_177" data-name="Group 177" transform="translate(-7.254 -206.971)">
    <circle id="Ellipse_25" data-name="Ellipse 25" cx="22.612" cy="22.612" r="22.612" transform="translate(8.254 207.971)" fill="#fff"/>
    <path id="Ellipse_25_-_Outline" data-name="Ellipse 25 - Outline" d="M22.612-1A23.618,23.618,0,0,1,31.8,44.367,23.618,23.618,0,0,1,13.421.856,23.465,23.465,0,0,1,22.612-1Zm0,45.223A21.618,21.618,0,0,0,31.024,2.7,21.618,21.618,0,0,0,14.2,42.525,21.476,21.476,0,0,0,22.612,44.223Z" transform="translate(8.254 207.971)" fill="#b3b3b3"/>
    <g id="Group_176" data-name="Group 176" transform="translate(18.152 217.425)">
      <path id="Path_88" data-name="Path 88" d="M931.368,349.009l4.172,4.173a.611.611,0,0,0,.65.131.6.6,0,0,0,.368-.554V342.628a.6.6,0,1,0-1.191,0v8.694l-3.156-3.158a.6.6,0,0,0-.842.844" transform="translate(-921.063 -328.326)" fill="#b3b3b3"/>
      <path id="Path_89" data-name="Path 89" d="M941.731,342.476v-6.554a.594.594,0,0,0-.368-.55.6.6,0,0,0-.65.125l-8.169,8.171H928.62a2.382,2.382,0,0,0-2.383,2.383v3.577a2.383,2.383,0,0,0,2.383,2.383h2.98a.6.6,0,0,0,0-1.192h-2.98a1.189,1.189,0,0,1-1.192-1.192V346.05a1.193,1.193,0,0,1,1.192-1.192h4.171a.6.6,0,0,0,.423-.172l7.325-7.325v5.114a.6.6,0,0,0,1.191,0" transform="translate(-926.237 -335.325)" fill="#b3b3b3"/>
      <path id="Path_90" data-name="Path 90" d="M936.81,341.753a2.383,2.383,0,0,1-2.383,2.383h-.595a.6.6,0,1,0,0,1.191h.595A3.572,3.572,0,0,0,938,341.753a.6.6,0,1,0-1.192,0" transform="translate(-918.933 -329.239)" fill="#b3b3b3"/>
      <path id="Path_91" data-name="Path 91" d="M927.838,360.18l23.837-23.837a.6.6,0,0,0,0-.848.613.613,0,0,0-.844,0l-23.837,23.837a.6.6,0,0,0,.844.848" transform="translate(-925.629 -335.324)" fill="#b3b3b3"/>
    </g>
  </g>
</svg>
