<svg xmlns="http://www.w3.org/2000/svg" width="47.223" height="47.223" viewBox="0 0 47.223 47.223">
  <g id="Group_178" data-name="Group 178" transform="translate(-7.255 -206.971)">
    <circle id="Ellipse_25" data-name="Ellipse 25" cx="22.612" cy="22.612" r="22.612" transform="translate(8.255 207.971)" fill="#fff" stroke="#b3b3b3" stroke-width="2"/>
    <path id="Path_260" data-name="Path 260" d="M7.128-22.011a10.467,10.467,0,0,0-5.016,1.155c-.132.066-.132.2-.132.33v3.2c0,.132.132.2.264.132A8.382,8.382,0,0,1,6.4-18.282c2.013,0,2.805.825,2.805,2.013,0,1.023-.627,1.716-1.716,2.8C5.907-11.88,4.95-10.89,4.95-9.339a3.608,3.608,0,0,0,.792,2.277.554.554,0,0,0,.429.132H9.042a.141.141,0,0,0,.132-.231,3.477,3.477,0,0,1-.528-1.815c0-.99,1.221-2.079,2.508-3.3a5.828,5.828,0,0,0,2.112-4.554C13.266-19.734,11.088-22.011,7.128-22.011ZM7.425.33a2.133,2.133,0,0,0,2.31-2.31,2.192,2.192,0,0,0-2.31-2.277A2.191,2.191,0,0,0,5.115-1.98,2.165,2.165,0,0,0,7.425.33Z" transform="translate(23.531 242.688)" fill="#b3b3b3"/>
  </g>
</svg>
