<svg xmlns="http://www.w3.org/2000/svg" width="47.223" height="47.223" viewBox="0 0 47.223 47.223">
  <g id="Group_173" data-name="Group 173" transform="translate(-7.254 -365.997)">
    <circle id="Ellipse_26" data-name="Ellipse 26" cx="22.612" cy="22.612" r="22.612" transform="translate(8.254 366.997)" fill="#fff"/>
    <path id="Ellipse_26_-_Outline" data-name="Ellipse 26 - Outline" d="M22.612-1A23.618,23.618,0,0,1,31.8,44.368,23.618,23.618,0,0,1,13.421.856,23.465,23.465,0,0,1,22.612-1Zm0,45.223A21.618,21.618,0,0,0,31.024,2.7,21.618,21.618,0,0,0,14.2,42.525,21.475,21.475,0,0,0,22.612,44.223Z" transform="translate(8.254 366.997)" fill="#b3b3b3"/>
    <g id="Group_140" data-name="Group 140" transform="translate(16.666 375.464)">
      <path id="Path_107" data-name="Path 107" d="M48.387,213.123c-4.479,0-8.96-.025-13.439.021-.953.011-1.372-.179-1.294-1.23.094-1.234.016-2.482.025-3.723.011-1.846.623-2.484,2.468-2.487q10.18-.017,20.359,0c1.465,0,2.929-.023,4.392.007,1.6.032,2.239.7,2.26,2.292.016,1.33-.057,2.665.023,3.991.06.982-.334,1.161-1.22,1.152C57.436,213.1,52.911,213.123,48.387,213.123Zm1.186-1.589c.03.108.06.218.089.323,1.017-.172,2.184.426,3.034-.3,1.564-1.335,2.961-2.86,4.593-4.47-1.9-.238-3.35-.263-4.522,1.257A32.814,32.814,0,0,1,49.573,211.534Zm-2.219-4.227c-1.209-.256-2.37-.728-3.21-.034-1.578,1.3-2.99,2.807-4.472,4.229,1.218.263,2.375.742,3.215.044C44.464,210.24,45.875,208.731,47.354,207.307Zm-2.727,4.225.151.327c.987-.147,2.157.405,2.931-.252,1.582-1.346,2.965-2.926,4.655-4.641-1.4.16-2.551-.419-3.476.426C47.43,208.729,46.044,210.147,44.627,211.532Zm9.848,0c.039.105.076.211.114.316.987-.105,2.143.4,2.924-.222a49.489,49.489,0,0,0,3.982-3.895c.24-.243.392-.657-.08-.673-.973-.037-2.01-.426-2.876.467C57.216,208.885,55.831,210.195,54.475,211.527Zm-19.223.433c1.12-.279,2.04.243,2.736-.389,1.525-1.381,2.974-2.844,4.744-4.554-1.349-.025-2.645-.44-3.059.128C38.451,208.828,36.727,210.007,35.252,211.96Zm2.7-4.852c-3.089-.456-3.693.172-2.768,2.924C36.113,209.057,37.011,208.109,37.957,207.108Zm23.812,2.182a15.826,15.826,0,0,0-2.413,2.473C62.146,212,62.169,211.976,61.768,209.29Z" transform="translate(-33.645 -205.691)" fill="#b3b3b3" fill-rule="evenodd"/>
      <path id="Path_108" data-name="Path 108" d="M48.4,209.455c4.532,0,9.063.025,13.592-.023.937-.009,1.2.259,1.2,1.193-.044,4.841-.014,9.681-.025,14.522,0,1.848-.808,2.743-2.656,2.75q-12.059.048-24.118,0c-1.905-.009-2.707-.9-2.709-2.832-.009-4.8.027-9.6-.027-14.391-.011-1.033.325-1.255,1.291-1.246C39.424,209.48,43.91,209.455,48.4,209.455Zm.078,1.28c-4.09,0-8.175.041-12.26-.027-1.085-.021-1.312.327-1.3,1.34.053,4.264.016,8.527.023,12.793,0,1.525.277,1.827,1.763,1.83,7.817.014,15.637,0,23.454.016,1.2,0,1.777-.447,1.765-1.736q-.069-6.529,0-13.059c.011-.943-.268-1.188-1.193-1.179C56.646,210.763,52.559,210.735,48.474,210.735Z" transform="translate(-33.643 -200.867)" fill="#b3b3b3" fill-rule="evenodd"/>
      <path id="Path_109" data-name="Path 109" d="M37.955,216.562c0-1.463.011-2.929,0-4.394-.011-.973.343-1.351,1.294-.877,3.016,1.509,6.04,3,9.04,4.534q1.449.738.009,1.479c-3,1.534-6.022,3.027-9.04,4.527-.907.451-1.326.144-1.307-.872C37.974,219.5,37.955,218.03,37.955,216.562Zm9.063,0c-2.542-1.269-4.829-2.4-7.105-3.558-.675-.344-.744-.009-.742.543.009,2.038.016,4.078,0,6.118-.007.728.279.694.8.428C42.214,218.957,44.472,217.837,47.018,216.564Z" transform="translate(-28.095 -198.732)" fill="#b3b3b3" fill-rule="evenodd"/>
    </g>
  </g>
</svg>
