<svg xmlns="http://www.w3.org/2000/svg" width="47.223" height="47.223" viewBox="0 0 47.223 47.223">
  <g id="_4a" data-name="4a" transform="translate(1 1)">
    <circle id="Ellipse_30" data-name="Ellipse 30" cx="22.612" cy="22.612" r="22.612" fill="#fff" stroke="#b3b3b3" stroke-width="2"/>
    <g id="Group_141" data-name="Group 141" transform="translate(7.851 7.853)">
      <path id="Path_112" data-name="Path 112" d="M38.788,136.037H33.87a.626.626,0,0,0-.616.616v25.829a.626.626,0,0,0,.616.616H62.16a.591.591,0,0,0,.435-.185.583.583,0,0,0,.179-.43V136.653a.58.58,0,0,0-.179-.43.587.587,0,0,0-.435-.186H57.24a.636.636,0,0,0-.614.616.6.6,0,0,0,.614.614h4.307l0,24.6H34.484v-24.6h4.3a.6.6,0,0,0,.616-.614.636.636,0,0,0-.616-.616" transform="translate(-33.254 -133.578)" fill="#b3b3b3"/>
      <path id="Path_113" data-name="Path 113" d="M39.708,140.5v-.616H36.633v-3.689h2.459v4.3h.616v0h.616v-4.921a.622.622,0,0,0-.616-.614H36.017a.622.622,0,0,0-.614.614V140.5a.622.622,0,0,0,.614.614h3.691a.622.622,0,0,0,.616-.614h-.616" transform="translate(-30.482 -134.963)" fill="#b3b3b3"/>
      <path id="Path_114" data-name="Path 114" d="M46.154,140.5v-.616H43.079v-3.689H45.54v4.3h.614v0h.616v-4.921a.622.622,0,0,0-.616-.614H42.465a.622.622,0,0,0-.616.614V140.5a.622.622,0,0,0,.616.614h3.689a.622.622,0,0,0,.616-.614h-.616" transform="translate(-22.168 -134.963)" fill="#b3b3b3"/>
      <path id="Path_115" data-name="Path 115" d="M37.63,137.267H48.7a.6.6,0,0,0,.614-.614.636.636,0,0,0-.614-.616H37.63a.638.638,0,0,0-.616.616.6.6,0,0,0,.616.614" transform="translate(-28.404 -133.578)" fill="#b3b3b3"/>
      <path id="Path_116" data-name="Path 116" d="M33.87,139.953H62.16a.6.6,0,0,0,.614-.616.635.635,0,0,0-.614-.614H33.87a.637.637,0,0,0-.616.614.6.6,0,0,0,.616.616" transform="translate(-33.254 -130.113)" fill="#b3b3b3"/>
      <path id="Path_117" data-name="Path 117" d="M36.477,140.413v14.76a.615.615,0,0,0,1.23,0v-14.76a.615.615,0,1,0-1.23,0" transform="translate(-29.097 -128.728)" fill="#b3b3b3"/>
      <path id="Path_118" data-name="Path 118" d="M39.432,140.413v14.76a.615.615,0,0,0,1.23,0v-14.76a.615.615,0,1,0-1.23,0" transform="translate(-25.286 -128.728)" fill="#b3b3b3"/>
      <path id="Path_119" data-name="Path 119" d="M42.386,140.413v14.76a.615.615,0,0,0,1.23,0v-14.76a.615.615,0,1,0-1.23,0" transform="translate(-21.476 -128.728)" fill="#b3b3b3"/>
      <path id="Path_120" data-name="Path 120" d="M34.943,142.1h23.37a.6.6,0,0,0,.616-.616.638.638,0,0,0-.616-.616H34.943a.637.637,0,0,0-.614.616.6.6,0,0,0,.614.616" transform="translate(-31.867 -127.343)" fill="#b3b3b3"/>
      <path id="Path_121" data-name="Path 121" d="M34.943,144.25h23.37a.6.6,0,0,0,.616-.614.636.636,0,0,0-.616-.616H34.943a.636.636,0,0,0-.614.616.6.6,0,0,0,.614.614" transform="translate(-31.867 -124.571)" fill="#b3b3b3"/>
      <path id="Path_122" data-name="Path 122" d="M34.943,146.4h23.37a.6.6,0,0,0,.616-.616.636.636,0,0,0-.616-.614H34.943a.635.635,0,0,0-.614.614.6.6,0,0,0,.614.616" transform="translate(-31.867 -121.799)" fill="#b3b3b3"/>
    </g>
  </g>
</svg>
