<svg xmlns="http://www.w3.org/2000/svg" width="47.223" height="47.223" viewBox="0 0 47.223 47.223">
  <g id="_11a" data-name="11a" transform="translate(-7.254 -310.907)">
    <circle id="Ellipse_29" data-name="Ellipse 29" cx="22.612" cy="22.612" r="22.612" transform="translate(8.254 311.907)" fill="#fff" stroke="#b3b3b3" stroke-width="2"/>
    <path id="Path_123" data-name="Path 123" d="M41.2,202.657H34.564v-19.3h19.3v6.636a.6.6,0,0,0,1.207,0l0-7.238a.583.583,0,0,0-.176-.421.6.6,0,0,0-.426-.183H33.962a.6.6,0,0,0-.428.183.593.593,0,0,0-.176.421V203.26a.6.6,0,0,0,.6.6H41.2a.6.6,0,0,0,0-1.207" transform="translate(-17.351 138.465)" fill="#b3b3b3"/>
    <path id="Path_124" data-name="Path 124" d="M57.628,206.421v-.6H37.722v-19.3h19.3l0,19.9h.6v0h.6V185.915a.589.589,0,0,0-.176-.421.6.6,0,0,0-.426-.183H37.123a.6.6,0,0,0-.428.183.589.589,0,0,0-.176.421v20.505a.608.608,0,0,0,.176.428.6.6,0,0,0,.428.174H57.628a.6.6,0,0,0,.426-.174.608.608,0,0,0,.176-.428h-.6" transform="translate(-13.274 142.542)" fill="#b3b3b3"/>
  </g>
</svg>
