<svg xmlns="http://www.w3.org/2000/svg" width="47.223" height="47.223" viewBox="0 0 47.223 47.223">
  <g id="Group_174" data-name="Group 174" transform="translate(-7.254 -153.166)">
    <g id="Group_176" data-name="Group 176">
      <g id="Group_177" data-name="Group 177">
        <path id="Path_219" data-name="Path 219" d="M22.612,0A22.612,22.612,0,1,1,0,22.612,22.612,22.612,0,0,1,22.612,0Z" transform="translate(8.254 154.166)" fill="#fff"/>
        <path id="Path_219_-_Outline" data-name="Path 219 - Outline" d="M22.612-1A23.618,23.618,0,0,1,31.8,44.368,23.618,23.618,0,0,1,13.421.856,23.465,23.465,0,0,1,22.612-1Zm0,45.223A21.618,21.618,0,0,0,31.024,2.7,21.618,21.618,0,0,0,14.2,42.525,21.475,21.475,0,0,0,22.612,44.223Z" transform="translate(8.254 154.166)" fill="#b3b3b3"/>
        <path id="Path_220" data-name="Path 220" d="M260.814,529.7v-.615h-4.268a2.439,2.439,0,0,0-2.446,2.436v3.664a2.442,2.442,0,0,0,2.446,2.446h4.015l8.361,8.362a.632.632,0,0,0,.672.136.619.619,0,0,0,.37-.565V521.151a.618.618,0,0,0-.37-.565.629.629,0,0,0-.672.127l-8.537,8.546.429.439h0l.429.429,7.5-7.5V544.1l-7.5-7.5a.613.613,0,0,0-.429-.185h-4.268a1.221,1.221,0,0,1-1.228-1.218v-3.664a1.234,1.234,0,0,1,1.228-1.218h4.268a.589.589,0,0,0,.429-.175l-.429-.429" transform="translate(-236.125 -356.397)" fill="#b3b3b3"/>
        <path id="Path_221" data-name="Path 221" d="M256.226,522.459a5.762,5.762,0,0,1,1.579,1.647,4,4,0,0,1,0,4.259,6,6,0,0,1-1.569,1.647.607.607,0,1,0,.712.984,7.147,7.147,0,0,0,1.9-2,5.23,5.23,0,0,0,0-5.526,7.178,7.178,0,0,0-1.9-2.007.616.616,0,0,0-.848.136.608.608,0,0,0,.127.857" transform="translate(-219.697 -349.276)" fill="#b3b3b3"/>
      </g>
    </g>
  </g>
</svg>
