<svg xmlns="http://www.w3.org/2000/svg" width="53.023" height="53.655" viewBox="0 0 53.023 53.655">
  <g id="ICON_1" data-name="ICON 1" transform="translate(1 1)">
    <rect id="Rectangle_178" data-name="Rectangle 178" width="51.023" height="51.655" fill="#fff"/>
    <path id="Rectangle_178_-_Outline" data-name="Rectangle 178 - Outline" d="M-1-1H52.023V52.655H-1ZM50.023,1H1V50.655H50.023Z" fill="#b3b3b3"/>
    <path id="Path_153" data-name="Path 153" d="M254.532,355.539V357.4l-3.675,1.312a2.747,2.747,0,0,0-1.825,2.589v1.874h15.715V361.3a2.748,2.748,0,0,0-1.826-2.589l-3.675-1.312v-2.02h-.786v2.573l4.2,1.5a1.966,1.966,0,0,1,1.3,1.851v1.088H249.817V361.3a1.967,1.967,0,0,1,1.3-1.851l4.2-1.5v-2.412h-.786" transform="translate(-241.414 -319.753)" fill="#b3b3b3"/>
    <path id="Path_153_-_Outline" data-name="Path 153 - Outline" d="M265.247,363.672H248.532V361.3a3.253,3.253,0,0,1,2.157-3.06l3.343-1.193v-2.006h1.786V358.3l-4.529,1.615a1.468,1.468,0,0,0-.972,1.38v.588H263.46V361.3a1.468,1.468,0,0,0-.972-1.38L257.96,358.3v-3.426h1.786v2.167l3.343,1.193a3.253,3.253,0,0,1,2.158,3.06Z" transform="translate(-241.414 -319.753)" fill="#b3b3b3"/>
    <path id="Path_154" data-name="Path 154" d="M263.4,344.285h-.393a4.826,4.826,0,0,1-1.06,3.084,3.1,3.1,0,0,1-4.952,0,5.013,5.013,0,0,1,0-6.164,3.09,3.09,0,0,1,4.952,0,4.814,4.814,0,0,1,1.06,3.08h.785a5.594,5.594,0,0,0-1.241-3.583,3.875,3.875,0,0,0-6.16,0,5.8,5.8,0,0,0,0,7.17,3.881,3.881,0,0,0,6.16,0,5.612,5.612,0,0,0,1.241-3.587H263.4" transform="translate(-244.097 -312.651)" fill="#b3b3b3"/>
    <path id="Path_154_-_Outline" data-name="Path 154 - Outline" d="M259.474,349.892a4.541,4.541,0,0,1-3.465-1.7,6.3,6.3,0,0,1,0-7.81,4.374,4.374,0,0,1,6.928,0,6.009,6.009,0,0,1,1.338,3.4h.019v1h-.019a6.033,6.033,0,0,1-1.338,3.407A4.538,4.538,0,0,1,259.474,349.892Zm0-9.428a2.741,2.741,0,0,0-2.093,1.063,4.515,4.515,0,0,0,0,5.523,2.6,2.6,0,0,0,4.185,0,4.513,4.513,0,0,0,0-5.523A2.738,2.738,0,0,0,259.474,340.463Z" transform="translate(-244.097 -312.651)" fill="#b3b3b3"/>
    <path id="Path_155" data-name="Path 155" d="M263.535,345.326a3.375,3.375,0,0,0-.4.039h0a3.145,3.145,0,0,1-.577.06,1.733,1.733,0,0,1-1.054-.319,3.2,3.2,0,0,1-.887-1.065l-.357-.625-.332.637a2.4,2.4,0,0,1-1.047.907,3.591,3.591,0,0,1-1.562.4,2.724,2.724,0,0,1-1.339-.322l-.365.7a3.531,3.531,0,0,0,1.7.408,4.379,4.379,0,0,0,1.916-.483,3.124,3.124,0,0,0,1.391-1.242l-.348-.185-.341.2a3.945,3.945,0,0,0,1.118,1.316,2.52,2.52,0,0,0,1.506.463,3.633,3.633,0,0,0,.726-.075h0c.081-.016.17-.012.34-.032l-.094-.777" transform="translate(-244.302 -313.509)" fill="#b3b3b3"/>
    <path id="Path_155_-_Outline" data-name="Path 155 - Outline" d="M262.542,346.71a3.034,3.034,0,0,1-1.777-.557,3.491,3.491,0,0,1-.569-.5,4.621,4.621,0,0,1-.735.456,4.9,4.9,0,0,1-2.141.536h-.03a4.011,4.011,0,0,1-1.906-.465l-.442-.231.826-1.586.444.231a2.219,2.219,0,0,0,1.108.266h.021a3.1,3.1,0,0,0,1.316-.344,1.948,1.948,0,0,0,.827-.687l0,0,.756-1.448.811,1.418a2.762,2.762,0,0,0,.741.9,1.23,1.23,0,0,0,.767.228,2.663,2.663,0,0,0,.482-.05h0a2.4,2.4,0,0,1,.362-.04l.069,0,.5-.059.214,1.77-.5.059c-.1.011-.17.016-.224.02-.031,0-.069,0-.08.007l-.011,0a4.153,4.153,0,0,1-.81.082Z" transform="translate(-244.302 -313.509)" fill="#b3b3b3"/>
    <path id="Rectangle_176" data-name="Rectangle 176" d="M-1-1H23.135V23.577H-1ZM21.135,1H1V21.577H21.135Z" transform="translate(4.19 23.934)" fill="#b3b3b3"/>
    <path id="Path_156" data-name="Path 156" d="M295.611,332.214H276.658v-2h16.954v-29.1h-29.2v15.151h-2V299.118h33.2Z" transform="translate(-247.72 -295.528)" fill="#b3b3b3"/>
    <rect id="Rectangle_177" data-name="Rectangle 177" width="16.546" height="1.475" transform="translate(27.198 25.343)" fill="#b3b3b3"/>
    <path id="Path_157" data-name="Path 157" d="M277.24,306.872v-.624a3.739,3.739,0,0,0-3.686,3.151l.616.1.227-.58a2.493,2.493,0,1,0-.9,4.816h3.743a3.743,3.743,0,1,0,0-7.487V307.5a2.5,2.5,0,0,1,1.765,4.262,2.471,2.471,0,0,1-1.765.729H273.5a1.248,1.248,0,1,1,0-2.5,1.279,1.279,0,0,1,.448.087l.719.282.122-.762a2.49,2.49,0,0,1,2.453-2.1v-.623" transform="translate(-251.046 -298.215)" fill="#b3b3b3"/>
    <path id="Path_158" data-name="Path 158" d="M274.462,325.3a2.715,2.715,0,0,1,1.67-.731,4.134,4.134,0,0,1,1.906.518,8.791,8.791,0,0,1,2.3,1.841,10.2,10.2,0,0,1,.667.8c.078.1.135.181.175.231l.043.063.011.019a.628.628,0,0,0,1.058-.032l3.762-6.451a1.469,1.469,0,0,1,2.583.081l4.413,8.828,1.117-.555-4.413-8.828a2.717,2.717,0,0,0-4.777-.156l-3.761,6.452.538.312.52-.344a12.244,12.244,0,0,0-1.735-1.984,8.979,8.979,0,0,0-1.918-1.386,5.419,5.419,0,0,0-2.483-.654,3.256,3.256,0,0,0-1.4.331,6.2,6.2,0,0,0-1.988,1.59" transform="translate(-251.809 -304.059)" fill="#b3b3b3"/>
  </g>
</svg>
