<svg xmlns="http://www.w3.org/2000/svg" width="53.023" height="53.655" viewBox="0 0 53.023 53.655">
  <g id="Group_174" data-name="Group 174" transform="translate(-389.47 -305.313)">
    <g id="ICON_2" data-name="ICON 2" transform="translate(390.47 306.313)">
      <rect id="Rectangle_178" data-name="Rectangle 178" width="51.023" height="51.655" fill="#fff"/>
      <path id="Rectangle_178_-_Outline" data-name="Rectangle 178 - Outline" d="M-1-1H52.023V52.655H-1ZM50.023,1H1V50.655H50.023Z" fill="#5a5a5a"/>
    </g>
    <g id="ICON_2-2" data-name="ICON 2" transform="translate(390.47 307.313)">
      <path id="Path_190" data-name="Path 190" d="M488.321,351.665v2.474l-4.894,1.747a3.659,3.659,0,0,0-2.43,3.448v2.5h20.927v-2.5a3.659,3.659,0,0,0-2.431-3.448l-4.893-1.747V351.45h-1.047v3.427l5.589,1.993a2.618,2.618,0,0,1,1.736,2.464v1.449H482.042v-1.449a2.62,2.62,0,0,1,1.736-2.464l5.589-1.993v-3.212h-1.047" transform="translate(-470.239 -318.031)" fill="#5a5a5a"/>
      <path id="Path_191" data-name="Path 191" d="M500.133,336.677h-.523a6.426,6.426,0,0,1-1.411,4.108,4.124,4.124,0,0,1-6.6,0,6.679,6.679,0,0,1,0-8.209,4.116,4.116,0,0,1,6.6,0,6.41,6.41,0,0,1,1.411,4.1h1.046A7.446,7.446,0,0,0,499,331.905a5.159,5.159,0,0,0-8.2,0,7.72,7.72,0,0,0,0,9.549,5.168,5.168,0,0,0,8.2,0,7.47,7.47,0,0,0,1.653-4.778h-.523" transform="translate(-473.812 -308.573)" fill="#5a5a5a"/>
      <path id="Path_192" data-name="Path 192" d="M500.31,338.064a4.51,4.51,0,0,0-.527.052h0a4.2,4.2,0,0,1-.768.079,2.313,2.313,0,0,1-1.4-.424,4.268,4.268,0,0,1-1.182-1.418l-.475-.832-.443.848a3.2,3.2,0,0,1-1.4,1.208,4.769,4.769,0,0,1-2.08.529,3.633,3.633,0,0,1-1.783-.43l-.485.932a4.7,4.7,0,0,0,2.268.544,5.822,5.822,0,0,0,2.551-.643,4.157,4.157,0,0,0,1.852-1.653l-.464-.245-.454.261a5.241,5.241,0,0,0,1.489,1.753,3.36,3.36,0,0,0,2.006.618,4.875,4.875,0,0,0,.965-.1h0c.108-.021.226-.016.454-.043l-.125-1.035" transform="translate(-474.084 -311.048)" fill="#5a5a5a"/>
      <path id="Rectangle_217" data-name="Rectangle 217" d="M-1-1H30.477V31.066H-1ZM28.477,1H1V29.066H28.477Z" transform="translate(6.193 17.289)" fill="#5a5a5a"/>
      <path id="Path_193" data-name="Path 193" d="M524.05,298.1l10.76.124-.118,10.753a.816.816,0,0,0,1.632.017l.133-11.581a.817.817,0,0,0-.808-.825l-11.574-.126a.823.823,0,0,0-.831.813.814.814,0,0,0,.806.824" transform="translate(-488.76 -293.924)" fill="#5a5a5a"/>
      <path id="Path_194" data-name="Path 194" d="M535.091,297.15l-11.63,11.378c-.139.136,0,.5.32.833s.685.473.825.338l11.629-11.378c.139-.136,0-.511-.319-.832s-.686-.474-.826-.338" transform="translate(-488.831 -294.205)" fill="#5a5a5a"/>
    </g>
  </g>
</svg>
