<svg xmlns="http://www.w3.org/2000/svg" width="53.023" height="53.655" viewBox="0 0 53.023 53.655">
  <g id="ICON_1" data-name="ICON 1" transform="translate(1 1)">
    <rect id="Rectangle_178" data-name="Rectangle 178" width="51.023" height="51.655" fill="#fff"/>
    <path id="Rectangle_178_-_Outline" data-name="Rectangle 178 - Outline" d="M-1-1H52.023V52.655H-1ZM50.023,1H1V50.655H50.023Z" fill="#5a5a5a"/>
    <g id="Group_165" data-name="Group 165" transform="translate(-691.1 -292.842)">
      <rect id="Rectangle_218" data-name="Rectangle 218" width="24.827" height="1.089" transform="translate(699.372 330.72)" fill="#5a5a5a"/>
      <path id="Path_195" data-name="Path 195" d="M712.429,331.332v-.58a3.477,3.477,0,0,0-3.428,2.93l.573.092.211-.54a2.319,2.319,0,1,0-.837,4.48h3.481a3.482,3.482,0,1,0,0-6.963v1.16a2.321,2.321,0,1,1,0,4.642h-3.481a1.16,1.16,0,1,1,0-2.321,1.2,1.2,0,0,1,.416.08l.669.263.114-.709a2.315,2.315,0,0,1,2.281-1.956v-.58" transform="translate(-4.551 -16.131)" fill="#5a5a5a"/>
      <path id="Path_196" data-name="Path 196" d="M753.392,298.5l10.007.116-.109,10a.759.759,0,1,0,1.518.017l.123-10.771a.76.76,0,0,0-.751-.768l-10.765-.116a.761.761,0,1,0-.022,1.522" transform="translate(-26.531)" fill="#5a5a5a"/>
      <path id="Path_197" data-name="Path 197" d="M763.672,297.67l-10.816,10.582c-.13.127,0,.469.3.774s.637.441.767.314l10.816-10.582c.13-.126,0-.475-.3-.774s-.638-.44-.768-.314" transform="translate(-26.61 -0.306)" fill="#5a5a5a"/>
      <path id="Rectangle_219" data-name="Rectangle 219" d="M-1-1H30.56V29.971H-1ZM28.56,1H1V27.971H28.56Z" transform="translate(697.1 310.545)" fill="#5a5a5a"/>
      <g id="Isolation_Mode" data-name="Isolation Mode" transform="translate(700.277 321.297)">
        <path id="Path_198" data-name="Path 198" d="M704.254,353.553l.023-.057a18.026,18.026,0,0,1,1.611-2.983,8.03,8.03,0,0,1,1.477-1.689,2.509,2.509,0,0,1,1.543-.675,3.823,3.823,0,0,1,1.762.479,8.14,8.14,0,0,1,2.123,1.7,9.592,9.592,0,0,1,.616.737c.072.093.125.168.161.214l.04.058.01.018a.581.581,0,0,0,.978-.029l3.478-5.964a1.358,1.358,0,0,1,2.388.074l4.08,8.162,1.032-.513-4.08-8.162a2.511,2.511,0,0,0-4.416-.145l-3.478,5.965.5.288.481-.318a11.3,11.3,0,0,0-1.6-1.834A8.3,8.3,0,0,0,711.2,347.6a5.012,5.012,0,0,0-2.3-.6,3.009,3.009,0,0,0-1.294.306,5.731,5.731,0,0,0-1.838,1.47,14.719,14.719,0,0,0-1.886,2.85c-.449.859-.7,1.494-.708,1.505l1.071.426" transform="translate(-703.183 -343.534)" fill="#5a5a5a"/>
      </g>
    </g>
  </g>
</svg>
