<svg xmlns="http://www.w3.org/2000/svg" width="42.841" height="43.347" viewBox="0 0 42.841 43.347">
  <g id="Group_184" data-name="Group 184" transform="translate(-1694.08 -543.193)">
    <rect id="Rectangle_258" data-name="Rectangle 258" width="40.841" height="41.347" transform="translate(1695.08 544.193)" fill="#fff" stroke="#5a5a5a" stroke-miterlimit="10" stroke-width="2"/>
    <g id="ICON_2" data-name="ICON 2" transform="translate(1695 545.548)">
      <path id="Path_190" data-name="Path 190" d="M486.277,351.6v1.784l-3.529,1.26A2.638,2.638,0,0,0,481,357.134v1.8h15.088v-1.8a2.638,2.638,0,0,0-1.753-2.486l-3.528-1.26V351.45h-.755v2.471l4.029,1.437a1.888,1.888,0,0,1,1.252,1.777v1.045H481.75v-1.045A1.889,1.889,0,0,1,483,355.357l4.03-1.437V351.6h-.755" transform="translate(-471.512 -326.648)" fill="#5a5a5a"/>
      <path id="Path_191" data-name="Path 191" d="M497.068,334.779h-.377a4.633,4.633,0,0,1-1.018,2.962,2.974,2.974,0,0,1-4.755,0,4.815,4.815,0,0,1,0-5.919,2.968,2.968,0,0,1,4.755,0,4.622,4.622,0,0,1,1.018,2.957h.754a5.368,5.368,0,0,0-1.192-3.44,3.72,3.72,0,0,0-5.914,0,5.566,5.566,0,0,0,0,6.885,3.726,3.726,0,0,0,5.914,0,5.386,5.386,0,0,0,1.192-3.445h-.377" transform="translate(-476.363 -313.81)" fill="#5a5a5a"/>
      <path id="Path_192" data-name="Path 192" d="M497.369,337.354a3.247,3.247,0,0,0-.38.037h0a3.031,3.031,0,0,1-.554.057,1.667,1.667,0,0,1-1.012-.306,3.076,3.076,0,0,1-.852-1.022l-.343-.6-.319.611A2.307,2.307,0,0,1,492.9,337a3.439,3.439,0,0,1-1.5.381,2.619,2.619,0,0,1-1.286-.31l-.35.672a3.386,3.386,0,0,0,1.636.392,4.2,4.2,0,0,0,1.839-.464,3,3,0,0,0,1.335-1.192l-.335-.177-.328.188a3.78,3.78,0,0,0,1.073,1.264,2.422,2.422,0,0,0,1.446.445,3.517,3.517,0,0,0,.7-.072h0c.078-.015.163-.012.327-.031l-.09-.746" transform="translate(-476.732 -317.169)" fill="#5a5a5a"/>
      <path id="Path_258" data-name="Path 258" d="M0,0H21.253V21.678H0Z" transform="translate(6.193 13.172)" fill="none" stroke="#5a5a5a" stroke-width="1.3"/>
      <path id="Path_193" data-name="Path 193" d="M523.825,297.638l7.758.089-.085,7.753a.588.588,0,0,0,1.177.012l.1-8.35a.589.589,0,0,0-.582-.595l-8.345-.091a.593.593,0,0,0-.6.586.587.587,0,0,0,.581.594" transform="translate(-496.653 -293.924)" fill="#5a5a5a"/>
      <path id="Path_194" data-name="Path 194" d="M531.831,297.136l-8.385,8.2c-.1.1,0,.364.231.6s.494.341.595.243l8.385-8.2c.1-.1,0-.368-.23-.6s-.495-.342-.6-.243" transform="translate(-496.75 -294.305)" fill="#5a5a5a"/>
    </g>
  </g>
</svg>
