<svg xmlns="http://www.w3.org/2000/svg" width="42.841" height="43.347" viewBox="0 0 42.841 43.347">
  <g id="Group_185" data-name="Group 185" transform="translate(-1694.08 -543.193)">
    <g id="GALLERY_ICON" data-name="GALLERY ICON" transform="translate(1.08 2.154)">
      <rect id="Rectangle_258" data-name="Rectangle 258" width="40.841" height="41.347" transform="translate(1694 542.039)" fill="#fff" stroke="#5a5a5a" stroke-miterlimit="10" stroke-width="2"/>
    </g>
    <rect id="Rectangle_218" data-name="Rectangle 218" width="18.707" height="0.82" transform="translate(1702.822 573.052)" fill="#5a5a5a"/>
    <path id="Path_195" data-name="Path 195" d="M711,331.189v-.437a2.62,2.62,0,0,0-2.583,2.208l.432.07.159-.407a1.747,1.747,0,1,0-.63,3.376H711a2.623,2.623,0,1,0,0-5.246v.874a1.749,1.749,0,1,1,0,3.5h-2.623a.874.874,0,1,1,0-1.749.9.9,0,0,1,.314.061l.5.2.086-.534A1.744,1.744,0,0,1,711,331.626v-.437" transform="translate(998.232 230.169)" fill="#5a5a5a"/>
    <path id="Path_196" data-name="Path 196" d="M753.207,298.129l7.54.087-.082,7.535a.572.572,0,1,0,1.144.013l.093-8.115a.573.573,0,0,0-.566-.579l-8.111-.088a.573.573,0,1,0-.017,1.147" transform="translate(970.326 250.649)" fill="#5a5a5a"/>
    <path id="Path_197" data-name="Path 197" d="M760.993,297.658l-8.15,7.973c-.1.1,0,.353.224.583s.48.332.578.237l8.15-7.973c.1-.1,0-.358-.224-.583s-.481-.332-.579-.237" transform="translate(970.227 250.26)" fill="#5a5a5a"/>
    <path id="Path_259" data-name="Path 259" d="M0,0H22.272V21.829H0Z" transform="translate(1701.109 557.85)" fill="none" stroke="#5a5a5a" stroke-width="1.3"/>
    <g id="Isolation_Mode" data-name="Isolation Mode" transform="translate(1703.504 565.951)">
      <path id="Path_198" data-name="Path 198" d="M703.99,351.083l.017-.043a13.583,13.583,0,0,1,1.214-2.248,6.051,6.051,0,0,1,1.113-1.273,1.89,1.89,0,0,1,1.163-.509,2.88,2.88,0,0,1,1.328.361,6.133,6.133,0,0,1,1.6,1.283,7.189,7.189,0,0,1,.464.555c.054.07.094.126.121.161l.03.044.008.013a.437.437,0,0,0,.737-.022l2.621-4.494a1.023,1.023,0,0,1,1.8.056l3.074,6.15.777-.387-3.074-6.15a1.892,1.892,0,0,0-3.327-.109l-2.62,4.494.375.217.362-.24a8.512,8.512,0,0,0-1.209-1.382,6.251,6.251,0,0,0-1.336-.965,3.777,3.777,0,0,0-1.73-.456,2.268,2.268,0,0,0-.975.23,4.318,4.318,0,0,0-1.385,1.108,11.086,11.086,0,0,0-1.421,2.148c-.338.647-.53,1.126-.534,1.134l.807.321" transform="translate(-703.183 -343.534)" fill="#5a5a5a"/>
    </g>
  </g>
</svg>
