<svg xmlns="http://www.w3.org/2000/svg" width="42.841" height="43.347" viewBox="0 0 42.841 43.347">
  <g id="Group_184" data-name="Group 184" transform="translate(-1694.08 -543.193)">
    <g id="GALLERY_ICON" data-name="GALLERY ICON" transform="translate(1.08 2.154)">
      <rect id="Rectangle_258" data-name="Rectangle 258" width="40.841" height="41.347" transform="translate(1694 542.039)" fill="#fff" stroke="#5a5a5a" stroke-miterlimit="10" stroke-width="2"/>
    </g>
    <g id="ICON_1" data-name="ICON 1" transform="translate(1816.661 505.718)">
      <path id="Path_153" data-name="Path 153" d="M253.063,355.5v1.362l-2.694.962a2.013,2.013,0,0,0-1.337,1.9v1.373H260.55v-1.373a2.014,2.014,0,0,0-1.338-1.9l-2.693-.962v-1.48h-.576v1.886l3.076,1.1a1.441,1.441,0,0,1,.955,1.356v.8H249.607v-.8a1.442,1.442,0,0,1,.956-1.356l3.076-1.1V355.5h-.576" transform="translate(-363.329 -288.846)" fill="#5a5a5a" stroke="#5a5a5a" stroke-miterlimit="10" stroke-width="0.3"/>
      <path id="Path_154" data-name="Path 154" d="M261.2,342.921h-.288a3.538,3.538,0,0,1-.777,2.26,2.27,2.27,0,0,1-3.63,0,3.674,3.674,0,0,1,0-4.518,2.265,2.265,0,0,1,3.63,0,3.529,3.529,0,0,1,.777,2.257h.575a4.1,4.1,0,0,0-.91-2.626,2.84,2.84,0,0,0-4.515,0,4.248,4.248,0,0,0,0,5.255,2.844,2.844,0,0,0,4.515,0,4.113,4.113,0,0,0,.91-2.629H261.2" transform="translate(-366.93 -279.314)" fill="#5a5a5a" stroke="#5a5a5a" stroke-miterlimit="10" stroke-width="0.3"/>
      <path id="Path_155" data-name="Path 155" d="M261.421,344.816a2.472,2.472,0,0,0-.29.029h0a2.306,2.306,0,0,1-.423.044,1.27,1.27,0,0,1-.773-.234,2.345,2.345,0,0,1-.65-.78l-.262-.458-.244.467a1.76,1.76,0,0,1-.768.665,2.632,2.632,0,0,1-1.145.291,2,2,0,0,1-.981-.236l-.267.513a2.588,2.588,0,0,0,1.248.3,3.21,3.21,0,0,0,1.4-.354,2.29,2.29,0,0,0,1.019-.91l-.255-.135-.25.144a2.891,2.891,0,0,0,.82.965,1.847,1.847,0,0,0,1.1.34,2.66,2.66,0,0,0,.532-.055h0c.06-.012.125-.009.249-.023l-.069-.57" transform="translate(-367.205 -281.075)" fill="#5a5a5a" stroke="#5a5a5a" stroke-miterlimit="10" stroke-width="0.3"/>
      <rect id="Rectangle_176" data-name="Rectangle 176" width="16.224" height="16.548" transform="translate(-116.81 57.964)" fill="none" stroke="#5a5a5a" stroke-miterlimit="10" stroke-width="1.5"/>
      <path id="Path_156" data-name="Path 156" d="M263.416,311.956V300.118h22.865V322.91H273.121" transform="translate(-371.792 -256.333)" fill="none" stroke="#5a5a5a" stroke-miterlimit="10" stroke-width="1.5"/>
      <rect id="Rectangle_177" data-name="Rectangle 177" width="12.127" height="1.081" transform="translate(-99.946 58.997)" fill="#5a5a5a"/>
      <path id="Path_157" data-name="Path 157" d="M275.574,306.705v-.457a2.741,2.741,0,0,0-2.7,2.309l.452.073.167-.425a1.827,1.827,0,1,0-.66,3.53h2.743a2.744,2.744,0,1,0,0-5.488v.914a1.83,1.83,0,0,1,1.293,3.124,1.811,1.811,0,0,1-1.293.534h-2.743a.914.914,0,1,1,0-1.829.937.937,0,0,1,.328.064l.527.207.09-.559a1.825,1.825,0,0,1,1.8-1.541v-.457" transform="translate(-376.256 -259.94)" fill="#5a5a5a"/>
      <path id="Path_158" data-name="Path 158" d="M274,323.773a1.99,1.99,0,0,1,1.224-.536,3.03,3.03,0,0,1,1.4.38,6.443,6.443,0,0,1,1.682,1.349,7.46,7.46,0,0,1,.489.585c.057.074.1.133.128.169l.031.046.008.014a.46.46,0,0,0,.776-.023l2.758-4.728a1.077,1.077,0,0,1,1.893.059l3.234,6.471.818-.407-3.235-6.471a1.991,1.991,0,0,0-3.5-.114l-2.757,4.729.394.228.381-.252a8.973,8.973,0,0,0-1.272-1.454,6.579,6.579,0,0,0-1.406-1.016,3.972,3.972,0,0,0-1.82-.48,2.387,2.387,0,0,0-1.026.242,4.548,4.548,0,0,0-1.457,1.165" transform="translate(-377.281 -267.783)" fill="#5a5a5a"/>
    </g>
  </g>
</svg>
