<svg xmlns="http://www.w3.org/2000/svg" width="46.923" height="45.945" viewBox="0 0 46.923 45.945">
  <g id="Group_171" data-name="Group 171" transform="translate(-34 -59.055)">
    <path id="Path_168" data-name="Path 168" d="M47.689,115.406a17.024,17.024,0,0,1-2.664-.578,1,1,0,0,0-.648.021l-7.172,2.874,2.52-4.411a.982.982,0,0,0-.238-1.25,11.8,11.8,0,0,1-4.523-9.14,11.427,11.427,0,0,1,4.509-8.828,18.386,18.386,0,0,1,22.263,0,11.427,11.427,0,0,1,4.509,8.828H68.2a13.4,13.4,0,0,0-5.23-10.34A19.536,19.536,0,0,0,50.6,88.389a19.543,19.543,0,0,0-12.367,4.194,13.385,13.385,0,0,0-5.23,10.34,13.757,13.757,0,0,0,5.258,10.666l.609-.763-.847-.48-3.913,6.843a.975.975,0,0,0,1.215,1.386l9.773-3.91-.361-.91-.287.942a19.093,19.093,0,0,0,2.968.644l.266-1.936" transform="translate(0.992 -29.334)" fill="#b3b3b3"/>
    <path id="Path_169" data-name="Path 169" d="M39.012,106.4h-.977a12.377,12.377,0,0,0,4.243,9.189,14.589,14.589,0,0,0,15.7,2.464l-.4-.9-.343.921,7.82,2.933a.979.979,0,0,0,1.218-1.351l-2.933-5.863-.875.431.613.76a11.57,11.57,0,0,0,3.168-3.819,10.519,10.519,0,0,0,1.11-4.764,11.983,11.983,0,0,0-4.344-8.912,15.929,15.929,0,0,0-20.639,0,11.983,11.983,0,0,0-4.344,8.912h1.957a10.045,10.045,0,0,1,3.672-7.439,13.98,13.98,0,0,1,18.069,0,10.045,10.045,0,0,1,3.672,7.439,8.5,8.5,0,0,1-.9,3.882,9.688,9.688,0,0,1-2.643,3.178.979.979,0,0,0-.263,1.2l1.817,3.637-5.489-2.051a.919.919,0,0,0-.739.017,12.612,12.612,0,0,1-13.6-2.132,10.4,10.4,0,0,1-3.595-7.733h-.98" transform="translate(13.562 -16.068)" fill="#b3b3b3"/>
  </g>
</svg>
