<svg id="ICON" xmlns="http://www.w3.org/2000/svg" width="30.089" height="30.089" viewBox="0 0 30.089 30.089">
  <path id="Path_112" data-name="Path 112" d="M38.9,136.037H33.882a.6.6,0,0,0-.443.186.578.578,0,0,0-.184.431v25.87a.581.581,0,0,0,.184.431.607.607,0,0,0,.443.186H62.718a.607.607,0,0,0,.443-.186.579.579,0,0,0,.182-.431v-25.87a.576.576,0,0,0-.182-.431.6.6,0,0,0-.443-.186H57.7a.642.642,0,0,0-.626.617.6.6,0,0,0,.626.615h4.39l0,24.639H34.507V137.269H38.9a.6.6,0,0,0,.628-.615.643.643,0,0,0-.628-.617" transform="translate(-33.254 -133.052)" fill="#b3b3b3"/>
  <path id="Path_113" data-name="Path 113" d="M40.628,141.681v-.748H36.9v-4.478h2.985v5.225h.748v0h.748v-5.973a.755.755,0,0,0-.748-.745h-4.48a.755.755,0,0,0-.745.745v5.973a.755.755,0,0,0,.745.745h4.48a.755.755,0,0,0,.748-.745h-.748" transform="translate(-30.579 -134.963)" fill="#b3b3b3"/>
  <path id="Path_114" data-name="Path 114" d="M47.074,141.681v-.748H43.342v-4.478h2.988v5.225h.745v0h.748v-5.973a.755.755,0,0,0-.748-.745H42.6a.755.755,0,0,0-.748.745v5.973a.755.755,0,0,0,.748.745h4.478a.755.755,0,0,0,.748-.745h-.748" transform="translate(-22.554 -134.963)" fill="#b3b3b3"/>
  <path id="Path_115" data-name="Path 115" d="M37.762,137.53H51.2a.723.723,0,0,0,.745-.745.772.772,0,0,0-.745-.748H37.762a.774.774,0,0,0-.748.748.725.725,0,0,0,.748.745" transform="translate(-29.435 -133.052)" fill="#b3b3b3"/>
  <path id="Path_116" data-name="Path 116" d="M33.882,140.215H62.718a.672.672,0,0,0,.626-.748.719.719,0,0,0-.626-.745H33.882a.721.721,0,0,0-.628.745.674.674,0,0,0,.628.748" transform="translate(-33.254 -130.02)" fill="#b3b3b3"/>
  <path id="Path_117" data-name="Path 117" d="M36.477,140.545V158.46a.746.746,0,0,0,1.493,0V140.545a.746.746,0,1,0-1.493,0" transform="translate(-29.017 -132.104)" fill="#b3b3b3"/>
  <path id="Path_118" data-name="Path 118" d="M39.432,140.545V158.46a.746.746,0,0,0,1.493,0V140.545a.746.746,0,1,0-1.493,0" transform="translate(-25.132 -132.104)" fill="#b3b3b3"/>
  <path id="Path_119" data-name="Path 119" d="M42.386,140.545V158.46a.746.746,0,0,0,1.493,0V140.545a.746.746,0,1,0-1.493,0" transform="translate(-21.249 -132.104)" fill="#b3b3b3"/>
  <path id="Path_120" data-name="Path 120" d="M34.931,142.366H57.842a.666.666,0,0,0,.6-.748.714.714,0,0,0-.6-.748H34.931a.714.714,0,0,0-.6.748.665.665,0,0,0,.6.748" transform="translate(-31.341 -127.197)" fill="#b3b3b3"/>
  <path id="Path_121" data-name="Path 121" d="M34.931,144.513H57.842a.663.663,0,0,0,.6-.745.712.712,0,0,0-.6-.748H34.931a.712.712,0,0,0-.6.748.663.663,0,0,0,.6.745" transform="translate(-31.341 -124.371)" fill="#b3b3b3"/>
  <path id="Path_122" data-name="Path 122" d="M34.931,146.662H57.842c.334,0,.6-.3.6-.748a.711.711,0,0,0-.6-.745H34.931a.711.711,0,0,0-.6.745c0,.45.269.748.6.748" transform="translate(-31.341 -121.546)" fill="#b3b3b3"/>
</svg>
