<?xml version="1.0" standalone="no"?>
<!DOCTYPE svg PUBLIC "-//W3C//DTD SVG 1.1//EN" "http://www.w3.org/Graphics/SVG/1.1/DTD/svg11.dtd" >
<svg xmlns="http://www.w3.org/2000/svg" xmlns:xlink="http://www.w3.org/1999/xlink" version="1.1">
<metadata>
Created by FontForge 20170731 at Thu Jul  1 05:54:18 2021
 By Aleksey,,,
(c) 2008 Adobe Systems Incorporated. All Rights Reserved.
</metadata>
<defs>
<font id="AdobeClean-Medium" horiz-adv-x="796" >
  <font-face 
    font-family="Adobe Clean Medium"
    font-weight="500"
    font-stretch="normal"
    units-per-em="2048"
    panose-1="2 11 6 3 2 4 4 2 2 4"
    ascent="1495"
    descent="-553"
    x-height="1001"
    cap-height="1350"
    bbox="-344 -496 2345 2007"
    underline-thickness="102"
    underline-position="-307"
    unicode-range="U+0020-FB04"
  />
<missing-glyph horiz-adv-x="1024" 
d="M0 0v1434h1024v-1434h-1024zM164 102h696l-348 523zM571 717l351 -522v1044zM102 1239v-1044l349 522zM164 1331l348 -522l348 522h-696z" />
    <glyph glyph-name="f_f" unicode="ff" horiz-adv-x="1083" 
d="M16 842v147q0 12 11 12h129v80q0 150 47 242q78 162 276 162q61 0 99 -15q10 -2 10 -16v-145q0 -17 -15 -11q-32 11 -71 11q-71 0 -108.5 -48t-37.5 -169v-91h344v97q1 102 26.5 178.5t70 121t100.5 66t123 21.5q74 0 108 -17q11 -4 11 -16v-143q0 -16 -15 -13
q-33 13 -73 13q-33 0 -55.5 -6.5t-46.5 -27t-36 -66.5t-12 -117l2 -91h191q12 0 12 -12v-145q0 -12 -12 -15h-191v-815q0 -14 -16 -14h-170q-15 0 -15 14v815h-346v-813q0 -16 -12 -16h-172q-16 0 -16 14v815h-131q-9 0 -9 13z" />
    <glyph glyph-name="f_f_i" unicode="ffi" horiz-adv-x="1587" 
d="M356 1001h340v97q1 102 26.5 178.5t70 121t100.5 66t123 21.5q74 0 108 -17q11 -4 11 -16v-143q0 -16 -15 -13q-32 13 -73 13q-33 0 -55.5 -6.5t-46.5 -27t-36 -66.5t-12 -117l2 -91h191q12 0 12 -12v-145q0 -12 -12 -15h-191v-815q0 -14 -16 -14h-170q-15 0 -15 14v815
h-342v-813q0 -16 -12 -16h-172q-16 0 -16 14v815h-131q-9 0 -9 13v147q0 12 11 12h129v80q0 150 47 242q78 162 276 162q61 0 99 -15q10 -2 10 -16v-145q0 -17 -15 -11q-32 11 -71 11q-71 0 -108.5 -48t-37.5 -169v-91zM1245 16v971q0 14 15 14h174q8 0 11 -2.5t3 -11.5
v-971q0 -16 -16 -16h-168q-19 0 -19 16zM1348 1176q-54 0 -85.5 32t-31.5 86q0 51 33 85t84 34q54 0 85 -33.5t31 -85.5q0 -54 -31.5 -86t-84.5 -32z" />
    <glyph glyph-name="f_f_l" unicode="ffl" horiz-adv-x="1619" 
d="M356 1001h342v97q1 102 26 178.5t69.5 121t100 66t122.5 21.5q71 0 110 -17q9 -4 9 -16v-143q0 -6 -3.5 -10t-9.5 -3q-33 13 -75 13q-32 0 -54.5 -6.5t-46 -27t-35.5 -66.5t-12 -117v-91h193q12 0 12 -12v-145q0 -12 -12 -15h-193v-815q0 -14 -14 -14h-172q-15 0 -15 14
v815h-342v-813q0 -16 -12 -16h-172q-16 0 -16 14v815h-131q-9 0 -9 13v147q0 12 11 12h129v80q0 150 47 242q78 162 276 162q61 0 99 -15q10 -2 10 -16v-145q0 -17 -15 -11q-32 11 -71 11q-71 0 -108.5 -48t-37.5 -169v-91zM1245 221v1229q0 14 17 14h170q14 0 14 -14v-1212
q0 -52 19.5 -72.5t58.5 -20.5q8 0 21.5 2t19.5 3q4 1 6 -2t2 -9v-125q0 -15 -10 -20q-40 -14 -105 -14q-47 0 -82 10t-66.5 35t-48 74.5t-16.5 121.5z" />
    <glyph glyph-name="T_h" unicode="Th" horiz-adv-x="2146" 
d="M446 16v1153h-428q-13 0 -10 15l25 162q3 14 18 14h1014q15 0 18 -14v-160q3 -17 -12 -17h-424v-1153q0 -16 -14 -16h-168q-19 0 -19 16zM1376 748v-734q0 -14 -12 -14h-174q-14 0 -14 14v1438q0 12 14 12h174q12 0 12 -12v-541q124 109 295 109q49 0 93 -9.5t90.5 -36.5
t79.5 -70t54 -115t21 -166v-607q0 -16 -16 -16h-170q-17 0 -17 16v586q0 116 -49.5 180t-148.5 64q-137 0 -232 -98z" />
    <glyph glyph-name="Tcaron_h" unicode="&#x164;h" horiz-adv-x="2146" 
d="M446 16v1153h-428q-13 0 -10 15l25 162q3 14 18 14h1014q15 0 18 -14v-160q3 -17 -12 -17h-424v-1153q0 -16 -14 -16h-168q-19 0 -19 16zM1376 748v-734q0 -14 -12 -14h-174q-14 0 -14 14v1438q0 12 14 12h174q12 0 12 -12v-541q124 109 295 109q49 0 93 -9.5t90.5 -36.5
t79.5 -70t54 -115t21 -166v-607q0 -16 -16 -16h-170q-17 0 -17 16v586q0 116 -49.5 180t-148.5 64q-137 0 -232 -98zM373 1714l141 -145l139 145q10 10 21 10h151q6 0 7.5 -6.5t-1.5 -9.5l-225 -231q-7 -7 -16 -7h-158q-16 0 -22 9l-232 233q-4 4 -2 8t8 4h164q15 0 25 -10z
" />
    <glyph glyph-name="uni021A_h" unicode="&#x21a;h" horiz-adv-x="2146" 
d="M446 16v1153h-428q-13 0 -10 15l25 162q3 14 18 14h1014q15 0 18 -14v-160q3 -17 -12 -17h-424v-1153q0 -16 -14 -16h-168q-19 0 -19 16zM1376 748v-734q0 -14 -12 -14h-174q-14 0 -14 14v1438q0 12 14 12h174q12 0 12 -12v-541q124 109 295 109q49 0 93 -9.5t90.5 -36.5
t79.5 -70t54 -115t21 -166v-607q0 -16 -16 -16h-170q-17 0 -17 16v586q0 116 -49.5 180t-148.5 64q-137 0 -232 -98zM532 -461h-151q-6 0 -7.5 5.5t1.5 9.5q76 120 76 231q0 50 -29 123q-6 12 6 12h164q11 0 18 -10q29 -52 29 -113q0 -77 -22 -134.5t-68 -117.5
q-3 -6 -17 -6z" />
    <glyph glyph-name="f_b" unicode="fb" horiz-adv-x="1654" 
d="M156 829h-129q-11 3 -11 15v145q0 12 11 12h129v80q0 150 47 242q78 162 276 162q62 0 96 -15q13 -3 13 -16v-145q0 -17 -15 -11q-32 11 -71 11q-71 0 -108.5 -48t-37.5 -169v-91h191q14 0 14 -12v-145q0 -12 -14 -15h-191v-815q0 -14 -14 -14h-170q-16 0 -16 14v815z
M715 1464h172q9 0 11.5 -2.5t2.5 -11.5l2 -465q93 35 207 35q214 0 344.5 -135t130.5 -344q0 -135 -49 -244t-131.5 -177t-185 -104t-215.5 -36q-161 0 -289 43q-13 3 -13 18v1411q0 12 13 12zM1380 522q0 152 -82.5 239t-220.5 87q-96 0 -174 -31v-653q61 -14 119 -14
q71 0 134.5 23.5t114 68.5t80 117t29.5 163z" />
    <glyph glyph-name="f_h" unicode="fh" horiz-adv-x="1671" 
d="M156 829h-129q-11 3 -11 15v145q0 12 11 12h129v80q0 150 47 242q78 162 276 162q61 0 99 -15q10 -2 10 -16v-145q0 -17 -15 -11q-32 11 -71 11q-71 0 -108.5 -48t-37.5 -169v-91h191q14 0 14 -12v-145q0 -12 -14 -15h-191v-815q0 -14 -14 -14h-170q-16 0 -16 14v815z
M901 748v-734q0 -14 -14 -14h-172q-15 0 -15 14v1438q0 12 13 12h176q12 0 12 -12v-541q124 109 295 109q49 0 93 -9.5t90 -36.5t78.5 -70t53.5 -115t21 -166v-607q0 -16 -14 -16h-170q-17 0 -17 16v586q0 115 -50 179.5t-148 64.5q-140 0 -232 -98z" />
    <glyph glyph-name="f_i" unicode="fi" horiz-adv-x="1040" 
d="M702 16v971q0 14 13 14h174q8 0 11 -2.5t3 -11.5v-971q0 -9 -2.5 -12.5t-11.5 -3.5h-170q-17 0 -17 16zM803 1176q-52 0 -83.5 31.5t-31.5 84.5q0 51 33 84t84 33t82 -33t31 -84t-31.5 -83.5t-83.5 -32.5zM156 829h-129q-11 3 -11 15v145q0 12 11 12h129v80q0 150 47 242
q78 162 276 162q61 0 99 -15q10 -2 10 -16v-145q0 -17 -15 -11q-32 11 -71 11q-71 0 -108.5 -48t-37.5 -169v-91h191q14 0 14 -12v-145q0 -12 -14 -15h-191v-815q0 -14 -14 -14h-170q-16 0 -16 14v815z" />
    <glyph glyph-name="f_j" unicode="fj" horiz-adv-x="1038" 
d="M156 829h-129q-11 3 -11 15v145q0 12 11 12h129v80q0 150 47 242q78 162 276 162q61 0 99 -15q10 -2 10 -16v-145q0 -17 -15 -11q-32 11 -71 11q-71 0 -108.5 -48t-37.5 -169v-91h191q14 0 14 -12v-145q0 -12 -14 -15h-191v-815q0 -14 -14 -14h-170q-16 0 -16 14v815z
M717 1001h172q14 0 14 -14v-973q0 -155 -25 -235t-77 -141q-43 -51 -113 -75t-135 -24q-25 0 -39 2q-12 2 -12 19v143q0 14 12 14q44 1 74.5 10.5t58.5 34.5t41.5 76t13.5 127v1022q0 14 15 14zM803 1176q-54 0 -85.5 32t-31.5 86q0 51 33 85t84 34q54 0 85.5 -33.5
t31.5 -85.5q0 -54 -32 -86t-85 -32z" />
    <glyph glyph-name="f_k" unicode="fk" horiz-adv-x="1544" 
d="M156 1001v80q0 150 47 242q78 162 276 162q61 0 99 -15q10 -2 10 -16v-145q0 -17 -15 -11q-32 11 -71 11q-71 0 -108.5 -48t-37.5 -169v-91h191q14 0 14 -12v-145q0 -12 -14 -15h-191v-815q0 -14 -14 -14h-170q-16 0 -16 14v815h-129q-11 3 -11 15v145q0 12 11 12h129z
M1333 1001h189q9 0 11.5 -5.5t-3.5 -12.5q-40 -45 -198.5 -204.5t-229.5 -229.5v-8q274 -299 489 -525q5 -4 2 -10t-10 -6h-229q-14 0 -23 12q-164 175 -428 473v-469q0 -16 -16 -16h-170q-17 0 -17 16v1434q0 14 17 14h170q16 0 16 -14v-897q360 384 408 436q10 12 22 12z
" />
    <glyph glyph-name="f_l" unicode="fl" horiz-adv-x="1077" 
d="M156 829h-129q-11 3 -11 15v145q0 12 11 12h129v80q0 150 47 242q78 162 276 162q61 0 99 -15q10 -2 10 -16v-145q0 -17 -15 -11q-32 11 -71 11q-71 0 -108.5 -48t-37.5 -169v-91h191q14 0 14 -12v-145q0 -12 -14 -15h-191v-815q0 -14 -14 -14h-170q-16 0 -16 14v815z
M702 221v1229q0 14 17 14h170q14 0 14 -14v-1212q0 -52 19.5 -72.5t58.5 -20.5q8 0 20.5 2t18.5 3q3 0 4.5 0.5t2.5 -2t1 -4v-5.5v-125q0 -16 -10 -20q-35 -14 -103 -14q-47 0 -82 10t-66.5 35t-48 74.5t-16.5 121.5z" />
    <glyph glyph-name="f_t" unicode="ft" horiz-adv-x="1161" 
d="M356 1001h349q0 59 5.5 141.5t12.5 117.5q3 11 14 14l166 24q15 4 15 -8q-11 -98 -15 -289h211q14 0 14 -14v-143q0 -12 -12 -15h-213v-538q0 -72 29 -108t94 -36q34 0 96 19q13 4 13 -10v-121q0 -16 -13 -21q-62 -34 -164 -34q-256 0 -256 274v575h-346v-813
q0 -16 -14 -16h-170q-16 0 -16 14v815h-127q-13 3 -13 15v145q0 12 13 12h127v80q0 150 47 242q78 162 278 162q63 0 101 -15q10 -4 10 -18v-145q0 -17 -12 -11q-41 13 -76 13q-73 0 -110.5 -46.5t-37.5 -168.5v-93z" />
    <glyph glyph-name="f_f_b" unicode="ffb" horiz-adv-x="2199" 
d="M356 1001h344v97q1 102 26.5 178.5t70 121t100.5 66t123 21.5q74 0 108 -17q11 -4 11 -16v-143q0 -16 -15 -13q-33 13 -73 13q-33 0 -55.5 -6.5t-46.5 -27t-36 -66.5t-12 -117l2 -91h191q12 0 12 -12v-145q0 -12 -12 -15h-191v-815q0 -14 -16 -14h-170q-15 0 -15 14v815
h-346v-813q0 -16 -12 -16h-172q-16 0 -16 14v815h-131q-9 0 -9 13v147q0 12 11 12h129v80q0 150 47 242q78 162 276 162q61 0 99 -15q10 -2 10 -16v-145q0 -17 -15 -11q-32 11 -71 11q-71 0 -108.5 -48t-37.5 -169v-91zM1260 1464h172q9 0 12.5 -2.5t3.5 -11.5v-465
q93 35 209 35q213 0 343 -135.5t130 -345.5q0 -108 -32 -200t-87.5 -157.5t-129.5 -111.5t-158 -68t-173 -22q-162 0 -290 43q-13 3 -13 18v1411q0 12 13 12zM1925 522q0 151 -82.5 238.5t-220.5 87.5q-87 0 -174 -31v-653q49 -14 119 -14q71 0 134.5 23t114 68t80 117.5
t29.5 163.5z" />
    <glyph glyph-name="f_f_h" unicode="ffh" horiz-adv-x="2217" 
d="M356 1001h344v97q1 102 26.5 178.5t70 121t100.5 66t123 21.5q74 0 108 -17q11 -4 11 -16v-143q0 -16 -15 -13q-33 13 -73 13q-33 0 -55.5 -6.5t-46.5 -27t-36 -66.5t-12 -117l2 -91h191q12 0 12 -12v-145q0 -12 -12 -15h-191v-815q0 -14 -16 -14h-170q-15 0 -15 14v815
h-346v-813q0 -16 -12 -16h-172q-16 0 -16 14v815h-131q-9 0 -9 13v147q0 12 11 12h129v80q0 150 47 242q78 162 276 162q61 0 99 -15q10 -2 10 -16v-145q0 -17 -15 -11q-32 11 -71 11q-71 0 -108.5 -48t-37.5 -169v-91zM1446 748v-734q0 -14 -12 -14h-174q-15 0 -15 14v1438
q0 12 15 12h174q12 0 12 -12l2 -541q124 109 295 109q48 0 91.5 -9.5t89.5 -36.5t79.5 -70t54.5 -115t21 -166v-607q0 -16 -17 -16h-168q-16 0 -16 16v586q0 115 -50.5 179.5t-148.5 64.5q-138 0 -233 -98z" />
    <glyph glyph-name="f_f_j" unicode="ffj" horiz-adv-x="1585" 
d="M356 1001h344v97q1 102 26.5 178.5t70 121t100.5 66t123 21.5q74 0 108 -17q11 -4 11 -16v-143q0 -16 -15 -13q-33 13 -73 13q-33 0 -55.5 -6.5t-46.5 -27t-36 -66.5t-12 -117l2 -91h191q12 0 12 -12v-145q0 -12 -12 -15h-191v-815q0 -14 -16 -14h-170q-15 0 -15 14v815
h-346v-813q0 -16 -12 -16h-172q-16 0 -16 14v815h-131q-9 0 -9 13v147q0 12 11 12h129v80q0 150 47 242q78 162 276 162q61 0 99 -15q10 -2 10 -16v-145q0 -17 -15 -11q-32 11 -71 11q-71 0 -108.5 -48t-37.5 -169v-91zM1262 1001h172q12 0 12 -14v-973q0 -155 -24.5 -235
t-75.5 -141q-43 -51 -113.5 -75t-134.5 -24q-25 0 -39 2q-15 3 -15 19v143q0 14 15 14q43 1 73.5 10.5t58 34.5t41 76t13.5 127v1022q0 14 17 14zM1346 1176q-54 0 -85.5 32t-31.5 86q0 51 33.5 85t85.5 34q54 0 85 -33.5t31 -85.5q0 -54 -32 -86t-86 -32z" />
    <glyph glyph-name="f_f_k" unicode="ffk" horiz-adv-x="2088" 
d="M700 1001v97q1 102 26.5 178.5t70 121t100.5 66t123 21.5q74 0 108 -17q11 -4 11 -16v-143q0 -16 -15 -13q-33 13 -73 13q-33 0 -55.5 -6.5t-46.5 -27t-36 -66.5t-12 -117l2 -91h191q12 0 12 -12v-145q0 -12 -12 -15h-191v-815q0 -14 -16 -14h-170q-15 0 -15 14v815h-346
v-813q0 -16 -12 -16h-172q-16 0 -16 14v815h-131q-9 0 -9 13v147q0 12 11 12h129v80q0 150 47 242q78 162 276 162q61 0 99 -15q10 -2 10 -16v-145q0 -17 -15 -11q-32 11 -71 11q-71 0 -108.5 -48t-37.5 -169v-91h344zM1878 1001h188q9 0 12 -5.5t-3 -12.5
q-67 -75 -426 -434q-4 -4 0 -8q231 -257 487 -525q5 -4 2 -10t-10 -6h-230q-13 0 -22 12q-27 29 -428 473v-469q0 -16 -14 -16h-172q-17 0 -17 16v1434q0 14 17 14h172q14 0 14 -14v-897q263 280 407 436q10 12 23 12z" />
    <glyph glyph-name="f_f_t" unicode="fft" horiz-adv-x="1689" 
d="M1645 829h-211v-538q0 -73 28 -108.5t94 -35.5q40 0 89 15q12 4 12 -10v-121q0 -19 -10 -23q-71 -28 -164 -28q-122 0 -186 65t-64 209v575h-92h-43h-199v-815q0 -14 -14 -14h-172q-15 0 -15 14v815h-342v-813q0 -16 -12 -16h-172q-16 0 -16 14v815h-131q-9 0 -9 13v147
q0 12 11 12h129v80q0 150 47 242q78 162 276 162q61 0 99 -15q10 -2 10 -16v-145q0 -17 -15 -11q-32 11 -71 11q-71 0 -108.5 -48t-37.5 -169v-91h342v97q1 102 26 178.5t69.5 121t100 66t122.5 21.5q71 0 110 -17q9 -4 9 -16v-143q0 -6 -3.5 -10t-9.5 -3q-33 13 -75 13
q-32 0 -54.5 -6.5t-46 -27t-35.5 -66.5t-12 -117v-91h199h43h94q0 59 5.5 141.5t12.5 117.5q3 13 15 16l166 24q14 4 14 -10q-12 -105 -12 -289h209q12 0 12 -14v-143q0 -12 -12 -15z" />
    <glyph glyph-name="t_t" unicode="tt" horiz-adv-x="1218" 
d="M760 829h-406v-538q0 -72 29 -108t94 -36q37 0 96 19q15 4 15 -10v-121q0 -16 -13 -21q-64 -34 -169 -34q-123 0 -187.5 65t-64.5 209v575h-131q-15 3 -15 19v139q0 14 15 14h133q5 186 20 259q3 11 12 14l166 24q15 3 15 -8q-13 -152 -13 -289h406q5 178 18 259
q3 11 15 14l166 24q14 4 14 -8q-12 -140 -12 -289h211q12 0 12 -14v-143q0 -12 -12 -15h-213v-538q0 -72 28.5 -108t93.5 -36q38 0 97 19q12 4 12 -10v-121q0 -17 -10 -21q-64 -34 -170 -34q-123 0 -187.5 65t-64.5 209v575z" />
    <glyph glyph-name=".notdef" horiz-adv-x="1024" 
d="M0 0v1434h1024v-1434h-1024zM164 102h696l-348 523zM571 717l351 -522v1044zM102 1239v-1044l349 522zM164 1331l348 -522l348 522h-696z" />
    <glyph glyph-name=".null" horiz-adv-x="0" 
 />
    <glyph glyph-name="nonmarkingreturn" horiz-adv-x="682" 
 />
    <glyph glyph-name="space" unicode=" " horiz-adv-x="471" 
 />
    <glyph glyph-name="exclam" unicode="!" horiz-adv-x="567" 
d="M338 1372q68 0 100 -14q11 -8 11 -19v-151q0 -116 -13.5 -403t-19.5 -345q0 -12 -13 -12h-133q-9 0 -12 12q0 7 -8 168t-14.5 329t-6.5 243v153q0 15 9 19q14 8 45.5 14t54.5 6zM336 -16q-54 0 -87.5 32t-33.5 84q0 51 34 84t87 33q55 0 90 -33t35 -84q0 -55 -34 -85.5
t-91 -30.5z" />
    <glyph glyph-name="quotedbl" unicode="&#x22;" horiz-adv-x="684" 
d="M86 954l-2 496q0 14 16 14h160q15 0 12 -14l-26 -498q-3 -12 -15 -12h-131q-14 0 -14 14zM414 954l-2 494q0 16 16 16h160q14 0 14 -16l-29 -496q-2 -12 -14 -12h-131q-14 0 -14 14z" />
    <glyph glyph-name="numbersign" unicode="#" horiz-adv-x="1046" 
d="M274 82h-108q-12 0 -10 12l77 332h-165q-11 0 -11 14v121q0 10 11 10h196l51 238h-147q-10 0 -10 8v125q0 10 10 10h180l70 299q3 11 14 11h107q13 0 10 -13l-68 -297h211l68 301q0 9 8 9h111q13 0 10 -13l-68 -297h162q14 0 14 -12v-121q0 -10 -10 -10h-199l-51 -238
h144q10 0 10 -10v-125q0 -10 -10 -10h-172l-76 -332q-6 -12 -15 -12h-106q-16 0 -10 12l73 332h-210l-78 -334q-3 -10 -13 -10zM446 809l-51 -238h211l56 238h-216z" />
    <glyph glyph-name="dollar" unicode="$" horiz-adv-x="1005" 
d="M580 12v-176q0 -12 -11 -12h-141q-10 0 -10 14v164q-87 1 -174 22.5t-146 55.5q-12 7 -12 29v172q0 6 4 9t10 -1q79 -59 177.5 -86t185.5 -27q117 0 184.5 44t67.5 116q0 70 -55.5 119.5t-208.5 113.5q-206 83 -283.5 168.5t-77.5 216.5q0 129 89.5 223t240.5 117v166
q0 10 12 10h141q11 0 11 -10l4 -162q79 -3 150 -21t108 -46q10 -7 10 -19v-163q0 -7 -5 -10.5t-11 -0.5q-126 95 -326 95q-117 0 -177.5 -47t-60.5 -113t52.5 -113t212.5 -112q111 -44 184.5 -90t112.5 -96t54 -99t15 -113q0 -76 -29 -139t-77 -103t-104 -64t-117 -32z" />
    <glyph glyph-name="percent" unicode="%" horiz-adv-x="1693" 
d="M1370 1288l-893 -1278q-7 -10 -24 -10h-129q-8 0 -10.5 5t3.5 11l897 1274q8 10 21 10h131q6 0 6.5 -4.5t-2.5 -7.5zM408 1321q158 0 240.5 -103t82.5 -272q0 -71 -19.5 -137t-57.5 -121t-102 -88t-146 -33q-160 0 -243 106t-83 269q0 172 94.5 275.5t233.5 103.5z
M236 946q0 -104 45 -170.5t129 -66.5q77 0 121 62t44 175q0 111 -43.5 174.5t-123.5 63.5q-77 0 -124.5 -61.5t-47.5 -176.5zM1288 733q158 0 242 -104t84 -271q0 -56 -12 -109.5t-38 -102.5t-63 -85.5t-92 -58.5t-121 -22q-160 0 -243.5 106.5t-83.5 267.5
q0 172 94.5 275.5t232.5 103.5zM1118 356q0 -104 45 -170.5t129 -66.5q78 0 122 62t44 177q0 109 -44 172.5t-124 63.5q-76 0 -124 -62.5t-48 -175.5z" />
    <glyph glyph-name="ampersand" unicode="&#x26;" horiz-adv-x="1402" 
d="M1245 649h-471q52 -47 129.5 -139.5t134.5 -175.5q65 -93 118 -130.5t122 -37.5q27 0 55 4q13 3 13 -10v-144q0 -16 -13 -22q-35 -14 -98 -14q-105 0 -182.5 48.5t-175.5 196.5q-104 156 -212 274.5t-155 141.5q-32 -2 -68 -16.5t-70 -41.5t-56.5 -73t-22.5 -102
q0 -102 73 -171t205 -69q114 0 189 35q6 1 8 -2t2 -11v-155q0 -13 -12 -19q-82 -36 -219 -36q-197 0 -323 110.5t-126 298.5q0 146 86.5 245.5t214.5 141.5q-129 133 -129 271q0 151 108.5 238t282.5 87q156 0 228 -41q10 -5 10 -22v-152q0 -8 -5.5 -11t-11.5 1
q-82 49 -215 49q-96 0 -147 -38.5t-51 -113.5q0 -102 160 -219h655q14 0 10 -14l-24 -149q-3 -13 -17 -13z" />
    <glyph glyph-name="quotesingle" unicode="'" horiz-adv-x="356" 
d="M84 952v498q0 14 12 14h166q13 0 10 -10l-30 -502q0 -12 -15 -12h-131q-12 0 -12 12z" />
    <glyph glyph-name="parenleft" unicode="(" horiz-adv-x="700" 
d="M102 606q0 158 29.5 306t79.5 265t103.5 206t115.5 161q10 10 21 10h167q8 0 11 -4t-2 -12q-170 -212 -256 -440.5t-86 -491.5q0 -264 86 -493t256 -441q5 -8 2 -12t-11 -4h-167q-11 0 -21 10q-62 73 -116 162t-104 206t-79 265t-29 307z" />
    <glyph glyph-name="parenright" unicode=")" horiz-adv-x="692" 
d="M598 602q0 -158 -29 -305.5t-79.5 -264.5t-104 -205.5t-115.5 -160.5q-10 -10 -20 -10h-168q-8 0 -10.5 4t2.5 12q170 213 256 440.5t86 491.5t-86 493t-256 441q-5 8 -2.5 12t10.5 4h168q10 0 20 -10q63 -73 117 -162t103.5 -206t78.5 -265.5t29 -308.5z" />
    <glyph glyph-name="asterisk" unicode="*" horiz-adv-x="806" 
d="M479 967l193 -260q8 -9 -2 -19l-105 -67q-10 -5 -16 8l-166 282l-217 -233q-5 -9 -14 0l-80 84q-9 9 0 18l237 205l-268 109q-9 3 -6 16l59 117q3 11 17 4l241 -152l21 307q0 13 12 11l139 -17q11 -3 11 -14l-74 -301l278 78q10 3 15 -8l22 -125q0 -15 -8 -15z" />
    <glyph glyph-name="plus" unicode="+" horiz-adv-x="1140" 
d="M506 1049h131q10 0 10 -13v-430h414q12 0 12 -14v-119q0 -12 -14 -12h-412v-436q0 -11 -12 -11h-129q-10 0 -10 11v436h-414q-8 0 -11 2.5t-3 11.5v121q0 10 12 10h416v432q0 11 10 11z" />
    <glyph glyph-name="comma" unicode="," horiz-adv-x="378" 
d="M156 -291h-142q-7 0 -10 5.5t0 11.5q68 139 91.5 264.5t15.5 269.5q0 10 10 10h162q11 0 14 -14q9 -149 -22 -288t-101 -247q-6 -12 -18 -12z" />
    <glyph glyph-name="hyphen" unicode="-" horiz-adv-x="647" 
d="M559 432h-469q-12 0 -12 12v152q0 12 12 12h467q12 0 12 -12v-152q0 -12 -10 -12z" />
    <glyph glyph-name="period" unicode="." horiz-adv-x="380" 
d="M190 -20q-56 0 -91.5 35t-35.5 94q0 54 36 89t91 35q56 0 90.5 -34.5t34.5 -89.5q0 -59 -33.5 -94t-91.5 -35z" />
    <glyph glyph-name="slash" unicode="/" horiz-adv-x="729" 
d="M649 1427l-409 -1505q-3 -8 -13 -8h-139q-11 0 -8 12l409 1504q2 8 13 8h139q11 0 8 -11z" />
    <glyph glyph-name="zero" unicode="0" horiz-adv-x="1095" 
d="M547 1149q-116 0 -186 -124t-70 -366q0 -234 67 -369.5t197 -135.5q250 0 250 499q0 496 -258 496zM553 -20q-119 0 -210 52t-145 145t-81 212.5t-27 263.5q0 190 51.5 339.5t157.5 239t252 89.5q106 0 188.5 -41.5t131.5 -107t80.5 -156t43 -178.5t11.5 -185
q0 -105 -14 -199.5t-47.5 -182.5t-84 -151.5t-129.5 -101.5t-178 -38z" />
    <glyph glyph-name="one" unicode="1" horiz-adv-x="669" 
d="M467 0h-176q-15 0 -15 14v1082q-47 -28 -115 -53.5t-118 -34.5q-14 -3 -14 10v143q0 13 12 15q73 20 151 54t132 70q9 9 30 9h113q10 0 10 -13v-1282q0 -14 -10 -14z" />
    <glyph glyph-name="two" unicode="2" horiz-adv-x="985" 
d="M874 0h-817q-12 0 -12 14v111q0 16 6 20q229 182 363 310q140 133 190.5 232.5t50.5 201.5q0 113 -64 181.5t-194 68.5q-153 0 -301 -88q-16 -10 -16 8v151q0 15 10 21q160 90 348 90q84 0 154.5 -22t119.5 -60t82.5 -90t49.5 -112t16 -126q0 -125 -54 -241.5
t-185 -245.5q-120 -120 -285 -256q72 6 313 6h264q10 0 13 -2.5t2 -9.5l-37 -148q-3 -14 -17 -14z" />
    <glyph glyph-name="three" unicode="3" horiz-adv-x="1005" 
d="M397 594h-100q-14 0 -14 12v152q0 16 12 16h86q128 0 198 46t70 134q0 86 -61 137.5t-182 51.5q-151 0 -297 -82q-13 -5 -13 8v152q0 14 8 20q147 80 336 80q191 0 298.5 -93.5t107.5 -246.5q0 -73 -33.5 -133.5t-76.5 -94t-93 -51.5q48 -12 91.5 -35t85 -61t66.5 -97.5
t25 -133.5q0 -123 -66 -214t-176.5 -136t-250.5 -45q-208 0 -336 71q-10 5 -10 23v166q0 6 5 7.5t9 -1.5q166 -88 326 -88q150 0 222.5 61t72.5 158q0 108 -82 162.5t-228 54.5z" />
    <glyph glyph-name="four" unicode="4" horiz-adv-x="1050" 
d="M655 328h-589q-13 0 -13 10v131q0 15 6 23l543 798q13 13 25 13h207q12 0 12 -15v-794h162q16 0 12 -15l-23 -143q-3 -8 -16 -8h-135v-314q0 -14 -12 -14h-164q-15 0 -15 14v314zM655 494v223q0 209 11 401h-2q-21 -43 -101.5 -167.5t-191 -289.5t-111.5 -167h395z" />
    <glyph glyph-name="five" unicode="5" horiz-adv-x="1001" 
d="M803 1124h-434q-57 -221 -68 -274q312 -32 457 -144.5t145 -306.5q0 -188 -132 -303.5t-353 -115.5q-191 0 -320 63q-10 7 -10 23v163q0 6 4.5 8.5t9.5 0.5q147 -80 316 -80q145 0 213.5 64.5t68.5 160.5q0 138 -133.5 210.5t-443.5 98.5q-17 0 -17 15v79q4 19 37.5 142
t65.5 240t33 120q5 12 16 12h596q13 0 8 -12l-43 -151q-3 -13 -16 -13z" />
    <glyph glyph-name="six" unicode="6" horiz-adv-x="1095" 
d="M549 670q-138 0 -254 -86q-6 -36 -6 -82q0 -161 75.5 -253.5t198.5 -92.5q114 0 180 72.5t66 183.5q0 119 -69.5 188.5t-190.5 69.5zM895 1309v-150q0 -10 -8 -12q-200 -32 -347.5 -134.5t-207.5 -262.5q123 84 274 84q176 0 292 -113t116 -301q0 -85 -30 -163
t-85.5 -140.5t-144.5 -99.5t-197 -37q-146 0 -253 70t-160.5 187.5t-53.5 266.5q0 163 62.5 305.5t170.5 246.5t253.5 172.5t312.5 92.5q4 1 5 -2t1 -10z" />
    <glyph glyph-name="seven" unicode="7" horiz-adv-x="913" 
d="M47 1300h827q11 0 11 -10v-112q0 -12 -6 -27q-226 -512 -525 -1141q-5 -10 -16 -10h-191q-12 0 -6 12q126 256 245 504.5t196.5 411t93.5 194.5h-656q-10 0 -10 15l27 155q3 8 10 8z" />
    <glyph glyph-name="eight" unicode="8" horiz-adv-x="1058" 
d="M528 1153q-98 0 -153.5 -56.5t-55.5 -142.5q0 -104 76 -174q16 -16 47 -16h179q31 0 49 18q67 67 67 164t-57.5 152t-151.5 55zM532 152q115 0 177.5 62t64.5 159q3 133 -102 202q-27 17 -47 17h-187q-22 0 -41 -12q-50 -29 -81 -81.5t-31 -119.5q0 -103 70 -165t177 -62
zM532 1321q95 0 172 -30.5t124.5 -81t72.5 -113t25 -129.5q0 -96 -42.5 -167t-99.5 -114q191 -117 191 -324q0 -171 -127 -276.5t-326 -105.5q-203 0 -320.5 109t-117.5 273q0 100 51.5 180t138.5 132q-147 111 -147 291q0 148 108 252t297 104z" />
    <glyph glyph-name="nine" unicode="9" horiz-adv-x="1083" 
d="M221 -6l-2 147q0 12 12 15q191 45 322 144t188 232q-109 -59 -239 -59q-184 0 -303 111.5t-119 298.5q0 87 32 166t90 139.5t145 96.5t190 36q202 0 327 -144t125 -386q0 -134 -39.5 -254t-109.5 -213t-165 -165t-206 -117t-233 -62q-15 -3 -15 14zM555 637q136 0 225 65
q6 60 6 89q0 165 -69 261.5t-191 96.5q-113 0 -177 -74.5t-64 -183.5q0 -127 74.5 -190.5t195.5 -63.5z" />
    <glyph glyph-name="colon" unicode=":" horiz-adv-x="501" 
d="M252 670q-56 0 -91.5 35t-35.5 94q0 55 35.5 90t91.5 35t90.5 -35t34.5 -90q0 -59 -33.5 -94t-91.5 -35zM252 -20q-56 0 -91.5 35t-35.5 94q0 56 35 90t92 34q56 0 90.5 -34.5t34.5 -89.5q0 -59 -33.5 -94t-91.5 -35z" />
    <glyph glyph-name="semicolon" unicode=";" horiz-adv-x="501" 
d="M252 670q-56 0 -91.5 35t-35.5 94q0 56 35 90.5t92 34.5q56 0 90.5 -35t34.5 -90q0 -59 -33.5 -94t-91.5 -35zM203 -291h-142q-7 0 -10 5.5t0 11.5q69 138 92 263.5t15 270.5q0 10 10 10h162q11 0 14 -14q11 -147 -20.5 -286.5t-102.5 -248.5q-6 -12 -18 -12z" />
    <glyph glyph-name="less" unicode="&#x3c;" horiz-adv-x="1114" 
d="M119 477v115q0 8 8 16l854 441q14 7 14 -9v-133q0 -8 -12 -16l-696 -354v-5l698 -358q10 -3 10 -14v-131q0 -17 -12 -11l-854 443q-10 5 -10 16z" />
    <glyph glyph-name="equal" unicode="=" horiz-adv-x="1122" 
d="M61 788q0 13 15 13h973q12 0 12 -13v-118q0 -15 -17 -15h-968q-15 0 -15 15v118zM61 399q0 13 15 13h971q14 0 14 -15v-116q0 -15 -17 -15h-968q-15 0 -15 15v118z" />
    <glyph glyph-name="greater" unicode="&#x3e;" horiz-adv-x="1114" 
d="M995 590v-111q0 -11 -10 -16l-856 -445q-10 -7 -10 9v131q0 13 10 16l696 356v5l-696 356q-10 7 -10 16v133q0 6 4 9t8 0l854 -443q10 -5 10 -16z" />
    <glyph glyph-name="question" unicode="?" horiz-adv-x="845" 
d="M426 1372q168 0 264 -89.5t96 -227.5q0 -91 -34 -157.5t-97 -129.5q-94 -91 -118 -122q-41 -53 -41 -95q0 -57 39 -121q3 -4 0 -8t-9 -4h-145q-15 0 -23 6q-49 60 -49 145q0 35 10 65.5t38.5 68t47 57.5t68.5 71q60 61 84.5 102.5t24.5 94.5q0 71 -47.5 113.5
t-143.5 42.5q-128 0 -254 -72q-14 -4 -14 8v162q0 14 6 18q125 72 297 72zM442 -20q-53 0 -85.5 32t-32.5 88q0 52 32.5 84.5t85.5 32.5q54 0 87.5 -33t33.5 -84q0 -56 -32 -88t-89 -32z" />
    <glyph glyph-name="at" unicode="@" horiz-adv-x="1722" 
d="M999 145l35 607q-24 8 -76 8q-129 0 -206.5 -91.5t-77.5 -228.5q0 -131 69.5 -215t200.5 -84q39 0 55 4zM1208 862l-41 -700q32 7 66.5 22.5t75.5 49t72.5 79t53 118.5t21.5 161q0 245 -149 388.5t-389 143.5q-135 0 -252 -44.5t-204.5 -127.5t-137.5 -211t-50 -286
q0 -439 365 -629q10 -5 10 -16l-4 -160q0 -9 -2.5 -10t-9.5 2q-252 98 -396.5 309.5t-144.5 494.5q0 179 61 333t169.5 264.5t264.5 173.5t339 63q148 0 276.5 -47t223 -133t148.5 -214t54 -282q0 -150 -52.5 -270t-144 -196t-210.5 -116t-256 -40q-211 0 -338 116t-127 328
q0 214 139 348.5t344 134.5q136 0 213 -32q12 -3 12 -15z" />
    <glyph glyph-name="A" unicode="A" horiz-adv-x="1216" 
d="M852 399h-508l-135 -385q-3 -14 -19 -14h-163q-19 0 -13 16l437 1229q12 31 16 94q0 11 10 11h234q11 0 14 -11l477 -1323q3 -16 -10 -16h-184q-13 0 -19 12zM397 582h400q-3 11 -89.5 265.5t-109.5 338.5h-2q-10 -38 -26 -90.5t-39.5 -122t-41.5 -122.5t-48 -141
t-44 -128z" />
    <glyph glyph-name="B" unicode="B" horiz-adv-x="1163" 
d="M160 16v1315q0 15 10 17q114 6 371 6q87 0 158 -13t119.5 -34.5t85.5 -52t58 -61t34 -67t17.5 -65.5t4.5 -60q0 -100 -42 -168.5t-97 -107.5q36 -16 68 -39.5t66 -61.5t54 -94.5t20 -123.5q0 -195 -151.5 -302.5t-400.5 -107.5q-207 0 -363 4q-12 2 -12 16zM356 623v-453
q90 -4 168 -4q165 -2 261 57.5t96 177.5q0 76 -42.5 130t-129.5 77q-61 15 -152 15h-201zM356 1180v-383h179q121 0 188 -13q98 68 98 191q0 209 -286 209q-101 0 -179 -4z" />
    <glyph glyph-name="C" unicode="C" horiz-adv-x="1132" 
d="M1065 188v-147q0 -21 -12 -23q-86 -38 -277 -38q-110 0 -210.5 25t-190 80t-155 135t-104 197t-38.5 259q0 204 89 361t254 245t382 88q192 0 264 -35q10 -5 10 -20v-158q0 -19 -14 -10q-92 45 -264 45q-233 0 -373.5 -139t-140.5 -371q0 -115 33 -207t85.5 -149
t122 -95.5t137 -53.5t136.5 -15q162 0 254 35q12 3 12 -9z" />
    <glyph glyph-name="D" unicode="D" horiz-adv-x="1337" 
d="M160 18v1315q0 13 12 15q165 6 369 6q173 0 310.5 -48t226.5 -135.5t135.5 -207.5t46.5 -265q0 -148 -43.5 -268.5t-115 -199.5t-167.5 -133t-197.5 -77.5t-208.5 -23.5q-220 0 -356 4q-12 0 -12 18zM360 1176v-1000q78 -4 158 -4q160 0 279 57.5t187.5 176.5t68.5 288
q0 235 -141.5 360.5t-372.5 125.5q-69 0 -179 -4z" />
    <glyph glyph-name="E" unicode="E" horiz-adv-x="1058" 
d="M1010 168l-25 -154q-2 -14 -16 -14h-793q-10 0 -13 3.5t-3 12.5v1319q0 15 14 15h764q9 0 11.5 -2.5t4.5 -10.5l19 -153q4 -15 -12 -15h-601v-389h545q13 0 13 -12v-156q0 -14 -15 -14h-543v-416h637q16 0 13 -14z" />
    <glyph glyph-name="F" unicode="F" horiz-adv-x="1013" 
d="M360 571v-557q0 -14 -16 -14h-174q-10 0 -10 14v1323q0 13 12 13h768q5 0 7.5 -1.5t4 -4t2.5 -7.5l19 -153q3 -15 -15 -15h-598v-415h535q14 0 14 -15v-153q0 -15 -14 -15h-535z" />
    <glyph glyph-name="G" unicode="G" horiz-adv-x="1308" 
d="M993 555l-264 6q-14 2 -14 17v147q0 10 12 10h451q14 0 14 -14v-655q3 -14 -10 -19q-173 -67 -389 -67q-172 0 -309.5 53t-225.5 146.5t-134 218t-46 270.5q0 211 94 371t262.5 245.5t388.5 85.5q224 0 328 -49q10 -5 10 -23v-157q0 -18 -14 -11q-112 58 -318 62
q-256 1 -400 -136.5t-144 -381.5q0 -146 57.5 -261t176.5 -185t284 -70q119 0 190 26v371z" />
    <glyph glyph-name="H" unicode="H" horiz-adv-x="1357" 
d="M1184 0h-172q-15 0 -15 14v600h-637v-598q0 -16 -14 -16h-170q-16 0 -16 16v1319q0 15 14 15h172q14 0 14 -13v-542h637v542q0 13 13 13h176q12 0 12 -13v-1323q0 -14 -14 -14z" />
    <glyph glyph-name="I" unicode="I" horiz-adv-x="520" 
d="M360 1337v-1321q0 -16 -14 -16h-172q-14 0 -14 16v1319q0 15 14 15h172q14 0 14 -13z" />
    <glyph glyph-name="J" unicode="J" horiz-adv-x="618" 
d="M268 348v989q0 13 15 13h174q12 0 12 -13v-968q0 -127 -14 -187q-34 -151 -135 -221t-248 -70q-49 0 -84 9q-13 2 -13 20v150q0 15 15 12q58 -4 63 -4q107 0 161 61t54 209z" />
    <glyph glyph-name="K" unicode="K" horiz-adv-x="1167" 
d="M584 692l622 -672q6 -8 4 -14t-10 -6h-211q-19 0 -31 14l-598 643v-641q0 -16 -16 -16h-170q-14 0 -14 18v1319q0 13 12 13h174q14 0 14 -15v-635l580 639q8 11 23 11h190q10 0 12.5 -6.5t-2.5 -12.5l-579 -622q-8 -9 0 -17z" />
    <glyph glyph-name="L" unicode="L" horiz-adv-x="999" 
d="M948 0h-772q-16 0 -16 18v1317q0 15 12 15h176q12 0 12 -13v-1155h621q15 0 12 -14l-28 -154q-2 -14 -17 -14z" />
    <glyph glyph-name="M" unicode="M" horiz-adv-x="1697" 
d="M221 1339q2 11 15 11h266q13 0 18 -13q12 -39 71.5 -226t104 -329.5t92 -300.5t62.5 -221h2q26 100 185 567.5t173 509.5q3 13 15 13h260q11 0 14 -11l64 -1325q3 -14 -13 -14h-182q-14 0 -14 12q-29 832 -29 1196h-2q-28 -110 -192.5 -613.5t-188.5 -580.5
q-5 -14 -18 -14h-168q-17 0 -19 14q-298 979 -352 1196h-4q-3 -262 -53 -1196q0 -14 -15 -14h-163q-10 0 -13 2.5t-2 11.5z" />
    <glyph glyph-name="N" unicode="N" horiz-adv-x="1382" 
d="M336 0h-160q-9 0 -12.5 3t-3.5 13v1321q0 13 12 13h236q15 0 20 -13q157 -267 357 -618.5t251 -458.5h2q-4 110 -4 313v762q0 15 15 15h159q15 0 15 -17v-1317q0 -16 -19 -16h-213q-17 0 -22 12q-18 34 -302 533t-325 600h-2q8 -120 8 -369v-760q0 -16 -12 -16z" />
    <glyph glyph-name="O" unicode="O" horiz-adv-x="1404" 
d="M702 1370q190 0 333 -92.5t216 -247.5t74 -348q1 -321 -171.5 -511.5t-448.5 -190.5q-192 0 -335.5 91t-217.5 248.5t-74 358.5q0 199 79.5 357t222 246.5t322.5 88.5zM285 678q0 -108 28 -201.5t80 -164.5t134 -111.5t184 -40.5q190 0 299.5 141t107.5 375
q0 232 -114 374t-306 142q-181 0 -297 -136t-116 -378z" />
    <glyph glyph-name="P" unicode="P" horiz-adv-x="1128" 
d="M160 12v1321q0 15 12 15q210 6 352 6q137 0 242 -36t167 -98t93 -139t31 -166q0 -115 -43.5 -205t-119.5 -144.5t-174.5 -82.5t-213.5 -28q-43 0 -85.5 1t-62.5 1v-443q0 -14 -12 -14h-174q-12 0 -12 12zM358 1174v-537q74 -4 146 -4q75 0 136 14.5t111.5 45.5t78.5 86.5
t28 131.5q0 128 -88.5 198.5t-241.5 70.5q-77 0 -170 -6z" />
    <glyph glyph-name="Q" unicode="Q" horiz-adv-x="1404" 
d="M289 678q0 -145 48 -261t146 -186.5t232 -70.5q191 0 300 140.5t109 375.5q-2 233 -114.5 374.5t-304.5 141.5q-183 0 -299.5 -136t-116.5 -378zM1380 -276h-258q-5 0 -10.5 2t-10.5 4.5l-7 3.5q-33 28 -133.5 117.5t-151.5 134.5q-49 -6 -100 -6q-192 0 -335 91
t-216.5 248.5t-73.5 358.5q0 199 79 357t221.5 246.5t322.5 88.5q143 0 261 -53.5t196.5 -147t121 -218.5t43.5 -269q1 -216 -80.5 -377t-226.5 -246q266 -240 362 -321q3 -3 2.5 -8.5t-6.5 -5.5z" />
    <glyph glyph-name="R" unicode="R" horiz-adv-x="1173" 
d="M342 0h-168q-8 0 -11 2.5t-3 11.5v1317q0 17 12 17q199 6 375 6q239 0 374.5 -101.5t135.5 -294.5q0 -133 -77.5 -226t-199.5 -134q57 -78 203.5 -296t185.5 -284q9 -18 -6 -18h-205q-14 0 -24 10q-33 50 -154.5 239.5t-165.5 258.5q-11 20 -20.5 27.5t-26.5 7.5h-211
v-529q0 -14 -14 -14zM356 715h203q138 0 217.5 63t79.5 170q0 111 -81.5 171.5t-233.5 60.5q-74 0 -185 -6v-459z" />
    <glyph glyph-name="S" unicode="S" horiz-adv-x="993" 
d="M438 -20q-219 0 -350 75q-12 7 -12 27v174q0 6 4 8t10 -2q154 -102 356 -102q135 0 202 50.5t67 137.5q0 70 -50.5 123.5t-177.5 108.5l-94 38q-121 52 -192.5 115.5t-96 125t-24.5 138.5q0 167 120.5 270t334.5 103q210 0 305 -53q12 -7 12 -23v-161q0 -7 -4 -10t-12 1
q-115 68 -306 68q-71 0 -123.5 -16t-80 -42.5t-40 -56t-12.5 -61.5q0 -66 49.5 -116.5t176.5 -106.5l84 -35q184 -76 259 -171t75 -220q0 -175 -128 -281t-352 -106z" />
    <glyph glyph-name="T" unicode="T" horiz-adv-x="1079" 
d="M438 16v1153h-428q-15 0 -12 15l22 153q3 13 19 13h1008q13 0 16 -15l18 -149q3 -17 -14 -17h-428v-1153q0 -16 -14 -16h-168q-19 0 -19 16z" />
    <glyph glyph-name="U" unicode="U" horiz-adv-x="1323" 
d="M342 1337v-829q0 -163 83.5 -256.5t240.5 -93.5q315 0 315 354v823q0 15 14 15h172q15 0 15 -15v-829q0 -138 -40 -241.5t-112 -164.5t-165 -90.5t-206 -29.5q-242 0 -380 131t-138 385v839q0 15 15 15h172q14 0 14 -13z" />
    <glyph glyph-name="V" unicode="V" horiz-adv-x="1224" 
d="M625 199h4q109 381 377 1138q5 13 18 13h178q16 0 10 -17l-479 -1321q-5 -12 -18 -12h-193q-13 0 -20 12l-490 1321q-7 17 11 17h188q11 0 14 -11q344 -931 400 -1140z" />
    <glyph glyph-name="W" unicode="W" horiz-adv-x="1746" 
d="M1006 1337q189 -779 258 -1101h2q93 426 254 1101q3 13 16 13h172q18 0 12 -15l-350 -1323q-5 -12 -18 -12h-187q-16 0 -18 12q-232 975 -262 1118h-2q-31 -167 -289 -1114q-3 -16 -19 -16h-180q-15 0 -20 16l-348 1319q-3 15 10 15h186q15 0 19 -11q231 -942 256 -1101
h2q10 51 37.5 157.5t95 370t143.5 571.5q3 13 19 13h194q12 0 17 -13z" />
    <glyph glyph-name="X" unicode="X" horiz-adv-x="1085" 
d="M1069 1333l-399 -639l428 -676q5 -6 2 -12t-10 -6h-201q-21 0 -27 14q-114 182 -336 547h-2q-172 -306 -315 -547q-8 -14 -23 -14h-192q-17 0 -8 18l411 662l-401 655q-4 6 -1 10.5t9 4.5h201q16 0 20 -11q51 -90 158 -269t158 -269h2q5 10 313 536q6 13 23 13h182
q18 0 8 -17z" />
    <glyph glyph-name="Y" unicode="Y" horiz-adv-x="1075" 
d="M422 551l-447 782q-5 9 -1 13t12 4h198q11 0 17 -9q314 -582 346 -653q40 84 340 651q3 11 16 11h191q11 0 8 -13l-451 -792q-16 -24 -16 -56v-473q0 -16 -14 -16h-168q-19 0 -19 16v480q0 31 -12 55z" />
    <glyph glyph-name="Z" unicode="Z" horiz-adv-x="1097" 
d="M1030 0h-987q-14 0 -14 14v111q0 11 6 20l756 1024h-728q-15 0 -12 15l25 153q5 13 16 13h942q10 0 10 -11v-116q0 -14 -8 -27l-747 -1014h776q16 0 10 -16l-28 -152q-3 -14 -17 -14z" />
    <glyph glyph-name="bracketleft" unicode="[" horiz-adv-x="628" 
d="M291 1395v-1581l266 -7q10 0 10 -10v-123q-3 -10 -12 -10h-408q-14 0 -14 17v1845q0 16 14 16h408q10 0 10 -10v-123q0 -10 -10 -10z" />
    <glyph glyph-name="backslash" unicode="\" horiz-adv-x="722" 
d="M477 -74l-397 1499q-4 13 8 13h135q14 0 17 -11l403 -1497q2 -10 0 -13t-10 -3h-137q-13 0 -19 12z" />
    <glyph glyph-name="bracketright" unicode="]" horiz-adv-x="645" 
d="M356 -188v1579l-268 6q-8 0 -8 10v125q0 10 10 10h410q14 0 14 -18v-1846q0 -14 -16 -14h-408q-8 0 -8 8v125q0 10 10 10z" />
    <glyph glyph-name="asciicircum" unicode="^" horiz-adv-x="1024" 
d="M946 526h-135q-10 0 -20 13l-281 620h-2l-270 -620q-6 -13 -17 -13h-133q-6 0 -9.5 4.5t-0.5 10.5l340 751q4 8 12 8h156q14 0 16 -10l350 -747q4 -7 2 -12t-8 -5z" />
    <glyph glyph-name="underscore" unicode="_" horiz-adv-x="1056" 
d="M0 -152h1059v-100h-1059v100z" />
    <glyph glyph-name="grave" unicode="`" 
d="M322 1444l215 -293q3 -5 0 -9.5t-9 -4.5h-159q-11 0 -19 12l-254 289q-3 6 -1 11t7 5h201q11 0 19 -10z" />
    <glyph glyph-name="a" unicode="a" horiz-adv-x="989" 
d="M655 172v293q-58 8 -125 8q-137 0 -204.5 -43t-67.5 -123q0 -72 55 -120t172 -48q94 0 170 33zM850 629v-441q0 -73 4 -110q0 -6 -4 -8q-112 -50 -205 -70t-194 -20q-173 0 -281.5 83.5t-108.5 241.5q0 157 127.5 238.5t331.5 81.5q95 0 135 -4v38q0 20 -4 41.5
t-18.5 48.5t-37 47.5t-64.5 35t-97 14.5q-144 0 -264 -60q-5 -3 -9.5 0.5t-4.5 10.5v145q0 11 12 16q124 62 299 62q98 0 173 -30t120 -84.5t67.5 -124t22.5 -152.5z" />
    <glyph glyph-name="b" unicode="b" horiz-adv-x="1091" 
d="M152 1464h172q9 0 12.5 -2.5t3.5 -11.5v-465q93 35 207 35q214 0 344.5 -135t130.5 -344q0 -135 -49 -244t-131.5 -177t-185 -104t-214.5 -36q-162 0 -290 43q-13 3 -13 18v1411q0 12 13 12zM817 522q0 152 -82.5 239t-220.5 87q-96 0 -174 -31v-653q61 -14 119 -14
q71 0 134.5 23.5t114 68.5t80 117t29.5 163z" />
    <glyph glyph-name="c" unicode="c" horiz-adv-x="868" 
d="M817 176v-149q0 -13 -8 -15q-81 -32 -225 -32q-121 0 -219.5 40.5t-162.5 111.5t-98 164t-34 200q0 228 150.5 376t393.5 148q136 0 195 -25q10 -3 10 -18l-2 -150q0 -15 -14 -10q-79 29 -185 29q-153 0 -248.5 -92.5t-95.5 -249.5q0 -168 100.5 -256t246.5 -88
q113 0 184 24q12 2 12 -8z" />
    <glyph glyph-name="d" unicode="d" horiz-adv-x="1087" 
d="M584 -20q-148 0 -263 56t-184 173.5t-69 282.5q0 228 157.5 378t411.5 150q61 0 113 -8v440q0 12 12 12h176q12 0 12 -10v-1270q0 -75 4 -110q0 -14 -10 -19q-174 -75 -360 -75zM750 176v658q-41 16 -119 16q-161 0 -259 -96t-98 -252q0 -91 26.5 -159.5t73 -108.5
t104 -60t124.5 -20q89 0 148 22z" />
    <glyph glyph-name="e" unicode="e" horiz-adv-x="1001" 
d="M707 465h-435q0 -138 84 -224.5t246 -86.5q144 0 254 51q10 7 10 -8v-138q0 -15 -10 -20q-115 -59 -295 -59q-130 0 -228.5 44t-154.5 118.5t-83 162.5t-27 187q0 144 53.5 263t160.5 192t250 73q86 0 156.5 -26t116 -68.5t77 -98t45 -112t13.5 -113.5q0 -75 -8 -115
q0 -11 -14 -14q-62 -8 -211 -8zM272 612h353q109 0 125 4v19q0 23 -6 50t-22 58.5t-40.5 56.5t-65.5 41.5t-92 16.5q-110 0 -173.5 -71.5t-78.5 -174.5z" />
    <glyph glyph-name="f" unicode="f" horiz-adv-x="534" 
d="M156 829h-129q-13 3 -13 15v145q0 12 13 12h129v64q0 159 49 250q82 170 280 170q63 0 97 -15q12 -5 12 -18v-141q0 -17 -14 -11q-30 9 -68 9q-75 0 -115.5 -51t-40.5 -175v-82h191q14 0 14 -12v-145q0 -12 -14 -15h-191v-815q0 -14 -14 -14h-170q-16 0 -16 14v815z" />
    <glyph glyph-name="g" unicode="g" horiz-adv-x="1024" 
d="M580 14l-218 11q-54 -36 -88 -86t-34 -82q0 -69 79 -122.5t209 -53.5q149 0 228.5 56t79.5 132q0 39 -19.5 67.5t-57 44t-80.5 23.5t-99 10zM489 872q-89 0 -141.5 -53.5t-52.5 -142.5q0 -87 50.5 -141t141.5 -54q90 0 140.5 50.5t50.5 140.5q0 87 -48 143.5t-141 56.5z
M414 197l209 -11q198 -10 298.5 -83t100.5 -205q0 -157 -140 -264t-366 -107q-113 0 -204.5 27.5t-147 73t-84.5 100t-29 112.5q0 109 197 275q-48 70 -45 155q0 70 35 129q-140 92 -140 273q0 151 105.5 249.5t285.5 98.5q94 0 166 -14q20 -5 43 -5h289q12 0 12 -12v-137
q0 -12 -12 -12q-84 0 -178 8q61 -65 61 -180q0 -161 -106.5 -248.5t-271.5 -87.5q-57 0 -101 8q-16 -32 -10 -68q6 -40 33 -75z" />
    <glyph glyph-name="h" unicode="h" horiz-adv-x="1110" 
d="M338 748v-734q0 -14 -12 -14h-174q-15 0 -15 14v1438q0 12 15 12h174q12 0 12 -12l2 -541q124 109 295 109q48 0 91.5 -9.5t89.5 -36.5t79.5 -70t54.5 -115t21 -166v-607q0 -16 -17 -16h-168q-18 0 -18 16v586q0 115 -49.5 179.5t-147.5 64.5q-138 0 -233 -98z" />
    <glyph glyph-name="i" unicode="i" horiz-adv-x="479" 
d="M139 16v971q0 14 13 14h174q8 0 11 -2.5t3 -11.5v-971q0 -9 -2.5 -12.5t-11.5 -3.5h-170q-17 0 -17 16zM240 1176q-54 0 -85.5 32t-31.5 86q0 51 33.5 85t85.5 34q54 0 85 -33.5t31 -85.5q0 -54 -32 -86t-86 -32z" />
    <glyph glyph-name="j" unicode="j" horiz-adv-x="481" 
d="M156 1001h172q14 0 14 -14v-973q0 -155 -25 -235t-77 -141q-43 -51 -112.5 -75t-133.5 -24q-27 0 -41 2q-12 2 -12 19v143q0 14 12 14q44 1 74.5 10.5t58.5 34.5t41.5 76t13.5 127v1022q0 14 15 14zM242 1176q-54 0 -85.5 32t-31.5 86q0 51 33.5 85t85.5 34
q53 0 84.5 -33.5t31.5 -85.5q0 -54 -32 -86t-86 -32z" />
    <glyph glyph-name="k" unicode="k" horiz-adv-x="978" 
d="M770 1001h188q9 0 12 -5.5t-3 -12.5q-51 -57 -428 -434v-8q274 -299 489 -525q5 -4 2 -10t-10 -6h-229q-14 0 -23 12q-157 161 -430 475v-471q0 -9 -2.5 -12.5t-11.5 -3.5h-170q-10 0 -13.5 3.5t-3.5 12.5v1434q0 14 17 14h170q14 0 14 -14v-899q35 37 133.5 142.5
t176 188t100.5 107.5q7 12 22 12z" />
    <glyph glyph-name="l" unicode="l" horiz-adv-x="512" 
d="M137 221v1229q0 14 17 14h170q14 0 14 -14v-1212q0 -52 19.5 -72.5t58.5 -20.5q6 0 12 1t13.5 2t13.5 2t8 -1.5t2 -9.5v-125q0 -15 -12 -20q-35 -14 -103 -14q-47 0 -82 10t-66.5 35t-48 74.5t-16.5 121.5z" />
    <glyph glyph-name="m" unicode="m" horiz-adv-x="1716" 
d="M326 0h-174q-15 0 -15 16v768q0 125 -8 203q0 14 14 14h152q9 0 18 -12q9 -28 13 -92q134 123 305 123q188 0 268 -143q150 143 340 143q65 0 121 -18.5t107 -60.5t80.5 -122.5t29.5 -191.5v-613q0 -14 -16 -14h-170q-15 0 -15 16v594q0 105 -48 170.5t-146 65.5
q-132 0 -234 -105q10 -42 10 -127v-598q0 -16 -14 -16h-170q-16 0 -16 16v600q0 111 -50 170.5t-143 59.5q-120 0 -227 -101v-731q0 -14 -12 -14z" />
    <glyph glyph-name="n" unicode="n" horiz-adv-x="1110" 
d="M137 16v752q0 145 -8 219q0 14 14 14h150q14 0 20 -14q10 -30 13 -92q134 125 309 125q48 0 91.5 -9.5t89.5 -36.5t79.5 -70t54.5 -115t21 -166v-607q0 -16 -17 -16h-168q-18 0 -18 16v588q0 113 -49.5 177.5t-147.5 64.5q-139 0 -233 -111v-721q0 -14 -14 -14h-172
q-15 0 -15 16z" />
    <glyph glyph-name="o" unicode="o" horiz-adv-x="1093" 
d="M551 1020q146 0 254.5 -69t163.5 -185t55 -262q0 -234 -132 -379t-343 -145q-120 0 -215 45t-151.5 120.5t-85.5 166t-29 188.5q0 145 58.5 262.5t169.5 187.5t255 70zM541 850q-120 0 -195.5 -94.5t-75.5 -251.5q0 -155 76.5 -254.5t206.5 -99.5q112 0 190 90t78 258
q0 71 -16 133t-49 112t-88 78.5t-127 28.5z" />
    <glyph glyph-name="p" unicode="p" horiz-adv-x="1091" 
d="M532 1020q154 0 266.5 -65.5t168 -174t55.5 -245.5q0 -109 -33.5 -201t-91 -156t-134 -109.5t-162.5 -67t-177 -21.5q-48 0 -86 6v-394q0 -12 -12 -14q-165 -18 -176 -18q-13 0 -13 12v1257q0 47 -4 101q0 8 6 10q147 51 236 66q80 14 157 14zM510 848q-87 0 -172 -29
v-659q39 -10 104 -10q71 0 136 22.5t119.5 66t87 117t32.5 166.5q0 152 -80.5 239t-226.5 87z" />
    <glyph glyph-name="q" unicode="q" horiz-adv-x="1091" 
d="M565 -20q-102 0 -191.5 34t-158 97t-108 160t-39.5 216q0 113 40 211t112.5 169t180 112t236.5 41q180 0 317 -55q7 -2 7 -13q-9 -79 -9 -108v-1254q0 -12 -12 -14q-21 -2 -67.5 -7t-76 -8t-32.5 -3q-12 0 -12 14v436q-88 -28 -187 -28zM752 180v654q-52 16 -134 16
q-157 0 -250.5 -95t-93.5 -255q0 -85 27.5 -152.5t74 -108.5t103.5 -62t119 -21q86 0 154 24z" />
    <glyph glyph-name="r" unicode="r" horiz-adv-x="673" 
d="M139 1001h156q12 0 18 -14q15 -51 19 -135q55 74 143 121t187 47q14 0 14 -12v-177q0 -12 -17 -12q-104 1 -191.5 -37t-127.5 -96v-672q0 -14 -14 -14h-172q-15 0 -15 16v707q0 174 -12 266q0 12 12 12z" />
    <glyph glyph-name="s" unicode="s" horiz-adv-x="792" 
d="M666 799q-45 26 -111.5 42.5t-132.5 16.5q-87 0 -127.5 -33t-40.5 -80q0 -43 37.5 -75.5t142.5 -75.5q163 -61 231 -132.5t68 -180.5q0 -141 -104 -221t-277 -80q-183 0 -280 59q-11 5 -11 18v160q0 7 4.5 10t8.5 0q124 -82 284 -82q88 0 134.5 32t46.5 85q0 51 -39 85.5
t-142 74.5q-158 60 -225 132t-67 181q0 120 95 202.5t265 82.5q166 0 246 -41q12 -7 12 -23v-147q0 -8 -5 -11t-13 1z" />
    <glyph glyph-name="t" unicode="t" horiz-adv-x="618" 
d="M586 152v-121q0 -18 -13 -23q-71 -28 -161 -28q-123 0 -187.5 65t-64.5 209v575h-135q-13 3 -13 19v139q0 14 15 14h135q5 197 18 259q3 13 15 16l165 24q15 4 15 -10q-13 -152 -13 -289h209q15 0 15 -14v-143q0 -12 -13 -15h-213v-538q0 -73 28.5 -108.5t94.5 -35.5
q41 0 88 15q15 4 15 -10z" />
    <glyph glyph-name="u" unicode="u" horiz-adv-x="1095" 
d="M956 987v-766q0 -89 11 -207q3 -14 -13 -14h-155q-15 0 -17 12q-12 40 -12 80q-115 -112 -293 -112q-72 0 -130.5 20t-107 63t-75.5 120.5t-27 183.5v620q0 14 15 14h172q12 0 12 -14v-596q0 -111 51 -173t152 -62q128 0 217 92v739q0 14 14 14h172q14 0 14 -14z" />
    <glyph glyph-name="v" unicode="v" horiz-adv-x="954" 
d="M569 0h-192q-13 0 -21 12q-276 791 -342 975q-4 14 13 14h184q12 0 18 -12q215 -668 250 -803h4q25 85 265 803q5 12 16 12h166q16 0 10 -16q-14 -38 -166.5 -461.5t-185.5 -509.5q-6 -14 -19 -14z" />
    <glyph glyph-name="w" unicode="w" horiz-adv-x="1482" 
d="M1145 0h-189q-15 0 -18 16q-110 402 -199 783h-2q-49 -214 -215 -783q-5 -16 -20 -16h-185q-12 0 -16 3.5t-6 12.5l-268 969q-3 16 12 16h182q12 0 15 -12q137 -515 188 -799h4q2 6 18 77t34 143.5t61 229t98 345.5q2 10 4.5 13t11.5 3h195q11 0 14 -12
q143 -531 197 -801h4q3 13 15 72t24 113t33 142t53 209t72 265q3 12 16 12h168q13 0 10 -14l-293 -973q-3 -8 -6.5 -11t-11.5 -3z" />
    <glyph glyph-name="x" unicode="x" horiz-adv-x="899" 
d="M313 500l-313 485q-4 5 -1 10.5t11 5.5h197q13 0 22 -12l222 -375h4l231 377q8 10 19 10h176q7 0 10 -5t-2 -11q-4 -6 -88 -133t-138.5 -208t-93.5 -134q186 -286 336 -494q5 -6 3 -11t-11 -5h-205q-14 0 -22 14l-234 379h-2l-235 -383q-5 -10 -21 -10h-178q-8 0 -10 5
t2 11q40 58 156 235.5t165 248.5z" />
    <glyph glyph-name="y" unicode="y" horiz-adv-x="954" 
d="M18 1001h193q10 0 16 -12q203 -552 262 -747q47 142 261 747q3 12 16 12h172q13 0 10 -16q-209 -626 -551 -1399q-3 -12 -22 -12l-180 -14q-15 0 -9 16q108 225 199 442q7 14 0 27q-8 21 -155.5 387t-221.5 555q-3 6 0.5 10t9.5 4z" />
    <glyph glyph-name="z" unicode="z" horiz-adv-x="829" 
d="M780 0h-747q-10 0 -10 14v97q0 11 6 20q79 115 295 398.5t229 301.5q-37 -2 -203 -2h-303q-15 0 -12 17l24 141q3 14 17 14h704q10 0 13 -12v-102q0 -9 -11 -27q-84 -123 -195 -272t-212 -280.5t-105 -137.5h244h299q15 0 10 -14l-26 -144q-3 -12 -17 -12z" />
    <glyph glyph-name="braceleft" unicode="{" horiz-adv-x="765" 
d="M61 516q-10 0 -10 12v140q0 10 10 10q140 -1 193 44t53 148q1 47 -5.5 151t-6.5 144q0 50 10 95t37 93t69.5 84.5t114 63.5t164.5 35q10 0 10 -8l2 -123q0 -11 -10 -14q-72 -12 -120 -36t-70.5 -58t-30.5 -67t-8 -77q0 -45 6 -143.5t6 -143.5q0 -109 -46.5 -174.5
t-147.5 -91.5v-6q59 -13 99 -39.5t61 -65t29.5 -79t8.5 -91.5q1 -54 -7.5 -161t-8.5 -152q0 -96 52.5 -151t178.5 -76q11 -2 11 -12v-125q0 -11 -11 -11q-203 18 -301 112t-98 249q0 51 9 154t9 155t-11 88.5t-38 66.5t-77.5 45t-125.5 15z" />
    <glyph glyph-name="bar" unicode="|" horiz-adv-x="442" 
d="M307 -401h-172v2007h172v-2007z" />
    <glyph glyph-name="braceright" unicode="}" horiz-adv-x="765" 
d="M698 676q11 0 11 -12v-140q0 -10 -11 -10q-140 0 -192.5 -45t-52.5 -147q-1 -47 5.5 -163t6.5 -157q0 -47 -9 -90t-36 -90.5t-69 -84t-114.5 -65t-166.5 -39.5q-11 0 -11 9l-2 125q0 9 11 12q60 10 103.5 29.5t67.5 41.5t37.5 52.5t17 55.5t3.5 58q0 44 -6 153.5
t-6 154.5q0 110 46 175.5t148 92.5v6q-59 13 -99 39.5t-61 64.5t-30 78.5t-10 91.5q0 50 9 144.5t9 144.5q0 94 -52.5 150t-181.5 75q-8 0 -8 13v127q0 10 8 10q204 -15 303 -109.5t97 -250.5q0 -58 -8.5 -146t-8.5 -139q0 -52 11 -89t38 -67t77.5 -44.5t125.5 -14.5z" />
    <glyph glyph-name="asciitilde" unicode="~" horiz-adv-x="1132" 
d="M205 375h-121q-10 0 -10 14q-7 179 62.5 265.5t185.5 86.5q69 0 125.5 -25.5t146.5 -92.5q85 -66 128 -89.5t87 -23.5q58 0 84 48.5t22 158.5q0 12 15 12h117q12 0 12 -10q5 -80 -7 -142.5t-35 -101.5t-56.5 -64.5t-68.5 -35.5t-75 -10q-72 0 -129.5 23.5t-144.5 90.5
l-39 30t-36 27.5t-29 21t-28.5 18.5t-24 11.5t-27 8.5t-25.5 2q-124 0 -117 -211q0 -12 -12 -12z" />
    <glyph glyph-name="uni00A0" unicode="&#xa0;" horiz-adv-x="471" 
 />
    <glyph glyph-name="exclamdown" unicode="&#xa1;" horiz-adv-x="485" 
d="M217 -379q-69 0 -100 14q-8 6 -8 19v151q0 117 12.5 405t17.5 343q0 12 13 12h133q9 0 12 -12q0 -7 8 -167.5t14.5 -328.5t6.5 -243v-154q0 -14 -9 -18q-14 -8 -46 -14.5t-54 -6.5zM219 1010q54 0 87.5 -32.5t33.5 -84.5q0 -51 -34 -84t-87 -33q-55 0 -90 33t-35 84
q0 55 34.5 86t90.5 31z" />
    <glyph glyph-name="cent" unicode="&#xa2;" horiz-adv-x="968" 
d="M690 166v-186q0 -11 -12 -11h-139q-11 0 -11 13v186q-191 29 -300 157t-109 318q0 194 118 323t293 160v185q0 8 11 8h137q12 0 12 -10v-174q99 0 166 -31q8 -4 8 -17v-155q0 -16 -14 -10q-71 36 -199 36q-149 0 -239 -83.5t-90 -223.5q0 -64 20 -117t53.5 -88t77.5 -59
t90 -34.5t94 -10.5q116 0 197 33q12 6 12 -10v-148q0 -10 -12 -18q-59 -29 -164 -33z" />
    <glyph glyph-name="sterling" unicode="&#xa3;" horiz-adv-x="970" 
d="M924 0h-873q-10 0 -10 10v129q0 11 10 13q115 42 165 139t50 244v53h-174q-10 0 -10 12v117q0 7 2 9.5t10 2.5h166v96q0 238 113.5 367t310.5 129q126 0 186 -31q15 -9 15 -22v-152q0 -18 -15 -12q-71 39 -172 39q-120 0 -178.5 -75.5t-58.5 -233.5v-105h293q10 0 10 -12
v-119q0 -10 -10 -10h-293q-2 -152 -35 -247t-113 -159h639q17 0 11 -12l-25 -158q-2 -12 -14 -12z" />
    <glyph glyph-name="currency" unicode="&#xa4;" horiz-adv-x="1083" 
d="M313 649q0 -67 21 -118t55 -80t73 -43.5t79 -14.5q45 0 84 13t72.5 40.5t53 79t19.5 121.5q0 107 -60.5 183.5t-170.5 76.5q-103 0 -164.5 -72t-61.5 -186zM156 647q0 123 71 225l-147 144q-6 6 0 16l82 82q6 8 16 -2l146 -139q89 69 217 69q127 0 221 -71l145 139
q9 10 19 0l78 -80q6 -6 -3 -16l-145 -142q72 -94 72 -227q0 -129 -68 -221l141 -141q7 -7 0 -17l-77 -76q-10 -10 -21 0l-135 140q-38 -32 -98 -53t-129 -21q-134 0 -228 72l-131 -138q-7 -10 -18 -2l-78 76q-8 8 -2 21l139 137q-67 91 -67 225z" />
    <glyph glyph-name="yen" unicode="&#xa5;" horiz-adv-x="1011" 
d="M588 0h-168q-14 2 -14 14v314h-267q-14 0 -14 12v104q0 13 14 13h267v131h-267q-14 0 -14 16v98q0 13 14 13h234l-361 575q-3 10 8 10h197q10 0 14 -6q162 -287 213 -380.5t68 -139.5h4q7 18 16 37.5t31 60.5t45 84.5t74.5 139t103.5 194.5q7 10 17 10h190q12 0 6 -12
l-354 -573h232q10 0 10 -13v-102q0 -12 -10 -12h-275v-131h272q13 0 13 -11v-106q0 -12 -15 -12h-270v-314q-3 -9 -5.5 -11.5t-8.5 -2.5z" />
    <glyph glyph-name="brokenbar" unicode="&#xa6;" horiz-adv-x="442" 
d="M307 -401h-172v802h172v-802zM307 1606v-803h-172v803h172z" />
    <glyph glyph-name="section" unicode="&#xa7;" horiz-adv-x="1019" 
d="M674 -10q98 98 98 248q0 95 -52.5 202.5t-189.5 251.5q-108 112 -163 185.5t-69.5 114.5t-14.5 93q-73 -101 -70 -229q1 -95 55 -188.5t197 -255.5q124 -140 173.5 -236t35.5 -186zM117 -176v160q0 6 3.5 7.5t8.5 -1.5q126 -88 281 -88q122 0 122 73q0 57 -36 113.5
t-168 204.5q-148 168 -207.5 284.5t-59.5 251.5q0 228 151 385.5t368 157.5q162 0 231 -51q8 -6 8 -14v-154q0 -7 -5.5 -8.5t-8.5 2.5q-109 63 -238 63q-70 0 -106.5 -23.5t-36.5 -64.5q0 -38 37 -89.5t170 -186.5q74 -76 120 -132t91.5 -128t66.5 -148.5t21 -163.5
q0 -113 -42 -214.5t-113 -173t-166.5 -113t-198.5 -41.5q-93 0 -171 21t-112 48q-10 10 -10 23z" />
    <glyph glyph-name="dieresis" unicode="&#xa8;" 
d="M205 1188q-47 0 -76 28.5t-29 77.5q0 48 31 78.5t76 30.5t73.5 -31t28.5 -80q0 -48 -29 -76t-75 -28zM588 1188q-45 0 -74 28.5t-29 77.5q0 48 30.5 78.5t74.5 30.5q46 0 74 -30.5t28 -80.5q0 -46 -29 -75t-75 -29z" />
    <glyph glyph-name="copyright" unicode="&#xa9;" horiz-adv-x="1566" 
d="M102 678q0 143 52.5 269.5t143 217t216.5 143t268 52.5q191 0 347 -89.5t244.5 -246t88.5 -348.5q0 -196 -88.5 -353.5t-244 -245t-347.5 -87.5q-191 0 -346.5 88.5t-244.5 246.5t-89 353zM217 678q0 -168 75 -301t204 -206t286 -73q256 0 413 162t155 416
q-2 167 -78 300t-205 206t-285 73q-166 0 -295.5 -76t-199.5 -207.5t-70 -293.5zM1049 467v-113q0 -8 -11 -16q-78 -41 -207 -41q-186 0 -293.5 108.5t-107.5 268.5q0 167 115.5 277t298.5 110q108 0 188 -33q8 -4 8 -18v-113q0 -14 -12 -8q-72 37 -172 37
q-122 0 -194 -67.5t-72 -178.5q0 -119 76 -183.5t190 -64.5q100 0 180 39q6 3 9.5 1t3.5 -5z" />
    <glyph glyph-name="ordfeminine" unicode="&#xaa;" horiz-adv-x="704" 
d="M334 1198q133 0 205.5 -70t70.5 -186v-350q0 -11 -10 -14q-143 -46 -262 -46q-129 0 -211 51.5t-82 157.5q0 65 36.5 111t98 68.5t133 30t150.5 1.5v13q0 43 -32.5 74.5t-117.5 31.5q-102 0 -190 -39q-12 -4 -12 8v103q0 7 6 10q96 45 217 45zM193 748q0 -47 39 -73
t114 -26q68 0 117 17v182q-270 19 -270 -100z" />
    <glyph glyph-name="guillemotleft" unicode="&#xab;" horiz-adv-x="1130" 
d="M111 451v104q0 7 10 14l418 357q16 10 16 -8v-156q0 -14 -10 -21l-271 -239l273 -240q8 -8 8 -20v-162q0 -20 -16 -10l-418 364q-10 7 -10 17zM569 451v104q0 6 11 10l417 361q6 4 10.5 2t4.5 -10v-156q0 -14 -11 -21l-270 -239l270 -240q11 -11 11 -20v-162
q0 -20 -17 -10l-417 364q-9 6 -9 17z" />
    <glyph glyph-name="logicalnot" unicode="&#xac;" horiz-adv-x="1128" 
d="M72 801h979q12 0 12 -13v-540q0 -8 -1 -10t-7 -2h-133q-11 0 -11 12v407h-839q-11 0 -11 13v123q0 10 11 10z" />
    <glyph glyph-name="uni00AD" unicode="&#xad;" horiz-adv-x="647" 
d="M559 432h-469q-12 0 -12 12v152q0 12 12 12h467q12 0 12 -12v-152q0 -12 -10 -12z" />
    <glyph glyph-name="registered" unicode="&#xae;" horiz-adv-x="475" 
d="M258 834q-116 0 -192 77t-76 193q0 112 76.5 190t191.5 78q113 0 189.5 -78.5t76.5 -189.5q0 -117 -76 -193.5t-190 -76.5zM260 891q92 0 148.5 59.5t56.5 151.5t-58.5 152.5t-150.5 60.5q-91 0 -148 -59t-57 -154q0 -89 58.5 -150t150.5 -61zM213 1075v-92q0 -6 -4 -6
h-47q-4 0 -4 6v254q0 6 4 6h90q113 0 113 -80q0 -50 -58 -73q3 -6 36.5 -48.5t41.5 -56.5q3 -3 2 -5.5t-4 -2.5h-53q-9 0 -15 6q-6 9 -61 86q-3 6 -12 6h-29zM213 1194v-72h37q53 0 53 37q0 35 -51 35h-39z" />
    <glyph glyph-name="macron" unicode="&#xaf;" 
d="M127 1360h547q12 0 12 -12v-121q0 -13 -12 -13h-547q-12 0 -12 15v121q0 10 12 10z" />
    <glyph glyph-name="degree" unicode="&#xb0;" horiz-adv-x="569" 
d="M287 1321q107 0 177.5 -73t70.5 -183t-69.5 -184t-178.5 -74t-180.5 74t-71.5 184q0 107 71.5 181.5t180.5 74.5zM287 1217q-60 0 -100 -43.5t-40 -108.5t40 -108.5t100 -43.5t99.5 43.5t39.5 108.5q0 64 -40 108t-99 44z" />
    <glyph glyph-name="plusminus" unicode="&#xb1;" horiz-adv-x="1140" 
d="M506 1255h131q6 0 8 -2.5t2 -11.5v-407h414q12 0 12 -15v-119q0 -12 -14 -12h-412v-418q0 -10 -12 -10h-129q-10 0 -10 10v418h-414q-8 0 -11 2.5t-3 11.5v121q0 11 12 11h416v411q0 10 10 10zM80 147h981q12 0 12 -14v-119q0 -9 -3 -11.5t-11 -2.5h-977q-14 0 -14 14
v121q0 12 12 12z" />
    <glyph glyph-name="twosuperior" unicode="&#xb2;" horiz-adv-x="675" 
d="M596 874h-533q-8 0 -8 9v86q0 8 4 12q166 115 217 157q158 130 158 234q0 133 -151 133q-112 0 -199 -53q-12 -6 -12 6v111q0 12 8 16q97 57 233 60q130 0 201.5 -72t71.5 -178q0 -57 -20.5 -108.5t-63.5 -100t-87.5 -86.5t-113.5 -88h322q6 0 6 -8l-21 -121
q-6 -9 -12 -9z" />
    <glyph glyph-name="threesuperior" unicode="&#xb3;" horiz-adv-x="669" 
d="M205 1212v101q0 10 8 10h72q141 0 141 94q0 45 -38 70.5t-112 25.5q-98 0 -188 -53q-5 -3 -8.5 -0.5t-3.5 6.5v111q0 8 6 14q97 54 227 54q121 0 189.5 -55.5t68.5 -141.5q0 -118 -108 -166v-2q59 -17 101 -64t42 -122q0 -111 -86.5 -170.5t-218.5 -59.5q-133 0 -223 49
q-11 5 -11 17v117q0 3 4 5t7 1q105 -60 217 -60q82 0 123 29t41 74q0 108 -172 108h-70q-8 0 -8 8z" />
    <glyph glyph-name="acute" unicode="&#xb4;" 
d="M297 1151l209 289q10 16 20 16h191q20 0 10 -16l-244 -291q-12 -12 -22 -12h-156q-11 0 -8 14z" />
    <glyph glyph-name="uni00B5" unicode="&#xb5;" horiz-adv-x="1130" 
d="M977 -20q-36 0 -64 6t-56.5 23t-47.5 53t-25 90q0 3 -1 20.5t-1 20.5q-42 -109 -118 -161t-172 -52q-111 0 -166 69q10 -127 6 -459q0 -13 -13 -16q-131 -16 -167 -16q-15 0 -15 16v1413q0 14 17 14h172q12 0 12 -14v-647q0 -87 43 -136.5t121 -49.5q113 0 183.5 99
t70.5 290v446q0 12 12 12h178q10 0 10 -12v-729q0 -65 19 -90t59 -25q9 0 22.5 2t18.5 3q4 1 6 -2t2 -9v-125q0 -15 -10 -20q-40 -14 -96 -14z" />
    <glyph glyph-name="paragraph" unicode="&#xb6;" horiz-adv-x="1200" 
d="M641 1350h363q13 0 10 -11q-6 -41 -6 -125l-4 -972q0 -315 10 -381q3 -13 -8 -13h-97q-8 0 -12 11q-16 65 -16 450v901l-144 -2v-901q0 -379 -16 -450q-4 -11 -14 -11h-95q-5 0 -7 4.5t-1 10.5q10 88 10 379v397q-84 -3 -161 7t-149.5 36t-125 66.5t-84 105t-31.5 145.5
q0 178 143 265.5t435 87.5z" />
    <glyph glyph-name="periodcentered" unicode="&#xb7;" horiz-adv-x="483" 
d="M242 393q-56 0 -90.5 35t-34.5 94q0 54 35 89.5t90 35.5q56 0 91.5 -35.5t35.5 -89.5q0 -59 -34 -94t-93 -35z" />
    <glyph glyph-name="cedilla" unicode="&#xb8;" 
d="M358 12h127l-71 -100q91 -26 133.5 -73t42.5 -118q0 -81 -64.5 -132.5t-163.5 -51.5q-89 0 -145 27q-10 5 -10 18v84q0 16 14 10q56 -26 129 -26q94 0 94 67q0 84 -192 107q-4 4 -4.5 21.5t2.5 23.5z" />
    <glyph glyph-name="onesuperior" unicode="&#xb9;" horiz-adv-x="528" 
d="M371 874h-138q-10 0 -10 13v598q-39 -18 -137 -45q-10 -2 -10 8v104q0 11 8 11q88 24 172 63q9 6 16 6h101q6 -3 6 -10v-737q0 -11 -8 -11z" />
    <glyph glyph-name="ordmasculine" unicode="&#xba;" horiz-adv-x="770" 
d="M389 1198q151 0 240.5 -93.5t89.5 -240.5q0 -153 -92.5 -242.5t-239.5 -89.5q-83 0 -148.5 28.5t-105.5 76.5t-61 106.5t-21 122.5q0 147 93.5 239.5t244.5 92.5zM387 1075q-81 0 -126.5 -56.5t-45.5 -150.5q0 -85 46 -148t130 -63q74 0 122 53t48 154q0 53 -16 98.5
t-57 79t-101 33.5z" />
    <glyph glyph-name="guillemotright" unicode="&#xbb;" horiz-adv-x="1130" 
d="M1018 545v-103q0 -11 -8 -14l-418 -358q-8 -5 -13.5 -2t-5.5 12v153q0 13 13 23l270 240l-272 239q-11 11 -11 21v162q3 16 19 10l418 -365q8 -8 8 -18zM561 545v-103q0 -9 -10 -12l-418 -360q-14 -10 -14 10v153q0 15 10 23l268 240l-268 239q-10 7 -10 21v162
q0 16 16 10l418 -365q8 -8 8 -18z" />
    <glyph glyph-name="onequarter" unicode="&#xbc;" horiz-adv-x="1449" 
d="M379 -20h-121q-14 0 -8 12l737 1319q3 8 12 8h123q4 0 5.5 -3.5t-1.5 -6.5l-733 -1319q-7 -10 -14 -10zM371 545h-138q-10 0 -10 12v598q-39 -18 -137 -45q-10 -2 -10 8v105q0 10 8 10q88 24 172 63q11 7 16 7h101q6 -3 6 -11v-737q0 -10 -8 -10zM1247 0h-114
q-11 0 -11 10v176h-346q-10 0 -10 9v75q0 8 6 17q201 274 336 461q10 10 18 10h121q10 0 10 -13v-448h127q10 0 7 -8l-15 -94q0 -9 -10 -9h-109v-176q0 -10 -10 -10zM903 297h219q0 194 6 317h-4q-22 -37 -104 -154t-117 -163z" />
    <glyph glyph-name="onehalf" unicode="&#xbd;" horiz-adv-x="1521" 
d="M358 -20h-120q-15 0 -9 12l738 1319q3 8 12 8h123q4 0 5.5 -3.5t-1.5 -6.5l-733 -1319q-7 -10 -15 -10zM373 545h-137q-11 0 -11 12v598q-39 -18 -137 -45q-10 -2 -10 8v105q0 10 8 10q88 24 172 63q10 7 16 7h101q6 -3 6 -11v-737q0 -10 -8 -10zM1423 0h-532q-8 0 -8 8
v86q0 6 4 10q165 116 210 153q164 136 165 241q0 60 -35.5 96.5t-116.5 36.5q-111 0 -199 -56q-6 -3 -10 0t-4 9v110q0 12 10 17q94 57 234 57q130 0 200 -71t70 -179q0 -56 -20.5 -107.5t-62.5 -99t-87 -86t-113 -88.5h322q6 0 6 -10l-20 -119q-5 -8 -13 -8z" />
    <glyph glyph-name="threequarters" unicode="&#xbe;" horiz-adv-x="1519" 
d="M489 -20h-120q-13 0 -7 12l736 1319q5 8 12 8h123q4 0 5.5 -3.5t-1.5 -6.5l-733 -1319q-7 -10 -15 -10zM1329 0h-117q-8 0 -8 10v176h-348q-8 0 -8 9v75q0 11 6 17q27 38 93.5 129.5t142.5 196.5t98 135q10 10 18 10h123q10 0 10 -13v-448h125q9 0 6 -8l-12 -94
q-3 -9 -10 -9h-109v-176q0 -10 -10 -10zM985 297h219q0 235 4 317h-4q-21 -35 -219 -317zM211 883v100q0 10 8 10h72q141 0 141 94q0 45 -38 71t-111 26q-97 0 -189 -54q-12 -5 -12 7v110q0 9 6 15q95 53 227 53q121 0 189.5 -55.5t68.5 -141.5q0 -118 -108 -166v-2
q59 -17 101 -64t42 -122q0 -110 -86.5 -169.5t-218.5 -59.5t-225 49q-8 5 -8 16v117q0 3 3.5 5t6.5 1q104 -59 217 -59q82 0 123 29t41 73q0 108 -172 108h-70q-8 0 -8 9z" />
    <glyph glyph-name="questiondown" unicode="&#xbf;" horiz-adv-x="743" 
d="M408 -383q-168 0 -264.5 90t-96.5 230q0 89 33.5 155t97.5 131q94 90 120 123q40 51 40 92q0 57 -39 121q-3 5 -0.5 8.5t8.5 3.5h146q15 0 22 -6q49 -60 49 -145q0 -35 -10 -65.5t-38.5 -68t-47 -57.5t-68.5 -71q-59 -61 -83.5 -102.5t-24.5 -94.5q0 -71 47 -113.5
t143 -42.5q132 0 254 72q15 4 15 -8v-162q0 -14 -6 -18q-125 -72 -297 -72zM391 1010q53 0 86 -32t33 -87q0 -54 -33 -86.5t-86 -32.5q-54 0 -87.5 33t-33.5 86q0 55 32 87t89 32z" />
    <glyph glyph-name="Agrave" unicode="&#xc0;" horiz-adv-x="1216" 
d="M852 399h-508l-135 -385q-3 -14 -19 -14h-163q-19 0 -13 16l437 1229q12 31 16 94q0 11 10 11h234q11 0 14 -11l477 -1323q3 -16 -10 -16h-184q-13 0 -19 12zM397 582h400q-3 11 -89.5 265.5t-109.5 338.5h-2q-10 -38 -26 -90.5t-39.5 -122t-41.5 -122.5t-48 -141
t-44 -128zM457 1712l241 -221q5 -7 2.5 -11.5t-10.5 -4.5h-170q-14 0 -24 10l-279 221q-4 6 -2 11t8 5h211q15 0 23 -10z" />
    <glyph glyph-name="Aacute" unicode="&#xc1;" horiz-adv-x="1216" 
d="M852 399h-508l-135 -385q-3 -14 -19 -14h-163q-19 0 -13 16l437 1229q12 31 16 94q0 11 10 11h234q11 0 14 -11l477 -1323q3 -16 -10 -16h-184q-13 0 -19 12zM397 582h400q-3 11 -89.5 265.5t-109.5 338.5h-2q-10 -38 -26 -90.5t-39.5 -122t-41.5 -122.5t-48 -141
t-44 -128zM473 1483l250 227q8 8 20 8h211q7 0 8.5 -5t-1.5 -9l-279 -223q-10 -13 -25 -13h-178q-6 0 -8 5t2 10z" />
    <glyph glyph-name="Acircumflex" unicode="&#xc2;" horiz-adv-x="1216" 
d="M852 399h-508l-135 -385q-3 -14 -19 -14h-163q-19 0 -13 16l437 1229q12 31 16 94q0 11 10 11h234q11 0 14 -11l477 -1323q3 -16 -10 -16h-184q-13 0 -19 12zM397 582h400q-3 11 -89.5 265.5t-109.5 338.5h-2q-10 -38 -26 -90.5t-39.5 -122t-41.5 -122.5t-48 -141
t-44 -128zM735 1464l-141 146l-139 -146q-10 -10 -21 -10h-151q-6 0 -8 6t1 10l226 232q9 6 16 6h158q17 0 22 -8l232 -234q9 -12 -6 -12h-164q-15 0 -25 10z" />
    <glyph glyph-name="Atilde" unicode="&#xc3;" horiz-adv-x="1216" 
d="M852 399h-508l-135 -385q-3 -14 -19 -14h-163q-19 0 -13 16l437 1229q12 31 16 94q0 11 10 11h234q11 0 14 -11l477 -1323q3 -16 -10 -16h-184q-13 0 -19 12zM397 582h400q-3 11 -89.5 265.5t-109.5 338.5h-2q-10 -38 -26 -90.5t-39.5 -122t-41.5 -122.5t-48 -141
t-44 -128zM399 1464h-114q-13 0 -13 11q1 112 57 174.5t140 62.5q43 0 83.5 -16.5t66.5 -36.5t56 -36.5t54 -16.5q58 0 68 90q0 10 10 10h113q12 0 12 -10q-6 -125 -57 -180.5t-130 -55.5q-52 0 -100.5 27t-89 53.5t-72.5 26.5q-28 0 -48.5 -23.5t-24.5 -68.5q0 -11 -11 -11
z" />
    <glyph glyph-name="Adieresis" unicode="&#xc4;" horiz-adv-x="1216" 
d="M852 399h-508l-135 -385q-3 -14 -19 -14h-163q-19 0 -13 16l437 1229q12 31 16 94q0 11 10 11h234q11 0 14 -11l477 -1323q3 -16 -10 -16h-184q-13 0 -19 12zM397 582h400q-3 11 -89.5 265.5t-109.5 338.5h-2q-10 -38 -26 -90.5t-39.5 -122t-41.5 -122.5t-48 -141
t-44 -128zM393 1475q-49 0 -79.5 28t-30.5 74t32 75t82 29t80.5 -29.5t30.5 -74.5q0 -46 -32 -74t-83 -28zM799 1475q-48 0 -78.5 27.5t-30.5 74.5q0 45 32.5 74.5t80.5 29.5t79 -29.5t31 -74.5q0 -47 -30.5 -74.5t-83.5 -27.5z" />
    <glyph glyph-name="Aring" unicode="&#xc5;" horiz-adv-x="1216" 
d="M852 399h-508l-135 -385q-3 -14 -19 -14h-163q-19 0 -13 16l437 1229q12 31 16 94q0 11 10 11h234q11 0 14 -11l477 -1323q3 -16 -10 -16h-184q-13 0 -19 12zM397 582h400q-3 11 -89.5 265.5t-109.5 338.5h-2q-10 -38 -26 -90.5t-39.5 -122t-41.5 -122.5t-48 -141
t-44 -128zM381 1595q0 82 60.5 130.5t154.5 48.5q95 0 155 -50t60 -129q0 -84 -60 -134t-155 -50q-96 0 -155.5 50t-59.5 134zM494 1595q0 -41 28.5 -65.5t73.5 -24.5q47 0 75.5 24t28.5 66q0 40 -29 64t-75 24q-45 0 -73.5 -24.5t-28.5 -63.5z" />
    <glyph glyph-name="AE" unicode="&#xc6;" horiz-adv-x="1658" 
d="M174 0h-188q-6 0 -8 4t2 12l628 1233q15 24 33 92q6 9 16 9h883q14 0 14 -13l13 -157q1 -6 -2 -8.5t-11 -2.5h-577l31 -391h518q12 0 10 -10l-6 -162q-2 -8 -12 -8h-496l35 -416h567q13 0 10 -14l-30 -158q-5 -10 -17 -10h-706q-5 0 -7.5 2t-1.5 6l-36 432h-430
l-216 -428q-6 -12 -16 -12zM485 621h340l-30 372q-14 171 -17 219h-4q-103 -231 -108 -243z" />
    <glyph glyph-name="Ccedilla" unicode="&#xc7;" horiz-adv-x="1132" 
d="M563 -131l88 119q-119 17 -220.5 67t-181.5 132t-125.5 207.5t-45.5 281.5q0 204 89 361t254 245t382 88q192 0 264 -35q10 -5 10 -20v-158q0 -19 -14 -10q-92 45 -264 45q-233 0 -373.5 -139t-140.5 -371q0 -115 33 -207t85.5 -149t122 -95.5t137 -53.5t136.5 -15
q162 0 254 35q12 3 12 -9v-147q0 -21 -12 -23q-86 -38 -277 -38l-49 -68q174 -51 174 -191q0 -84 -63 -134t-164 -50q-87 0 -146 27q-8 3 -8 14v92q0 11 10 6q56 -26 132 -26q96 0 96 67q0 83 -195 107q-3 5 -3.5 22t3.5 23z" />
    <glyph glyph-name="Egrave" unicode="&#xc8;" horiz-adv-x="1058" 
d="M1010 168l-25 -154q-2 -14 -16 -14h-793q-10 0 -13 3.5t-3 12.5v1319q0 15 14 15h764q9 0 11.5 -2.5t4.5 -10.5l19 -153q4 -15 -12 -15h-601v-389h545q13 0 13 -12v-156q0 -14 -15 -14h-543v-416h637q16 0 13 -14zM440 1710l242 -223q8 -14 -8 -14h-170q-14 0 -27 8
l-278 223q-4 6 -2 10t10 4h209q16 0 24 -8z" />
    <glyph glyph-name="Eacute" unicode="&#xc9;" horiz-adv-x="1058" 
d="M1010 168l-25 -154q-2 -14 -16 -14h-793q-10 0 -13 3.5t-3 12.5v1319q0 15 14 15h764q9 0 11.5 -2.5t4.5 -10.5l19 -153q4 -15 -12 -15h-601v-389h545q13 0 13 -12v-156q0 -14 -15 -14h-543v-416h637q16 0 13 -14zM416 1487l252 227q8 8 20 8h211q6 0 7.5 -6t-3.5 -10
l-276 -223q-10 -10 -25 -10h-178q-7 0 -9 4.5t1 9.5z" />
    <glyph glyph-name="Ecircumflex" unicode="&#xca;" horiz-adv-x="1058" 
d="M1010 168l-25 -154q-2 -14 -16 -14h-793q-10 0 -13 3.5t-3 12.5v1319q0 15 14 15h764q9 0 11.5 -2.5t4.5 -10.5l19 -153q4 -15 -12 -15h-601v-389h545q13 0 13 -12v-156q0 -14 -15 -14h-543v-416h637q16 0 13 -14zM688 1477l-143 145l-139 -145q-8 -11 -21 -11h-152
q-6 0 -7.5 6t3.5 11l224 231q9 6 16 6h158q17 0 22 -8l234 -235q3 -4 0 -7.5t-9 -3.5h-163q-17 0 -23 11z" />
    <glyph glyph-name="Edieresis" unicode="&#xcb;" horiz-adv-x="1058" 
d="M1010 168l-25 -154q-2 -14 -16 -14h-793q-10 0 -13 3.5t-3 12.5v1319q0 15 14 15h764q9 0 11.5 -2.5t4.5 -10.5l19 -153q4 -15 -12 -15h-601v-389h545q13 0 13 -12v-156q0 -14 -15 -14h-543v-416h637q16 0 13 -14zM344 1489q-50 0 -80.5 28t-30.5 74t33 76.5t82 30.5
q50 0 80.5 -31t30.5 -76q0 -46 -32 -74t-83 -28zM750 1489q-48 0 -78.5 28.5t-30.5 73.5q0 46 33 76.5t80 30.5t78.5 -30.5t31.5 -76.5q0 -47 -30.5 -74.5t-83.5 -27.5z" />
    <glyph glyph-name="Igrave" unicode="&#xcc;" horiz-adv-x="520" 
d="M360 1337v-1321q0 -16 -14 -16h-172q-14 0 -14 16v1319q0 15 14 15h172q14 0 14 -13zM121 1714l241 -223q10 -16 -8 -16h-170q-14 0 -26 10l-277 221q-6 6 -4 11t10 5h211q15 0 23 -8z" />
    <glyph glyph-name="Iacute" unicode="&#xcd;" horiz-adv-x="520" 
d="M360 1337v-1321q0 -16 -14 -16h-172q-14 0 -14 16v1319q0 15 14 15h172q14 0 14 -13zM147 1485l250 227q6 8 21 8h211q15 0 6 -14l-279 -223q-8 -10 -24 -10h-178q-6 0 -8.5 3.5t1.5 8.5z" />
    <glyph glyph-name="Icircumflex" unicode="&#xce;" horiz-adv-x="520" 
d="M360 1337v-1321q0 -16 -14 -16h-172q-14 0 -14 16v1319q0 15 14 15h172q14 0 14 -13zM393 1456l-143 148l-139 -146q-7 -10 -21 -10h-151q-6 0 -8 5.5t3 8.5l224 234q9 6 16 6h158q14 0 22 -8l234 -236q7 -10 -8 -10h-164q-18 0 -23 8z" />
    <glyph glyph-name="Idieresis" unicode="&#xcf;" horiz-adv-x="520" 
d="M360 1337v-1321q0 -16 -14 -16h-172q-14 0 -14 16v1319q0 15 14 15h172q14 0 14 -13zM55 1479q-49 0 -79.5 28t-30.5 74q0 45 32 75t80 30q50 0 80.5 -30t30.5 -75t-31.5 -73.5t-81.5 -28.5zM461 1479q-48 0 -79.5 28t-31.5 74t32.5 75.5t82.5 29.5q47 0 78.5 -29.5
t31.5 -75.5q0 -47 -31.5 -74.5t-82.5 -27.5z" />
    <glyph glyph-name="Eth" unicode="&#xd0;" horiz-adv-x="1359" 
d="M375 625v-449q82 -4 160 -4q159 0 277.5 57.5t187 176.5t69.5 288q0 235 -142 360.5t-372 125.5q-70 0 -180 -4v-404h348q10 0 10 -12v-125q0 -10 -12 -10h-346zM174 772v561q0 13 12 15q165 6 371 6q173 0 309.5 -48t225.5 -135.5t135.5 -207.5t46.5 -265
q0 -148 -43 -268.5t-114.5 -199.5t-167 -133t-197 -77.5t-209.5 -23.5q-217 0 -357 4q-12 0 -12 18v607h-143q-11 0 -11 12v125q0 10 11 10h143z" />
    <glyph glyph-name="Ntilde" unicode="&#xd1;" horiz-adv-x="1382" 
d="M336 0h-160q-9 0 -12.5 3t-3.5 13v1321q0 13 12 13h236q15 0 20 -13q157 -267 357 -618.5t251 -458.5h2q-4 110 -4 313v762q0 15 15 15h159q15 0 15 -17v-1317q0 -16 -19 -16h-213q-17 0 -22 12q-18 34 -302 533t-325 600h-2q8 -120 8 -369v-760q0 -16 -12 -16zM500 1481
h-113q-14 0 -14 10q1 113 57 175.5t139 62.5q44 0 85 -17t67 -37.5t56 -37.5t54 -17q28 0 45.5 24.5t22.5 67.5q0 10 10 10h113q12 0 12 -10q-10 -235 -186 -235q-41 0 -81 16.5t-66 36.5t-57.5 36.5t-57.5 16.5q-28 0 -49 -24.5t-25 -69.5q0 -8 -12 -8z" />
    <glyph glyph-name="Ograve" unicode="&#xd2;" horiz-adv-x="1404" 
d="M702 1370q190 0 333 -92.5t216 -247.5t74 -348q1 -321 -171.5 -511.5t-448.5 -190.5q-192 0 -335.5 91t-217.5 248.5t-74 358.5q0 199 79.5 357t222 246.5t322.5 88.5zM285 678q0 -108 28 -201.5t80 -164.5t134 -111.5t184 -40.5q190 0 299.5 141t107.5 375
q0 232 -114 374t-306 142q-181 0 -297 -136t-116 -378zM590 1731l241 -222q5 -7 2.5 -11.5t-10.5 -4.5h-170q-13 0 -24 8l-279 223q-4 6 -2 10.5t8 4.5h211q17 0 23 -8z" />
    <glyph glyph-name="Oacute" unicode="&#xd3;" horiz-adv-x="1404" 
d="M702 1370q190 0 333 -92.5t216 -247.5t74 -348q1 -321 -171.5 -511.5t-448.5 -190.5q-192 0 -335.5 91t-217.5 248.5t-74 358.5q0 199 79.5 357t222 246.5t322.5 88.5zM285 678q0 -108 28 -201.5t80 -164.5t134 -111.5t184 -40.5q190 0 299.5 141t107.5 375
q0 232 -114 374t-306 142q-181 0 -297 -136t-116 -378zM559 1499l250 227q7 7 20 7h211q7 0 8.5 -5.5t-1.5 -9.5l-279 -223q-10 -10 -25 -10h-178q-6 0 -8 4.5t2 9.5z" />
    <glyph glyph-name="Ocircumflex" unicode="&#xd4;" horiz-adv-x="1404" 
d="M702 1370q190 0 333 -92.5t216 -247.5t74 -348q1 -321 -171.5 -511.5t-448.5 -190.5q-192 0 -335.5 91t-217.5 248.5t-74 358.5q0 199 79.5 357t222 246.5t322.5 88.5zM285 678q0 -108 28 -201.5t80 -164.5t134 -111.5t184 -40.5q190 0 299.5 141t107.5 375
q0 232 -114 374t-306 142q-181 0 -297 -136t-116 -378zM836 1483l-144 147l-139 -145q-9 -12 -21 -12h-151q-6 0 -7.5 6.5t3.5 9.5l223 233q10 7 16 7h158q14 0 23 -9l233 -235q3 -5 0.5 -8.5t-8.5 -3.5h-164q-12 0 -22 10z" />
    <glyph glyph-name="Otilde" unicode="&#xd5;" horiz-adv-x="1404" 
d="M702 1370q190 0 333 -92.5t216 -247.5t74 -348q1 -321 -171.5 -511.5t-448.5 -190.5q-192 0 -335.5 91t-217.5 248.5t-74 358.5q0 199 79.5 357t222 246.5t322.5 88.5zM285 678q0 -108 28 -201.5t80 -164.5t134 -111.5t184 -40.5q190 0 299.5 141t107.5 375
q0 232 -114 374t-306 142q-181 0 -297 -136t-116 -378zM500 1489h-113q-14 0 -14 12q1 111 57 174.5t139 63.5q44 0 85 -17t67 -37.5t56 -37.5t54 -17q58 0 68 90q0 13 10 13h113q12 0 12 -13q-6 -125 -56.5 -180t-129.5 -55q-41 0 -81 16.5t-66 36.5t-57.5 36.5t-57.5 16.5
q-28 0 -49 -23.5t-25 -68.5q0 -10 -12 -10z" />
    <glyph glyph-name="Odieresis" unicode="&#xd6;" horiz-adv-x="1404" 
d="M702 1370q190 0 333 -92.5t216 -247.5t74 -348q1 -321 -171.5 -511.5t-448.5 -190.5q-192 0 -335.5 91t-217.5 248.5t-74 358.5q0 199 79.5 357t222 246.5t322.5 88.5zM285 678q0 -108 28 -201.5t80 -164.5t134 -111.5t184 -40.5q190 0 299.5 141t107.5 375
q0 232 -114 374t-306 142q-181 0 -297 -136t-116 -378zM498 1499q-50 0 -80.5 28t-30.5 75q0 44 33 74t82 30t78.5 -29.5t29.5 -74.5q0 -47 -30.5 -75t-81.5 -28zM903 1499q-48 0 -78 28t-30 75q0 45 31.5 74.5t80.5 29.5q47 0 79 -30t32 -74q0 -47 -32 -75t-83 -28z" />
    <glyph glyph-name="multiply" unicode="&#xd7;" horiz-adv-x="1136" 
d="M86 942l78 80q11 7 20 -2l385 -397l385 397q12 12 23 0l76 -80q9 -11 -2 -22l-385 -392l387 -395q10 -10 0 -20l-78 -78q-13 -11 -23 2l-385 393l-383 -395q-1 -1 -3 -2.5t-3.5 -3t-4 -0.5t-5.5 4l-84 82q-8 10 4 22l385 391l-387 396q-9 9 0 20z" />
    <glyph glyph-name="Oslash" unicode="&#xd8;" horiz-adv-x="1404" 
d="M1028 1032l-561 -803q101 -75 244 -75q195 0 307 142.5t112 379.5q0 217 -102 356zM381 315l561 805q-102 76 -244 76q-186 0 -305 -137.5t-119 -380.5q0 -219 107 -363zM1241 1337l-100 -145q88 -93 135 -224.5t49 -285.5q1 -321 -171.5 -511.5t-448.5 -190.5
q-197 0 -345 96l-47 -68q-5 -8 -14 -8h-123q-6 0 -8 4t0 8l98 142q-91 94 -139.5 228.5t-48.5 295.5q0 199 79.5 357.5t222 247.5t322.5 89q199 0 345 -100l51 71q7 7 14 7h121q18 0 8 -13z" />
    <glyph glyph-name="Ugrave" unicode="&#xd9;" horiz-adv-x="1323" 
d="M342 1337v-829q0 -163 83.5 -256.5t240.5 -93.5q315 0 315 354v823q0 15 14 15h172q15 0 15 -15v-829q0 -138 -40 -241.5t-112 -164.5t-165 -90.5t-206 -29.5q-242 0 -380 131t-138 385v839q0 15 15 15h172q14 0 14 -13zM557 1716l242 -221q10 -16 -8 -16h-170
q-15 0 -27 10l-277 221q-6 6 -3.5 11t10.5 5h208q15 0 25 -10z" />
    <glyph glyph-name="Uacute" unicode="&#xda;" horiz-adv-x="1323" 
d="M342 1337v-829q0 -163 83.5 -256.5t240.5 -93.5q315 0 315 354v823q0 15 14 15h172q15 0 15 -15v-829q0 -138 -40 -241.5t-112 -164.5t-165 -90.5t-206 -29.5q-242 0 -380 131t-138 385v839q0 15 15 15h172q14 0 14 -13zM516 1485l250 227q8 8 20 8h211q7 0 9 -6t-2 -10
l-279 -223q-8 -11 -25 -11h-178q-6 0 -8 5t2 10z" />
    <glyph glyph-name="Ucircumflex" unicode="&#xdb;" horiz-adv-x="1323" 
d="M342 1337v-829q0 -163 83.5 -256.5t240.5 -93.5q315 0 315 354v823q0 15 14 15h172q15 0 15 -15v-829q0 -138 -40 -241.5t-112 -164.5t-165 -90.5t-206 -29.5q-242 0 -380 131t-138 385v839q0 15 15 15h172q14 0 14 -13zM799 1479l-144 147l-139 -145q-10 -13 -18 -13
h-154q-6 0 -7.5 7t3.5 10l223 233q9 6 19 6h157q17 0 21 -8l233 -235q3 -5 1 -9t-9 -4h-164q-11 0 -22 11z" />
    <glyph glyph-name="Udieresis" unicode="&#xdc;" horiz-adv-x="1323" 
d="M342 1337v-829q0 -163 83.5 -256.5t240.5 -93.5q315 0 315 354v823q0 15 14 15h172q15 0 15 -15v-829q0 -138 -40 -241.5t-112 -164.5t-165 -90.5t-206 -29.5q-242 0 -380 131t-138 385v839q0 15 15 15h172q14 0 14 -13zM457 1487q-48 0 -78.5 28.5t-30.5 73.5
q0 46 32 76.5t81 30.5q50 0 80 -30.5t30 -76.5t-31.5 -74t-82.5 -28zM862 1487q-48 0 -78 28.5t-30 73.5q0 46 32.5 76.5t79.5 30.5q49 0 80 -30.5t31 -76.5q0 -47 -31 -74.5t-84 -27.5z" />
    <glyph glyph-name="Yacute" unicode="&#xdd;" horiz-adv-x="1075" 
d="M422 551l-447 782q-5 9 -1 13t12 4h198q11 0 17 -9q314 -582 346 -653q40 84 340 651q3 11 16 11h191q11 0 8 -13l-451 -792q-16 -24 -16 -56v-473q0 -16 -14 -16h-168q-19 0 -19 16v480q0 31 -12 55zM401 1485l250 227q8 8 23 8h211q6 0 7.5 -5t-3.5 -11l-277 -221
q-10 -13 -24 -13h-178q-7 0 -9.5 5t0.5 10z" />
    <glyph glyph-name="Thorn" unicode="&#xde;" horiz-adv-x="1093" 
d="M158 12v1352q0 12 10 12h176q12 0 12 -12v-258h193q218 0 344.5 -105.5t126.5 -298.5q0 -208 -138.5 -317t-375.5 -109h-150v-262q0 -14 -10 -14h-178q-10 0 -10 12zM356 930v-479h154q311 0 311 241q0 112 -73.5 175t-219.5 63h-172z" />
    <glyph glyph-name="germandbls" unicode="&#xdf;" horiz-adv-x="1150" 
d="M344 0h-174q-14 0 -14 14v815h-129q-11 0 -11 17v141q0 14 11 14h131v21q0 90 26 170.5t77.5 147t139 106t201.5 39.5q111 0 195.5 -40t131 -106.5t65 -149.5t7.5 -173q-138 -33 -198 -86t-60 -103q0 -32 27 -61.5t100 -81.5q131 -98 177.5 -178t46.5 -182
q0 -150 -111 -247t-303 -97q-134 0 -209 40q-12 5 -12 27v150q0 16 12 8q87 -51 215 -51q89 0 149.5 40t61.5 111q0 55 -37.5 108t-134.5 122q-102 72 -142 130.5t-40 135.5q0 93 75 171.5t193 127.5q-2 87 -57.5 151t-153.5 64q-242 0 -242 -328l-2 -973q0 -14 -12 -14z
" />
    <glyph glyph-name="agrave" unicode="&#xe0;" horiz-adv-x="989" 
d="M655 172v293q-58 8 -125 8q-137 0 -204.5 -43t-67.5 -123q0 -72 55 -120t172 -48q94 0 170 33zM850 629v-441q0 -73 4 -110q0 -6 -4 -8q-112 -50 -205 -70t-194 -20q-173 0 -281.5 83.5t-108.5 241.5q0 157 127.5 238.5t331.5 81.5q95 0 135 -4v38q0 20 -4 41.5
t-18.5 48.5t-37 47.5t-64.5 35t-97 14.5q-144 0 -264 -60q-5 -3 -9.5 0.5t-4.5 10.5v145q0 11 12 16q124 62 299 62q98 0 173 -30t120 -84.5t67.5 -124t22.5 -152.5zM401 1444l215 -293q3 -5 0.5 -9.5t-8.5 -4.5h-162q-12 0 -16 12l-254 289q-3 6 -1 11t7 5h201q11 0 18 -10
z" />
    <glyph glyph-name="aacute" unicode="&#xe1;" horiz-adv-x="989" 
d="M360 1151l209 289q6 16 19 16h192q17 0 11 -16l-246 -291q-9 -12 -23 -12h-155q-14 0 -7 14zM655 172v293q-58 8 -125 8q-137 0 -204.5 -43t-67.5 -123q0 -72 55 -120t172 -48q94 0 170 33zM850 629v-441q0 -73 4 -110q0 -6 -4 -8q-112 -50 -205 -70t-194 -20
q-173 0 -281.5 83.5t-108.5 241.5q0 157 127.5 238.5t331.5 81.5q95 0 135 -4v38q0 20 -4 41.5t-18.5 48.5t-37 47.5t-64.5 35t-97 14.5q-144 0 -264 -60q-5 -3 -9.5 0.5t-4.5 10.5v145q0 11 12 16q124 62 299 62q98 0 173 -30t120 -84.5t67.5 -124t22.5 -152.5z" />
    <glyph glyph-name="acircumflex" unicode="&#xe2;" horiz-adv-x="989" 
d="M655 172v293q-58 8 -125 8q-137 0 -204.5 -43t-67.5 -123q0 -72 55 -120t172 -48q94 0 170 33zM850 629v-441q0 -73 4 -110q0 -6 -4 -8q-112 -50 -205 -70t-194 -20q-173 0 -281.5 83.5t-108.5 241.5q0 157 127.5 238.5t331.5 81.5q95 0 135 -4v38q0 20 -4 41.5
t-18.5 48.5t-37 47.5t-64.5 35t-97 14.5q-144 0 -264 -60q-5 -3 -9.5 0.5t-4.5 10.5v145q0 11 12 16q124 62 299 62q98 0 173 -30t120 -84.5t67.5 -124t22.5 -152.5zM612 1145l-137 198l-137 -200q-3 -6 -16 -6h-129q-6 0 -8.5 4.5t1.5 9.5l201 287q8 8 16 8h152
q13 0 16 -10l207 -287q4 -5 2 -8.5t-8 -3.5h-141q-14 0 -19 8z" />
    <glyph glyph-name="atilde" unicode="&#xe3;" horiz-adv-x="989" 
d="M655 172v293q-58 8 -125 8q-137 0 -204.5 -43t-67.5 -123q0 -72 55 -120t172 -48q94 0 170 33zM850 629v-441q0 -73 4 -110q0 -6 -4 -8q-112 -50 -205 -70t-194 -20q-173 0 -281.5 83.5t-108.5 241.5q0 157 127.5 238.5t331.5 81.5q95 0 135 -4v38q0 20 -4 41.5
t-18.5 48.5t-37 47.5t-64.5 35t-97 14.5q-144 0 -264 -60q-5 -3 -9.5 0.5t-4.5 10.5v145q0 11 12 16q124 62 299 62q98 0 173 -30t120 -84.5t67.5 -124t22.5 -152.5zM272 1155h-112q-13 0 -13 14q3 118 58 181t141 63q54 0 110.5 -27t101.5 -54t73 -27q62 0 69 92
q0 12 13 12h110q13 0 13 -10q-4 -128 -54.5 -187t-134.5 -59q-39 0 -82 16.5t-73 37t-66 37t-64 16.5q-70 0 -81 -93q0 -12 -9 -12z" />
    <glyph glyph-name="adieresis" unicode="&#xe4;" horiz-adv-x="989" 
d="M301 1190q-46 0 -75 28.5t-29 77.5t30.5 79t77.5 30q45 0 74 -30t29 -79q0 -48 -30.5 -77t-76.5 -29zM686 1190q-45 0 -74.5 29t-29.5 77q0 49 30.5 79t75.5 30t74 -30.5t29 -78.5q0 -47 -29.5 -76.5t-75.5 -29.5zM655 172v293q-58 8 -125 8q-137 0 -204.5 -43
t-67.5 -123q0 -72 55 -120t172 -48q94 0 170 33zM850 629v-441q0 -73 4 -110q0 -6 -4 -8q-112 -50 -205 -70t-194 -20q-173 0 -281.5 83.5t-108.5 241.5q0 157 127.5 238.5t331.5 81.5q95 0 135 -4v38q0 20 -4 41.5t-18.5 48.5t-37 47.5t-64.5 35t-97 14.5q-144 0 -264 -60
q-5 -3 -9.5 0.5t-4.5 10.5v145q0 11 12 16q124 62 299 62q98 0 173 -30t120 -84.5t67.5 -124t22.5 -152.5z" />
    <glyph glyph-name="aring" unicode="&#xe5;" horiz-adv-x="989" 
d="M285 1298q0 85 57.5 138t149.5 53q94 0 153.5 -53t59.5 -138t-60 -137.5t-153 -52.5t-150 51t-57 139zM395 1298q0 -42 28 -68t69 -26q42 0 70 25.5t28 68.5t-28 70t-70 27q-41 0 -69 -26.5t-28 -70.5zM655 172v293q-58 8 -125 8q-137 0 -204.5 -43t-67.5 -123
q0 -72 55 -120t172 -48q94 0 170 33zM850 629v-441q0 -73 4 -110q0 -6 -4 -8q-112 -50 -205 -70t-194 -20q-173 0 -281.5 83.5t-108.5 241.5q0 157 127.5 238.5t331.5 81.5q95 0 135 -4v38q0 20 -4 41.5t-18.5 48.5t-37 47.5t-64.5 35t-97 14.5q-144 0 -264 -60
q-5 -3 -9.5 0.5t-4.5 10.5v145q0 11 12 16q124 62 299 62q98 0 173 -30t120 -84.5t67.5 -124t22.5 -152.5z" />
    <glyph glyph-name="ae" unicode="&#xe6;" horiz-adv-x="1589" 
d="M262 303q0 -76 54 -119t147 -43q143 0 248 99q-39 96 -39 225h-146q-264 0 -264 -162zM61 291q0 154 124.5 235.5t340.5 81.5h146v45q0 24 -4.5 47t-19 50.5t-38.5 48t-66 34t-98 13.5q-141 0 -276 -72q-14 -8 -14 10v148q0 13 8 16q141 72 317 72q115 0 192.5 -44
t112.5 -122q116 166 338 166q102 0 182 -38t126.5 -99.5t70 -132t23.5 -142.5q0 -52 -5.5 -91t-13.5 -42q-42 -12 -217 -12h-432q3 -142 85 -225.5t241 -83.5q152 0 258 53q12 8 12 -8v-142q0 -15 -10 -20q-111 -57 -289 -57q-225 0 -356 137q-171 -137 -379 -137
q-68 0 -130 18t-114.5 54t-83.5 97.5t-31 141.5zM1110 858q-108 0 -177 -69t-73 -183h389q78 0 84 6q2 6 2 31q0 33 -11.5 68t-35.5 69t-70 56t-108 22z" />
    <glyph glyph-name="ccedilla" unicode="&#xe7;" horiz-adv-x="868" 
d="M819 977l-2 -150q0 -15 -14 -10q-79 29 -185 29q-153 0 -248.5 -92.5t-95.5 -249.5q0 -168 100.5 -256t246.5 -88q113 0 184 24q12 2 12 -8v-149q0 -13 -8 -15q-69 -28 -207 -32l-47 -68q174 -50 174 -191q0 -81 -64 -132.5t-163 -51.5q-92 0 -144 27q-10 5 -10 18v84
q0 16 12 10q56 -26 129 -26q95 0 95 67q0 84 -193 107q-5 4 -5 21.5t5 23.5l88 119q-130 21 -223.5 94.5t-139.5 179.5t-46 234q0 228 150.5 376t393.5 148q136 0 195 -25q10 -3 10 -18z" />
    <glyph glyph-name="egrave" unicode="&#xe8;" horiz-adv-x="1001" 
d="M707 465h-435q0 -138 84 -224.5t246 -86.5q144 0 254 51q10 7 10 -8v-138q0 -15 -10 -20q-115 -59 -295 -59q-130 0 -228.5 44t-154.5 118.5t-83 162.5t-27 187q0 144 53.5 263t160.5 192t250 73q86 0 156.5 -26t116 -68.5t77 -98t45 -112t13.5 -113.5q0 -75 -8 -115
q0 -11 -14 -14q-62 -8 -211 -8zM272 612h353q109 0 125 4v19q0 23 -6 50t-22 58.5t-40.5 56.5t-65.5 41.5t-92 16.5q-110 0 -173.5 -71.5t-78.5 -174.5zM438 1444l215 -293q3 -5 0.5 -9.5t-8.5 -4.5h-162q-12 0 -16 12l-254 289q-3 6 -1.5 11t7.5 5h201q10 0 18 -10z" />
    <glyph glyph-name="eacute" unicode="&#xe9;" horiz-adv-x="1001" 
d="M399 1151l209 289q6 16 19 16h192q18 0 8 -16l-243 -291q-9 -12 -23 -12h-155q-14 0 -7 14zM707 465h-435q0 -138 84 -224.5t246 -86.5q144 0 254 51q10 7 10 -8v-138q0 -15 -10 -20q-115 -59 -295 -59q-130 0 -228.5 44t-154.5 118.5t-83 162.5t-27 187q0 144 53.5 263
t160.5 192t250 73q86 0 156.5 -26t116 -68.5t77 -98t45 -112t13.5 -113.5q0 -75 -8 -115q0 -11 -14 -14q-62 -8 -211 -8zM272 612h353q109 0 125 4v19q0 23 -6 50t-22 58.5t-40.5 56.5t-65.5 41.5t-92 16.5q-110 0 -173.5 -71.5t-78.5 -174.5z" />
    <glyph glyph-name="ecircumflex" unicode="&#xea;" horiz-adv-x="1001" 
d="M707 465h-435q0 -138 84 -224.5t246 -86.5q144 0 254 51q10 7 10 -8v-138q0 -15 -10 -20q-115 -59 -295 -59q-130 0 -228.5 44t-154.5 118.5t-83 162.5t-27 187q0 144 53.5 263t160.5 192t250 73q86 0 156.5 -26t116 -68.5t77 -98t45 -112t13.5 -113.5q0 -75 -8 -115
q0 -11 -14 -14q-62 -8 -211 -8zM272 612h353q109 0 125 4v19q0 23 -6 50t-22 58.5t-40.5 56.5t-65.5 41.5t-92 16.5q-110 0 -173.5 -71.5t-78.5 -174.5zM651 1145l-139 198l-137 -200q-3 -6 -17 -6h-129q-6 0 -7.5 4.5t1.5 9.5l203 287q5 8 14 8h152q11 0 18 -10l207 -287
q3 -5 0.5 -8.5t-8.5 -3.5h-139q-14 0 -19 8z" />
    <glyph glyph-name="edieresis" unicode="&#xeb;" horiz-adv-x="1001" 
d="M319 1188q-46 0 -75 28.5t-29 77.5t31 79t78 30q45 0 73.5 -31t28.5 -80q0 -48 -30.5 -76t-76.5 -28zM705 1188q-45 0 -75 29t-30 77t31 78.5t76 30.5q46 0 74 -30.5t28 -80.5q0 -46 -29 -75t-75 -29zM707 465h-435q0 -138 84 -224.5t246 -86.5q144 0 254 51q10 7 10 -8
v-138q0 -15 -10 -20q-115 -59 -295 -59q-130 0 -228.5 44t-154.5 118.5t-83 162.5t-27 187q0 144 53.5 263t160.5 192t250 73q86 0 156.5 -26t116 -68.5t77 -98t45 -112t13.5 -113.5q0 -75 -8 -115q0 -11 -14 -14q-62 -8 -211 -8zM272 612h353q109 0 125 4v19q0 23 -6 50
t-22 58.5t-40.5 56.5t-65.5 41.5t-92 16.5q-110 0 -173.5 -71.5t-78.5 -174.5z" />
    <glyph glyph-name="igrave" unicode="&#xec;" horiz-adv-x="479" 
d="M139 16v971q0 14 13 14h174q8 0 11 -2.5t3 -11.5v-971q0 -9 -2.5 -12.5t-11.5 -3.5h-170q-17 0 -17 16zM129 1444l215 -293q3 -5 0.5 -9.5t-8.5 -4.5h-162q-8 0 -16 12l-254 289q-3 6 -1 11t7 5h201q11 0 18 -10z" />
    <glyph glyph-name="iacute" unicode="&#xed;" horiz-adv-x="479" 
d="M141 1151l209 289q6 16 21 16h190q20 0 10 -16l-243 -291q-12 -12 -23 -12h-155q-12 0 -9 14zM139 16v971q0 14 13 14h174q8 0 11 -2.5t3 -11.5v-971q0 -9 -2.5 -12.5t-11.5 -3.5h-170q-17 0 -17 16z" />
    <glyph glyph-name="icircumflex" unicode="&#xee;" horiz-adv-x="479" 
d="M139 16v971q0 14 13 14h174q8 0 11 -2.5t3 -11.5v-971q0 -9 -2.5 -12.5t-11.5 -3.5h-170q-17 0 -17 16zM373 1145l-140 198l-137 -200q-3 -6 -16 -6h-129q-6 0 -7.5 4.5t1.5 9.5l202 287q5 8 15 8h151q14 0 17 -10l209 -287q3 -4 0 -8t-9 -4h-139q-13 0 -18 8z" />
    <glyph glyph-name="idieresis" unicode="&#xef;" horiz-adv-x="479" 
d="M47 1188q-46 0 -75 28.5t-29 77.5t30.5 79t77.5 30q45 0 74 -31t29 -80q0 -48 -30.5 -76t-76.5 -28zM430 1188q-44 0 -73 29t-29 77q0 49 30.5 79t75.5 30q46 0 74.5 -31t28.5 -80q0 -46 -30 -75t-77 -29zM139 16v971q0 14 13 14h174q8 0 11 -2.5t3 -11.5v-971
q0 -9 -2.5 -12.5t-11.5 -3.5h-170q-17 0 -17 16z" />
    <glyph glyph-name="eth" unicode="&#xf0;" horiz-adv-x="1103" 
d="M553 152q116 0 191 90t75 270q0 75 -18 131q-6 20 -21 35q-76 92 -219 92q-127 0 -206 -80.5t-79 -228.5q0 -131 74.5 -220t202.5 -89zM915 1321l-165 -90q132 -126 202 -298.5t70 -381.5q0 -272 -131.5 -421.5t-353.5 -149.5q-93 0 -171.5 28t-132 75t-90.5 109.5
t-54 130.5t-17 140q0 213 132 342t347 129q140 0 211 -62q-47 149 -187 263l-294 -162q-13 -4 -13 6v86q0 12 11 16l206 115q-145 84 -305 113q-12 0 -12 16l-2 148q0 12 14 12q25 0 53 -4q255 -47 435 -183l245 138q11 3 11 -6v-93q0 -7 -9 -16z" />
    <glyph glyph-name="ntilde" unicode="&#xf1;" horiz-adv-x="1110" 
d="M326 1157h-113q-12 0 -12 14q3 117 57.5 179.5t142.5 62.5q54 0 109.5 -26.5t100.5 -53t73 -26.5q63 0 70 90q0 12 12 12h111q12 0 12 -10q-4 -128 -54.5 -187t-134.5 -59q-39 0 -81.5 16.5t-72.5 37t-66 37t-64 16.5q-72 0 -80 -93q0 -10 -10 -10zM137 16v752
q0 145 -8 219q0 14 14 14h150q14 0 20 -14q10 -30 13 -92q134 125 309 125q48 0 91.5 -9.5t89.5 -36.5t79.5 -70t54.5 -115t21 -166v-607q0 -16 -17 -16h-168q-18 0 -18 16v588q0 113 -49.5 177.5t-147.5 64.5q-139 0 -233 -111v-721q0 -14 -14 -14h-172q-15 0 -15 16z" />
    <glyph glyph-name="ograve" unicode="&#xf2;" horiz-adv-x="1093" 
d="M551 1020q146 0 254.5 -69t163.5 -185t55 -262q0 -234 -132 -379t-343 -145q-120 0 -215 45t-151.5 120.5t-85.5 166t-29 188.5q0 145 58.5 262.5t169.5 187.5t255 70zM541 850q-120 0 -195.5 -94.5t-75.5 -251.5q0 -155 76.5 -254.5t206.5 -99.5q112 0 190 90t78 258
q0 71 -16 133t-49 112t-88 78.5t-127 28.5zM457 1444l215 -293q3 -5 0.5 -9.5t-8.5 -4.5h-162q-9 0 -17 12l-254 289q-3 6 -0.5 11t7.5 5h200q11 0 19 -10z" />
    <glyph glyph-name="oacute" unicode="&#xf3;" horiz-adv-x="1093" 
d="M422 1151l209 289q6 16 18 16h193q16 0 10 -16l-246 -291q-9 -12 -22 -12h-156q-13 0 -6 14zM551 1020q146 0 254.5 -69t163.5 -185t55 -262q0 -234 -132 -379t-343 -145q-120 0 -215 45t-151.5 120.5t-85.5 166t-29 188.5q0 145 58.5 262.5t169.5 187.5t255 70zM541 850
q-120 0 -195.5 -94.5t-75.5 -251.5q0 -155 76.5 -254.5t206.5 -99.5q112 0 190 90t78 258q0 71 -16 133t-49 112t-88 78.5t-127 28.5z" />
    <glyph glyph-name="ocircumflex" unicode="&#xf4;" horiz-adv-x="1093" 
d="M551 1020q146 0 254.5 -69t163.5 -185t55 -262q0 -234 -132 -379t-343 -145q-120 0 -215 45t-151.5 120.5t-85.5 166t-29 188.5q0 145 58.5 262.5t169.5 187.5t255 70zM541 850q-120 0 -195.5 -94.5t-75.5 -251.5q0 -155 76.5 -254.5t206.5 -99.5q112 0 190 90t78 258
q0 71 -16 133t-49 112t-88 78.5t-127 28.5zM676 1145l-139 198l-136 -200q-6 -6 -16 -6h-129q-7 0 -9 4.5t3 9.5l201 287q8 8 14 8h151q12 0 19 -10l207 -287q4 -5 1.5 -8.5t-7.5 -3.5h-142q-13 0 -18 8z" />
    <glyph glyph-name="otilde" unicode="&#xf5;" horiz-adv-x="1093" 
d="M328 1155h-111q-11 0 -13 12q-1 1 -1 2q4 118 59 181t141 63q54 0 110 -27t101 -54t72 -27q35 0 51 23.5t21 68.5q0 12 10 12h113q12 0 12 -10q-4 -128 -55 -187t-136 -59q-39 0 -81 16.5t-72 37t-66.5 37t-64.5 16.5q-68 0 -80 -95q0 -10 -10 -10zM551 1020
q146 0 254.5 -69t163.5 -185t55 -262q0 -234 -132 -379t-343 -145q-120 0 -215 45t-151.5 120.5t-85.5 166t-29 188.5q0 145 58.5 262.5t169.5 187.5t255 70zM541 850q-120 0 -195.5 -94.5t-75.5 -251.5q0 -155 76.5 -254.5t206.5 -99.5q112 0 190 90t78 258q0 71 -16 133
t-49 112t-88 78.5t-127 28.5z" />
    <glyph glyph-name="odieresis" unicode="&#xf6;" horiz-adv-x="1093" 
d="M352 1188q-46 0 -75 28.5t-29 77.5t30.5 79t75.5 30t74 -31t29 -80q0 -48 -29.5 -76t-75.5 -28zM735 1188q-45 0 -73.5 28.5t-28.5 77.5q0 48 30 78.5t74 30.5q46 0 74.5 -31t28.5 -80q0 -46 -29.5 -75t-75.5 -29zM551 1020q146 0 254.5 -69t163.5 -185t55 -262
q0 -234 -132 -379t-343 -145q-120 0 -215 45t-151.5 120.5t-85.5 166t-29 188.5q0 145 58.5 262.5t169.5 187.5t255 70zM541 850q-120 0 -195.5 -94.5t-75.5 -251.5q0 -155 76.5 -254.5t206.5 -99.5q112 0 190 90t78 258q0 71 -16 133t-49 112t-88 78.5t-127 28.5z" />
    <glyph glyph-name="divide" unicode="&#xf7;" horiz-adv-x="1128" 
d="M561 782q-44 0 -71 29.5t-25 75.5q0 45 27.5 73.5t72.5 28.5q44 0 71.5 -28.5t27.5 -73.5q0 -47 -27.5 -76t-75.5 -29zM561 72q-44 0 -71 29.5t-25 74.5q0 46 27.5 75.5t72.5 29.5q44 0 71.5 -29.5t27.5 -75.5t-27.5 -75t-75.5 -29zM61 594q0 12 13 12h981q12 0 12 -12
v-119q0 -14 -12 -14h-981q-13 0 -13 14v119z" />
    <glyph glyph-name="oslash" unicode="&#xf8;" horiz-adv-x="1093" 
d="M780 713l-387 -516q68 -52 160 -52q115 0 194.5 91t79.5 262q0 128 -47 215zM319 281l390 520q-68 55 -168 55q-122 0 -199.5 -98t-77.5 -254q0 -132 55 -223zM985 987l-86 -117q125 -140 125 -366q0 -234 -132 -379t-343 -145q-152 0 -262 71l-41 -53q-8 -8 -23 -8h-104
q-6 0 -7.5 5t3.5 11l88 117q-67 73 -101 172.5t-34 204.5q0 146 58.5 263.5t169.5 187t255 69.5q150 0 266 -76l37 49q8 8 16 8h107q15 0 8 -14z" />
    <glyph glyph-name="ugrave" unicode="&#xf9;" horiz-adv-x="1095" 
d="M956 987v-766q0 -89 11 -207q3 -14 -13 -14h-155q-15 0 -17 12q-12 40 -12 80q-115 -112 -293 -112q-72 0 -130.5 20t-107 63t-75.5 120.5t-27 183.5v620q0 14 15 14h172q12 0 12 -14v-596q0 -111 51 -173t152 -62q128 0 217 92v739q0 14 14 14h172q14 0 14 -14z
M463 1444l215 -293q3 -5 0.5 -9.5t-8.5 -4.5h-162q-12 0 -16 12l-254 289q-3 6 -1.5 11t7.5 5h200q11 0 19 -10z" />
    <glyph glyph-name="uacute" unicode="&#xfa;" horiz-adv-x="1095" 
d="M436 1151l209 289q6 16 19 16h192q18 0 8 -16l-243 -291q-9 -12 -23 -12h-156q-13 0 -6 14zM956 987v-766q0 -89 11 -207q3 -14 -13 -14h-155q-15 0 -17 12q-12 40 -12 80q-115 -112 -293 -112q-72 0 -130.5 20t-107 63t-75.5 120.5t-27 183.5v620q0 14 15 14h172
q12 0 12 -14v-596q0 -111 51 -173t152 -62q128 0 217 92v739q0 14 14 14h172q14 0 14 -14z" />
    <glyph glyph-name="ucircumflex" unicode="&#xfb;" horiz-adv-x="1095" 
d="M956 987v-766q0 -89 11 -207q3 -14 -13 -14h-155q-15 0 -17 12q-12 40 -12 80q-115 -112 -293 -112q-72 0 -130.5 20t-107 63t-75.5 120.5t-27 183.5v620q0 14 15 14h172q12 0 12 -14v-596q0 -111 51 -173t152 -62q128 0 217 92v739q0 14 14 14h172q14 0 14 -14z
M680 1149l-139 199l-138 -201q-3 -6 -14 -6h-129q-7 0 -9 4.5t1 9.5l203 285q4 8 14 8h152q13 0 18 -8l207 -287q3 -5 0.5 -8.5t-8.5 -3.5h-140q-13 0 -18 8z" />
    <glyph glyph-name="udieresis" unicode="&#xfc;" horiz-adv-x="1095" 
d="M360 1188q-46 0 -75 28.5t-29 77.5t31 79t78 30q45 0 73.5 -31t28.5 -80q0 -48 -30.5 -76t-76.5 -28zM745 1188q-45 0 -74.5 29t-29.5 77t31 78.5t76 30.5q46 0 74 -30.5t28 -80.5q0 -46 -29.5 -75t-75.5 -29zM956 987v-766q0 -89 11 -207q3 -14 -13 -14h-155
q-15 0 -17 12q-12 40 -12 80q-115 -112 -293 -112q-72 0 -130.5 20t-107 63t-75.5 120.5t-27 183.5v620q0 14 15 14h172q12 0 12 -14v-596q0 -111 51 -173t152 -62q128 0 217 92v739q0 14 14 14h172q14 0 14 -14z" />
    <glyph glyph-name="yacute" unicode="&#xfd;" horiz-adv-x="954" 
d="M367 1151l208 289q10 16 21 16h192q8 0 10.5 -4t-1.5 -12l-244 -291q-9 -12 -23 -12h-155q-11 0 -8 14zM18 1001h193q10 0 16 -12q203 -552 262 -747q47 142 261 747q3 12 16 12h172q13 0 10 -16q-209 -626 -551 -1399q-3 -12 -22 -12l-180 -14q-15 0 -9 16
q108 225 199 442q7 14 0 27q-8 21 -155.5 387t-221.5 555q-3 6 0.5 10t9.5 4z" />
    <glyph glyph-name="thorn" unicode="&#xfe;" horiz-adv-x="1116" 
d="M340 979q105 41 231 41q146 0 254.5 -67t162.5 -178t54 -251q0 -130 -47 -236t-125 -172t-174.5 -101t-201.5 -35q-80 0 -154 18v-434q0 -15 -12 -17q-147 -16 -176 -16q-13 0 -13 10v1934q0 14 15 14h172q9 0 11.5 -2t2.5 -10v-498zM537 846q-96 0 -197 -33v-635
q69 -28 164 -28q68 0 126.5 22t105 65t73.5 113.5t27 161.5q0 156 -81 245t-218 89z" />
    <glyph glyph-name="ydieresis" unicode="&#xff;" horiz-adv-x="954" 
d="M18 1001h193q10 0 16 -12q203 -552 262 -747q47 142 261 747q3 12 16 12h172q13 0 10 -16q-209 -626 -551 -1399q-3 -12 -22 -12l-180 -14q-15 0 -9 16q108 225 199 442q7 14 0 27q-8 21 -155.5 387t-221.5 555q-3 6 0.5 10t9.5 4zM293 1190q-47 0 -76 28.5t-29 77.5
t30.5 79t76.5 30q45 0 73.5 -30t28.5 -79q0 -48 -30 -77t-74 -29zM676 1190q-45 0 -75 29t-30 77t31.5 78.5t75.5 30.5q45 0 73.5 -30.5t28.5 -78.5q0 -47 -29 -76.5t-75 -29.5z" />
    <glyph glyph-name="Amacron" unicode="&#x100;" horiz-adv-x="1216" 
d="M852 399h-508l-135 -385q-3 -14 -19 -14h-163q-19 0 -13 16l437 1229q12 31 16 94q0 11 10 11h234q11 0 14 -11l477 -1323q3 -16 -10 -16h-184q-13 0 -19 12zM397 582h400q-3 11 -89.5 265.5t-109.5 338.5h-2q-10 -38 -26 -90.5t-39.5 -122t-41.5 -122.5t-48 -141
t-44 -128zM319 1657h562q10 0 10 -12v-129q0 -13 -12 -13h-555q-15 0 -15 13v129q0 12 10 12z" />
    <glyph glyph-name="amacron" unicode="&#x101;" horiz-adv-x="989" 
d="M655 172v293q-58 8 -125 8q-137 0 -204.5 -43t-67.5 -123q0 -72 55 -120t172 -48q94 0 170 33zM850 629v-441q0 -73 4 -110q0 -6 -4 -8q-112 -50 -205 -70t-194 -20q-173 0 -281.5 83.5t-108.5 241.5q0 157 127.5 238.5t331.5 81.5q95 0 135 -4v38q0 20 -4 41.5
t-18.5 48.5t-37 47.5t-64.5 35t-97 14.5q-144 0 -264 -60q-5 -3 -9.5 0.5t-4.5 10.5v145q0 11 12 16q124 62 299 62q98 0 173 -30t120 -84.5t67.5 -124t22.5 -152.5zM219 1360h547q12 0 12 -12v-121q0 -13 -12 -13h-547q-12 0 -12 15v121q0 10 12 10z" />
    <glyph glyph-name="Abreve" unicode="&#x102;" horiz-adv-x="1216" 
d="M852 399h-508l-135 -385q-3 -14 -19 -14h-163q-19 0 -13 16l437 1229q12 31 16 94q0 11 10 11h234q11 0 14 -11l477 -1323q3 -16 -10 -16h-184q-13 0 -19 12zM397 582h400q-3 11 -89.5 265.5t-109.5 338.5h-2q-10 -38 -26 -90.5t-39.5 -122t-41.5 -122.5t-48 -141
t-44 -128zM291 1737h137q9 0 12 -13q41 -112 156 -112q122 0 162 114q4 11 14 11h135q13 0 13 -15q-24 -124 -112 -194t-212 -70q-126 0 -211 67t-106 197q-4 15 12 15z" />
    <glyph glyph-name="abreve" unicode="&#x103;" horiz-adv-x="989" 
d="M174 1409h133q9 0 12 -6q41 -117 160 -117q130 0 166 115q3 8 10 8h136q11 0 8 -10q-22 -121 -105.5 -190.5t-214.5 -69.5q-126 0 -209 66t-106 194q-2 10 10 10zM655 172v293q-58 8 -125 8q-137 0 -204.5 -43t-67.5 -123q0 -72 55 -120t172 -48q94 0 170 33zM850 629
v-441q0 -73 4 -110q0 -6 -4 -8q-112 -50 -205 -70t-194 -20q-173 0 -281.5 83.5t-108.5 241.5q0 157 127.5 238.5t331.5 81.5q95 0 135 -4v38q0 20 -4 41.5t-18.5 48.5t-37 47.5t-64.5 35t-97 14.5q-144 0 -264 -60q-5 -3 -9.5 0.5t-4.5 10.5v145q0 11 12 16q124 62 299 62
q98 0 173 -30t120 -84.5t67.5 -124t22.5 -152.5z" />
    <glyph glyph-name="Aogonek" unicode="&#x104;" horiz-adv-x="1216" 
d="M397 582h400q-2 5 -89 263.5t-110 342.5h-2q-26 -100 -199 -606zM985 25l-133 374h-510l-133 -385q-3 -14 -19 -14h-163q-19 0 -13 16l437 1229q12 31 16 94q0 11 10 11h234q11 0 14 -11l473 -1312q8 -20 -6 -27q-166 -101 -166 -205q0 -45 33 -72.5t92 -27.5q62 0 98 16
q15 3 15 -10v-107q0 -19 -13 -24q-53 -33 -161 -33q-47 0 -89.5 11t-80.5 34.5t-61 65.5t-23 98q0 134 170 260q-13 3 -21 19z" />
    <glyph glyph-name="aogonek" unicode="&#x105;" horiz-adv-x="989" 
d="M666 176v291q-45 10 -129 10q-133 0 -205 -45t-72 -125q0 -72 57 -119t175 -47q99 0 174 35zM455 -20q-85 0 -155.5 19t-124.5 57.5t-84 101t-30 143.5q0 106 63 180.5t166.5 109t237.5 34.5q98 0 138 -4v36q0 28 -8 55.5t-28.5 60t-67 53t-113.5 20.5q-145 0 -277 -74
q-4 -3 -9 0t-5 10v148q0 11 10 16q132 74 315 74q96 0 170 -30.5t119 -84t67.5 -123.5t22.5 -153v-436q0 -78 4 -117q3 -13 -10 -17q-250 -137 -250 -258q0 -48 33.5 -76t91.5 -28q71 0 111 16q14 6 14 -10v-106q0 -16 -12 -25q-57 -31 -170 -31q-46 0 -88 11t-79.5 34
t-60 64.5t-22.5 95.5q0 69 47.5 132.5t124.5 113.5q-61 -12 -141 -12z" />
    <glyph glyph-name="Cacute" unicode="&#x106;" horiz-adv-x="1132" 
d="M1065 188v-147q0 -21 -12 -23q-86 -38 -277 -38q-110 0 -210.5 25t-190 80t-155 135t-104 197t-38.5 259q0 204 89 361t254 245t382 88q192 0 264 -35q10 -5 10 -20v-158q0 -19 -14 -10q-92 45 -264 45q-233 0 -373.5 -139t-140.5 -371q0 -115 33 -207t85.5 -149
t122 -95.5t137 -53.5t136.5 -15q162 0 254 35q12 3 12 -9zM557 1516l252 227q6 6 20 6h211q6 0 7.5 -4.5t-3.5 -9.5l-276 -224q-10 -10 -25 -10h-178q-7 0 -9 5.5t1 9.5z" />
    <glyph glyph-name="cacute" unicode="&#x107;" horiz-adv-x="868" 
d="M406 1151l208 289q6 16 19 16h192q17 0 11 -16l-246 -291q-9 -12 -21 -12h-155q-15 0 -8 14zM817 176v-149q0 -13 -8 -15q-81 -32 -225 -32q-121 0 -219.5 40.5t-162.5 111.5t-98 164t-34 200q0 228 150.5 376t393.5 148q136 0 195 -25q10 -3 10 -18l-2 -150
q0 -15 -14 -10q-79 29 -185 29q-153 0 -248.5 -92.5t-95.5 -249.5q0 -168 100.5 -256t246.5 -88q113 0 184 24q12 2 12 -8z" />
    <glyph glyph-name="Ccircumflex" unicode="&#x108;" horiz-adv-x="1132" 
d="M1065 188v-147q0 -21 -12 -23q-86 -38 -277 -38q-110 0 -210.5 25t-190 80t-155 135t-104 197t-38.5 259q0 204 89 361t254 245t382 88q192 0 264 -35q10 -5 10 -20v-158q0 -19 -14 -10q-92 45 -264 45q-233 0 -373.5 -139t-140.5 -371q0 -115 33 -207t85.5 -149
t122 -95.5t137 -53.5t136.5 -15q162 0 254 35q12 3 12 -9zM819 1501l-143 146l-139 -146q-7 -10 -21 -10h-151q-6 0 -8 5.5t3 10.5l224 232q9 6 16 6h158q14 0 22 -8l234 -236q7 -10 -8 -10h-164q-18 0 -23 10z" />
    <glyph glyph-name="ccircumflex" unicode="&#x109;" horiz-adv-x="868" 
d="M647 1147l-137 201l-137 -201q-4 -8 -17 -8h-129q-6 0 -7.5 5.5t1.5 10.5l201 285q6 8 16 8h152q13 0 16 -8l209 -287q3 -5 0.5 -9.5t-8.5 -4.5h-139q-9 0 -21 8zM817 176v-149q0 -13 -8 -15q-81 -32 -225 -32q-121 0 -219.5 40.5t-162.5 111.5t-98 164t-34 200
q0 228 150.5 376t393.5 148q136 0 195 -25q10 -3 10 -18l-2 -150q0 -15 -14 -10q-79 29 -185 29q-153 0 -248.5 -92.5t-95.5 -249.5q0 -168 100.5 -256t246.5 -88q113 0 184 24q12 2 12 -8z" />
    <glyph glyph-name="Cdotaccent" unicode="&#x10a;" horiz-adv-x="1132" 
d="M1065 188v-147q0 -21 -12 -23q-86 -38 -277 -38q-110 0 -210.5 25t-190 80t-155 135t-104 197t-38.5 259q0 204 89 361t254 245t382 88q192 0 264 -35q10 -5 10 -20v-158q0 -19 -14 -10q-92 45 -264 45q-233 0 -373.5 -139t-140.5 -371q0 -115 33 -207t85.5 -149
t122 -95.5t137 -53.5t136.5 -15q162 0 254 35q12 3 12 -9zM696 1520q-53 0 -83.5 28.5t-30.5 75.5t32 76t86 29q52 0 82.5 -29.5t30.5 -75.5q0 -47 -31 -75.5t-86 -28.5z" />
    <glyph glyph-name="cdotaccent" unicode="&#x10b;" horiz-adv-x="868" 
d="M817 176v-149q0 -13 -8 -15q-81 -32 -225 -32q-121 0 -219.5 40.5t-162.5 111.5t-98 164t-34 200q0 228 150.5 376t393.5 148q136 0 195 -25q10 -3 10 -18l-2 -150q0 -15 -14 -10q-79 29 -185 29q-153 0 -248.5 -92.5t-95.5 -249.5q0 -168 100.5 -256t246.5 -88
q113 0 184 24q12 2 12 -8zM532 1182q-53 0 -84.5 32.5t-31.5 85.5q0 52 33 85.5t86 33.5q54 0 85 -32.5t31 -86.5q0 -53 -32.5 -85.5t-86.5 -32.5z" />
    <glyph glyph-name="Ccaron" unicode="&#x10c;" horiz-adv-x="1132" 
d="M1065 188v-147q0 -21 -12 -23q-86 -38 -277 -38q-110 0 -210.5 25t-190 80t-155 135t-104 197t-38.5 259q0 204 89 361t254 245t382 88q192 0 264 -35q10 -5 10 -20v-158q0 -19 -14 -10q-92 45 -264 45q-233 0 -373.5 -139t-140.5 -371q0 -115 33 -207t85.5 -149
t122 -95.5t137 -53.5t136.5 -15q162 0 254 35q12 3 12 -9zM561 1731l141 -148l142 146q7 10 18 10h154q4 0 5.5 -6t-1.5 -9l-223 -233q-9 -6 -19 -6h-157q-15 0 -23 8l-231 236q-4 5 -2 7.5t8 2.5h164q12 0 24 -8z" />
    <glyph glyph-name="ccaron" unicode="&#x10d;" horiz-adv-x="868" 
d="M817 176v-149q0 -13 -8 -15q-81 -32 -225 -32q-121 0 -219.5 40.5t-162.5 111.5t-98 164t-34 200q0 228 150.5 376t393.5 148q136 0 195 -25q10 -3 10 -18l-2 -150q0 -15 -14 -10q-79 29 -185 29q-153 0 -248.5 -92.5t-95.5 -249.5q0 -168 100.5 -256t246.5 -88
q113 0 184 24q12 2 12 -8zM395 1438l140 -199l135 201q6 6 16 6h129q7 0 9 -5t-3 -9l-200 -285q-6 -8 -15 -8h-151q-14 0 -19 8l-207 287q-4 4 -1 8t8 4h141q13 0 18 -8z" />
    <glyph glyph-name="Dcaron" unicode="&#x10e;" horiz-adv-x="1337" 
d="M160 18v1315q0 13 12 15q165 6 369 6q173 0 310.5 -48t226.5 -135.5t135.5 -207.5t46.5 -265q0 -148 -43.5 -268.5t-115 -199.5t-167.5 -133t-197.5 -77.5t-208.5 -23.5q-220 0 -356 4q-12 0 -12 18zM360 1176v-1000q78 -4 158 -4q160 0 279 57.5t187.5 176.5t68.5 288
q0 235 -141.5 360.5t-372.5 125.5q-69 0 -179 -4zM457 1720l141 -145l141 145q7 11 19 11h153q6 0 6.5 -6.5t-2.5 -10.5l-223 -231q-9 -6 -18 -6h-158q-16 0 -20 8l-234 235q-4 4 -2 7.5t8 3.5h164q14 0 25 -11z" />
    <glyph glyph-name="dcaron" unicode="&#x10f;" horiz-adv-x="1200" 
d="M1081 989v463q0 14 13 14h129q15 0 12 -14l-25 -463q-4 -14 -14 -14h-102q-13 0 -13 14zM586 -20q-148 0 -262.5 56t-183 173.5t-68.5 282.5q0 228 156.5 378t410.5 150q64 0 113 -8v440q0 12 12 12h178q10 0 10 -10v-1270q0 -58 6 -110q0 -14 -12 -19q-174 -75 -360 -75
zM752 176v658q-41 16 -119 16q-160 0 -258.5 -96.5t-98.5 -251.5q0 -91 26.5 -159.5t73.5 -109t104.5 -60t125.5 -19.5q87 0 146 22z" />
    <glyph glyph-name="Dcroat" unicode="&#x110;" horiz-adv-x="1359" 
d="M375 625v-449q82 -4 160 -4q159 0 277.5 57.5t187 176.5t69.5 288q0 235 -142 360.5t-372 125.5q-70 0 -180 -4v-404h348q10 0 10 -12v-125q0 -10 -12 -10h-346zM174 772v561q0 13 12 15q165 6 371 6q173 0 309.5 -48t225.5 -135.5t135.5 -207.5t46.5 -265
q0 -148 -43 -268.5t-114.5 -199.5t-167 -133t-197 -77.5t-209.5 -23.5q-217 0 -357 4q-12 0 -12 18v607h-143q-11 0 -11 12v125q0 10 11 10h143z" />
    <glyph glyph-name="dcroat" unicode="&#x111;" horiz-adv-x="1087" 
d="M750 182v609q-50 24 -132 24q-157 0 -250.5 -90.5t-93.5 -239.5q0 -87 28 -153t76 -103t104.5 -55t121.5 -18q90 0 146 26zM950 1298h144q6 0 8 -1t2 -7v-127q0 -10 -12 -10h-142v-963q0 -52 4 -110q0 -13 -10 -17q-165 -83 -360 -83q-148 0 -262.5 54t-184 168
t-69.5 275q0 224 152 366t405 142q81 0 125 -12v180h-342q-13 0 -13 12v123q0 10 11 10h344v154q0 12 12 12h176q12 0 12 -10v-156z" />
    <glyph glyph-name="Emacron" unicode="&#x112;" horiz-adv-x="1058" 
d="M1010 168l-25 -154q-2 -14 -16 -14h-793q-10 0 -13 3.5t-3 12.5v1319q0 15 14 15h764q9 0 11.5 -2.5t4.5 -10.5l19 -153q4 -15 -12 -15h-601v-389h545q13 0 13 -12v-156q0 -14 -15 -14h-543v-416h637q16 0 13 -14zM272 1677h559q11 0 11 -12v-129q0 -12 -13 -12h-553
q-16 0 -16 12v129q0 12 12 12z" />
    <glyph glyph-name="emacron" unicode="&#x113;" horiz-adv-x="1001" 
d="M707 465h-435q0 -138 84 -224.5t246 -86.5q144 0 254 51q10 7 10 -8v-138q0 -15 -10 -20q-115 -59 -295 -59q-130 0 -228.5 44t-154.5 118.5t-83 162.5t-27 187q0 144 53.5 263t160.5 192t250 73q86 0 156.5 -26t116 -68.5t77 -98t45 -112t13.5 -113.5q0 -75 -8 -115
q0 -11 -14 -14q-62 -8 -211 -8zM272 612h353q109 0 125 4v19q0 23 -6 50t-22 58.5t-40.5 56.5t-65.5 41.5t-92 16.5q-110 0 -173.5 -71.5t-78.5 -174.5zM250 1360h547q10 0 10 -12v-121q0 -13 -12 -13h-547q-10 0 -10 15v121q0 10 12 10z" />
    <glyph glyph-name="Ebreve" unicode="&#x114;" horiz-adv-x="1058" 
d="M1010 168l-25 -154q-2 -14 -16 -14h-793q-10 0 -13 3.5t-3 12.5v1319q0 15 14 15h764q9 0 11.5 -2.5t4.5 -10.5l19 -153q4 -15 -12 -15h-601v-389h545q13 0 13 -12v-156q0 -14 -15 -14h-543v-416h637q16 0 13 -14zM242 1747h137q9 0 14 -12q41 -111 156 -111
q121 0 162 113q3 10 12 10h137q15 0 10 -14q-23 -124 -110.5 -194.5t-210.5 -70.5q-126 0 -211.5 68t-106.5 199q-2 5 1.5 8.5t9.5 3.5z" />
    <glyph glyph-name="ebreve" unicode="&#x115;" horiz-adv-x="1001" 
d="M209 1409h135q8 0 10 -6q43 -115 162 -115q128 0 166 113q3 8 10 8h135q9 0 9 -10q-24 -121 -108 -190.5t-214 -69.5q-126 0 -208.5 66t-106.5 194q-1 7 1.5 8.5t8.5 1.5zM707 465h-435q0 -138 84 -224.5t246 -86.5q144 0 254 51q10 7 10 -8v-138q0 -15 -10 -20
q-115 -59 -295 -59q-130 0 -228.5 44t-154.5 118.5t-83 162.5t-27 187q0 144 53.5 263t160.5 192t250 73q86 0 156.5 -26t116 -68.5t77 -98t45 -112t13.5 -113.5q0 -75 -8 -115q0 -11 -14 -14q-62 -8 -211 -8zM272 612h353q109 0 125 4v19q0 23 -6 50t-22 58.5t-40.5 56.5
t-65.5 41.5t-92 16.5q-110 0 -173.5 -71.5t-78.5 -174.5z" />
    <glyph glyph-name="Edotaccent" unicode="&#x116;" horiz-adv-x="1058" 
d="M1010 168l-25 -154q-2 -14 -16 -14h-793q-10 0 -13 3.5t-3 12.5v1319q0 15 14 15h764q9 0 11.5 -2.5t4.5 -10.5l19 -153q4 -15 -12 -15h-601v-389h545q13 0 13 -12v-156q0 -14 -15 -14h-543v-416h637q16 0 13 -14zM557 1499q-53 0 -85 29.5t-32 75.5q0 47 32.5 75.5
t86.5 28.5q52 0 83.5 -29t31.5 -75q0 -47 -31.5 -76t-85.5 -29z" />
    <glyph glyph-name="edotaccent" unicode="&#x117;" horiz-adv-x="1001" 
d="M516 1182q-54 0 -85.5 32t-31.5 86q0 52 33.5 85.5t85.5 33.5q54 0 85.5 -33.5t31.5 -85.5q0 -53 -32.5 -85.5t-86.5 -32.5zM707 465h-435q0 -138 84 -224.5t246 -86.5q144 0 254 51q10 7 10 -8v-138q0 -15 -10 -20q-115 -59 -295 -59q-130 0 -228.5 44t-154.5 118.5
t-83 162.5t-27 187q0 144 53.5 263t160.5 192t250 73q86 0 156.5 -26t116 -68.5t77 -98t45 -112t13.5 -113.5q0 -75 -8 -115q0 -11 -14 -14q-62 -8 -211 -8zM272 612h353q109 0 125 4v19q0 23 -6 50t-22 58.5t-40.5 56.5t-65.5 41.5t-92 16.5q-110 0 -173.5 -71.5
t-78.5 -174.5z" />
    <glyph glyph-name="Eogonek" unicode="&#x118;" horiz-adv-x="1058" 
d="M969 0h-78q-150 -102 -150 -201q0 -47 33.5 -74.5t93.5 -27.5q53 0 111 16q12 3 12 -10v-113q0 -13 -10 -18q-61 -33 -168 -33q-65 0 -119.5 18.5t-94.5 67t-40 121.5q0 136 170 254h-553q-10 0 -13 3.5t-3 12.5v1319q0 15 14 15h764q9 0 11.5 -2.5t4.5 -10.5l19 -153
q4 -15 -12 -15h-601v-389h545q13 0 13 -12v-156q0 -14 -15 -14h-543v-416h637q16 0 13 -14l-25 -154q-2 -14 -16 -14z" />
    <glyph glyph-name="eogonek" unicode="&#x119;" horiz-adv-x="1001" 
d="M272 612h351q109 0 125 4v23q0 31 -10.5 65.5t-34 70.5t-70 59.5t-109.5 23.5q-110 0 -173.5 -71.5t-78.5 -174.5zM580 -16q-112 -4 -201.5 23.5t-146.5 76.5t-95 117t-53.5 140t-15.5 151q0 144 53.5 263t160.5 192t250 73q86 0 156.5 -26t116 -68t76.5 -97t44 -110.5
t13 -112.5q0 -85 -6 -112q-4 -14 -17 -17q-62 -8 -210 -8h-433q-2 -140 82.5 -227.5t245.5 -87.5q148 0 254 53q10 7 10 -8v-138q0 -19 -12 -24q-268 -116 -268 -240q0 -48 34 -77t93 -29t104 18q14 3 14 -10v-105q0 -18 -12 -24q-60 -31 -164 -31q-63 0 -116.5 18.5
t-92 66.5t-38.5 120q0 136 174 240z" />
    <glyph glyph-name="Ecaron" unicode="&#x11a;" horiz-adv-x="1058" 
d="M1010 168l-25 -154q-2 -14 -16 -14h-793q-10 0 -13 3.5t-3 12.5v1319q0 15 14 15h764q9 0 11.5 -2.5t4.5 -10.5l19 -153q4 -15 -12 -15h-601v-389h545q13 0 13 -12v-156q0 -14 -15 -14h-543v-416h637q16 0 13 -14zM414 1718l143 -145l139 145q11 11 21 11h151
q6 0 7.5 -6.5t-3.5 -10.5l-223 -231q-6 -6 -16 -6h-158q-17 0 -22 8l-234 235q-3 4 -0.5 7.5t8.5 3.5h164q12 0 23 -11z" />
    <glyph glyph-name="ecaron" unicode="&#x11b;" horiz-adv-x="1001" 
d="M707 465h-435q0 -138 84 -224.5t246 -86.5q144 0 254 51q10 7 10 -8v-138q0 -15 -10 -20q-115 -59 -295 -59q-130 0 -228.5 44t-154.5 118.5t-83 162.5t-27 187q0 144 53.5 263t160.5 192t250 73q86 0 156.5 -26t116 -68.5t77 -98t45 -112t13.5 -113.5q0 -75 -8 -115
q0 -11 -14 -14q-62 -8 -211 -8zM272 612h353q109 0 125 4v19q0 23 -6 50t-22 58.5t-40.5 56.5t-65.5 41.5t-92 16.5q-110 0 -173.5 -71.5t-78.5 -174.5zM373 1438l139 -199l137 201q3 6 17 6h129q6 0 7.5 -5t-1.5 -9l-203 -285q-4 -8 -14 -8h-152q-13 0 -18 8l-207 287
q-3 4 -0.5 8t8.5 4h139q14 0 19 -8z" />
    <glyph glyph-name="Gcircumflex" unicode="&#x11c;" horiz-adv-x="1308" 
d="M993 555l-264 6q-14 2 -14 17v147q0 10 12 10h451q14 0 14 -14v-655q3 -14 -10 -19q-173 -67 -389 -67q-172 0 -309.5 53t-225.5 146.5t-134 218t-46 270.5q0 211 94 371t262.5 245.5t388.5 85.5q224 0 328 -49q10 -5 10 -23v-157q0 -18 -14 -11q-112 58 -318 62
q-256 1 -400 -136.5t-144 -381.5q0 -146 57.5 -261t176.5 -185t284 -70q119 0 190 26v371zM858 1501l-143 148l-140 -146q-9 -12 -20 -12h-152q-6 0 -7.5 6.5t3.5 9.5l224 234q9 6 16 6h160q12 0 20 -8l234 -236q3 -4 0 -8t-9 -4h-163q-13 0 -23 10z" />
    <glyph glyph-name="gcircumflex" unicode="&#x11d;" horiz-adv-x="1024" 
d="M344 1137h-129q-6 0 -8 4.5t2 9.5l201 287q8 8 16 8h152q13 0 16 -10l207 -287q4 -5 2 -8.5t-8 -3.5h-142q-13 0 -18 8l-137 198l-138 -200q-3 -6 -16 -6zM580 14l-218 11q-54 -36 -88 -86t-34 -82q0 -69 79 -122.5t209 -53.5q149 0 228.5 56t79.5 132q0 39 -19.5 67.5
t-57 44t-80.5 23.5t-99 10zM489 872q-89 0 -141.5 -53.5t-52.5 -142.5q0 -87 50.5 -141t141.5 -54q90 0 140.5 50.5t50.5 140.5q0 87 -48 143.5t-141 56.5zM414 197l209 -11q198 -10 298.5 -83t100.5 -205q0 -157 -140 -264t-366 -107q-113 0 -204.5 27.5t-147 73t-84.5 100
t-29 112.5q0 109 197 275q-48 70 -45 155q0 70 35 129q-140 92 -140 273q0 151 105.5 249.5t285.5 98.5q94 0 166 -14q20 -5 43 -5h289q12 0 12 -12v-137q0 -12 -12 -12q-84 0 -178 8q61 -65 61 -180q0 -161 -106.5 -248.5t-271.5 -87.5q-57 0 -101 8q-16 -32 -10 -68
q6 -40 33 -75z" />
    <glyph glyph-name="Gbreve" unicode="&#x11e;" horiz-adv-x="1308" 
d="M993 555l-264 6q-14 2 -14 17v147q0 10 12 10h451q14 0 14 -14v-655q3 -14 -10 -19q-173 -67 -389 -67q-172 0 -309.5 53t-225.5 146.5t-134 218t-46 270.5q0 211 94 371t262.5 245.5t388.5 85.5q224 0 328 -49q10 -5 10 -23v-157q0 -18 -14 -11q-112 58 -318 62
q-256 1 -400 -136.5t-144 -381.5q0 -146 57.5 -261t176.5 -185t284 -70q119 0 190 26v371zM420 1767h135q11 0 14 -12q42 -113 156 -113q121 0 162 115q5 10 14 10h135q16 0 11 -16q-23 -123 -110.5 -192.5t-211.5 -69.5q-126 0 -211 67t-106 197q-4 14 12 14z" />
    <glyph glyph-name="gbreve" unicode="&#x11f;" horiz-adv-x="1024" 
d="M662 1405h135q11 0 8 -10q-22 -121 -105.5 -190.5t-214.5 -69.5q-126 0 -209 66t-106 194q-1 7 1 8.5t9 1.5h133q10 0 13 -6q41 -117 159 -117q130 0 166 115q3 8 11 8zM580 14l-218 11q-54 -36 -88 -86t-34 -82q0 -69 79 -122.5t209 -53.5q149 0 228.5 56t79.5 132
q0 39 -19.5 67.5t-57 44t-80.5 23.5t-99 10zM489 872q-89 0 -141.5 -53.5t-52.5 -142.5q0 -87 50.5 -141t141.5 -54q90 0 140.5 50.5t50.5 140.5q0 87 -48 143.5t-141 56.5zM414 197l209 -11q198 -10 298.5 -83t100.5 -205q0 -157 -140 -264t-366 -107q-113 0 -204.5 27.5
t-147 73t-84.5 100t-29 112.5q0 109 197 275q-48 70 -45 155q0 70 35 129q-140 92 -140 273q0 151 105.5 249.5t285.5 98.5q94 0 166 -14q20 -5 43 -5h289q12 0 12 -12v-137q0 -12 -12 -12q-84 0 -178 8q61 -65 61 -180q0 -161 -106.5 -248.5t-271.5 -87.5q-57 0 -101 8
q-16 -32 -10 -68q6 -40 33 -75z" />
    <glyph glyph-name="Gdotaccent" unicode="&#x120;" horiz-adv-x="1308" 
d="M993 555l-264 6q-14 2 -14 17v147q0 10 12 10h451q14 0 14 -14v-655q3 -14 -10 -19q-173 -67 -389 -67q-172 0 -309.5 53t-225.5 146.5t-134 218t-46 270.5q0 211 94 371t262.5 245.5t388.5 85.5q224 0 328 -49q10 -5 10 -23v-157q0 -18 -14 -11q-112 58 -318 62
q-256 1 -400 -136.5t-144 -381.5q0 -146 57.5 -261t176.5 -185t284 -70q119 0 190 26v371zM741 1526q-52 0 -83 29t-31 75t32.5 75.5t85.5 29.5q52 0 82.5 -29.5t30.5 -75.5q0 -47 -31 -75.5t-86 -28.5z" />
    <glyph glyph-name="gdotaccent" unicode="&#x121;" horiz-adv-x="1024" 
d="M494 1182q-54 0 -85.5 32t-31.5 86q0 52 33.5 85.5t85.5 33.5q54 0 85 -33.5t31 -85.5q0 -53 -32 -85.5t-86 -32.5zM580 14l-218 11q-54 -36 -88 -86t-34 -82q0 -69 79 -122.5t209 -53.5q149 0 228.5 56t79.5 132q0 39 -19.5 67.5t-57 44t-80.5 23.5t-99 10zM489 872
q-89 0 -141.5 -53.5t-52.5 -142.5q0 -87 50.5 -141t141.5 -54q90 0 140.5 50.5t50.5 140.5q0 87 -48 143.5t-141 56.5zM414 197l209 -11q198 -10 298.5 -83t100.5 -205q0 -157 -140 -264t-366 -107q-113 0 -204.5 27.5t-147 73t-84.5 100t-29 112.5q0 109 197 275
q-48 70 -45 155q0 70 35 129q-140 92 -140 273q0 151 105.5 249.5t285.5 98.5q94 0 166 -14q20 -5 43 -5h289q12 0 12 -12v-137q0 -12 -12 -12q-84 0 -178 8q61 -65 61 -180q0 -161 -106.5 -248.5t-271.5 -87.5q-57 0 -101 8q-16 -32 -10 -68q6 -40 33 -75z" />
    <glyph glyph-name="uni0122" unicode="&#x122;" horiz-adv-x="1308" 
d="M993 555l-264 6q-14 2 -14 17v147q0 10 12 10h451q14 0 14 -14v-655q3 -14 -10 -19q-173 -67 -389 -67q-172 0 -309.5 53t-225.5 146.5t-134 218t-46 270.5q0 211 94 371t262.5 245.5t388.5 85.5q224 0 328 -49q10 -5 10 -23v-157q0 -18 -14 -11q-112 58 -318 62
q-256 1 -400 -136.5t-144 -381.5q0 -146 57.5 -261t176.5 -185t284 -70q119 0 190 26v371zM760 -487h-150q-6 0 -8 4.5t0 9.5q78 126 78 231q0 40 -29 125q-3 5 -1 9t7 4h164q13 0 19 -13q11 -18 19.5 -51t8.5 -61q0 -76 -22 -134.5t-68 -117.5q-3 -6 -18 -6z" />
    <glyph glyph-name="uni0123" unicode="&#x123;" horiz-adv-x="1024" 
d="M590 1118h-162q-11 0 -18 10q-29 52 -29 115q0 75 21.5 132.5t66.5 117.5q6 6 18 6h152q6 0 7.5 -3.5t-1.5 -8.5q-76 -123 -76 -232q0 -49 29 -125q3 -4 0.5 -8t-8.5 -4zM580 14l-218 11q-54 -36 -88 -86t-34 -82q0 -69 79 -122.5t209 -53.5q149 0 228.5 56t79.5 132
q0 39 -19.5 67.5t-57 44t-80.5 23.5t-99 10zM489 872q-89 0 -141.5 -53.5t-52.5 -142.5q0 -87 50.5 -141t141.5 -54q90 0 140.5 50.5t50.5 140.5q0 87 -48 143.5t-141 56.5zM414 197l209 -11q198 -10 298.5 -83t100.5 -205q0 -157 -140 -264t-366 -107q-113 0 -204.5 27.5
t-147 73t-84.5 100t-29 112.5q0 109 197 275q-48 70 -45 155q0 70 35 129q-140 92 -140 273q0 151 105.5 249.5t285.5 98.5q94 0 166 -14q20 -5 43 -5h289q12 0 12 -12v-137q0 -12 -12 -12q-84 0 -178 8q61 -65 61 -180q0 -161 -106.5 -248.5t-271.5 -87.5q-57 0 -101 8
q-16 -32 -10 -68q6 -40 33 -75z" />
    <glyph glyph-name="Hcircumflex" unicode="&#x124;" horiz-adv-x="1357" 
d="M1184 0h-172q-15 0 -15 14v600h-637v-598q0 -16 -14 -16h-170q-16 0 -16 16v1319q0 15 14 15h172q14 0 14 -13v-542h637v542q0 13 13 13h176q12 0 12 -13v-1323q0 -14 -14 -14zM819 1477l-143 145l-139 -145q-8 -11 -21 -11h-151q-6 0 -8 6t3 11l224 231q9 6 16 6h158
q17 0 22 -8l232 -235q4 -5 2 -8t-8 -3h-164q-18 0 -23 11z" />
    <glyph glyph-name="hcircumflex" unicode="&#x125;" horiz-adv-x="1110" 
d="M379 1534l-141 102l-132 -102q-9 -6 -22 -6h-156q-15 0 -6 12l230 193q6 6 16 6h145q16 0 23 -10l237 -189q4 -4 2 -8t-8 -4h-164q-12 0 -24 6zM338 748v-734q0 -14 -12 -14h-174q-15 0 -15 14v1438q0 12 15 12h174q12 0 12 -12l2 -541q124 109 295 109q48 0 91.5 -9.5
t89.5 -36.5t79.5 -70t54.5 -115t21 -166v-607q0 -16 -17 -16h-168q-18 0 -18 16v586q0 115 -49.5 179.5t-147.5 64.5q-138 0 -233 -98z" />
    <glyph glyph-name="Hbar" unicode="&#x126;" horiz-adv-x="1357" 
d="M1008 768v201h-648v-201h648zM1208 1108h101q10 0 10 -10v-119q0 -10 -10 -10h-101v-955q0 -14 -14 -14h-172q-8 0 -11 2.5t-3 11.5v572h-648v-570q0 -16 -14 -16h-170q-16 0 -16 16v953h-105q-14 0 -14 12v117q0 10 10 10h109v227q0 15 14 15h172q14 0 14 -13v-229h648
v229q0 13 12 13h176q12 0 12 -13v-229z" />
    <glyph glyph-name="hbar" unicode="&#x127;" horiz-adv-x="1110" 
d="M340 1153v-274q118 110 297 110q48 0 92 -10t90 -37t79.5 -70t55 -115.5t21.5 -166.5v-574q0 -16 -17 -16h-167q-19 0 -19 16v559q0 116 -49 179t-148 63q-146 0 -237 -104v-699q0 -14 -12 -14h-174q-15 0 -15 14v1139h-141q-12 0 -12 12v123q0 10 10 10h143v154
q0 12 15 12h174q12 0 12 -12v-154h342q6 0 8 -1t2 -7v-127q0 -10 -10 -10h-340z" />
    <glyph glyph-name="Itilde" unicode="&#x128;" horiz-adv-x="520" 
d="M360 1337v-1321q0 -16 -14 -16h-172q-14 0 -14 16v1319q0 15 14 15h172q14 0 14 -13zM57 1475h-112q-12 0 -15 12q3 112 58.5 174.5t138.5 62.5q44 0 85 -17t67 -37t56 -37t54 -17q58 0 68 90q0 12 10 12h113q8 0 10 -2t2 -10q-10 -233 -186 -233q-41 0 -81.5 16.5
t-66.5 36.5t-57.5 36.5t-57.5 16.5q-28 0 -48.5 -24.5t-24.5 -69.5q0 -10 -13 -10z" />
    <glyph glyph-name="itilde" unicode="&#x129;" horiz-adv-x="479" 
d="M139 16v971q0 14 13 14h174q8 0 11 -2.5t3 -11.5v-971q0 -9 -2.5 -12.5t-11.5 -3.5h-170q-17 0 -17 16zM25 1155h-113q-12 0 -12 14q3 118 57.5 181t142.5 63q54 0 109.5 -27t100.5 -54t73 -27q63 0 70 92q0 12 12 12h110q13 0 13 -10q-4 -128 -54.5 -187t-134.5 -59
q-39 0 -81.5 16.5t-72.5 37t-66 37t-64 16.5q-71 0 -80 -95q0 -10 -10 -10z" />
    <glyph glyph-name="Imacron" unicode="&#x12a;" horiz-adv-x="520" 
d="M360 1337v-1321q0 -16 -14 -16h-172q-14 0 -14 16v1319q0 15 14 15h172q14 0 14 -13zM-18 1657h559q12 0 12 -12v-129q0 -13 -12 -13h-555q-17 0 -17 13v129q0 12 13 12z" />
    <glyph glyph-name="imacron" unicode="&#x12b;" horiz-adv-x="479" 
d="M-29 1360h547q10 0 10 -12v-121q0 -13 -12 -13h-547q-10 0 -10 15v121q0 10 12 10zM139 16v971q0 14 13 14h174q8 0 11 -2.5t3 -11.5v-971q0 -9 -2.5 -12.5t-11.5 -3.5h-170q-17 0 -17 16z" />
    <glyph glyph-name="Iogonek" unicode="&#x12e;" horiz-adv-x="520" 
d="M160 29v1308q0 13 12 13h176q12 0 12 -11v-1321q0 -13 -8 -18q-143 -112 -143 -211q0 -52 35.5 -82.5t91.5 -30.5q61 0 110 17q11 3 11 -8v-113q0 -16 -11 -21q-54 -30 -167 -30q-106 0 -180 54t-74 163q0 41 13 80.5t37 74.5t45 59.5t50 53.5q-10 5 -10 23z" />
    <glyph glyph-name="iogonek" unicode="&#x12f;" horiz-adv-x="479" 
d="M340 987v-971q0 -4 -1 -6l-1.5 -3t-4.5 -3.5t-5 -3.5q-117 -97 -117 -188q0 -52 33.5 -83.5t93.5 -31.5q58 0 104 16q15 6 15 -10v-113q0 -10 -13 -20q-60 -31 -165 -31q-66 0 -121 20.5t-94 71t-39 123.5q0 123 127 250q-13 3 -13 21v962q0 14 13 14h174q8 0 11 -2.5
t3 -11.5zM240 1200q-51 0 -81 30.5t-30 80.5q0 49 31.5 80.5t81.5 31.5t79 -31t29 -81t-29.5 -80.5t-80.5 -30.5z" />
    <glyph glyph-name="Idotaccent" unicode="&#x130;" horiz-adv-x="520" 
d="M360 1337v-1321q0 -16 -14 -16h-172q-14 0 -14 16v1319q0 15 14 15h172q14 0 14 -13zM256 1493q-52 0 -83.5 29t-31.5 75t33 75.5t86 29.5q52 0 83.5 -29.5t31.5 -75.5q0 -47 -31.5 -75.5t-87.5 -28.5z" />
    <glyph glyph-name="dotlessi" unicode="&#x131;" horiz-adv-x="479" 
d="M139 16v971q0 14 13 14h174q8 0 11 -2.5t3 -11.5v-971q0 -9 -2.5 -12.5t-11.5 -3.5h-170q-17 0 -17 16z" />
    <glyph glyph-name="Jcircumflex" unicode="&#x134;" horiz-adv-x="618" 
d="M268 348v989q0 13 15 13h174q12 0 12 -13v-968q0 -127 -14 -187q-34 -151 -135 -221t-248 -70q-49 0 -84 9q-13 2 -13 20v150q0 15 15 12q58 -4 63 -4q107 0 161 61t54 209zM502 1466l-144 146l-139 -146q-10 -10 -20 -10h-152q-6 0 -7.5 6t3.5 11l223 231q9 6 17 6h159
q16 0 21 -8l233 -234q6 -12 -8 -12h-164q-12 0 -22 10z" />
    <glyph glyph-name="jcircumflex" unicode="&#x135;" horiz-adv-x="481" 
d="M156 1001h172q14 0 14 -14v-973q0 -155 -25 -235t-77 -141q-43 -51 -112.5 -75t-133.5 -24q-27 0 -41 2q-12 2 -12 19v143q0 14 12 14q44 1 74.5 10.5t58 34.5t41 75.5t14.5 127.5v1022q0 14 15 14zM373 1145l-140 198l-137 -200q-3 -6 -14 -6h-129q-7 0 -9 4.5t1 9.5
l202 287q5 8 15 8h151q12 0 19 -10l207 -287q3 -4 0 -8t-9 -4h-139q-13 0 -18 8z" />
    <glyph glyph-name="uni0136" unicode="&#x136;" horiz-adv-x="1167" 
d="M514 -82h164q13 0 18 -10q29 -52 29 -113q0 -76 -22 -134.5t-68 -117.5q-6 -6 -19 -6h-149q-6 0 -8.5 4.5t0.5 9.5q78 123 78 232q0 46 -31 123q-3 12 8 12zM584 692l622 -672q6 -8 4 -14t-10 -6h-211q-19 0 -31 14l-598 643v-641q0 -16 -16 -16h-170q-14 0 -14 18v1319
q0 13 12 13h174q14 0 14 -15v-635l580 639q8 11 23 11h190q10 0 12.5 -6.5t-2.5 -12.5l-579 -622q-8 -9 0 -17z" />
    <glyph glyph-name="uni0137" unicode="&#x137;" horiz-adv-x="978" 
d="M403 -82h162q13 0 19 -12q11 -18 19.5 -51.5t8.5 -61.5q0 -75 -21.5 -132.5t-66.5 -119.5q-12 -6 -18 -6h-152q-6 0 -7.5 4.5t1.5 9.5q76 123 76 232q0 49 -29 125q-3 4 -0.5 8t8.5 4zM770 1001h188q9 0 12 -5.5t-3 -12.5q-51 -57 -428 -434v-8q274 -299 489 -525
q5 -4 2 -10t-10 -6h-229q-14 0 -23 12q-157 161 -430 475v-471q0 -9 -2.5 -12.5t-11.5 -3.5h-170q-10 0 -13.5 3.5t-3.5 12.5v1434q0 14 17 14h170q14 0 14 -14v-899q35 37 133.5 142.5t176 188t100.5 107.5q7 12 22 12z" />
    <glyph glyph-name="kgreenlandic" unicode="&#x138;" horiz-adv-x="980" 
d="M768 1001h190q9 0 11.5 -5.5t-2.5 -12.5q-36 -39 -223 -227.5t-205 -206.5v-8q274 -299 489 -525q5 -4 2 -10t-10 -6h-229q-14 0 -23 12q-68 71 -210.5 228.5t-219.5 246.5v-471q0 -9 -2.5 -12.5t-11.5 -3.5h-170q-10 0 -13.5 3.5t-3.5 12.5v971q0 14 17 14h170
q14 0 14 -14v-436q344 368 407 438q10 12 23 12z" />
    <glyph glyph-name="Lacute" unicode="&#x139;" horiz-adv-x="999" 
d="M948 0h-772q-16 0 -16 18v1317q0 15 12 15h176q12 0 12 -13v-1155h621q15 0 12 -14l-28 -154q-2 -14 -17 -14zM150 1493l251 227q7 9 21 9h211q6 0 7.5 -5.5t-3.5 -11.5l-277 -221q-10 -12 -24 -12h-178q-7 0 -9 4.5t1 9.5z" />
    <glyph glyph-name="lacute" unicode="&#x13a;" horiz-adv-x="512" 
d="M137 1563l189 170q12 10 28 10h193q7 0 8.5 -7.5t-4.5 -13.5l-215 -168q-13 -8 -31 -8h-160q-8 0 -11 5t3 12zM137 221v1229q0 14 17 14h170q14 0 14 -14v-1212q0 -52 19.5 -72.5t58.5 -20.5q6 0 12 1t13.5 2t13.5 2t8 -1.5t2 -9.5v-125q0 -15 -12 -20q-35 -14 -103 -14
q-47 0 -82 10t-66.5 35t-48 74.5t-16.5 121.5z" />
    <glyph glyph-name="uni013B" unicode="&#x13b;" horiz-adv-x="999" 
d="M948 0h-772q-16 0 -16 18v1317q0 15 12 15h176q12 0 12 -13v-1155h621q15 0 12 -14l-28 -154q-2 -14 -17 -14zM575 -492h-151q-6 0 -8 5t0 10q78 126 78 231q0 50 -29 123q-6 12 6 12h164q13 0 18 -10q29 -48 29 -112q0 -76 -22 -134.5t-68 -117.5q-4 -7 -17 -7z" />
    <glyph glyph-name="uni013C" unicode="&#x13c;" horiz-adv-x="512" 
d="M137 221v1229q0 14 17 14h170q14 0 14 -14v-1212q0 -52 19.5 -72.5t58.5 -20.5q6 0 12 1t13.5 2t13.5 2t8 -1.5t2 -9.5v-125q0 -15 -12 -20q-35 -14 -103 -14q-47 0 -82 10t-66.5 35t-48 74.5t-16.5 121.5zM297 -477h-150q-6 0 -8.5 4.5t0.5 9.5q78 126 78 232
q0 44 -31 125q-3 10 9 10h163q14 0 19 -10q11 -18 20 -51.5t9 -61.5q0 -75 -22.5 -133.5t-68.5 -118.5q-6 -6 -18 -6z" />
    <glyph glyph-name="Lcaron" unicode="&#x13d;" horiz-adv-x="999" 
d="M948 0h-772q-16 0 -16 18v1317q0 15 12 15h176q12 0 12 -13v-1155h621q15 0 12 -14l-28 -154q-2 -14 -17 -14zM670 874v465q0 13 12 13h149q13 0 13 -13l-33 -467q-3 -10 -12 -10h-117q-12 0 -12 12z" />
    <glyph glyph-name="lcaron" unicode="&#x13e;" horiz-adv-x="593" 
d="M473 987v463q0 14 12 14h129q16 0 13 -14l-25 -461q-3 -16 -14 -16h-101q-8 0 -11 2.5t-3 11.5zM137 221v1229q0 14 17 14h170q14 0 14 -14v-1212q0 -52 19.5 -72.5t58.5 -20.5q6 0 12 1t13.5 2t13.5 2t8 -1.5t2 -9.5v-125q0 -15 -12 -20q-35 -14 -103 -14q-47 0 -82 10
t-66.5 35t-48 74.5t-16.5 121.5z" />
    <glyph glyph-name="Ldot" unicode="&#x13f;" horiz-adv-x="999" 
d="M948 0h-772q-16 0 -16 18v1317q0 15 12 15h176q12 0 12 -13v-1155h621q15 0 12 -14l-28 -154q-2 -14 -17 -14zM764 651q-52 0 -83.5 30t-31.5 75q0 47 32.5 75.5t86.5 28.5q52 0 82.5 -28t30.5 -76q0 -47 -31.5 -76t-85.5 -29z" />
    <glyph glyph-name="ldot" unicode="&#x140;" horiz-adv-x="559" 
d="M520 733q-45 0 -69.5 30t-24.5 85t24.5 86t69.5 31q96 0 96 -117q0 -115 -96 -115zM137 221v1229q0 14 17 14h170q14 0 14 -14v-1212q0 -52 19.5 -72.5t58.5 -20.5q6 0 12 1t13.5 2t13.5 2t8 -1.5t2 -9.5v-125q0 -15 -12 -20q-35 -14 -103 -14q-47 0 -82 10t-66.5 35
t-48 74.5t-16.5 121.5z" />
    <glyph glyph-name="Lslash" unicode="&#x141;" horiz-adv-x="999" 
d="M360 182h621q15 0 12 -14l-28 -154q-2 -14 -17 -14h-772q-16 0 -16 18v525l-156 -72q-4 -3 -7 -1t-3 7v125q0 8 8 12l158 74v647q0 15 12 15h176q12 0 12 -13v-557l304 140q12 3 12 -11v-114q0 -16 -10 -21l-306 -139v-453z" />
    <glyph glyph-name="lslash" unicode="&#x142;" horiz-adv-x="532" 
d="M358 961l146 75q14 7 14 -8v-90q0 -31 -10 -35l-150 -78v-587q0 -52 19.5 -72.5t58.5 -20.5q6 0 12 1t13.5 2t13.5 2t8 -1.5t2 -9.5v-125q0 -15 -12 -20q-35 -14 -102 -14q-47 0 -82 10t-66.5 35t-48 74.5t-16.5 121.5v500l-111 -57q-14 -4 -14 6v112q0 8 10 15l115 59
v594q0 14 16 14h170q14 0 14 -14v-489z" />
    <glyph glyph-name="Nacute" unicode="&#x143;" horiz-adv-x="1382" 
d="M336 0h-160q-9 0 -12.5 3t-3.5 13v1321q0 13 12 13h236q15 0 20 -13q157 -267 357 -618.5t251 -458.5h2q-4 110 -4 313v762q0 15 15 15h159q15 0 15 -17v-1317q0 -16 -19 -16h-213q-17 0 -22 12q-18 34 -302 533t-325 600h-2q8 -120 8 -369v-760q0 -16 -12 -16zM563 1489
l250 227q11 8 21 8h210q7 0 9 -6t-2 -10l-279 -223q-8 -10 -24 -10h-179q-6 0 -8 4.5t2 9.5z" />
    <glyph glyph-name="nacute" unicode="&#x144;" horiz-adv-x="1110" 
d="M446 1151l209 289q10 16 21 16h190q21 0 11 -16l-244 -291q-9 -12 -23 -12h-155q-13 0 -9 14zM137 16v752q0 145 -8 219q0 14 14 14h150q14 0 20 -14q10 -30 13 -92q134 125 309 125q48 0 91.5 -9.5t89.5 -36.5t79.5 -70t54.5 -115t21 -166v-607q0 -16 -17 -16h-168
q-18 0 -18 16v588q0 113 -49.5 177.5t-147.5 64.5q-139 0 -233 -111v-721q0 -14 -14 -14h-172q-15 0 -15 16z" />
    <glyph glyph-name="uni0145" unicode="&#x145;" horiz-adv-x="1382" 
d="M336 0h-160q-9 0 -12.5 3t-3.5 13v1321q0 13 12 13h236q15 0 20 -13q157 -267 357 -618.5t251 -458.5h2q-4 110 -4 313v762q0 15 15 15h159q15 0 15 -17v-1317q0 -16 -19 -16h-213q-17 0 -22 12q-18 34 -302 533t-325 600h-2q8 -120 8 -369v-760q0 -16 -12 -16zM705 -465
h-150q-6 0 -8 4.5t0 9.5q78 123 78 232q0 41 -29 123q-6 12 6 12h164q13 0 18 -10q29 -52 29 -113q0 -76 -22 -134.5t-68 -117.5q-3 -6 -18 -6z" />
    <glyph glyph-name="uni0146" unicode="&#x146;" horiz-adv-x="1110" 
d="M137 16v752q0 145 -8 219q0 14 14 14h150q14 0 20 -14q10 -30 13 -92q134 125 309 125q48 0 91.5 -9.5t89.5 -36.5t79.5 -70t54.5 -115t21 -166v-607q0 -16 -17 -16h-168q-18 0 -18 16v588q0 113 -49.5 177.5t-147.5 64.5q-139 0 -233 -111v-721q0 -14 -14 -14h-172
q-15 0 -15 16zM565 -475h-149q-6 0 -8.5 4.5t0.5 9.5q77 122 77 232q0 48 -30 123q-3 12 8 12h164q11 0 18 -10q29 -52 29 -113q0 -77 -22 -134.5t-68 -117.5q-6 -6 -19 -6z" />
    <glyph glyph-name="Ncaron" unicode="&#x147;" horiz-adv-x="1382" 
d="M336 0h-160q-9 0 -12.5 3t-3.5 13v1321q0 13 12 13h236q15 0 20 -13q157 -267 357 -618.5t251 -458.5h2q-4 110 -4 313v762q0 15 15 15h159q15 0 15 -17v-1317q0 -16 -19 -16h-213q-17 0 -22 12q-18 34 -302 533t-325 600h-2q8 -120 8 -369v-760q0 -16 -12 -16zM559 1700
l141 -146l142 146q7 10 18 10h154q4 0 5.5 -6.5t-1.5 -9.5l-223 -232q-6 -6 -19 -6h-158q-17 0 -22 8l-231 234q-4 4 -2 8t8 4h164q14 0 24 -10z" />
    <glyph glyph-name="ncaron" unicode="&#x148;" horiz-adv-x="1110" 
d="M137 16v752q0 145 -8 219q0 14 14 14h150q14 0 20 -14q10 -30 13 -92q134 125 309 125q48 0 91.5 -9.5t89.5 -36.5t79.5 -70t54.5 -115t21 -166v-607q0 -16 -17 -16h-168q-18 0 -18 16v588q0 113 -49.5 177.5t-147.5 64.5q-139 0 -233 -111v-721q0 -14 -14 -14h-172
q-15 0 -15 16zM408 1438l139 -199l135 201q6 6 16 6h129q7 0 9.5 -5t-2.5 -9l-201 -285q-4 -8 -15 -8h-151q-13 0 -18 8l-207 287q-3 4 -1 8t7 4h141q14 0 19 -8z" />
    <glyph glyph-name="napostrophe" unicode="&#x149;" horiz-adv-x="1112" 
d="M41 1126v373q0 14 12 14h160q12 0 12 -12l-32 -377q-3 -10 -13 -10h-127q-12 0 -12 12zM137 16v752q0 145 -8 219q0 14 14 14h150q14 0 20 -14q10 -30 13 -92q134 125 309 125q48 0 91.5 -9.5t89.5 -36.5t79.5 -70t54.5 -115t21 -166v-607q0 -16 -17 -16h-168
q-18 0 -18 16v588q0 113 -49.5 177.5t-147.5 64.5q-139 0 -233 -111v-721q0 -14 -14 -14h-172q-15 0 -15 16z" />
    <glyph glyph-name="Omacron" unicode="&#x14c;" horiz-adv-x="1404" 
d="M702 1370q190 0 333 -92.5t216 -247.5t74 -348q1 -321 -171.5 -511.5t-448.5 -190.5q-192 0 -335.5 91t-217.5 248.5t-74 358.5q0 199 79.5 357t222 246.5t322.5 88.5zM285 678q0 -108 28 -201.5t80 -164.5t134 -111.5t184 -40.5q190 0 299.5 141t107.5 375
q0 232 -114 374t-306 142q-181 0 -297 -136t-116 -378zM428 1683h559q10 0 10 -14v-127q0 -14 -12 -14h-553q-16 0 -16 12v129q0 14 12 14z" />
    <glyph glyph-name="omacron" unicode="&#x14d;" horiz-adv-x="1093" 
d="M551 1020q146 0 254.5 -69t163.5 -185t55 -262q0 -234 -132 -379t-343 -145q-120 0 -215 45t-151.5 120.5t-85.5 166t-29 188.5q0 145 58.5 262.5t169.5 187.5t255 70zM541 850q-120 0 -195.5 -94.5t-75.5 -251.5q0 -155 76.5 -254.5t206.5 -99.5q112 0 190 90t78 258
q0 71 -16 133t-49 112t-88 78.5t-127 28.5zM274 1360h547q10 0 10 -12v-121q0 -13 -10 -13h-547q-12 0 -12 15v121q0 10 12 10z" />
    <glyph glyph-name="Ohungarumlaut" unicode="&#x150;" horiz-adv-x="1404" 
d="M702 1370q190 0 333 -92.5t216 -247.5t74 -348q1 -321 -171.5 -511.5t-448.5 -190.5q-192 0 -335.5 91t-217.5 248.5t-74 358.5q0 199 79.5 357t222 246.5t322.5 88.5zM285 678q0 -108 28 -201.5t80 -164.5t134 -111.5t184 -40.5q190 0 299.5 141t107.5 375
q0 232 -114 374t-306 142q-181 0 -297 -136t-116 -378zM408 1513l153 226q5 10 19 10h165q6 0 8 -4.5t-1 -9.5l-179 -226q-8 -8 -18 -8h-139q-14 0 -8 12zM766 1516l149 223q7 10 23 10h166q7 0 9 -5t-3 -11l-174 -220q-10 -12 -25 -12h-137q-14 0 -8 15z" />
    <glyph glyph-name="ohungarumlaut" unicode="&#x151;" horiz-adv-x="1093" 
d="M283 1159l149 281q8 14 27 14h145q9 0 11 -6t-3 -10l-176 -289q-9 -12 -24 -12h-119q-17 0 -10 22zM629 1159l151 283q8 14 23 14h147q9 0 12.5 -7t-1.5 -11l-179 -287q-11 -14 -28 -14h-113q-10 0 -13.5 7.5t1.5 14.5zM551 1020q146 0 254.5 -69t163.5 -185t55 -262
q0 -234 -132 -379t-343 -145q-120 0 -215 45t-151.5 120.5t-85.5 166t-29 188.5q0 145 58.5 262.5t169.5 187.5t255 70zM541 850q-120 0 -195.5 -94.5t-75.5 -251.5q0 -155 76.5 -254.5t206.5 -99.5q112 0 190 90t78 258q0 71 -16 133t-49 112t-88 78.5t-127 28.5z" />
    <glyph glyph-name="OE" unicode="&#x152;" horiz-adv-x="1845" 
d="M944 172v999q-43 7 -147 7q-235 0 -373.5 -131.5t-138.5 -372.5q0 -251 138 -379.5t380 -128.5q102 0 141 6zM1018 1350h706q14 0 17 -13l18 -153q4 -17 -14 -17h-600v-389h545q12 0 12 -12v-156q0 -12 -12 -12h-545v-418h639q15 0 12 -14l-24 -154q-2 -12 -25 -12h-717
q-99 -8 -250 -8q-324 0 -513 181t-189 499q0 213 97 369.5t260.5 234.5t371.5 78q158 0 211 -4z" />
    <glyph glyph-name="oe" unicode="&#x153;" horiz-adv-x="1755" 
d="M68 492q0 229 134.5 373.5t342.5 144.5q132 0 228.5 -56.5t148.5 -165.5q112 222 368 222q84 0 153.5 -25t115 -66.5t77 -96t45 -112t13.5 -116.5q0 -109 -19 -117q-32 -12 -219 -12h-432q0 -138 82 -224.5t246 -86.5q149 0 256 51q12 6 12 -10v-132q0 -17 -10 -24
q-101 -56 -293 -59q-58 0 -111 10t-107.5 33.5t-101 68t-77.5 107.5q-112 -219 -375 -219q-96 0 -176 29t-135 78.5t-93 115.5t-55.5 139t-17.5 150zM545 840q-124 0 -199.5 -91.5t-75.5 -248.5q0 -152 74.5 -250t208.5 -98q113 0 190.5 84.5t77.5 257.5q0 71 -15.5 131.5
t-47.5 109.5t-86.5 77t-126.5 28zM1028 608h389q84 0 84 13q2 8 2 26q0 29 -11 60.5t-35 64.5t-71 54.5t-110 21.5q-109 0 -172 -66.5t-76 -173.5z" />
    <glyph glyph-name="Racute" unicode="&#x154;" horiz-adv-x="1173" 
d="M342 0h-168q-8 0 -11 2.5t-3 11.5v1317q0 17 12 17q199 6 375 6q239 0 374.5 -101.5t135.5 -294.5q0 -133 -77.5 -226t-199.5 -134q57 -78 203.5 -296t185.5 -284q9 -18 -6 -18h-205q-14 0 -24 10q-33 50 -154.5 239.5t-165.5 258.5q-11 20 -20.5 27.5t-26.5 7.5h-211
v-529q0 -14 -14 -14zM356 715h203q138 0 217.5 63t79.5 170q0 111 -81.5 171.5t-233.5 60.5q-74 0 -185 -6v-459zM401 1501l252 228q8 8 21 8h211q6 0 7.5 -6.5t-3.5 -10.5l-277 -223q-10 -10 -24 -10h-178q-7 0 -9.5 4.5t0.5 9.5z" />
    <glyph glyph-name="racute" unicode="&#x155;" horiz-adv-x="673" 
d="M236 1151l208 289q6 16 19 16h192q19 0 9 -16l-244 -291q-9 -12 -23 -12h-155q-13 0 -6 14zM139 1001h156q12 0 18 -14q15 -51 19 -135q55 74 143 121t187 47q14 0 14 -12v-177q0 -12 -17 -12q-104 1 -191.5 -37t-127.5 -96v-672q0 -14 -14 -14h-172q-15 0 -15 16v707
q0 174 -12 266q0 12 12 12z" />
    <glyph glyph-name="uni0156" unicode="&#x156;" horiz-adv-x="1173" 
d="M342 0h-168q-8 0 -11 2.5t-3 11.5v1317q0 17 12 17q199 6 375 6q239 0 374.5 -101.5t135.5 -294.5q0 -133 -77.5 -226t-199.5 -134q57 -78 203.5 -296t185.5 -284q9 -18 -6 -18h-205q-14 0 -24 10q-33 50 -154.5 239.5t-165.5 258.5q-11 20 -20.5 27.5t-26.5 7.5h-211
v-529q0 -14 -14 -14zM356 715h203q138 0 217.5 63t79.5 170q0 111 -81.5 171.5t-233.5 60.5q-74 0 -185 -6v-459zM616 -449h-151q-6 0 -7.5 5.5t1.5 9.5q76 123 76 231q0 49 -29 125q-2 4 1 8t7 4h162q12 0 18 -12q12 -18 21.5 -50.5t9.5 -61.5q0 -74 -22.5 -131.5
t-67.5 -120.5q-7 -7 -19 -7z" />
    <glyph glyph-name="uni0157" unicode="&#x157;" horiz-adv-x="673" 
d="M139 1001h156q12 0 18 -14q15 -51 19 -135q55 74 143 121t187 47q14 0 14 -12v-177q0 -12 -17 -12q-104 1 -191.5 -37t-127.5 -96v-672q0 -14 -14 -14h-172q-15 0 -15 16v707q0 174 -12 266q0 12 12 12zM240 -471h-152q-6 0 -7.5 3.5t1.5 8.5q76 123 76 232q0 49 -29 125
q-1 4 1 8t7 4h164q9 0 16 -10q31 -48 31 -115q0 -74 -22.5 -131.5t-67.5 -120.5q-8 -4 -18 -4z" />
    <glyph glyph-name="Rcaron" unicode="&#x158;" horiz-adv-x="1173" 
d="M342 0h-168q-8 0 -11 2.5t-3 11.5v1317q0 17 12 17q199 6 375 6q239 0 374.5 -101.5t135.5 -294.5q0 -133 -77.5 -226t-199.5 -134q57 -78 203.5 -296t185.5 -284q9 -18 -6 -18h-205q-14 0 -24 10q-33 50 -154.5 239.5t-165.5 258.5q-11 20 -20.5 27.5t-26.5 7.5h-211
v-529q0 -14 -14 -14zM356 715h203q138 0 217.5 63t79.5 170q0 111 -81.5 171.5t-233.5 60.5q-74 0 -185 -6v-459zM403 1712l144 -145l139 145q10 10 19 10h153q6 0 7.5 -6t-3.5 -10l-223 -231q-7 -7 -18 -7h-158q-18 0 -21 9l-233 235q-7 10 6 10h166q12 0 22 -10z" />
    <glyph glyph-name="rcaron" unicode="&#x159;" horiz-adv-x="673" 
d="M139 1001h156q12 0 18 -14q15 -51 19 -135q55 74 143 121t187 47q14 0 14 -12v-177q0 -12 -17 -12q-104 1 -191.5 -37t-127.5 -96v-672q0 -14 -14 -14h-172q-15 0 -15 16v707q0 174 -12 266q0 12 12 12zM246 1438l139 -199l137 201q3 6 17 6h129q6 0 7.5 -5t-1.5 -9
l-203 -287q-5 -8 -14 -8h-152q-10 0 -18 8l-207 289q-3 4 -0.5 8t8.5 4h139q14 0 19 -8z" />
    <glyph glyph-name="Sacute" unicode="&#x15a;" horiz-adv-x="993" 
d="M438 -20q-219 0 -350 75q-12 7 -12 27v174q0 6 4 8t10 -2q154 -102 356 -102q135 0 202 50.5t67 137.5q0 70 -50.5 123.5t-177.5 108.5l-94 38q-121 52 -192.5 115.5t-96 125t-24.5 138.5q0 167 120.5 270t334.5 103q210 0 305 -53q12 -7 12 -23v-161q0 -7 -4 -10t-12 1
q-115 68 -306 68q-71 0 -123.5 -16t-80 -42.5t-40 -56t-12.5 -61.5q0 -66 49.5 -116.5t176.5 -106.5l84 -35q184 -76 259 -171t75 -220q0 -175 -128 -281t-352 -106zM360 1516l252 227q6 6 21 6h211q6 0 7.5 -4.5t-3.5 -9.5l-277 -224q-10 -10 -24 -10h-178q-7 0 -9.5 5.5
t0.5 9.5z" />
    <glyph glyph-name="sacute" unicode="&#x15b;" horiz-adv-x="792" 
d="M266 1151l209 289q10 16 21 16h192q18 0 8 -16l-243 -291q-9 -12 -23 -12h-156q-12 0 -8 14zM666 799q-45 26 -111.5 42.5t-132.5 16.5q-87 0 -127.5 -33t-40.5 -80q0 -43 37.5 -75.5t142.5 -75.5q163 -61 231 -132.5t68 -180.5q0 -141 -104 -221t-277 -80
q-183 0 -280 59q-11 5 -11 18v160q0 7 4.5 10t8.5 0q124 -82 284 -82q88 0 134.5 32t46.5 85q0 51 -39 85.5t-142 74.5q-158 60 -225 132t-67 181q0 120 95 202.5t265 82.5q166 0 246 -41q12 -7 12 -23v-147q0 -8 -5 -11t-13 1z" />
    <glyph glyph-name="Scircumflex" unicode="&#x15c;" horiz-adv-x="993" 
d="M438 -20q-219 0 -350 75q-12 7 -12 27v174q0 6 4 8t10 -2q154 -102 356 -102q135 0 202 50.5t67 137.5q0 70 -50.5 123.5t-177.5 108.5l-94 38q-121 52 -192.5 115.5t-96 125t-24.5 138.5q0 167 120.5 270t334.5 103q210 0 305 -53q12 -7 12 -23v-161q0 -7 -4 -10t-12 1
q-115 68 -306 68q-71 0 -123.5 -16t-80 -42.5t-40 -56t-12.5 -61.5q0 -66 49.5 -116.5t176.5 -106.5l84 -35q184 -76 259 -171t75 -220q0 -175 -128 -281t-352 -106zM627 1487l-142 145l-139 -145q-10 -10 -20 -10h-152q-6 0 -7.5 5.5t1.5 10.5l225 231q11 7 17 7h157
q17 0 23 -9l231 -233q4 -5 2 -8.5t-8 -3.5h-164q-14 0 -24 10z" />
    <glyph glyph-name="scircumflex" unicode="&#x15d;" horiz-adv-x="792" 
d="M526 1145l-139 198l-137 -200q-3 -6 -14 -6h-130q-7 0 -9 4.5t3 9.5l201 287q5 8 14 8h152q11 0 18 -10l207 -287q3 -5 1 -8.5t-7 -3.5h-141q-14 0 -19 8zM666 799q-45 26 -111.5 42.5t-132.5 16.5q-87 0 -127.5 -33t-40.5 -80q0 -43 37.5 -75.5t142.5 -75.5
q163 -61 231 -132.5t68 -180.5q0 -141 -104 -221t-277 -80q-183 0 -280 59q-11 5 -11 18v160q0 7 4.5 10t8.5 0q124 -82 284 -82q88 0 134.5 32t46.5 85q0 51 -39 85.5t-142 74.5q-158 60 -225 132t-67 181q0 120 95 202.5t265 82.5q166 0 246 -41q12 -7 12 -23v-147
q0 -8 -5 -11t-13 1z" />
    <glyph glyph-name="uni015E" unicode="&#x15e;" horiz-adv-x="993" 
d="M500 793l84 -35q184 -76 259 -171t75 -220q0 -152 -97.5 -253t-273.5 -126l-51 -76q174 -51 174 -191q0 -83 -64 -133.5t-164 -50.5q-89 0 -145 27q-8 3 -8 14v92q0 11 10 6q56 -26 131 -26q94 0 94 67q0 84 -192 107q-4 4 -4 21.5t4 23.5l82 111q-207 6 -326 75
q-12 7 -12 27v174q0 6 4 8t10 -2q154 -102 356 -102q135 0 202 50.5t67 137.5q0 70 -50.5 123.5t-177.5 108.5l-94 38q-121 52 -192.5 115.5t-96 125t-24.5 138.5q0 167 120.5 270t334.5 103q210 0 305 -53q12 -7 12 -23v-161q0 -7 -4 -10t-12 1q-115 68 -306 68
q-71 0 -123.5 -16t-80 -42.5t-40 -56t-12.5 -61.5q0 -66 49.5 -116.5t176.5 -106.5z" />
    <glyph glyph-name="uni015F" unicode="&#x15f;" horiz-adv-x="792" 
d="M684 956v-147q0 -8 -5 -11t-13 1q-45 26 -111.5 42.5t-132.5 16.5q-87 0 -127.5 -33t-40.5 -80q0 -43 37.5 -75.5t142.5 -75.5q163 -61 231 -132.5t68 -180.5q0 -118 -74 -194.5t-202 -98.5l-54 -76q90 -26 132.5 -73t42.5 -118q0 -81 -64 -132.5t-164 -51.5
q-91 0 -143 27q-10 5 -10 18v84q0 16 12 10q56 -26 129 -26q94 0 94 67q0 84 -192 107q-4 4 -4 21.5t4 23.5l82 111q-162 6 -250 59q-11 5 -11 18v160q0 7 4.5 10t8.5 0q124 -82 284 -82q88 0 134.5 32t46.5 85q0 51 -39 85.5t-142 74.5q-158 60 -225 132t-67 181
q0 120 95 202.5t265 82.5q166 0 246 -41q12 -7 12 -23z" />
    <glyph glyph-name="Scaron" unicode="&#x160;" horiz-adv-x="993" 
d="M438 -20q-219 0 -350 75q-12 7 -12 27v174q0 6 4 8t10 -2q154 -102 356 -102q135 0 202 50.5t67 137.5q0 70 -50.5 123.5t-177.5 108.5l-94 38q-121 52 -192.5 115.5t-96 125t-24.5 138.5q0 167 120.5 270t334.5 103q210 0 305 -53q12 -7 12 -23v-161q0 -7 -4 -10t-12 1
q-115 68 -306 68q-71 0 -123.5 -16t-80 -42.5t-40 -56t-12.5 -61.5q0 -66 49.5 -116.5t176.5 -106.5l84 -35q184 -76 259 -171t75 -220q0 -175 -128 -281t-352 -106zM360 1729l142 -146l141 146q7 10 19 10h153q4 0 5.5 -7t-1.5 -10l-223 -231q-8 -8 -18 -8h-158
q-16 0 -23 10l-231 233q-4 4 -2 8.5t8 4.5h164q14 0 24 -10z" />
    <glyph glyph-name="scaron" unicode="&#x161;" horiz-adv-x="792" 
d="M258 1438l137 -199l137 201q3 6 17 6h129q6 0 7.5 -5t-1.5 -9l-201 -285q-6 -8 -16 -8h-152q-13 0 -16 8l-209 287q-3 4 -0.5 8t8.5 4h140q12 0 20 -8zM666 799q-45 26 -111.5 42.5t-132.5 16.5q-87 0 -127.5 -33t-40.5 -80q0 -43 37.5 -75.5t142.5 -75.5
q163 -61 231 -132.5t68 -180.5q0 -141 -104 -221t-277 -80q-183 0 -280 59q-11 5 -11 18v160q0 7 4.5 10t8.5 0q124 -82 284 -82q88 0 134.5 32t46.5 85q0 51 -39 85.5t-142 74.5q-158 60 -225 132t-67 181q0 120 95 202.5t265 82.5q166 0 246 -41q12 -7 12 -23v-147
q0 -8 -5 -11t-13 1z" />
    <glyph glyph-name="uni0162" unicode="&#x162;" horiz-adv-x="1097" 
d="M1069 1335l16 -149q3 -17 -12 -17h-428v-1153q0 -16 -16 -16h-19l-57 -84q178 -50 178 -190q0 -83 -62.5 -134t-162.5 -51q-96 0 -146 29q-8 3 -10 6t-2 12v84q0 14 14 11q63 -29 130 -29q44 0 69 18t25 52q0 79 -193 106q-5 3 -5 20.5t5 22.5l92 127h-24q-17 0 -17 16
v1153h-430q-13 0 -10 15l23 153q3 13 16 13h1008q15 0 18 -15z" />
    <glyph glyph-name="uni0163" unicode="&#x163;" horiz-adv-x="618" 
d="M573 829h-213v-538q0 -73 28.5 -108.5t94.5 -35.5q41 0 88 15q15 4 15 -10v-121q0 -18 -13 -23q-59 -25 -135 -28l-49 -68q91 -26 133.5 -73t42.5 -118q0 -81 -64 -132.5t-163 -51.5q-91 0 -143 27q-11 6 -11 18v84q0 16 13 10q56 -26 129 -26q94 0 94 67q0 83 -193 107
q-5 4 -5 21.5t5 23.5l90 123q-157 42 -157 262v575h-135q-13 3 -13 19v139q0 14 15 14h135q5 197 18 259q3 13 15 16l165 24q15 4 15 -10q-13 -152 -13 -289h209q15 0 15 -14v-143q0 -12 -13 -15z" />
    <glyph glyph-name="Tcaron" unicode="&#x164;" horiz-adv-x="1079" 
d="M438 16v1153h-428q-15 0 -12 15l22 153q3 13 19 13h1008q13 0 16 -15l18 -149q3 -17 -14 -17h-428v-1153q0 -16 -14 -16h-168q-19 0 -19 16zM406 1710l141 -147l141 145q8 12 19 12h153q4 0 5.5 -6.5t-1.5 -9.5l-223 -234q-9 -6 -18 -6h-158q-14 0 -23 9l-231 235
q-4 4 -2 8t8 4h164q10 0 25 -10z" />
    <glyph glyph-name="tcaron" unicode="&#x165;" horiz-adv-x="618" 
d="M496 1202v361q0 14 14 14h133q10 0 14 -3t2 -11l-30 -361q-3 -14 -17 -14h-102q-14 0 -14 14zM586 152v-121q0 -18 -13 -23q-71 -28 -161 -28q-123 0 -187.5 65t-64.5 209v575h-135q-13 3 -13 19v139q0 14 15 14h135q5 197 18 259q3 13 15 16l165 24q15 4 15 -10
q-13 -152 -13 -289h209q15 0 15 -14v-143q0 -12 -13 -15h-213v-538q0 -73 28.5 -108.5t94.5 -35.5q41 0 88 15q15 4 15 -10z" />
    <glyph glyph-name="Utilde" unicode="&#x168;" horiz-adv-x="1323" 
d="M342 1337v-829q0 -163 83.5 -256.5t240.5 -93.5q315 0 315 354v823q0 15 14 15h172q15 0 15 -15v-829q0 -138 -40 -241.5t-112 -164.5t-165 -90.5t-206 -29.5q-242 0 -380 131t-138 385v839q0 15 15 15h172q14 0 14 -13zM471 1489h-113q-11 0 -14 10q3 113 58.5 175.5
t138.5 62.5q44 0 85 -16.5t67 -37t56 -37t54 -16.5q57 0 67 90q0 11 11 11h112q13 0 13 -11q-6 -125 -56.5 -180t-130.5 -55q-41 0 -81 16.5t-66 36.5t-57.5 36.5t-57.5 16.5q-28 0 -49 -23.5t-25 -68.5q0 -10 -12 -10z" />
    <glyph glyph-name="utilde" unicode="&#x169;" horiz-adv-x="1095" 
d="M332 1155h-113q-12 0 -12 14q3 118 58 181t143 63q54 0 109.5 -27t100 -54t72.5 -27q63 0 70 92q0 12 12 12h111q12 0 12 -10q-4 -128 -54.5 -187t-133.5 -59q-39 0 -81.5 16.5t-72.5 37t-66.5 37t-64.5 16.5q-71 0 -80 -95q0 -2 -3 -6t-7 -4zM956 987v-766
q0 -89 11 -207q3 -14 -13 -14h-155q-15 0 -17 12q-12 40 -12 80q-115 -112 -293 -112q-72 0 -130.5 20t-107 63t-75.5 120.5t-27 183.5v620q0 14 15 14h172q12 0 12 -14v-596q0 -111 51 -173t152 -62q128 0 217 92v739q0 14 14 14h172q14 0 14 -14z" />
    <glyph glyph-name="Umacron" unicode="&#x16a;" horiz-adv-x="1323" 
d="M342 1337v-829q0 -163 83.5 -256.5t240.5 -93.5q315 0 315 354v823q0 15 14 15h172q15 0 15 -15v-829q0 -138 -40 -241.5t-112 -164.5t-165 -90.5t-206 -29.5q-242 0 -380 131t-138 385v839q0 15 15 15h172q14 0 14 -13zM385 1663h559q10 0 10 -12v-129q0 -13 -12 -13
h-553q-16 0 -16 13v129q0 12 12 12z" />
    <glyph glyph-name="umacron" unicode="&#x16b;" horiz-adv-x="1095" 
d="M281 1360h546q11 0 11 -12v-121q0 -13 -11 -13h-546q-13 0 -13 15v121q0 10 13 10zM956 987v-766q0 -89 11 -207q3 -14 -13 -14h-155q-15 0 -17 12q-12 40 -12 80q-115 -112 -293 -112q-72 0 -130.5 20t-107 63t-75.5 120.5t-27 183.5v620q0 14 15 14h172q12 0 12 -14
v-596q0 -111 51 -173t152 -62q128 0 217 92v739q0 14 14 14h172q14 0 14 -14z" />
    <glyph glyph-name="Ubreve" unicode="&#x16c;" horiz-adv-x="1323" 
d="M342 1337v-829q0 -163 83.5 -256.5t240.5 -93.5q315 0 315 354v823q0 15 14 15h172q15 0 15 -15v-829q0 -138 -40 -241.5t-112 -164.5t-165 -90.5t-206 -29.5q-242 0 -380 131t-138 385v839q0 15 15 15h172q14 0 14 -13zM352 1710h137q11 0 13 -12q41 -111 155 -111
q122 0 162 113q7 10 15 10h137q10 0 10 -14q-24 -124 -112 -194t-210 -70q-127 0 -212.5 67.5t-106.5 198.5q-2 4 2 8t10 4z" />
    <glyph glyph-name="ubreve" unicode="&#x16d;" horiz-adv-x="1095" 
d="M244 1409h135q8 0 10 -6q40 -115 162 -115q128 0 166 113q3 8 10 8h135q9 0 6 -10q-22 -120 -105.5 -190t-213.5 -70q-126 0 -209 66t-107 194q-1 7 2 8.5t9 1.5zM956 987v-766q0 -89 11 -207q3 -14 -13 -14h-155q-15 0 -17 12q-12 40 -12 80q-115 -112 -293 -112
q-72 0 -130.5 20t-107 63t-75.5 120.5t-27 183.5v620q0 14 15 14h172q12 0 12 -14v-596q0 -111 51 -173t152 -62q128 0 217 92v739q0 14 14 14h172q14 0 14 -14z" />
    <glyph glyph-name="Uring" unicode="&#x16e;" horiz-adv-x="1323" 
d="M342 1337v-829q0 -163 83.5 -256.5t240.5 -93.5q315 0 315 354v823q0 15 14 15h172q15 0 15 -15v-829q0 -138 -40 -241.5t-112 -164.5t-165 -90.5t-206 -29.5q-242 0 -380 131t-138 385v839q0 15 15 15h172q14 0 14 -13zM440 1599q0 83 60.5 132t156.5 49q95 0 155 -50.5
t60 -130.5q0 -83 -60.5 -132.5t-154.5 -49.5q-98 0 -157.5 49t-59.5 133zM555 1599q0 -40 29 -65t73 -25q45 0 74 24.5t29 65.5t-29 66t-74 25t-73.5 -25.5t-28.5 -65.5z" />
    <glyph glyph-name="uring" unicode="&#x16f;" horiz-adv-x="1095" 
d="M956 987v-766q0 -89 11 -207q3 -14 -13 -14h-155q-15 0 -17 12q-12 40 -12 80q-115 -112 -293 -112q-72 0 -130.5 20t-107 63t-75.5 120.5t-27 183.5v620q0 14 15 14h172q12 0 12 -14v-596q0 -111 51 -173t152 -62q128 0 217 92v739q0 14 14 14h172q14 0 14 -14z
M342 1305q0 85 57.5 137.5t151.5 52.5q93 0 152 -53t59 -137q0 -87 -59 -140t-152 -53q-95 0 -152 51.5t-57 141.5zM453 1305q0 -43 28 -70t70 -27q41 0 69.5 26.5t28.5 70.5q0 43 -28.5 69.5t-69.5 26.5q-42 0 -70 -26.5t-28 -69.5z" />
    <glyph glyph-name="Uhungarumlaut" unicode="&#x170;" horiz-adv-x="1323" 
d="M342 1337v-829q0 -163 83.5 -256.5t240.5 -93.5q315 0 315 354v823q0 15 14 15h172q15 0 15 -15v-829q0 -138 -40 -241.5t-112 -164.5t-165 -90.5t-206 -29.5q-242 0 -380 131t-138 385v839q0 15 15 15h172q14 0 14 -13zM379 1491l151 225q5 10 19 10h168q6 0 7.5 -5
t-1.5 -9l-178 -225q-11 -8 -21 -8h-139q-15 0 -6 12zM737 1493l150 223q7 10 22 10h164q7 0 10 -5t-2 -11l-176 -219q-7 -12 -22 -12h-140q-14 0 -6 14z" />
    <glyph glyph-name="uhungarumlaut" unicode="&#x171;" horiz-adv-x="1095" 
d="M956 987v-766q0 -89 11 -207q3 -14 -13 -14h-155q-15 0 -17 12q-12 40 -12 80q-115 -112 -293 -112q-72 0 -130.5 20t-107 63t-75.5 120.5t-27 183.5v620q0 14 15 14h172q12 0 12 -14v-596q0 -111 51 -173t152 -62q128 0 217 92v739q0 14 14 14h172q14 0 14 -14z
M285 1159l151 281q6 14 25 14h145q8 0 11 -6t-1 -10l-178 -289q-9 -12 -24 -12h-119q-17 0 -10 22zM631 1159l151 283q8 14 23 14h147q10 0 13.5 -7t-0.5 -11l-181 -287q-10 -14 -28 -14h-113q-10 0 -13.5 7.5t1.5 14.5z" />
    <glyph glyph-name="Uogonek" unicode="&#x172;" horiz-adv-x="1323" 
d="M979 57q-217 -137 -217 -258q0 -47 33 -76.5t90 -29.5q52 0 102 16q14 6 14 -8v-104q0 -19 -12 -25q-58 -33 -160 -33q-62 0 -114 18.5t-90.5 67t-38.5 121.5q0 123 141 238q-32 -4 -65 -4q-243 0 -382 127.5t-139 377.5v850q0 15 15 15h172q14 0 14 -13v-835
q0 -162 85 -253t243 -91q317 0 317 348v829q0 15 14 15h173q14 0 14 -15v-837q0 -307 -209 -441z" />
    <glyph glyph-name="uogonek" unicode="&#x173;" horiz-adv-x="1095" 
d="M1028 -297v-106q0 -18 -14 -25q-57 -31 -156 -31q-62 0 -114.5 19.5t-90 69t-37.5 122.5q0 77 43.5 141.5t120.5 137.5q-6 36 -6 63q-117 -114 -295 -114q-55 0 -102.5 10.5t-92.5 38t-77 70t-51 110.5t-19 156v622q0 14 15 14h172q12 0 12 -14v-594q0 -116 51 -178.5
t152 -62.5q135 0 221 100v735q0 14 14 14h172q15 0 15 -14v-766q0 -140 10 -201q4 -15 -8 -18q-162 -104 -162 -205q0 -48 29.5 -74t84.5 -26q60 0 97 16q16 6 16 -10z" />
    <glyph glyph-name="Wcircumflex" unicode="&#x174;" horiz-adv-x="1746" 
d="M1006 1337q189 -779 258 -1101h2q93 426 254 1101q3 13 16 13h172q18 0 12 -15l-350 -1323q-5 -12 -18 -12h-187q-16 0 -18 12q-232 975 -262 1118h-2q-31 -167 -289 -1114q-3 -16 -19 -16h-180q-15 0 -20 16l-348 1319q-3 15 10 15h186q15 0 19 -11q231 -942 256 -1101
h2q10 51 37.5 157.5t95 370t143.5 571.5q3 13 19 13h194q12 0 17 -13zM1022 1477l-143 145l-140 -145q-7 -11 -18 -11h-154q-6 0 -6.5 7t2.5 10l223 231q12 8 19 8h158q17 0 20 -10l234 -233q4 -5 1.5 -9t-10.5 -4h-164q-11 0 -22 11z" />
    <glyph glyph-name="wcircumflex" unicode="&#x175;" horiz-adv-x="1482" 
d="M1145 0h-189q-15 0 -18 16q-110 402 -199 783h-2q-49 -214 -215 -783q-5 -16 -20 -16h-185q-12 0 -16 3.5t-6 12.5l-268 969q-3 16 12 16h182q12 0 15 -12q137 -515 188 -799h4q2 6 18 77t34 143.5t61 229t98 345.5q2 10 4.5 13t11.5 3h195q11 0 14 -12
q143 -531 197 -801h4q3 13 15 72t24 113t33 142t53 209t72 265q3 12 16 12h168q13 0 10 -14l-293 -973q-3 -8 -6.5 -11t-11.5 -3zM879 1145l-140 198l-137 -200q-3 -6 -14 -6h-129q-7 0 -9 4.5t3 9.5l200 287q5 8 15 8h151q12 0 19 -10l206 -287q3 -5 1 -8.5t-7 -3.5h-141
q-13 0 -18 8z" />
    <glyph glyph-name="Ycircumflex" unicode="&#x176;" horiz-adv-x="1075" 
d="M422 551l-447 782q-5 9 -1 13t12 4h198q11 0 17 -9q314 -582 346 -653q40 84 340 651q3 11 16 11h191q11 0 8 -13l-451 -792q-16 -24 -16 -56v-473q0 -16 -14 -16h-168q-19 0 -19 16v480q0 31 -12 55zM672 1481l-144 145l-139 -145q-5 -11 -18 -11h-154q-6 0 -6.5 6
t2.5 11l223 231q9 6 19 6h157q18 0 23 -8l231 -235q4 -5 2 -8t-10 -3h-164q-11 0 -22 11z" />
    <glyph glyph-name="ycircumflex" unicode="&#x177;" horiz-adv-x="954" 
d="M610 1145l-139 198l-137 -200q-3 -6 -15 -6h-129q-7 0 -9 4.5t1 9.5l203 287q5 8 14 8h152q11 0 18 -10l207 -287q3 -5 0.5 -8.5t-8.5 -3.5h-139q-14 0 -19 8zM18 1001h193q10 0 16 -12q203 -552 262 -747q47 142 261 747q3 12 16 12h172q13 0 10 -16
q-209 -626 -551 -1399q-3 -12 -22 -12l-180 -14q-15 0 -9 16q108 225 199 442q7 14 0 27q-8 21 -155.5 387t-221.5 555q-3 6 0.5 10t9.5 4z" />
    <glyph glyph-name="Ydieresis" unicode="&#x178;" horiz-adv-x="1075" 
d="M422 551l-447 782q-5 9 -1 13t12 4h198q11 0 17 -9q314 -582 346 -653q40 84 340 651q3 11 16 11h191q11 0 8 -13l-451 -792q-16 -24 -16 -56v-473q0 -16 -14 -16h-168q-19 0 -19 16v480q0 31 -12 55zM342 1466q-49 0 -79 28.5t-30 74.5t32 76t81 30q50 0 80.5 -30.5
t30.5 -75.5q0 -46 -32 -74.5t-83 -28.5zM748 1466q-48 0 -78.5 29t-30.5 74t32.5 75.5t80.5 30.5q47 0 78.5 -30t31.5 -76q0 -47 -31 -75t-83 -28z" />
    <glyph glyph-name="Zacute" unicode="&#x179;" horiz-adv-x="1097" 
d="M1030 0h-987q-14 0 -14 14v111q0 11 6 20l756 1024h-728q-15 0 -12 15l25 153q5 13 16 13h942q10 0 10 -11v-116q0 -14 -8 -27l-747 -1014h776q16 0 10 -16l-28 -152q-3 -14 -17 -14zM414 1507l250 228q8 8 20 8h211q7 0 8.5 -6.5t-2.5 -10.5l-278 -221q-7 -12 -25 -12
h-176q-7 0 -10 4.5t2 9.5z" />
    <glyph glyph-name="zacute" unicode="&#x17a;" horiz-adv-x="829" 
d="M301 1151l209 289q6 16 18 16h193q16 0 10 -16l-246 -291q-9 -12 -20 -12h-156q-15 0 -8 14zM780 0h-747q-10 0 -10 14v97q0 11 6 20q79 115 295 398.5t229 301.5q-37 -2 -203 -2h-303q-15 0 -12 17l24 141q3 14 17 14h704q10 0 13 -12v-102q0 -9 -11 -27
q-84 -123 -195 -272t-212 -280.5t-105 -137.5h244h299q15 0 10 -14l-26 -144q-3 -12 -17 -12z" />
    <glyph glyph-name="Zdotaccent" unicode="&#x17b;" horiz-adv-x="1097" 
d="M1030 0h-987q-14 0 -14 14v111q0 11 6 20l756 1024h-728q-15 0 -12 15l25 153q5 13 16 13h942q10 0 10 -11v-116q0 -14 -8 -27l-747 -1014h776q16 0 10 -16l-28 -152q-3 -14 -17 -14zM539 1503q-52 0 -83.5 29.5t-31.5 75.5t32.5 74t86.5 28q52 0 83 -28.5t31 -75.5
q0 -46 -31 -74.5t-87 -28.5z" />
    <glyph glyph-name="zdotaccent" unicode="&#x17c;" horiz-adv-x="829" 
d="M780 0h-747q-10 0 -10 14v97q0 11 6 20q79 115 295 398.5t229 301.5q-37 -2 -203 -2h-303q-15 0 -12 17l24 141q3 14 17 14h704q10 0 13 -12v-102q0 -9 -11 -27q-84 -123 -195 -272t-212 -280.5t-105 -137.5h244h299q15 0 10 -14l-26 -144q-3 -12 -17 -12zM416 1176
q-54 0 -85.5 32t-31.5 86q0 51 33.5 85t85.5 34q54 0 85.5 -33.5t31.5 -85.5q0 -54 -32.5 -86t-86.5 -32z" />
    <glyph glyph-name="Zcaron" unicode="&#x17d;" horiz-adv-x="1097" 
d="M1030 0h-987q-14 0 -14 14v111q0 11 6 20l756 1024h-728q-15 0 -12 15l25 153q5 13 16 13h942q10 0 10 -11v-116q0 -14 -8 -27l-747 -1014h776q16 0 10 -16l-28 -152q-3 -14 -17 -14zM406 1722l141 -147l141 147q7 11 19 11h151q6 0 7.5 -7t-1.5 -10l-223 -231
q-11 -8 -18 -8h-158q-16 0 -23 10l-231 233q-4 4 -2 8.5t8 4.5h164q14 0 25 -11z" />
    <glyph glyph-name="zcaron" unicode="&#x17e;" horiz-adv-x="829" 
d="M287 1438l137 -199l137 201q3 6 17 6h129q6 0 7.5 -5t-1.5 -9l-201 -285q-6 -8 -16 -8h-152q-13 0 -16 8l-209 287q-3 4 -0.5 8t8.5 4h139q13 0 21 -8zM780 0h-747q-10 0 -10 14v97q0 11 6 20q79 115 295 398.5t229 301.5q-37 -2 -203 -2h-303q-15 0 -12 17l24 141
q3 14 17 14h704q10 0 13 -12v-102q0 -9 -11 -27q-84 -123 -195 -272t-212 -280.5t-105 -137.5h244h299q15 0 10 -14l-26 -144q-3 -12 -17 -12z" />
    <glyph glyph-name="uni018F" unicode="&#x18f;" horiz-adv-x="1329" 
d="M418 731h626v23q-2 69 -18.5 131t-50.5 118.5t-84 97.5t-125 65t-168 24q-244 0 -430 -127q-12 -6 -12 10v158q0 18 8 20q84 53 201.5 87t255.5 34q134 0 242 -39.5t178.5 -105.5t118.5 -155.5t68.5 -185t20.5 -198.5q0 -321 -162 -514.5t-448 -193.5q-119 0 -216.5 35
t-161.5 92.5t-107.5 135t-62.5 159t-19 167.5q0 143 14 154q20 8 332 8zM1036 559h-557q-180 0 -192 -4q-2 -12 -2 -39q0 -45 12 -92t40 -95.5t69 -86t104.5 -61t140.5 -23.5q175 0 271 104.5t114 296.5z" />
    <glyph glyph-name="florin" unicode="&#x192;" horiz-adv-x="948" 
d="M164 698v113q0 12 14 12h191l22 140q10 70 27 131t47.5 121.5t71.5 103.5t102.5 69.5t136.5 26.5q91 0 139 -22q11 -5 11 -17v-143q0 -14 -15 -10q-49 24 -116 24q-89 0 -137 -74t-68 -217l-19 -133h224q6 0 8.5 -0.5t4 -2.5t1.5 -7v-115q0 -12 -12 -12h-244l-68 -514
q-27 -215 -110.5 -322.5t-245.5 -107.5q-105 3 -168 39q-10 5 -10 22v150q0 16 14 10q72 -41 141 -41q85 0 124.5 56.5t56.5 197.5l67 510h-176q-14 0 -14 12z" />
    <glyph glyph-name="Ohorn" unicode="&#x1a0;" horiz-adv-x="1404" 
d="M715 160q190 0 299.5 141t107.5 375q0 232 -114 374t-306 142q-181 0 -297 -136t-116 -378q0 -108 28 -201.5t80 -164.5t134 -111.5t184 -40.5zM1124 1513h150q15 0 18 -14q13 -41 13 -94q0 -78 -42.5 -135.5t-119.5 -77.5q90 -93 137 -224.5t49 -285.5
q1 -321 -171.5 -511.5t-448.5 -190.5q-192 0 -335.5 91t-217.5 248.5t-74 358.5q0 199 79.5 357t222.5 246.5t323 88.5q172 0 309 -78h6q62 0 84 29.5t22 81.5q0 47 -12 96q-4 14 8 14z" />
    <glyph glyph-name="ohorn" unicode="&#x1a1;" horiz-adv-x="1093" 
d="M553 150q112 0 190 90t78 258q0 71 -16 133t-49 112t-88 78.5t-127 28.5q-120 0 -195.5 -94.5t-75.5 -251.5q0 -155 76.5 -254.5t206.5 -99.5zM913 1157h148q14 0 20 -16q11 -46 11 -94q0 -79 -43.5 -136t-120.5 -77q96 -137 96 -330q0 -234 -132 -379t-343 -145
q-120 0 -215 45t-151.5 120.5t-85.5 166t-29 188.5q0 145 58.5 262.5t169.5 187.5t255 70q162 0 278 -86q50 6 68 34t18 76q0 50 -12 97q-4 16 10 16z" />
    <glyph glyph-name="Uhorn" unicode="&#x1af;" horiz-adv-x="1349" 
d="M1198 1573h150q15 0 18 -17q12 -37 12 -94q0 -83 -47.5 -141.5t-130.5 -73.5l-14 13v-754q0 -138 -39.5 -241.5t-111.5 -164.5t-164.5 -90.5t-206.5 -29.5q-242 0 -380.5 131t-138.5 385v839q0 15 15 15h172q14 0 14 -13v-829q0 -163 83.5 -256.5t240.5 -93.5
q315 0 315 354v823q0 15 14 15h82h15q62 1 84 30t22 80q0 50 -12 96q-3 17 8 17z" />
    <glyph glyph-name="uhorn" unicode="&#x1b0;" horiz-adv-x="1095" 
d="M936 1223h149q16 0 19 -17q12 -34 12 -92q0 -81 -41.5 -139t-118.5 -78v-676q0 -89 11 -207q3 -14 -13 -14h-155q-15 0 -17 12q-12 40 -12 80q-115 -112 -293 -112q-72 0 -130.5 20t-107 63t-75.5 120.5t-27 183.5v620q0 14 15 14h172q12 0 12 -14v-596q0 -111 51 -173
t152 -62q128 0 217 92v739q0 14 14 14h55h17q55 0 76.5 29t21.5 82q0 30 -12 96q-4 15 8 15z" />
    <glyph glyph-name="uni01CD" unicode="&#x1cd;" horiz-adv-x="1216" 
d="M852 399h-508l-135 -385q-3 -14 -19 -14h-163q-19 0 -13 16l437 1229q12 31 16 94q0 11 10 11h234q11 0 14 -11l477 -1323q3 -16 -10 -16h-184q-13 0 -19 12zM397 582h400q-3 11 -89.5 265.5t-109.5 338.5h-2q-10 -38 -26 -90.5t-39.5 -122t-41.5 -122.5t-48 -141
t-44 -128zM465 1706l143 -147l140 145q10 10 18 10h154q6 0 7.5 -5.5t-3.5 -8.5l-224 -234q-9 -6 -18 -6h-158q-16 0 -20 8l-234 236q-7 10 6 10h166q11 0 23 -8z" />
    <glyph glyph-name="uni01CE" unicode="&#x1ce;" horiz-adv-x="989" 
d="M360 1438l140 -199l137 201q3 6 16 6h129q6 0 7.5 -5t-1.5 -9l-202 -285q-4 -8 -15 -8h-151q-14 0 -17 8l-208 287q-3 4 -0.5 8t8.5 4h139q13 0 18 -8zM655 172v293q-58 8 -125 8q-137 0 -204.5 -43t-67.5 -123q0 -72 55 -120t172 -48q94 0 170 33zM850 629v-441
q0 -73 4 -110q0 -6 -4 -8q-112 -50 -205 -70t-194 -20q-173 0 -281.5 83.5t-108.5 241.5q0 157 127.5 238.5t331.5 81.5q95 0 135 -4v38q0 20 -4 41.5t-18.5 48.5t-37 47.5t-64.5 35t-97 14.5q-144 0 -264 -60q-5 -3 -9.5 0.5t-4.5 10.5v145q0 11 12 16q124 62 299 62
q98 0 173 -30t120 -84.5t67.5 -124t22.5 -152.5z" />
    <glyph glyph-name="uni01CF" unicode="&#x1cf;" horiz-adv-x="520" 
d="M360 1337v-1321q0 -16 -14 -16h-172q-14 0 -14 16v1319q0 15 14 15h172q14 0 14 -13zM127 1702l141 -146l142 146q7 10 18 10h154q4 0 5.5 -6t-1.5 -10l-224 -232q-6 -6 -18 -6h-158q-17 0 -22 8l-232 236q-4 4 -1.5 7t8.5 3h163q15 0 25 -10z" />
    <glyph glyph-name="uni01D0" unicode="&#x1d0;" horiz-adv-x="479" 
d="M113 1438l137 -199l137 201q3 6 16 6h129q6 0 8.5 -5t-1.5 -9l-201 -285q-6 -8 -16 -8h-152q-13 0 -16 8l-209 287q-3 4 -0.5 8t8.5 4h141q11 0 19 -8zM139 16v971q0 14 13 14h174q8 0 11 -2.5t3 -11.5v-971q0 -9 -2.5 -12.5t-11.5 -3.5h-170q-17 0 -17 16z" />
    <glyph glyph-name="uni01D1" unicode="&#x1d1;" horiz-adv-x="1404" 
d="M702 1370q190 0 333 -92.5t216 -247.5t74 -348q1 -321 -171.5 -511.5t-448.5 -190.5q-192 0 -335.5 91t-217.5 248.5t-74 358.5q0 199 79.5 357t222 246.5t322.5 88.5zM285 678q0 -108 28 -201.5t80 -164.5t134 -111.5t184 -40.5q190 0 299.5 141t107.5 375
q0 232 -114 374t-306 142q-181 0 -297 -136t-116 -378zM555 1722l143 -147l140 147q2 1 5.5 4.5t6 5t6.5 1.5h154q6 0 7.5 -7t-3.5 -10l-223 -233q-9 -6 -19 -6h-158q-16 0 -20 8l-234 235q-3 4 -1 8.5t8 4.5h165q6 0 23 -11z" />
    <glyph glyph-name="uni01D2" unicode="&#x1d2;" horiz-adv-x="1093" 
d="M410 1438l139 -199l135 201q6 6 16 6h129q7 0 9.5 -5t-2.5 -9l-201 -285q-4 -8 -14 -8h-152q-13 0 -18 8l-207 287q-3 4 -1 8t7 4h141q14 0 19 -8zM551 1020q146 0 254.5 -69t163.5 -185t55 -262q0 -234 -132 -379t-343 -145q-120 0 -215 45t-151.5 120.5t-85.5 166
t-29 188.5q0 145 58.5 262.5t169.5 187.5t255 70zM541 850q-120 0 -195.5 -94.5t-75.5 -251.5q0 -155 76.5 -254.5t206.5 -99.5q112 0 190 90t78 258q0 71 -16 133t-49 112t-88 78.5t-127 28.5z" />
    <glyph glyph-name="uni01D3" unicode="&#x1d3;" horiz-adv-x="1323" 
d="M342 1337v-829q0 -163 83.5 -256.5t240.5 -93.5q315 0 315 354v823q0 15 14 15h172q15 0 15 -15v-829q0 -138 -40 -241.5t-112 -164.5t-165 -90.5t-206 -29.5q-242 0 -380 131t-138 385v839q0 15 15 15h172q14 0 14 -13zM528 1698l144 -146l139 146q10 10 20 10h152
q6 0 7.5 -6t-3.5 -10l-223 -232q-6 -6 -16 -6h-160q-16 0 -21 8l-233 234q-6 12 6 12h166q12 0 22 -10z" />
    <glyph glyph-name="uni01D4" unicode="&#x1d4;" horiz-adv-x="1095" 
d="M418 1438l137 -199l137 201q3 6 17 6h129q6 0 7.5 -5t-1.5 -9l-201 -285q-6 -8 -16 -8h-152q-13 0 -16 8l-209 287q-3 4 -0.5 8t8.5 4h139q13 0 21 -8zM956 987v-766q0 -89 11 -207q3 -14 -13 -14h-155q-15 0 -17 12q-12 40 -12 80q-115 -112 -293 -112q-72 0 -130.5 20
t-107 63t-75.5 120.5t-27 183.5v620q0 14 15 14h172q12 0 12 -14v-596q0 -111 51 -173t152 -62q128 0 217 92v739q0 14 14 14h172q14 0 14 -14z" />
    <glyph glyph-name="uni01D5" unicode="&#x1d5;" horiz-adv-x="1323" 
d="M342 1337v-829q0 -163 83.5 -256.5t240.5 -93.5q315 0 315 354v823q0 15 14 15h172q15 0 15 -15v-829q0 -138 -40 -241.5t-112 -164.5t-165 -90.5t-206 -29.5q-242 0 -380 131t-138 385v839q0 15 15 15h172q14 0 14 -13zM395 1810h543q10 0 10 -12v-102q0 -13 -12 -13
h-543q-10 0 -10 13v102q0 12 12 12zM457 1440q-40 0 -65 21.5t-25 56.5t26.5 57t65.5 22q38 0 62 -22t24 -57t-25.5 -56.5t-62.5 -21.5zM874 1440q-37 0 -61.5 21.5t-24.5 56.5t26 57t65 22q38 0 63 -22t25 -57q0 -34 -26.5 -56t-66.5 -22z" />
    <glyph glyph-name="uni01D6" unicode="&#x1d6;" horiz-adv-x="1095" 
d="M956 987v-766q0 -89 11 -207q3 -14 -13 -14h-155q-15 0 -17 12q-12 40 -12 80q-115 -112 -293 -112q-72 0 -130.5 20t-107 63t-75.5 120.5t-27 183.5v620q0 14 15 14h172q12 0 12 -14v-596q0 -111 51 -173t152 -62q128 0 217 92v739q0 14 14 14h172q14 0 14 -14z
M367 1116q-41 0 -67 24t-26 62q0 39 27 63.5t68 24.5q40 0 65 -25t25 -63q0 -39 -26.5 -62.5t-65.5 -23.5zM725 1116q-39 0 -64.5 23.5t-25.5 62.5t26 63.5t66 24.5q41 0 66.5 -24.5t25.5 -63.5q0 -38 -26.5 -62t-67.5 -24zM287 1509h524q12 0 12 -12v-96q0 -12 -12 -12
h-524q-13 0 -13 12v94q0 14 13 14z" />
    <glyph glyph-name="uni01D7" unicode="&#x1d7;" horiz-adv-x="1323" 
d="M342 1337v-829q0 -163 83.5 -256.5t240.5 -93.5q315 0 315 354v823q0 15 14 15h172q15 0 15 -15v-829q0 -138 -40 -241.5t-112 -164.5t-165 -90.5t-206 -29.5q-242 0 -380 131t-138 385v839q0 15 15 15h172q14 0 14 -13zM567 1655l142 180q10 10 16 10h170q6 0 7.5 -3.5
t-1.5 -8.5l-158 -180q-5 -8 -18 -8h-150q-11 0 -8 10zM451 1448q-40 0 -65.5 21.5t-25.5 56.5t27 57.5t66 22.5q38 0 62 -22.5t24 -57.5q0 -36 -25 -57t-63 -21zM868 1448q-38 0 -62 21t-24 57q0 35 25.5 57.5t64.5 22.5q38 0 63.5 -22.5t25.5 -57.5q0 -34 -26.5 -56
t-66.5 -22z" />
    <glyph glyph-name="uni01D8" unicode="&#x1d8;" horiz-adv-x="1095" 
d="M956 987v-766q0 -89 11 -207q3 -14 -13 -14h-155q-15 0 -17 12q-12 40 -12 80q-115 -112 -293 -112q-72 0 -130.5 20t-107 63t-75.5 120.5t-27 183.5v620q0 14 15 14h172q12 0 12 -14v-596q0 -111 51 -173t152 -62q128 0 217 92v739q0 14 14 14h172q14 0 14 -14z
M449 1356l145 196q8 11 18 11h170q4 0 5.5 -4.5t-1.5 -8.5l-163 -198q-6 -6 -17 -6h-151q-11 0 -6 10zM367 1122q-39 0 -63.5 23t-24.5 59q0 38 25.5 61t64.5 23q38 0 62 -23.5t24 -60.5t-25 -59.5t-63 -22.5zM727 1122q-39 0 -63.5 22t-24.5 60t25.5 61t64.5 23
q38 0 63 -23.5t25 -60.5q0 -36 -25.5 -59t-64.5 -23z" />
    <glyph glyph-name="uni01D9" unicode="&#x1d9;" horiz-adv-x="1323" 
d="M342 1337v-829q0 -163 83.5 -256.5t240.5 -93.5q315 0 315 354v823q0 15 14 15h172q15 0 15 -15v-829q0 -138 -40 -241.5t-112 -164.5t-165 -90.5t-206 -29.5q-242 0 -380 131t-138 385v839q0 15 15 15h172q14 0 14 -13zM664 1720q81 69 116 97q8 8 21 8h141
q7 0 8.5 -5.5t-2.5 -9.5l-186 -153q-4 -6 -17 -6h-174q-14 0 -20 6l-191 153q-4 4 -1.5 9.5t8.5 5.5h155q11 0 21 -10q43 -37 121 -95zM451 1444q-40 0 -65.5 21.5t-25.5 56.5t26.5 57.5t66.5 22.5q37 0 61.5 -22.5t24.5 -57.5q0 -36 -25 -57t-63 -21zM870 1444
q-39 0 -63.5 21t-24.5 57q0 35 25.5 57.5t64.5 22.5q40 0 64.5 -22.5t24.5 -59.5q0 -32 -26.5 -54t-64.5 -22z" />
    <glyph glyph-name="uni01DA" unicode="&#x1da;" horiz-adv-x="1095" 
d="M956 987v-766q0 -89 11 -207q3 -14 -13 -14h-155q-15 0 -17 12q-12 40 -12 80q-115 -112 -293 -112q-72 0 -130.5 20t-107 63t-75.5 120.5t-27 183.5v620q0 14 15 14h172q12 0 12 -14v-596q0 -111 51 -173t152 -62q128 0 217 92v739q0 14 14 14h172q14 0 14 -14z
M367 1116q-39 0 -63.5 23t-24.5 59q0 38 25.5 61t64.5 23q38 0 62 -23t24 -61q0 -37 -25 -59.5t-63 -22.5zM727 1116q-39 0 -63.5 22t-24.5 60t25.5 61t64.5 23t63.5 -23t24.5 -61q0 -36 -25.5 -59t-64.5 -23zM547 1419q30 32 117 113q8 8 20 8h139q7 0 9 -6t-3 -10
l-186 -176q-9 -9 -18 -9h-166q-15 0 -21 9l-192 178q-4 6 -1 10t9 4h156q8 0 18 -10q66 -58 119 -111z" />
    <glyph glyph-name="uni01DB" unicode="&#x1db;" horiz-adv-x="1323" 
d="M342 1337v-829q0 -163 83.5 -256.5t240.5 -93.5q315 0 315 354v823q0 15 14 15h172q15 0 15 -15v-829q0 -138 -40 -241.5t-112 -164.5t-165 -90.5t-206 -29.5q-242 0 -380 131t-138 385v839q0 15 15 15h172q14 0 14 -13zM627 1827l139 -178q6 -13 -6 -13h-152
q-10 0 -16 9l-160 180q-4 12 6 12h170q12 0 19 -10zM451 1440q-40 0 -65.5 21.5t-25.5 56.5t27 57t66 22q38 0 62 -22t24 -57q0 -36 -25 -57t-63 -21zM868 1440q-37 0 -61.5 21.5t-24.5 56.5t25.5 57t64.5 22t64 -22t25 -57q0 -34 -26.5 -56t-66.5 -22z" />
    <glyph glyph-name="uni01DC" unicode="&#x1dc;" horiz-adv-x="1095" 
d="M956 987v-766q0 -89 11 -207q3 -14 -13 -14h-155q-15 0 -17 12q-12 40 -12 80q-115 -112 -293 -112q-72 0 -130.5 20t-107 63t-75.5 120.5t-27 183.5v620q0 14 15 14h172q12 0 12 -14v-596q0 -111 51 -173t152 -62q128 0 217 92v739q0 14 14 14h172q14 0 14 -14z
M496 1552l153 -196q5 -10 -6 -10h-151q-11 0 -17 6l-174 198q-4 11 6 11h172q11 0 17 -9zM367 1122q-39 0 -63.5 23t-24.5 59q0 38 25.5 61t64.5 23q38 0 62 -23.5t24 -60.5t-25 -59.5t-63 -22.5zM727 1122q-39 0 -63.5 22t-24.5 60t25.5 61t64.5 23q38 0 63 -23.5t25 -60.5
q0 -36 -25.5 -59t-64.5 -23z" />
    <glyph glyph-name="Gcaron" unicode="&#x1e6;" horiz-adv-x="1308" 
d="M993 555l-264 6q-14 2 -14 17v147q0 10 12 10h451q14 0 14 -14v-655q3 -14 -10 -19q-173 -67 -389 -67q-172 0 -309.5 53t-225.5 146.5t-134 218t-46 270.5q0 211 94 371t262.5 245.5t388.5 85.5q224 0 328 -49q10 -5 10 -23v-157q0 -18 -14 -11q-112 58 -318 62
q-256 1 -400 -136.5t-144 -381.5q0 -146 57.5 -261t176.5 -185t284 -70q119 0 190 26v371zM606 1733l142 -146l141 146q7 10 18 10h154q6 0 6.5 -7t-2.5 -10l-223 -231q-8 -8 -19 -8h-157q-18 0 -21 10l-233 234q-4 5 -2 8.5t8 3.5h164q14 0 24 -10z" />
    <glyph glyph-name="gcaron" unicode="&#x1e7;" horiz-adv-x="1024" 
d="M401 1147l-206 287q-3 4 -0.5 8t8.5 4h139q13 0 18 -8l140 -199l137 201q3 6 14 6h131q6 0 7.5 -5t-1.5 -9l-202 -285q-4 -8 -15 -8h-151q-14 0 -19 8zM580 14l-218 11q-54 -36 -88 -86t-34 -82q0 -69 79 -122.5t209 -53.5q149 0 228.5 56t79.5 132q0 39 -19.5 67.5
t-57 44t-80.5 23.5t-99 10zM489 872q-89 0 -141.5 -53.5t-52.5 -142.5q0 -87 50.5 -141t141.5 -54q90 0 140.5 50.5t50.5 140.5q0 87 -48 143.5t-141 56.5zM414 197l209 -11q198 -10 298.5 -83t100.5 -205q0 -157 -140 -264t-366 -107q-113 0 -204.5 27.5t-147 73t-84.5 100
t-29 112.5q0 109 197 275q-48 70 -45 155q0 70 35 129q-140 92 -140 273q0 151 105.5 249.5t285.5 98.5q94 0 166 -14q20 -5 43 -5h289q12 0 12 -12v-137q0 -12 -12 -12q-84 0 -178 8q61 -65 61 -180q0 -161 -106.5 -248.5t-271.5 -87.5q-57 0 -101 8q-16 -32 -10 -68
q6 -40 33 -75z" />
    <glyph glyph-name="uni0218" unicode="&#x218;" horiz-adv-x="993" 
d="M438 -20q-219 0 -350 75q-12 7 -12 27v174q0 6 4 8t10 -2q154 -102 356 -102q135 0 202 50.5t67 137.5q0 70 -50.5 123.5t-177.5 108.5l-94 38q-121 52 -192.5 115.5t-96 125t-24.5 138.5q0 167 120.5 270t334.5 103q210 0 305 -53q12 -7 12 -23v-161q0 -7 -4 -10t-12 1
q-115 68 -306 68q-71 0 -123.5 -16t-80 -42.5t-40 -56t-12.5 -61.5q0 -66 49.5 -116.5t176.5 -106.5l84 -35q184 -76 259 -171t75 -220q0 -175 -128 -281t-352 -106zM489 -492h-149q-6 0 -8.5 5t0.5 10q78 123 78 231q0 46 -31 123q-3 12 8 12h164q8 0 18 -10
q29 -52 29 -112q0 -77 -22 -134.5t-68 -117.5q-7 -7 -19 -7z" />
    <glyph glyph-name="uni0219" unicode="&#x219;" horiz-adv-x="792" 
d="M666 799q-45 26 -111.5 42.5t-132.5 16.5q-87 0 -127.5 -33t-40.5 -80q0 -43 37.5 -75.5t142.5 -75.5q163 -61 231 -132.5t68 -180.5q0 -141 -104 -221t-277 -80q-183 0 -280 59q-11 5 -11 18v160q0 7 4.5 10t8.5 0q124 -82 284 -82q88 0 134.5 32t46.5 85q0 51 -39 85.5
t-142 74.5q-158 60 -225 132t-67 181q0 120 95 202.5t265 82.5q166 0 246 -41q12 -7 12 -23v-147q0 -8 -5 -11t-13 1zM387 -481h-151q-6 0 -8 3.5t1 8.5q76 123 76 231q0 49 -29 125q-3 4 0 8.5t9 4.5h161q12 0 19 -11q29 -52 29 -114q0 -75 -21.5 -132.5t-66.5 -119.5
q-8 -4 -19 -4z" />
    <glyph glyph-name="uni021A" unicode="&#x21a;" horiz-adv-x="1079" 
d="M438 16v1153h-428q-15 0 -12 15l22 153q3 13 19 13h1008q13 0 16 -15l18 -149q3 -17 -14 -17h-428v-1153q0 -16 -14 -16h-168q-19 0 -19 16zM545 -477h-152q-6 0 -7.5 3.5t1.5 8.5q76 123 76 232q0 48 -29 124q-4 13 8 13h162q12 0 19 -10q30 -54 30 -115
q0 -75 -22.5 -132t-67.5 -118q-6 -6 -18 -6z" />
    <glyph glyph-name="uni021B" unicode="&#x21b;" horiz-adv-x="618" 
d="M586 152v-121q0 -18 -13 -23q-71 -28 -161 -28q-123 0 -187.5 65t-64.5 209v575h-135q-13 3 -13 19v139q0 14 15 14h135q5 197 18 259q3 13 15 16l165 24q15 4 15 -10q-13 -152 -13 -289h209q15 0 15 -14v-143q0 -12 -13 -15h-213v-538q0 -73 28.5 -108.5t94.5 -35.5
q41 0 88 15q15 4 15 -10zM358 -494h-151q-6 0 -7.5 5t1.5 10q75 118 75 231q0 53 -28 123q-3 12 8 12h162q11 0 18 -10q31 -48 31 -113q0 -76 -22 -133t-68 -118q-7 -7 -19 -7z" />
    <glyph glyph-name="uni0237" unicode="&#x237;" horiz-adv-x="481" 
d="M156 1001h172q14 0 14 -14v-973q0 -155 -25 -235t-77 -141q-43 -51 -112.5 -75t-133.5 -24q-27 0 -41 2q-12 2 -12 19v143q0 14 12 14q44 1 74.5 10.5t58 34.5t41 75.5t14.5 127.5v1022q0 14 15 14z" />
    <glyph glyph-name="uni0251" unicode="&#x251;" horiz-adv-x="1091" 
d="M584 -20q-147 0 -262 56.5t-184.5 174.5t-69.5 283q0 229 153 377.5t406 148.5q185 0 309 -47q14 0 14 -17v-766q0 -52 4 -110q0 -13 -10 -17q-165 -83 -360 -83zM750 182v649q-44 19 -132 19q-157 0 -250.5 -96.5t-93.5 -251.5q0 -89 28 -158t76 -108.5t105 -59.5
t121 -20q90 0 146 26z" />
    <glyph glyph-name="uni0259" unicode="&#x259;" horiz-adv-x="1011" 
d="M301 543h432q1 81 -29.5 147.5t-101.5 111t-174 44.5q-155 0 -276 -62q-11 -7 -11 9v139q0 14 11 20q132 68 317 68q122 0 215.5 -44t147 -118t80 -162t26.5 -186q0 -233 -123 -381.5t-338 -148.5q-86 0 -157 27t-116.5 71t-77 101t-45 114.5t-13.5 114.5q0 85 6 112
q4 15 16 17q47 6 211 6zM733 401h-350q-109 0 -125 -4v-24q0 -24 6.5 -52t23 -60t41.5 -58t66 -43t92 -17q112 0 173 73.5t73 184.5z" />
    <glyph glyph-name="uni0261" unicode="&#x261;" horiz-adv-x="1085" 
d="M743 195v634q-59 21 -139 21q-155 0 -241.5 -99t-86.5 -251q0 -85 27 -151t72 -105t99 -58.5t112 -19.5q103 0 157 29zM944 844v-727q0 -143 -22 -242q-79 -348 -498 -348q-181 0 -291 55q-12 5 -12 19v174q0 5 3.5 7t8.5 -1q125 -68 295 -68q89 0 150.5 20.5t96.5 61
t50 92t16 121.5v12q-65 -28 -178 -28q-101 0 -189.5 32.5t-156.5 94t-107.5 158.5t-39.5 217q0 111 38.5 207t108.5 167t175 111.5t233 40.5q190 0 321 -55q4 -2 4 -13q-6 -50 -6 -108z" />
    <glyph glyph-name="uni02BB" unicode="&#x2bb;" horiz-adv-x="555" 
d="M223 1464h139q12 0 9 -12q-76 -210 -76 -367q0 -75 10 -133q0 -12 -10 -12h-143q-13 0 -19 14q-12 52 -12 136q0 186 88 366q5 8 14 8z" />
    <glyph glyph-name="uni02BC" unicode="&#x2bc;" horiz-adv-x="555" 
d="M252 940h-137q-15 0 -9 12q76 210 76 367q0 63 -12 133q0 12 10 12h146q12 0 18 -14q12 -52 12 -133q0 -186 -88 -369q-5 -8 -16 -8z" />
    <glyph glyph-name="uni02BE" unicode="&#x2be;" horiz-adv-x="817" 
d="M295 1403v98q103 3 165 -50.5t62 -139.5q0 -89 -62 -143t-165 -50v101q52 -2 83.5 22t31.5 70q0 45 -31.5 69.5t-83.5 22.5z" />
    <glyph glyph-name="uni02BF" unicode="&#x2bf;" horiz-adv-x="817" 
d="M522 1214v-96q-102 -4 -164.5 50t-62.5 141q0 89 62 141.5t165 48.5v-100q-52 2 -83 -21.5t-31 -68.5q0 -46 30 -70.5t84 -24.5z" />
    <glyph glyph-name="circumflex" unicode="&#x2c6;" 
d="M528 1145l-139 198l-135 -200q-6 -6 -16 -6h-129q-7 0 -9.5 4.5t2.5 9.5l201 287q8 8 14 8h152q11 0 18 -10l207 -287q4 -5 1.5 -8.5t-7.5 -3.5h-141q-14 0 -19 8z" />
    <glyph glyph-name="caron" unicode="&#x2c7;" 
d="M268 1438l140 -199l135 201q6 6 16 6h129q7 0 9 -5t-3 -9l-200 -285q-6 -8 -15 -8h-153q-12 0 -17 8l-207 287q-4 4 -1 8t8 4h141q13 0 18 -8z" />
    <glyph glyph-name="uni02C8" unicode="&#x2c8;" horiz-adv-x="817" 
d="M328 1139l-15 323q0 15 15 15h164q14 0 10 -11l-17 -329q-2 -11 -12 -11h-133q-12 0 -12 13z" />
    <glyph glyph-name="uni02C9" unicode="&#x2c9;" 
d="M127 1360h547q12 0 12 -12v-121q0 -13 -12 -13h-547q-12 0 -12 15v121q0 10 12 10z" />
    <glyph glyph-name="uni02CA" unicode="&#x2ca;" 
d="M297 1151l209 289q10 16 20 16h191q20 0 10 -16l-244 -291q-12 -12 -22 -12h-156q-11 0 -8 14z" />
    <glyph glyph-name="uni02CB" unicode="&#x2cb;" 
d="M322 1444l215 -293q3 -5 0 -9.5t-9 -4.5h-159q-11 0 -19 12l-254 289q-3 6 -1 11t7 5h201q11 0 19 -10z" />
    <glyph glyph-name="uni02CC" unicode="&#x2cc;" horiz-adv-x="817" 
d="M328 -449l-15 326q0 14 15 14h164q13 0 10 -12l-17 -328q-2 -12 -12 -12h-133q-12 0 -12 12z" />
    <glyph glyph-name="breve" unicode="&#x2d8;" 
d="M90 1409h135q9 0 11 -6q40 -115 161 -115q128 0 166 113q3 8 10 8h136q9 0 6 -10q-22 -120 -106 -190t-214 -70q-126 0 -208.5 66t-106.5 194q-1 7 1.5 8.5t8.5 1.5z" />
    <glyph glyph-name="dotaccent" unicode="&#x2d9;" 
d="M397 1176q-54 0 -85 32t-31 86q0 51 33 85t85 34q54 0 85.5 -33.5t31.5 -85.5q0 -54 -32.5 -86t-86.5 -32z" />
    <glyph glyph-name="ring" unicode="&#x2da;" 
d="M188 1307q0 85 57.5 137.5t151.5 52.5q93 0 152 -53t59 -137q0 -87 -59 -140t-152 -53q-95 0 -152 51.5t-57 141.5zM299 1307q0 -43 28 -70t70 -27q41 0 70 26.5t29 70.5q0 43 -29 69.5t-70 26.5q-42 0 -70 -26.5t-28 -69.5z" />
    <glyph glyph-name="ogonek" unicode="&#x2db;" 
d="M170 -254q0 86 73.5 166.5t196.5 146.5h158q-246 -136 -246 -260q0 -47 33.5 -74.5t93.5 -27.5q69 0 109 16q14 3 14 -12v-104q0 -19 -12 -25q-64 -33 -166 -33q-65 0 -119.5 18.5t-94.5 67t-40 121.5z" />
    <glyph glyph-name="tilde" unicode="&#x2dc;" 
d="M182 1155h-112q-13 0 -13 14q3 118 58 181t141 63q54 0 110 -27t101 -54t72 -27q64 0 71 92q0 12 11 12h112q12 0 12 -10q-4 -128 -54.5 -187t-133.5 -59q-39 0 -82 16.5t-73.5 37t-67 37t-64.5 16.5q-68 0 -80 -95q0 -10 -8 -10z" />
    <glyph glyph-name="hungarumlaut" unicode="&#x2dd;" 
d="M145 1159l150 281q8 14 27 14h145q9 0 11 -6t-3 -10l-176 -289q-9 -12 -25 -12h-118q-18 0 -11 22zM492 1159l151 283q8 14 23 14h147q9 0 12 -7t-2 -11l-178 -287q-11 -14 -29 -14h-112q-10 0 -13.5 7.5t1.5 14.5z" />
    <glyph glyph-name="gravecomb" unicode="&#x300;" horiz-adv-x="0" 
d="M-14 1444l217 -293q3 -5 0 -9.5t-10 -4.5h-160q-13 0 -17 12l-254 289q-3 6 -1 11t8 5h200q12 0 17 -10z" />
    <glyph glyph-name="acutecomb" unicode="&#x301;" horiz-adv-x="0" 
d="M-193 1151l209 289q6 16 19 16h192q19 0 9 -16l-244 -291q-9 -12 -23 -12h-155q-14 0 -7 14z" />
    <glyph glyph-name="uni0302" unicode="&#x302;" horiz-adv-x="0" 
d="M131 1145l-139 198l-135 -200q-6 -6 -17 -6h-129q-7 0 -9 4.5t3 9.5l201 287q5 8 14 8h152q11 0 18 -10l207 -287q3 -5 1 -8.5t-7 -3.5h-141q-14 0 -19 8z" />
    <glyph glyph-name="tildecomb" unicode="&#x303;" horiz-adv-x="0" 
d="M-219 1155h-111q-14 0 -14 14q4 118 59.5 181t141.5 63q54 0 109.5 -27t100 -54t72.5 -27q35 0 51 23.5t21 68.5q0 12 10 12h113q12 0 12 -10q-8 -246 -190 -246q-39 0 -81 16.5t-72.5 37t-67 37t-64.5 16.5q-68 0 -80 -95q0 -10 -10 -10z" />
    <glyph glyph-name="uni0304" unicode="&#x304;" horiz-adv-x="0" 
d="M-272 1360h548q11 0 11 -12v-121q0 -13 -13 -13h-546q-13 0 -13 15v121q0 10 13 10z" />
    <glyph glyph-name="uni0306" unicode="&#x306;" horiz-adv-x="0" 
d="M-307 1409h133q10 0 12 -6q40 -115 162 -115q129 0 164 113q3 8 10 8h137q9 0 6 -10q-22 -120 -105.5 -190t-213.5 -70q-126 0 -208.5 66t-106.5 194q-1 7 1.5 8.5t8.5 1.5z" />
    <glyph glyph-name="uni0307" unicode="&#x307;" horiz-adv-x="0" 
d="M0 1176q-55 0 -87 32t-32 86q0 51 33.5 85t85.5 34q54 0 85.5 -33.5t31.5 -85.5q0 -54 -32 -86t-85 -32z" />
    <glyph glyph-name="uni0308" unicode="&#x308;" horiz-adv-x="0" 
d="M-193 1188q-46 0 -75 28.5t-29 77.5t31 79t78 30q44 0 72 -31t28 -80q0 -48 -29.5 -76t-75.5 -28zM190 1188q-44 0 -73 29t-29 77t31 78.5t76 30.5q46 0 74 -30.5t28 -80.5q0 -45 -30.5 -74.5t-76.5 -29.5z" />
    <glyph glyph-name="hookabovecomb" unicode="&#x309;" horiz-adv-x="0" 
d="M-190 1356v98q0 10 6 14q74 41 172 41q94 0 148 -47.5t54 -126.5q0 -47 -23 -89t-60 -72t-77.5 -50t-82.5 -32q-13 0 -13 8v96q0 9 9 12q90 56 90 111q0 28 -19.5 45.5t-56.5 17.5q-66 0 -135 -34q-4 -3 -8 -0.5t-4 8.5z" />
    <glyph glyph-name="uni030A" unicode="&#x30a;" horiz-adv-x="0" 
d="M-209 1307q0 85 57.5 137.5t151.5 52.5q93 0 152 -53t59 -137q0 -87 -59 -140t-152 -53q-95 0 -152 51.5t-57 141.5zM-98 1307q0 -43 28 -70t70 -27q41 0 69.5 26.5t28.5 70.5q0 43 -28.5 69.5t-69.5 26.5q-42 0 -70 -26.5t-28 -69.5z" />
    <glyph glyph-name="uni030B" unicode="&#x30b;" horiz-adv-x="0" 
d="M-334 1159l152 281q6 14 24 14h146q8 0 11 -6t-1 -10l-178 -289q-9 -12 -25 -12h-119q-17 0 -10 22zM12 1159l152 283q8 14 22 14h148q10 0 12.5 -7t-2.5 -11l-178 -287q-11 -14 -29 -14h-112q-10 0 -14 7.5t1 14.5z" />
    <glyph glyph-name="uni030C" unicode="&#x30c;" horiz-adv-x="0" 
d="M-131 1438l139 -199l137 201q3 6 15 6h129q7 0 9 -5t-3 -9l-201 -285q-4 -8 -14 -8h-152q-13 0 -18 8l-207 287q-3 4 -1 8t7 4h141q14 0 19 -8z" />
    <glyph glyph-name="uni031B" unicode="&#x31b;" horiz-adv-x="0" 
d="M453 1223h145q14 0 20 -15q11 -46 11 -94q0 -83 -45.5 -139t-130.5 -76h-179q-22 0 -22 12v76q0 14 14 14h60q74 0 98.5 30t24.5 83q0 43 -7 94q-2 6 1.5 10.5t9.5 4.5z" />
    <glyph glyph-name="dotbelowcomb" unicode="&#x323;" horiz-adv-x="0" 
d="M-2 -377q-52 0 -84.5 33t-32.5 84q0 50 34.5 82.5t86.5 32.5t83.5 -32.5t31.5 -82.5q0 -52 -32 -84.5t-87 -32.5z" />
    <glyph glyph-name="uni0324" unicode="&#x324;" horiz-adv-x="0" 
d="M-193 -389q-46 0 -75 28.5t-29 77.5t31 79t78 30q45 0 72.5 -30t27.5 -79q0 -48 -30 -77t-75 -29zM190 -389q-44 0 -73 29t-29 77t31 78.5t76 30.5t73.5 -30.5t28.5 -78.5q0 -47 -30 -76.5t-77 -29.5z" />
    <glyph glyph-name="uni0326" unicode="&#x326;" horiz-adv-x="0" 
d="M27 -463h-152q-12 0 -8 12q78 126 78 232q0 49 -29 125q-3 4 -1 8t7 4h164q11 0 18 -10q29 -52 29 -115q0 -75 -22 -133t-68 -119q-4 -4 -16 -4z" />
    <glyph glyph-name="uni0327" unicode="&#x327;" horiz-adv-x="0" 
d="M-41 12h127l-72 -100q91 -26 133.5 -73t42.5 -118q0 -81 -64 -132.5t-163 -51.5q-89 0 -145 27q-11 6 -11 18v84q0 16 15 10q56 -26 129 -26q94 0 94 67q0 84 -192 107q-4 4 -5 21.5t2 23.5z" />
    <glyph glyph-name="uni0328" unicode="&#x328;" horiz-adv-x="0" 
d="M-219 -254q0 86 73.5 166.5t196.5 146.5h160q-246 -134 -246 -260q0 -47 33 -74.5t92 -27.5q68 0 111 16q12 3 12 -12v-104q0 -19 -12 -25q-61 -33 -166 -33q-65 0 -119.5 18.5t-94.5 67t-40 121.5z" />
    <glyph glyph-name="uni032E" unicode="&#x32e;" horiz-adv-x="0" 
d="M-307 -147h137q9 0 12 -13q42 -110 156 -110q121 0 162 112q4 11 14 11h135q13 0 13 -15q-17 -119 -108.5 -191.5t-215.5 -72.5q-127 0 -215.5 68.5t-101.5 197.5q0 13 12 13z" />
    <glyph glyph-name="uni0331" unicode="&#x331;" horiz-adv-x="0" 
d="M-250 -164h502q10 0 10 -12v-123q0 -10 -12 -10h-502q-10 0 -10 12v121q0 12 12 12z" />
    <glyph glyph-name="uni037E" unicode="&#x37e;" horiz-adv-x="501" 
d="M252 670q-56 0 -91.5 35t-35.5 94q0 56 35 90.5t92 34.5q56 0 90.5 -35t34.5 -90q0 -59 -33.5 -94t-91.5 -35zM203 -291h-142q-7 0 -10 5.5t0 11.5q69 138 92 263.5t15 270.5q0 10 10 10h162q11 0 14 -14q11 -147 -20.5 -286.5t-102.5 -248.5q-6 -12 -18 -12z" />
    <glyph glyph-name="tonos" unicode="&#x384;" 
d="M297 1167l209 291q10 17 20 17h191q9 0 12 -5.5t-2 -11.5l-244 -293q-7 -10 -22 -10h-156q-12 0 -8 12z" />
    <glyph glyph-name="dieresistonos" unicode="&#x385;" 
d="M270 1137l123 360q3 8 10 8h154q11 0 8 -10l-153 -360q-4 -11 -15 -11h-121q-10 0 -6 13zM121 1196q-42 0 -67 26t-25 70q0 42 27 69.5t67 27.5q43 0 67.5 -28t24.5 -71q0 -42 -26 -68t-68 -26zM686 1196q-40 0 -66 26t-26 68q0 45 26.5 72t67.5 27q40 0 66 -27.5
t26 -71.5q0 -42 -26 -68t-68 -26z" />
    <glyph glyph-name="Alphatonos" unicode="&#x386;" horiz-adv-x="1372" 
d="M948 399h-510l-133 -385q-6 -14 -18 -14h-166q-15 0 -12 16l438 1229q12 32 14 94q0 11 12 11h234q9 0 12 -11l477 -1323q6 -16 -10 -16h-184q-11 0 -17 12zM494 582h399q-10 32 -93.5 277t-107.5 327h-2q-34 -129 -196 -604zM10 928l111 413q5 11 16 11h170q13 0 10 -15
l-135 -411q-2 -11 -16 -11h-146q-13 0 -10 13z" />
    <glyph glyph-name="anoteleia" unicode="&#x387;" horiz-adv-x="405" 
d="M203 686q-55 0 -89 33.5t-34 89.5q0 53 34 87t89 34t90 -34.5t35 -86.5q0 -55 -33.5 -89t-91.5 -34z" />
    <glyph glyph-name="Epsilontonos" unicode="&#x388;" horiz-adv-x="1370" 
d="M1315 168l-25 -154q-2 -14 -16 -14h-793q-10 0 -13 3.5t-3 12.5v1319q0 15 14 15h764q14 0 17 -13l18 -153q4 -15 -12 -15h-600v-389h544q13 0 13 -12v-156q0 -14 -15 -14h-542v-416h637q15 0 12 -14zM6 928l111 411q5 11 14 11h172q13 0 10 -13l-135 -411
q-4 -11 -16 -11h-146q-13 0 -10 13z" />
    <glyph glyph-name="Etatonos" unicode="&#x389;" horiz-adv-x="1665" 
d="M1489 0h-172q-9 0 -11.5 2.5t-2.5 11.5v600h-639v-598q0 -16 -15 -16h-170q-14 0 -14 16v1319q0 15 14 15h170q15 0 15 -13v-542h639v542q0 13 12 13h176q12 0 12 -13v-1323q0 -14 -14 -14zM0 928l113 411q3 11 14 11h170q13 0 10 -13l-135 -411q-2 -11 -14 -11h-146
q-15 0 -12 13z" />
    <glyph glyph-name="Iotatonos" unicode="&#x38a;" horiz-adv-x="804" 
d="M649 1337v-1321q0 -16 -14 -16h-172q-14 0 -14 16v1319q0 15 14 15h172q14 0 14 -13zM-23 928l113 411q3 11 14 11h170q14 0 11 -13l-135 -411q-2 -11 -15 -11h-145q-16 0 -13 13z" />
    <glyph glyph-name="Omicrontonos" unicode="&#x38c;" horiz-adv-x="1685" 
d="M922 1370q143 0 261 -53.5t196.5 -147t121 -218.5t43.5 -269q1 -321 -171.5 -511.5t-448.5 -190.5q-192 0 -335 91t-216.5 248.5t-73.5 358.5q0 199 79 357t221.5 246.5t322.5 88.5zM504 678q0 -145 48 -261t146 -186.5t232 -70.5q191 0 300 140.5t107 375.5
q0 232 -113 374t-304 142q-183 0 -299.5 -136t-116.5 -378zM-43 928l113 411q3 11 14 11h170q15 0 12 -13l-135 -411q-4 -11 -16 -11h-146q-15 0 -12 13z" />
    <glyph glyph-name="Upsilontonos" unicode="&#x38e;" horiz-adv-x="1566" 
d="M793 551l-447 782q-5 9 -1 13t11 4h199q10 0 16 -9q320 -592 347 -653q48 101 339 651q3 11 15 11h192q12 0 9 -13l-451 -792q-16 -24 -16 -56v-473q0 -16 -15 -16h-168q-18 0 -18 16v480q0 31 -12 55zM-45 928l113 411q3 11 14 11h172q13 0 10 -13l-135 -411
q-4 -11 -16 -11h-146q-12 0 -12 13z" />
    <glyph glyph-name="Omegatonos" unicode="&#x38f;" horiz-adv-x="1687" 
d="M836 0h-549q-15 0 -15 14l-14 156q0 14 14 14h334q-258 212 -258 561q0 174 74.5 315.5t216.5 225.5t326 84q138 0 250 -49t184 -133.5t110.5 -196t38.5 -239.5q0 -346 -266 -570h346q12 0 12 -12l-18 -156q0 -14 -14 -14h-545q-14 0 -14 14v138q0 10 10 20
q287 207 287 557q-2 208 -103.5 336.5t-292.5 128.5q-129 0 -221 -64.5t-135 -169t-43 -237.5q0 -181 81 -320t206 -229q12 -10 12 -20v-138q0 -16 -14 -16zM-20 928l112 411q3 11 14 11h170q16 0 11 -13l-135 -411q-2 -11 -15 -11h-145q-15 0 -12 13z" />
    <glyph glyph-name="iotadieresistonos" unicode="&#x390;" horiz-adv-x="512" 
d="M338 991v-753q0 -52 19.5 -72.5t58.5 -20.5q6 0 12 1t13.5 2t13.5 2t8 -1.5t2 -9.5v-125q0 -15 -12 -20q-35 -14 -103 -14q-47 0 -82 10t-66.5 35t-48 75t-16.5 123v764q0 14 15 14h176q10 0 10 -10zM143 1137l123 360q3 10 10 10h154q4 0 7 -3.5t1 -8.5l-153 -360
q-4 -11 -15 -11h-120q-11 0 -7 13zM-8 1196q-40 0 -65 26t-25 70q0 42 26.5 69.5t65.5 27.5q44 0 69 -28t25 -71q0 -42 -26 -68t-70 -26zM559 1196q-40 0 -66 26t-26 70t26.5 70.5t67.5 26.5q40 0 66 -27.5t26 -71.5q0 -42 -26 -68t-68 -26z" />
    <glyph glyph-name="Alpha" unicode="&#x391;" horiz-adv-x="1216" 
d="M852 399h-508l-135 -385q-3 -14 -19 -14h-163q-19 0 -13 16l437 1229q12 31 16 94q0 11 10 11h234q11 0 14 -11l477 -1323q3 -16 -10 -16h-184q-13 0 -19 12zM397 582h400q-3 11 -89.5 265.5t-109.5 338.5h-2q-10 -38 -26 -90.5t-39.5 -122t-41.5 -122.5t-48 -141
t-44 -128z" />
    <glyph glyph-name="Beta" unicode="&#x392;" horiz-adv-x="1163" 
d="M160 16v1315q0 15 10 17q114 6 371 6q87 0 158 -13t119.5 -34.5t85.5 -52t58 -61t34 -67t17.5 -65.5t4.5 -60q0 -100 -42 -168.5t-97 -107.5q36 -16 68 -39.5t66 -61.5t54 -94.5t20 -123.5q0 -195 -151.5 -302.5t-400.5 -107.5q-207 0 -363 4q-12 2 -12 16zM356 623v-453
q90 -4 168 -4q165 -2 261 57.5t96 177.5q0 76 -42.5 130t-129.5 77q-61 15 -152 15h-201zM356 1180v-383h179q121 0 188 -13q98 68 98 191q0 209 -286 209q-101 0 -179 -4z" />
    <glyph glyph-name="Gamma" unicode="&#x393;" horiz-adv-x="960" 
d="M160 1337q0 13 10 13h760q12 0 14 -11l19 -157q3 -13 -13 -13h-590v-1155q0 -14 -12 -14h-176q-12 0 -12 14v1323z" />
    <glyph glyph-name="uni0394" unicode="&#x394;" horiz-adv-x="1206" 
d="M1163 0h-1120q-12 0 -12 12v113q0 15 6 27l412 1089q8 23 14 98q3 11 12 11h232q12 0 14 -9l448 -1187q7 -14 7 -31v-107q0 -10 -2 -13t-11 -3zM236 182h718q-44 126 -129.5 358t-151.5 412t-79 222h-2q-12 -46 -68 -202t-148 -406t-140 -384z" />
    <glyph glyph-name="Epsilon" unicode="&#x395;" horiz-adv-x="1058" 
d="M1010 168l-25 -154q-2 -14 -16 -14h-793q-10 0 -13 3.5t-3 12.5v1319q0 15 14 15h764q9 0 11.5 -2.5t4.5 -10.5l19 -153q4 -15 -12 -15h-601v-389h545q13 0 13 -12v-156q0 -14 -15 -14h-543v-416h637q16 0 13 -14z" />
    <glyph glyph-name="Zeta" unicode="&#x396;" horiz-adv-x="1097" 
d="M1030 0h-987q-14 0 -14 14v111q0 11 6 20l756 1024h-728q-15 0 -12 15l25 153q5 13 16 13h942q10 0 10 -11v-116q0 -14 -8 -27l-747 -1014h776q16 0 10 -16l-28 -152q-3 -14 -17 -14z" />
    <glyph glyph-name="Eta" unicode="&#x397;" horiz-adv-x="1357" 
d="M1184 0h-172q-15 0 -15 14v600h-637v-598q0 -16 -14 -16h-170q-16 0 -16 16v1319q0 15 14 15h172q14 0 14 -13v-542h637v542q0 13 13 13h176q12 0 12 -13v-1323q0 -14 -14 -14z" />
    <glyph glyph-name="Theta" unicode="&#x398;" horiz-adv-x="1404" 
d="M422 774h563q14 0 14 -12v-154q0 -14 -12 -14h-565q-12 0 -12 14v152q0 14 12 14zM702 1370q190 0 333 -92.5t216 -247.5t74 -348q1 -321 -171.5 -511.5t-448.5 -190.5q-192 0 -335.5 91t-217.5 248.5t-74 358.5q0 199 79.5 357t222 246.5t322.5 88.5zM285 678
q0 -108 28 -201.5t80 -164.5t134 -111.5t184 -40.5q190 0 299.5 141t107.5 375q0 232 -114 374t-306 142q-181 0 -297 -136t-116 -378z" />
    <glyph glyph-name="Iota" unicode="&#x399;" horiz-adv-x="520" 
d="M360 1337v-1321q0 -16 -14 -16h-172q-14 0 -14 16v1319q0 15 14 15h172q14 0 14 -13z" />
    <glyph glyph-name="Kappa" unicode="&#x39a;" horiz-adv-x="1167" 
d="M584 692l622 -672q6 -8 4 -14t-10 -6h-211q-19 0 -31 14l-598 643v-641q0 -16 -16 -16h-170q-14 0 -14 18v1319q0 13 12 13h174q14 0 14 -15v-635l580 639q8 11 23 11h190q10 0 12.5 -6.5t-2.5 -12.5l-579 -622q-8 -9 0 -17z" />
    <glyph glyph-name="Lambda" unicode="&#x39b;" horiz-adv-x="1216" 
d="M989 12q-68 198 -169.5 491.5t-153 444.5t-68.5 213h-2q-38 -155 -387 -1147q-3 -14 -19 -14h-163q-19 0 -13 16l437 1229q12 31 16 94q0 11 10 11h234q11 0 14 -11l477 -1323q3 -16 -10 -16h-184q-13 0 -19 12z" />
    <glyph glyph-name="Mu" unicode="&#x39c;" horiz-adv-x="1697" 
d="M221 1339q2 11 15 11h266q13 0 18 -13q12 -39 71.5 -226t104 -329.5t92 -300.5t62.5 -221h2q26 100 185 567.5t173 509.5q3 13 15 13h260q11 0 14 -11l64 -1325q3 -14 -13 -14h-182q-14 0 -14 12q-29 832 -29 1196h-2q-28 -110 -192.5 -613.5t-188.5 -580.5
q-5 -14 -18 -14h-168q-17 0 -19 14q-298 979 -352 1196h-4q-3 -262 -53 -1196q0 -14 -15 -14h-163q-10 0 -13 2.5t-2 11.5z" />
    <glyph glyph-name="Nu" unicode="&#x39d;" horiz-adv-x="1382" 
d="M336 0h-160q-9 0 -12.5 3t-3.5 13v1321q0 13 12 13h236q15 0 20 -13q157 -267 357 -618.5t251 -458.5h2q-4 110 -4 313v762q0 15 15 15h159q15 0 15 -17v-1317q0 -16 -19 -16h-213q-17 0 -22 12q-18 34 -302 533t-325 600h-2q8 -120 8 -369v-760q0 -16 -12 -16z" />
    <glyph glyph-name="Xi" unicode="&#x39e;" horiz-adv-x="1015" 
d="M936 0h-864q-13 0 -15 12l-16 156q-3 14 10 14h912q15 0 12 -14l-23 -158q-2 -10 -16 -10zM90 1350h832q13 0 16 -11l18 -157q3 -13 -12 -13h-874q-14 0 -11 11l19 159q3 11 12 11zM872 768v-158q0 -12 -12 -12h-704q-15 0 -15 14v156q0 12 11 12h708q12 0 12 -12z" />
    <glyph glyph-name="Omicron" unicode="&#x39f;" horiz-adv-x="1404" 
d="M702 1370q190 0 333 -92.5t216 -247.5t74 -348q1 -321 -171.5 -511.5t-448.5 -190.5q-192 0 -335.5 91t-217.5 248.5t-74 358.5q0 199 79.5 357t222 246.5t322.5 88.5zM285 678q0 -108 28 -201.5t80 -164.5t134 -111.5t184 -40.5q190 0 299.5 141t107.5 375
q0 232 -114 374t-306 142q-181 0 -297 -136t-116 -378z" />
    <glyph glyph-name="Pi" unicode="&#x3a0;" horiz-adv-x="1357" 
d="M1184 0h-172q-15 0 -15 14v1155h-637v-1153q0 -16 -14 -16h-170q-16 0 -16 16v1319q0 15 14 15h1012q12 0 12 -13v-1323q0 -14 -14 -14z" />
    <glyph glyph-name="Rho" unicode="&#x3a1;" horiz-adv-x="1128" 
d="M160 12v1321q0 15 12 15q210 6 352 6q137 0 242 -36t167 -98t93 -139t31 -166q0 -115 -43.5 -205t-119.5 -144.5t-174.5 -82.5t-213.5 -28q-43 0 -85.5 1t-62.5 1v-443q0 -14 -12 -14h-174q-12 0 -12 12zM358 1174v-537q74 -4 146 -4q75 0 136 14.5t111.5 45.5t78.5 86.5
t28 131.5q0 128 -88.5 198.5t-241.5 70.5q-77 0 -170 -6z" />
    <glyph glyph-name="Sigma" unicode="&#x3a3;" horiz-adv-x="1083" 
d="M985 1350q11 0 14 -13l19 -155q2 -13 -12 -13h-703l442 -479q11 -11 0 -22l-462 -486h780q11 0 8 -10l-24 -160q-2 -12 -17 -12h-987q-12 0 -12 12v121q0 10 8 21l485 510l-477 520q-8 11 -8 24v129q0 13 12 13h934z" />
    <glyph glyph-name="Tau" unicode="&#x3a4;" horiz-adv-x="1079" 
d="M438 16v1153h-428q-15 0 -12 15l22 153q3 13 19 13h1008q13 0 16 -15l18 -149q3 -17 -14 -17h-428v-1153q0 -16 -14 -16h-168q-19 0 -19 16z" />
    <glyph glyph-name="Upsilon" unicode="&#x3a5;" horiz-adv-x="1075" 
d="M422 551l-447 782q-5 9 -1 13t12 4h198q11 0 17 -9q314 -582 346 -653q40 84 340 651q3 11 16 11h191q11 0 8 -13l-451 -792q-16 -24 -16 -56v-473q0 -16 -14 -16h-168q-19 0 -19 16v480q0 31 -12 55z" />
    <glyph glyph-name="Phi" unicode="&#x3a6;" horiz-adv-x="1449" 
d="M643 1399h162q12 0 12 -10v-121q109 -7 206 -45.5t176.5 -107.5t126 -180t46.5 -251q0 -115 -31 -210.5t-83 -160.5t-124.5 -112.5t-150.5 -72.5t-166 -34v-127q0 -14 -12 -14h-162q-12 0 -12 14v127q-88 8 -167.5 34t-151 73t-123 112.5t-81.5 158t-30 202.5
q0 116 34 213t88.5 163t128 114t149 72.5t153.5 31.5v118q0 13 12 13zM631 258v852q-62 -3 -122 -29.5t-113.5 -76t-86.5 -133.5t-33 -189q0 -101 29.5 -181t80.5 -130t113 -78.5t132 -34.5zM817 1110v-852q70 5 131.5 31.5t113 76.5t82 132t30.5 188q0 87 -21 158
t-56 118.5t-82 80.5t-96.5 49t-101.5 18z" />
    <glyph glyph-name="Chi" unicode="&#x3a7;" horiz-adv-x="1085" 
d="M1069 1333l-399 -639l428 -676q5 -6 2 -12t-10 -6h-201q-21 0 -27 14q-114 182 -336 547h-2q-172 -306 -315 -547q-8 -14 -23 -14h-192q-17 0 -8 18l411 662l-401 655q-4 6 -1 10.5t9 4.5h201q16 0 20 -11q51 -90 158 -269t158 -269h2q5 10 313 536q6 13 23 13h182
q18 0 8 -17z" />
    <glyph glyph-name="Psi" unicode="&#x3a8;" horiz-adv-x="1390" 
d="M598 616v721q0 13 12 13h170q13 0 13 -13v-721q48 3 86.5 12.5t79 33.5t68 61.5t47 101t22.5 148.5q11 312 30 366q7 11 17 11h162q16 0 12 -15q-17 -70 -27 -383q-4 -105 -31.5 -188.5t-72 -140.5t-107 -96.5t-133 -59t-153.5 -25.5v-430q0 -12 -13 -12h-168
q-14 0 -14 16v426q-482 35 -498 508q-9 303 -24 385q-4 15 10 15h162q9 0 18 -9q16 -51 29 -378q2 -81 22 -142.5t48 -98t70 -60t79.5 -33t83.5 -13.5z" />
    <glyph glyph-name="uni03A9" unicode="&#x3a9;" horiz-adv-x="1437" 
d="M604 0h-549q-14 0 -14 14l-12 156q0 14 12 14h334q-258 212 -258 561q0 174 74.5 315.5t216 225.5t325.5 84q138 0 250.5 -49t185 -133.5t111.5 -196t39 -239.5q0 -343 -266 -570h344q14 0 14 -12l-20 -156q0 -14 -13 -14h-544q-17 0 -17 14v138q0 10 12 20
q285 208 285 557q0 208 -101.5 336.5t-291.5 128.5q-129 0 -221.5 -64.5t-136.5 -169t-44 -237.5q0 -180 81.5 -319t205.5 -230q12 -10 12 -20v-138q0 -9 -2 -12.5t-12 -3.5z" />
    <glyph glyph-name="Iotadieresis" unicode="&#x3aa;" horiz-adv-x="520" 
d="M360 1337v-1321q0 -16 -14 -16h-172q-14 0 -14 16v1319q0 15 14 15h172q14 0 14 -13zM55 1479q-49 0 -79.5 28t-30.5 74q0 45 32 75t80 30q50 0 80.5 -30t30.5 -75t-31.5 -73.5t-81.5 -28.5zM461 1479q-48 0 -79.5 28t-31.5 74t32.5 75.5t82.5 29.5q47 0 78.5 -29.5
t31.5 -75.5q0 -47 -31.5 -74.5t-82.5 -27.5z" />
    <glyph glyph-name="Upsilondieresis" unicode="&#x3ab;" horiz-adv-x="1075" 
d="M422 551l-447 782q-5 9 -1 13t12 4h198q11 0 17 -9q314 -582 346 -653q40 84 340 651q3 11 16 11h191q11 0 8 -13l-451 -792q-16 -24 -16 -56v-473q0 -16 -14 -16h-168q-19 0 -19 16v480q0 31 -12 55zM336 1485q-49 0 -79 28t-30 74t32 75.5t81 29.5q50 0 80.5 -30
t30.5 -75q0 -46 -32 -74t-83 -28zM741 1485q-48 0 -78 27.5t-30 74.5q0 45 32 75t80 30t79.5 -29.5t31.5 -75.5q0 -47 -31 -74.5t-84 -27.5z" />
    <glyph glyph-name="alphatonos" unicode="&#x3ac;" horiz-adv-x="1110" 
d="M451 -20q-170 0 -276.5 139t-106.5 366q0 153 50.5 274t147 191t223.5 70q121 0 199.5 -56t108.5 -159q4 46 16.5 107t20.5 83q6 6 12 6h151q16 0 11 -14q-25 -97 -47.5 -273.5t-22.5 -340.5v-56q0 -91 25.5 -126t70.5 -35q15 0 39 4q12 4 12 -10v-138q0 -13 -10 -18
q-43 -14 -106 -14q-85 0 -136 50t-57 148v19q-95 -217 -325 -217zM272 494q0 -158 67 -242t165 -84q54 0 97.5 22t71 58t46 84.5t26 98.5t7.5 104q0 145 -59.5 229t-168.5 84q-121 0 -186.5 -99t-65.5 -255zM449 1167l208 291q10 17 21 17h190q9 0 12.5 -5.5t-1.5 -11.5
l-244 -293q-7 -10 -23 -10h-155q-12 0 -8 12z" />
    <glyph glyph-name="epsilontonos" unicode="&#x3ad;" horiz-adv-x="833" 
d="M264 512q-85 29 -125.5 89t-40.5 140q0 53 23 101t69.5 88.5t126.5 65t183 24.5q170 0 260 -47q8 -4 8 -19v-139q0 -17 -14 -10q-89 47 -240 47q-107 0 -158 -36t-51 -91q0 -56 47.5 -89.5t145.5 -33.5h123q12 0 12 -14v-139q0 -15 -12 -15h-123q-103 1 -157 -35t-54 -98
q0 -69 63 -110t176 -41q145 0 246 45q14 7 14 -9v-133q0 -17 -12 -22q-99 -51 -287 -51q-84 0 -158 18t-133 53t-93.5 93.5t-34.5 134.5q0 87 55 148.5t141 84.5zM319 1153l209 291q6 16 21 16h190q21 0 11 -16l-244 -293q-8 -10 -23 -10h-155q-13 0 -9 12z" />
    <glyph glyph-name="etatonos" unicode="&#x3ae;" horiz-adv-x="1110" 
d="M137 14v748q0 148 -18 225q0 6 0.5 8.5t2.5 4t7 1.5h152q18 0 22 -10q8 -20 16.5 -79t10.5 -99q53 105 140 156t192 51q63 0 115.5 -19.5t97.5 -63.5t70.5 -126.5t25.5 -196.5v-1032q0 -14 -10 -16q-157 -21 -179 -21q-12 0 -12 13v1046q0 111 -42.5 176.5t-135.5 65.5
q-78 0 -137 -49.5t-88 -126.5t-29 -166v-486q0 -11 -2.5 -14.5t-11.5 -3.5h-172q-15 0 -15 14zM422 1167l209 291q7 17 18 17h193q18 0 10 -17l-246 -293q-5 -10 -22 -10h-154q-6 0 -8.5 3.5t0.5 8.5z" />
    <glyph glyph-name="iotatonos" unicode="&#x3af;" horiz-adv-x="512" 
d="M338 991v-753q0 -52 19.5 -72.5t58.5 -20.5q6 0 12 1t13.5 2t13.5 2t8 -1.5t2 -9.5v-125q0 -15 -12 -20q-35 -14 -103 -14q-47 0 -82 10t-66.5 35t-48 75t-16.5 123v764q0 14 15 14h176q10 0 10 -10zM119 1149l209 291q10 14 20 14h191q20 0 10 -16l-244 -291
q-7 -10 -22 -10h-156q-12 0 -8 12z" />
    <glyph glyph-name="upsilondieresistonos" unicode="&#x3b0;" horiz-adv-x="1058" 
d="M705 1001h167q14 0 19 -12q31 -64 54.5 -183.5t23.5 -242.5q0 -122 -23 -222t-73.5 -183.5t-141.5 -130.5t-217 -47q-175 0 -279 95t-104 277v330q0 221 -20 305q-3 14 12 14h170q13 0 18 -12q8 -18 14.5 -77t6.5 -115v-439q0 -76 29.5 -124.5t71 -66t93.5 -17.5
q124 0 182 95t58 314q0 124 -22.5 241.5t-49.5 188.5q-6 12 11 12zM393 1137l123 360q3 8 10 8h154q11 0 8 -10l-153 -360q-4 -11 -15 -11h-121q-10 0 -6 13zM244 1196q-42 0 -67 26t-25 70q0 42 27 69.5t67 27.5q43 0 67.5 -28t24.5 -71q0 -42 -26 -68t-68 -26zM809 1196
q-40 0 -66 26t-26 68q0 45 26.5 72t67.5 27q40 0 66 -27.5t26 -71.5q0 -42 -26 -68t-68 -26z" />
    <glyph glyph-name="alpha" unicode="&#x3b1;" horiz-adv-x="1110" 
d="M451 -20q-170 0 -276.5 139t-106.5 366q0 153 50.5 274t147 191t223.5 70q121 0 199.5 -56t108.5 -159q4 46 16.5 107t20.5 83q6 6 12 6h151q16 0 11 -14q-25 -97 -47.5 -273.5t-22.5 -340.5v-56q0 -91 25.5 -126t70.5 -35q15 0 39 4q12 4 12 -10v-138q0 -13 -10 -18
q-43 -14 -106 -14q-85 0 -136 50t-57 148v19q-95 -217 -325 -217zM272 494q0 -158 67 -242t165 -84q54 0 97.5 22t71 58t46 84.5t26 98.5t7.5 104q0 145 -59.5 229t-168.5 84q-121 0 -186.5 -99t-65.5 -255z" />
    <glyph glyph-name="beta" unicode="&#x3b2;" horiz-adv-x="1103" 
d="M340 1010v-787q86 -76 229 -76q123 0 192.5 72t69.5 193q0 79 -24.5 135t-68 85.5t-93 42.5t-110.5 13h-43q-13 0 -13 14v150q0 12 13 12h47q103 0 165 52t62 167q0 106 -53.5 169t-151.5 63q-110 0 -165.5 -72.5t-55.5 -232.5zM139 -430v1427q0 245 112 366.5t312 121.5
q185 0 289 -104.5t104 -276.5q0 -120 -56 -196.5t-138 -112.5q48 -15 92.5 -43t86.5 -72t67.5 -113t25.5 -153q0 -106 -36.5 -190t-99 -136.5t-142.5 -80t-170 -27.5q-148 0 -246 59v-453q0 -10 -10 -12q-110 -16 -178 -16q-13 0 -13 12z" />
    <glyph glyph-name="gamma" unicode="&#x3b3;" horiz-adv-x="944" 
d="M524 -428q-133 -14 -172 -14q-8 0 -9.5 2.5t-0.5 9.5q3 33 12.5 147.5t15 192.5t5.5 115q3 136 -124.5 440t-277.5 522q-5 6 -3 10t10 4h208q14 0 19 -8q69 -109 154.5 -311t127.5 -373h3q42 141 128 357.5t142 324.5q5 10 14 10h180q16 0 9 -14q-119 -229 -237 -499
t-155 -416q-7 -27 -10 -56q-7 -74 -15 -244.5t-9 -183.5q-1 -3 -1.5 -5.5t-2.5 -4t-3 -2.5t-4 -2t-4 -2z" />
    <glyph glyph-name="delta" unicode="&#x3b4;" horiz-adv-x="1046" 
d="M528 150q115 0 182.5 79t67.5 213q0 107 -52.5 186t-184.5 156q-1 1 -4.5 3.5t-4.5 3.5q-47 -7 -92 -30.5t-84.5 -63t-63.5 -101t-24 -135.5q0 -146 76 -228.5t184 -82.5zM918 1384v-170q0 -6 -3 -8t-8 2q-156 101 -348 101q-110 0 -156.5 -29.5t-46.5 -73.5
q0 -41 49.5 -90t190.5 -133q149 -87 233 -169.5t116 -165.5t32 -193q0 -213 -125.5 -344t-325.5 -131q-211 0 -334.5 133.5t-123.5 347.5q0 155 84 269t225 161q-209 152 -209 317q0 52 22 99t67 88t124.5 65.5t183.5 24.5q112 0 206 -23t142 -61q5 -5 5 -17z" />
    <glyph glyph-name="epsilon" unicode="&#x3b5;" horiz-adv-x="833" 
d="M264 512q-85 29 -125.5 89t-40.5 140q0 53 23 101t69.5 88.5t126.5 65t183 24.5q170 0 260 -47q8 -4 8 -19v-139q0 -17 -14 -10q-89 47 -240 47q-107 0 -158 -36t-51 -91q0 -56 47.5 -89.5t145.5 -33.5h123q12 0 12 -14v-139q0 -15 -12 -15h-123q-103 1 -157 -35t-54 -98
q0 -69 63 -110t176 -41q145 0 246 45q14 7 14 -9v-133q0 -17 -12 -22q-99 -51 -287 -51q-84 0 -158 18t-133 53t-93.5 93.5t-34.5 134.5q0 87 55 148.5t141 84.5z" />
    <glyph glyph-name="zeta" unicode="&#x3b6;" horiz-adv-x="768" 
d="M80 418q0 405 473 868h-180q-151 0 -191 6q-10 3 -10 15l21 151q0 12 12 12q49 -6 213 -6h385q12 0 12 -12v-125q0 -13 -10 -18q-36 -22 -74 -60q-452 -449 -452 -798q0 -133 54.5 -191t188.5 -92q150 -38 216.5 -99t66.5 -190q0 -117 -81 -217t-245 -133q-12 -3 -12 10
v158q0 7 1.5 9t8.5 5q67 23 103 62.5t36 85.5q0 52 -37.5 79.5t-134.5 49.5q-78 18 -131.5 38t-100.5 52t-74 77t-42.5 110t-15.5 153z" />
    <glyph glyph-name="eta" unicode="&#x3b7;" horiz-adv-x="1110" 
d="M137 14v748q0 148 -18 225q0 6 0.5 8.5t2.5 4t7 1.5h152q18 0 22 -10q8 -20 16.5 -79t10.5 -99q53 105 140 156t192 51q63 0 115.5 -19.5t97.5 -63.5t70.5 -126.5t25.5 -196.5v-1032q0 -14 -10 -16q-157 -21 -179 -21q-12 0 -12 13v1046q0 111 -42.5 176.5t-135.5 65.5
q-78 0 -137 -49.5t-88 -126.5t-29 -166v-486q0 -11 -2.5 -14.5t-11.5 -3.5h-172q-15 0 -15 14z" />
    <glyph glyph-name="theta" unicode="&#x3b8;" horiz-adv-x="1087" 
d="M547 -20q-225 0 -348 194.5t-123 564.5q0 220 55.5 387.5t164 263t257.5 95.5q152 0 256 -95.5t152.5 -260.5t48.5 -390q0 -236 -50.5 -404.5t-155 -261.5t-257.5 -93zM276 836h533q-2 136 -28 240t-86.5 171.5t-149.5 67.5q-67 0 -118.5 -39.5t-83 -107.5t-48.5 -152
t-19 -180zM813 657h-534q4 -240 76 -373.5t194 -133.5q68 0 118.5 38t81 108t46.5 159.5t18 201.5z" />
    <glyph glyph-name="iota" unicode="&#x3b9;" horiz-adv-x="512" 
d="M338 991v-753q0 -52 19.5 -72.5t58.5 -20.5q6 0 12 1t13.5 2t13.5 2t8 -1.5t2 -9.5v-125q0 -15 -12 -20q-35 -14 -103 -14q-47 0 -82 10t-66.5 35t-48 75t-16.5 123v764q0 14 15 14h176q10 0 10 -10z" />
    <glyph glyph-name="kappa" unicode="&#x3ba;" horiz-adv-x="978" 
d="M778 1001h189q9 0 11.5 -5.5t-3.5 -12.5q-85 -92 -436 -434v-8q332 -369 479 -525q5 -4 2 -10t-10 -6h-230q-13 0 -22 12q-39 42 -420 473v-469q0 -9 -2.5 -12.5t-11.5 -3.5h-170q-10 0 -13.5 3.5t-3.5 12.5v971q0 14 17 14h170q14 0 14 -14v-436q149 159 418 438
q7 12 22 12z" />
    <glyph glyph-name="lambda" unicode="&#x3bb;" horiz-adv-x="985" 
d="M750 12l-265 764h-4q-16 -73 -101 -323t-157 -441q-3 -12 -14 -12h-182q-14 0 -11 16l363 949q10 23 4 45l-23 61q-48 124 -114 175.5t-164 51.5q-29 0 -57 -4q-11 0 -11 9v159q0 12 11 15q36 8 77 8q73 0 130 -16.5t117.5 -60.5t115 -130t104.5 -215q278 -726 398 -1049
q5 -14 -13 -14h-190q-9 0 -14 12z" />
    <glyph glyph-name="uni03BC" unicode="&#x3bc;" horiz-adv-x="1130" 
d="M977 -20q-36 0 -64 6t-56.5 23t-47.5 53t-25 90q0 3 -1 20.5t-1 20.5q-42 -109 -118 -161t-172 -52q-111 0 -166 69q10 -127 6 -459q0 -13 -13 -16q-131 -16 -167 -16q-15 0 -15 16v1413q0 14 17 14h172q12 0 12 -14v-647q0 -87 43 -136.5t121 -49.5q113 0 183.5 99
t70.5 290v446q0 12 12 12h178q10 0 10 -12v-729q0 -65 19 -90t59 -25q9 0 22.5 2t18.5 3q4 1 6 -2t2 -9v-125q0 -15 -10 -20q-40 -14 -96 -14z" />
    <glyph glyph-name="nu" unicode="&#x3bd;" horiz-adv-x="929" 
d="M-4 1001h201q12 0 20 -10q57 -97 134 -342t112 -442h4q89 142 150 310.5t61 332.5q0 85 -8 137q-3 14 12 14h158q12 0 14 -12q14 -47 14 -129q0 -202 -99 -432.5t-243 -413.5q-10 -14 -24 -14h-148q-18 0 -20 14q-44 222 -147.5 522.5t-200.5 450.5q-6 14 10 14z" />
    <glyph glyph-name="xi" unicode="&#x3be;" horiz-adv-x="847" 
d="M580 1485q149 0 229 -37q8 -5 8 -16v-152q0 -16 -12 -10q-74 43 -215 43q-128 0 -192 -66t-64 -162q0 -110 73.5 -165.5t200.5 -55.5h117q10 0 13 -2.5t3 -11.5v-148q0 -16 -16 -16l-119 -2q-157 0 -239 -71t-82 -181q0 -117 65.5 -176t233.5 -94q162 -36 223 -106
t61 -183q0 -119 -78.5 -210t-244.5 -126q-15 0 -15 12v142q0 14 11 16q141 48 141 141q-2 45 -34.5 77t-129.5 50q-235 46 -337.5 143t-102.5 283q0 135 76.5 232.5t201.5 142.5q-106 42 -163.5 124.5t-57.5 203.5q0 76 29 144.5t83.5 121.5t140.5 84t192 31z" />
    <glyph glyph-name="omicron" unicode="&#x3bf;" horiz-adv-x="1093" 
d="M551 1020q146 0 254.5 -69t163.5 -185t55 -262q0 -234 -132 -379t-343 -145q-120 0 -215 45t-151.5 120.5t-85.5 166t-29 188.5q0 145 58.5 262.5t169.5 187.5t255 70zM541 850q-120 0 -195.5 -94.5t-75.5 -251.5q0 -155 76.5 -254.5t206.5 -99.5q112 0 190 90t78 258
q0 71 -16 133t-49 112t-88 78.5t-127 28.5z" />
    <glyph glyph-name="pi" unicode="&#x3c0;" horiz-adv-x="1071" 
d="M319 0h-163q-13 0 -11 12q38 119 41 287v530h-182q-13 0 -10 15l22 139q2 10 11 10q50 8 166 8h858q7 0 9.5 -2.5t2.5 -9.5l-16 -145q-3 -15 -13 -15h-155v-520q0 -184 41 -293q4 -8 0.5 -12t-11.5 -4h-170q-15 0 -20 12q-43 82 -43 299v518h-297v-530q0 -172 -41 -289
q-5 -10 -19 -10z" />
    <glyph glyph-name="rho" unicode="&#x3c1;" horiz-adv-x="1091" 
d="M578 1020q108 0 195 -42t140.5 -113.5t82 -161.5t28.5 -191q0 -240 -135 -386t-344 -146q-128 0 -205 57v-447q0 -13 -14 -16q-21 -2 -62.5 -6t-72.5 -7t-35 -3q-6 0 -9 0.5t-5.5 3.5t-2.5 10v999q0 202 116 325.5t323 123.5zM561 852q-99 0 -160 -65.5t-61 -198.5v-361
q74 -77 199 -77q120 0 200 92t80 266q0 156 -67.5 250t-190.5 94z" />
    <glyph glyph-name="uni03C2" unicode="&#x3c2;" horiz-adv-x="817" 
d="M68 492q0 144 59.5 263t176.5 192t271 73q133 0 199 -29q10 -8 10 -20v-150q0 -18 -14 -12q-73 37 -190 37q-142 0 -227 -92t-85 -246q0 -157 60 -233.5t217 -114.5q141 -34 199.5 -100.5t58.5 -174.5q0 -54 -15.5 -103t-49 -95t-94 -79.5t-142.5 -47.5q-15 -3 -15 10
v143q0 15 11 19q116 37 116 131q0 45 -33 73t-118 48q-213 45 -304 168t-91 340z" />
    <glyph glyph-name="sigma" unicode="&#x3c3;" horiz-adv-x="1085" 
d="M68 494q0 236 129.5 371.5t355.5 135.5h555q13 0 10 -12l-14 -155q-3 -11 -14 -11q-199 0 -256 6q65 -49 103 -144t38 -202q0 -126 -36.5 -224.5t-99.5 -158t-141.5 -90t-167.5 -30.5q-205 0 -333.5 140t-128.5 374zM528 844q-123 0 -190.5 -96t-67.5 -250
q0 -152 71 -249t187 -97t183 91.5t67 254.5q0 165 -64.5 255.5t-185.5 90.5z" />
    <glyph glyph-name="tau" unicode="&#x3c4;" horiz-adv-x="825" 
d="M295 223v606h-293q-10 0 -10 15l16 143q3 8 12 10q46 4 140 4h663q11 0 11 -10l-15 -149q0 -13 -12 -13h-311v-589q0 -95 90 -95q33 0 59 9q4 1 7 -2t3 -9v-123q0 -13 -10 -18q-48 -22 -127 -22q-223 0 -223 243z" />
    <glyph glyph-name="upsilon" unicode="&#x3c5;" horiz-adv-x="1058" 
d="M705 1001h167q14 0 19 -12q31 -64 54.5 -183.5t23.5 -242.5q0 -122 -23 -222t-73.5 -183.5t-141.5 -130.5t-217 -47q-175 0 -279 95t-104 277v330q0 221 -20 305q-3 14 12 14h170q13 0 18 -12q8 -18 14.5 -77t6.5 -115v-439q0 -76 29.5 -124.5t71 -66t93.5 -17.5
q124 0 182 95t58 314q0 124 -22.5 241.5t-49.5 188.5q-6 12 11 12z" />
    <glyph glyph-name="phi" unicode="&#x3c6;" horiz-adv-x="1382" 
d="M608 1335h170q13 0 13 -18v-301q241 -21 382.5 -153.5t141.5 -366.5q0 -121 -40.5 -216.5t-113 -157t-165.5 -97t-205 -45.5v-392q0 -13 -15 -16q-18 -3 -90 -8.5t-80 -5.5q-12 0 -12 16v406q-237 19 -381.5 151.5t-144.5 357.5q0 116 40.5 212t112 161t166.5 104.5
t207 49.5v303q0 10 3 13t11 3zM594 143v715q-151 -13 -236.5 -113t-85.5 -251t90 -245.5t232 -105.5zM791 858v-715q142 9 231.5 101t89.5 254q0 153 -84.5 250.5t-236.5 109.5z" />
    <glyph glyph-name="chi" unicode="&#x3c7;" horiz-adv-x="886" 
d="M6 1001h197q11 0 16 -10q62 -143 234 -528h2q16 37 52.5 116t91.5 198.5t97 211.5q3 12 19 12h170q16 0 8 -16l-336 -659l342 -717q10 -17 -6 -23q-166 -39 -174 -39q-12 0 -17 13q-264 591 -268 600h-4q-3 -7 -268 -602q-3 -9 -12 -9q-6 0 -67 14t-93 23q-9 5 -6 17
l346 716l-330 668q-4 6 -2 10t8 4z" />
    <glyph glyph-name="psi" unicode="&#x3c8;" horiz-adv-x="1417" 
d="M616 -426v406q-226 22 -341.5 142t-133.5 372q-22 325 -55 493q-6 14 12 14h168q12 0 17 -10q25 -65 55 -487q7 -95 30.5 -161.5t61.5 -104.5t83 -56t105 -24v1077q0 8 2.5 10t10.5 2h172q5 0 7 -0.5t3.5 -3t1.5 -8.5v-1077q131 8 201.5 86.5t83.5 261.5q29 434 47 483
q5 12 16 12h158q15 0 12 -16q-15 -69 -45 -491q-9 -133 -45.5 -228.5t-100 -154.5t-142.5 -89.5t-185 -41.5v-392q0 -12 -12 -14q-29 -4 -95.5 -9t-78.5 -5q-13 0 -13 14z" />
    <glyph glyph-name="omega" unicode="&#x3c9;" horiz-adv-x="1419" 
d="M809 715l-2 -348q0 -92 39 -146.5t112 -54.5q80 0 133.5 84t53.5 266q0 269 -141 471q-5 5 -3 9.5t9 4.5h174q12 0 20 -8q59 -75 100.5 -205.5t41.5 -277.5q0 -257 -107.5 -393.5t-271.5 -136.5q-87 0 -158.5 47t-108.5 127q-37 -77 -108 -125.5t-160 -48.5
q-70 0 -132.5 28.5t-114.5 86.5t-82.5 159t-30.5 233q0 148 44.5 281.5t108.5 222.5q6 10 23 10h162q7 0 9 -5t-3 -11q-62 -97 -104 -224.5t-42 -260.5q0 -91 16 -158.5t44 -104.5t60 -54t69 -17q69 0 110 57.5t39 141.5l-2 350q0 12 15 12h176q12 0 12 -12z" />
    <glyph glyph-name="iotadieresis" unicode="&#x3ca;" horiz-adv-x="512" 
d="M338 991v-753q0 -52 19.5 -72.5t58.5 -20.5q6 0 12 1t13.5 2t13.5 2t8 -1.5t2 -9.5v-125q0 -15 -12 -20q-35 -14 -103 -14q-47 0 -82 10t-66.5 35t-48 75t-16.5 123v764q0 14 15 14h176q10 0 10 -10zM68 1188q-47 0 -76 28.5t-29 77.5t31 79t78 30q43 0 71.5 -31
t28.5 -80q0 -48 -29 -76t-75 -28zM451 1188q-45 0 -74 28.5t-29 77.5q0 48 30.5 78.5t74.5 30.5q46 0 74 -30.5t28 -80.5q0 -46 -29 -75t-75 -29z" />
    <glyph glyph-name="upsilondieresis" unicode="&#x3cb;" horiz-adv-x="1058" 
d="M705 1001h167q14 0 19 -12q31 -64 54.5 -183.5t23.5 -242.5q0 -122 -23 -222t-73.5 -183.5t-141.5 -130.5t-217 -47q-175 0 -279 95t-104 277v330q0 221 -20 305q-3 14 12 14h170q13 0 18 -12q8 -18 14.5 -77t6.5 -115v-439q0 -76 29.5 -124.5t71 -66t93.5 -17.5
q124 0 182 95t58 314q0 124 -22.5 241.5t-49.5 188.5q-6 12 11 12zM328 1188q-47 0 -76 28.5t-29 77.5t31 79t78 30q44 0 72 -31t28 -80q0 -48 -29 -76t-75 -28zM711 1188q-44 0 -73.5 29t-29.5 77t31 78.5t76 30.5q46 0 74 -30.5t28 -80.5q0 -46 -30 -75t-76 -29z" />
    <glyph glyph-name="omicrontonos" unicode="&#x3cc;" horiz-adv-x="1093" 
d="M551 1020q146 0 254.5 -69t163.5 -185t55 -262q0 -234 -132 -379t-343 -145q-120 0 -215 45t-151.5 120.5t-85.5 166t-29 188.5q0 145 58.5 262.5t169.5 187.5t255 70zM541 850q-120 0 -195.5 -94.5t-75.5 -251.5q0 -155 76.5 -254.5t206.5 -99.5q112 0 190 90t78 258
q0 71 -16 133t-49 112t-88 78.5t-127 28.5zM406 1167l208 291q8 15 19 15h192q18 0 11 -17l-246 -291q-5 -10 -23 -10h-155q-6 0 -7.5 3.5t1.5 8.5z" />
    <glyph glyph-name="upsilontonos" unicode="&#x3cd;" horiz-adv-x="1058" 
d="M705 1001h167q14 0 19 -12q31 -64 54.5 -183.5t23.5 -242.5q0 -122 -23 -222t-73.5 -183.5t-141.5 -130.5t-217 -47q-175 0 -279 95t-104 277v330q0 221 -20 305q-3 14 12 14h170q13 0 18 -12q8 -18 14.5 -77t6.5 -115v-439q0 -76 29.5 -124.5t71 -66t93.5 -17.5
q124 0 182 95t58 314q0 124 -22.5 241.5t-49.5 188.5q-6 12 11 12zM403 1145l211 289q6 16 19 16h192q19 0 9 -16l-244 -291q-8 -13 -23 -13h-155q-13 0 -9 15z" />
    <glyph glyph-name="omegatonos" unicode="&#x3ce;" horiz-adv-x="1419" 
d="M809 715l-2 -348q0 -92 39 -146.5t112 -54.5q80 0 133.5 84t53.5 266q0 269 -141 471q-5 5 -3 9.5t9 4.5h174q12 0 20 -8q59 -75 100.5 -205.5t41.5 -277.5q0 -257 -107.5 -393.5t-271.5 -136.5q-87 0 -158.5 47t-108.5 127q-37 -77 -108 -125.5t-160 -48.5
q-70 0 -132.5 28.5t-114.5 86.5t-82.5 159t-30.5 233q0 148 44.5 281.5t108.5 222.5q6 10 23 10h162q7 0 9 -5t-3 -11q-62 -97 -104 -224.5t-42 -260.5q0 -91 16 -158.5t44 -104.5t60 -54t69 -17q69 0 110 57.5t39 141.5l-2 350q0 12 15 12h176q12 0 12 -12zM575 1126
l209 289q7 17 19 17h192q18 0 11 -17l-246 -291q-5 -12 -21 -12h-155q-6 0 -9 4t0 10z" />
    <glyph glyph-name="uni03D1" unicode="&#x3d1;" horiz-adv-x="1044" 
d="M641 776q88 0 137 12v5q0 243 -70 382.5t-210 139.5q-107 0 -163 -67t-56 -171q0 -133 96.5 -217t265.5 -84zM66 524h178q13 0 16 -8q16 -28 59 -154q34 -113 75 -162.5t112 -49.5q212 0 260 466q-63 -16 -148 -16q-240 0 -386 124.5t-146 344.5q0 112 48 205.5t145 152
t225 58.5q215 0 343 -172t128 -518q0 -162 -27.5 -304t-83 -258.5t-151 -184.5t-221.5 -68q-78 0 -136 21.5t-99.5 66t-70 101.5t-53.5 140q-30 107 -74 203q-8 12 7 12z" />
    <glyph glyph-name="uni03D7" unicode="&#x3d7;" horiz-adv-x="1107" 
d="M637 545q175 -41 282 -155t107 -296q0 -231 -161.5 -367.5t-436.5 -136.5q-229 0 -385 80q-10 7 -10 21v166q0 7 5.5 9t10.5 -1q151 -94 369 -94q195 0 295 88t100 231q0 67 -23.5 122t-64.5 91.5t-98.5 61.5t-122.5 36.5t-139 12.5v-398q0 -16 -15 -16h-172
q-16 0 -16 16v758q0 134 -21 213q0 14 15 14h172q14 0 16 -14q21 -65 21 -217v-188q15 0 110 -7l289 418q4 8 16 8h199q16 0 6 -16z" />
    <glyph glyph-name="uni0400" unicode="&#x400;" horiz-adv-x="1058" 
d="M1010 168l-25 -154q-2 -14 -16 -14h-793q-10 0 -13 3.5t-3 12.5v1319q0 15 14 15h764q9 0 11.5 -2.5t4.5 -10.5l19 -153q4 -15 -12 -15h-601v-389h545q13 0 13 -12v-156q0 -14 -15 -14h-543v-416h637q16 0 13 -14zM440 1710l242 -223q8 -14 -8 -14h-170q-14 0 -27 8
l-278 223q-4 6 -2 10t10 4h209q16 0 24 -8z" />
    <glyph glyph-name="uni0401" unicode="&#x401;" horiz-adv-x="1058" 
d="M1010 168l-25 -154q-2 -14 -16 -14h-793q-10 0 -13 3.5t-3 12.5v1319q0 15 14 15h764q9 0 11.5 -2.5t4.5 -10.5l19 -153q4 -15 -12 -15h-601v-389h545q13 0 13 -12v-156q0 -14 -15 -14h-543v-416h637q16 0 13 -14zM344 1489q-50 0 -80.5 28t-30.5 74t33 76.5t82 30.5
q50 0 80.5 -31t30.5 -76q0 -46 -32 -74t-83 -28zM750 1489q-48 0 -78.5 28.5t-30.5 73.5q0 46 33 76.5t80 30.5t78.5 -30.5t31.5 -76.5q0 -47 -30.5 -74.5t-83.5 -27.5z" />
    <glyph glyph-name="uni0402" unicode="&#x402;" horiz-adv-x="1337" 
d="M573 623v-609q0 -9 -3.5 -11.5t-12.5 -2.5h-172q-14 0 -14 16v1153h-363q-13 0 -10 13l22 157q3 11 17 11h1044q13 0 15 -11l18 -157q0 -13 -12 -13h-529v-378q105 18 222 18q214 0 339.5 -105.5t125.5 -297.5q0 -90 -28 -164t-71 -120.5t-99 -79.5t-108.5 -47
t-101.5 -15q-14 0 -14 10v151q0 10 10 13q27 5 51 13t54.5 26t52 43t36.5 66.5t15 94.5q0 118 -78.5 180t-222.5 62q-115 0 -183 -16z" />
    <glyph glyph-name="uni0403" unicode="&#x403;" horiz-adv-x="960" 
d="M160 1337q0 13 10 13h760q12 0 14 -11l19 -157q3 -13 -13 -13h-590v-1155q0 -14 -12 -14h-176q-12 0 -12 14v1323zM412 1491l252 227q6 8 20 8h211q6 0 7.5 -5t-3.5 -9l-276 -223q-12 -12 -25 -12h-178q-7 0 -9 4.5t1 9.5z" />
    <glyph glyph-name="uni0404" unicode="&#x404;" horiz-adv-x="1128" 
d="M1063 193v-148q0 -16 -12 -25q-90 -40 -297 -40q-107 0 -203.5 23.5t-184 77t-150.5 132.5t-100.5 197.5t-37.5 265.5q0 314 188 504t510 190q207 0 287 -39q12 -6 12 -20v-160q0 -19 -14 -10q-89 51 -279 51q-207 0 -334 -103.5t-155 -297.5h586q12 0 12 -13v-153
q0 -17 -12 -17h-590q9 -103 44 -183.5t84 -129t113 -79.5t125 -42.5t127 -11.5q169 0 267 39q14 3 14 -8z" />
    <glyph glyph-name="uni0405" unicode="&#x405;" horiz-adv-x="993" 
d="M438 -20q-219 0 -350 75q-12 7 -12 27v174q0 6 4 8t10 -2q154 -102 356 -102q135 0 202 50.5t67 137.5q0 70 -50.5 123.5t-177.5 108.5l-94 38q-121 52 -192.5 115.5t-96 125t-24.5 138.5q0 167 120.5 270t334.5 103q210 0 305 -53q12 -7 12 -23v-161q0 -7 -4 -10t-12 1
q-115 68 -306 68q-71 0 -123.5 -16t-80 -42.5t-40 -56t-12.5 -61.5q0 -66 49.5 -116.5t176.5 -106.5l84 -35q184 -76 259 -171t75 -220q0 -175 -128 -281t-352 -106z" />
    <glyph glyph-name="uni0406" unicode="&#x406;" horiz-adv-x="520" 
d="M360 1337v-1321q0 -16 -14 -16h-172q-14 0 -14 16v1319q0 15 14 15h172q14 0 14 -13z" />
    <glyph glyph-name="uni0407" unicode="&#x407;" horiz-adv-x="520" 
d="M360 1337v-1321q0 -16 -14 -16h-172q-14 0 -14 16v1319q0 15 14 15h172q14 0 14 -13zM55 1479q-49 0 -79.5 28t-30.5 74q0 45 32 75t80 30q50 0 80.5 -30t30.5 -75t-31.5 -73.5t-81.5 -28.5zM461 1479q-48 0 -79.5 28t-31.5 74t32.5 75.5t82.5 29.5q47 0 78.5 -29.5
t31.5 -75.5q0 -47 -31.5 -74.5t-82.5 -27.5z" />
    <glyph glyph-name="uni0408" unicode="&#x408;" horiz-adv-x="618" 
d="M268 348v989q0 13 15 13h174q12 0 12 -13v-968q0 -127 -14 -187q-34 -151 -135 -221t-248 -70q-49 0 -84 9q-13 2 -13 20v150q0 15 15 12q58 -4 63 -4q107 0 161 61t54 209z" />
    <glyph glyph-name="uni0409" unicode="&#x409;" horiz-adv-x="1853" 
d="M1090 801h200q244 0 367 -105.5t123 -285.5q0 -199 -138 -304.5t-378 -105.5h-359q-13 0 -10 14v1155h-285q-43 -422 -106.5 -656.5t-171.5 -367.5q-132 -162 -332 -159q-12 0 -12 16v172q0 12 14 12q112 4 184 90q102 119 159 374.5t93 688.5q0 11 13 11h626
q13 0 13 -11v-538zM1090 631v-461h182q145 0 223 58t78 173q0 114 -76 173t-217 57h-190z" />
    <glyph glyph-name="uni040A" unicode="&#x40a;" horiz-adv-x="1894" 
d="M1130 1337v-512q80 2 193 2q245 0 370.5 -110.5t125.5 -300.5q0 -200 -143 -310t-382 -110q-204 0 -348 4q-12 0 -12 12v641h-574v-639q0 -14 -14 -14h-174q-12 0 -12 14v1323q0 13 10 13h176q14 0 14 -11v-516h574v514q0 13 12 13h174q10 0 10 -13zM1130 651v-479
q43 -6 170 -6q147 0 230.5 61t83.5 183t-79.5 184t-223.5 59q-128 0 -181 -2z" />
    </font>
</defs>
</svg>
