<?xml version="1.0" standalone="no"?>
<!DOCTYPE svg PUBLIC "-//W3C//DTD SVG 1.1//EN" "http://www.w3.org/Graphics/SVG/1.1/DTD/svg11.dtd" >
<svg xmlns="http://www.w3.org/2000/svg" xmlns:xlink="http://www.w3.org/1999/xlink" version="1.1">
<metadata>
Created by FontForge 20170731 at Thu Jul  1 05:54:20 2021
 By Aleksey,,,
(c) 2008 Adobe Systems Incorporated. All Rights Reserved.
</metadata>
<defs>
<font id="AdobeClean-Light" horiz-adv-x="798" >
  <font-face 
    font-family="Adobe Clean Light"
    font-weight="300"
    font-stretch="normal"
    units-per-em="2048"
    panose-1="2 11 3 3 2 4 4 2 2 4"
    ascent="1495"
    descent="-553"
    x-height="981"
    cap-height="1362"
    bbox="-318.562 -512 2224 1978"
    underline-thickness="102"
    underline-position="-307"
    unicode-range="U+0020-FB04"
  />
<missing-glyph horiz-adv-x="1024" 
d="M0 0v1434h1024v-1434h-1024zM164 102h696l-348 523zM571 717l351 -522v1044zM102 1239v-1044l349 522zM164 1331l348 -522l348 522h-696z" />
    <glyph glyph-name="f_f" unicode="ff" horiz-adv-x="937" 
d="M25 899v74q0 8 8 8h139v115q0 181 49 272q68 131 225 131q57 0 84 -12q7 -2 7 -12v-72q0 -11 -11 -8q-32 14 -75 14q-42 0 -72 -12t-56 -44t-39.5 -94t-13.5 -155v-123h375v141q1 107 23.5 183.5t62.5 117t86 58.5t103 18q67 0 96 -16q6 -4 6 -13v-69q0 -6 -3 -9.5
t-7 -0.5q-38 18 -88 18q-28 0 -50 -4.5t-48 -22t-43 -47.5t-28.5 -86t-11.5 -133v-135h209q11 0 11 -8v-70q0 -8 -11 -12h-209v-881q0 -10 -10 -10h-78q-10 0 -10 10v881h-375v-881q0 -10 -8 -10h-80q-10 0 -10 10v881h-141q-6 0 -6 8z" />
    <glyph glyph-name="f_f_i" unicode="ffi" horiz-adv-x="1376" 
d="M270 981h373v141q1 107 24 183.5t63 117t86 58.5t102 18q70 0 96 -16q8 -5 8 -13v-69q0 -16 -12 -10q-38 18 -88 18q-28 0 -49.5 -4.5t-47.5 -22t-43 -47.5t-29 -86t-12 -133v-135h211q9 0 9 -8v-70q0 -9 -9 -12h-211v-881q0 -10 -10 -10h-78q-10 0 -10 10v881h-373v-881
q0 -10 -8 -10h-80q-10 0 -10 10v881h-141q-6 0 -6 8v74q0 8 8 8h139v115q0 181 49 272q68 131 225 131q57 0 84 -12q7 -2 7 -12v-72q0 -11 -11 -8q-32 14 -75 14q-42 0 -72 -12t-56 -44t-39.5 -94t-13.5 -155v-123zM1118 12v957q0 12 8 12h78q13 0 13 -10v-961
q0 -10 -13 -10h-74q-8 0 -10 2t-2 10zM1165 1235q-30 0 -47.5 19t-17.5 49q0 31 18.5 51t48.5 20q31 0 48.5 -19.5t17.5 -51.5q0 -29 -18.5 -48.5t-49.5 -19.5z" />
    <glyph glyph-name="f_f_l" unicode="ffl" horiz-adv-x="1406" 
d="M270 981h373v141q1 107 24 183.5t63 117t86 58.5t102 18q70 0 96 -16q8 -4 8 -13v-69q0 -16 -12 -10q-38 18 -88 18q-28 0 -49.5 -4.5t-47.5 -22t-43 -47.5t-29 -86t-12 -133v-135h211q11 0 11 -8v-70q0 -8 -11 -12h-211v-881q0 -10 -8 -10h-80q-8 0 -8 10v881h-375v-881
q0 -10 -8 -10h-80q-10 0 -10 10v881h-141q-6 0 -6 8v74q0 8 8 8h139v115q0 181 49 272q68 131 225 131q57 0 84 -12q7 -2 7 -12v-72q0 -11 -11 -8q-32 14 -75 14q-42 0 -72 -12t-56 -44t-39.5 -94t-13.5 -155v-123zM1118 172v1298q0 9 10 9h78q8 0 8 -9v-1292
q0 -65 23 -87.5t66 -22.5q18 0 45 6q4 1 5 -0.5t1 -7.5v-62q0 -10 -6 -12q-24 -12 -74 -12q-32 0 -55.5 6.5t-48.5 25t-38.5 59t-13.5 101.5z" />
    <glyph glyph-name="T_h" unicode="Th" horiz-adv-x="2058" 
d="M475 12v1258h-457q-11 0 -8 12l15 72q3 10 14 10h995q12 0 15 -10v-72q3 -12 -9 -12h-469v-1258q0 -12 -10 -12h-76q-10 0 -10 12zM1247 760v-750q0 -10 -10 -10h-76q-10 0 -10 12v1456q0 11 8 11h80q8 0 8 -9l2 -610q133 139 326 139q45 0 86 -8.5t86.5 -34t78 -66
t54 -111.5t21.5 -163v-604q0 -12 -13 -12h-76q-10 0 -10 12v594q0 138 -62 220.5t-184 82.5q-91 0 -171.5 -38.5t-137.5 -110.5z" />
    <glyph glyph-name="Tcaron_h" unicode="&#x164;h" horiz-adv-x="2058" 
d="M475 12v1258h-457q-11 0 -8 12l15 72q3 10 14 10h995q12 0 15 -10v-72q3 -12 -9 -12h-469v-1258q0 -12 -10 -12h-76q-10 0 -10 12zM1247 760v-750q0 -10 -10 -10h-76q-10 0 -10 12v1456q0 11 8 11h80q8 0 8 -9l2 -610q133 139 326 139q45 0 86 -8.5t86.5 -34t78 -66
t54 -111.5t21.5 -163v-604q0 -12 -13 -12h-76q-10 0 -10 12v594q0 138 -62 220.5t-184 82.5q-91 0 -171.5 -38.5t-137.5 -110.5zM305 1716l174 -174l166 172q4 8 14 8h82q10 0 4 -12l-208 -219q-6 -4 -13 -4h-94q-12 0 -18 6l-217 223q-9 6 4 6h88q12 0 18 -6z" />
    <glyph glyph-name="uni021A_h" unicode="&#x21a;h" horiz-adv-x="2058" 
d="M475 12v1258h-457q-11 0 -8 12l15 72q3 10 14 10h995q12 0 15 -10v-72q3 -12 -9 -12h-469v-1258q0 -12 -10 -12h-76q-10 0 -10 12zM1247 760v-750q0 -10 -10 -10h-76q-10 0 -10 12v1456q0 11 8 11h80q8 0 8 -9l2 -610q133 139 326 139q45 0 86 -8.5t86.5 -34t78 -66
t54 -111.5t21.5 -163v-604q0 -12 -13 -12h-76q-10 0 -10 12v594q0 138 -62 220.5t-184 82.5q-91 0 -171.5 -38.5t-137.5 -110.5zM459 -461h-74q-3 0 -5 2.5t1 7.5q43 76 60.5 130.5t17.5 117.5q0 49 -25 113q-2 3 0 6.5t6 3.5h78q7 0 12 -8q9 -15 16 -46.5t7 -55.5
q0 -81 -20.5 -140.5t-63.5 -126.5q-4 -4 -10 -4z" />
    <glyph glyph-name="f_b" unicode="fb" horiz-adv-x="1523" 
d="M172 891h-139q-8 3 -8 12v68q0 10 8 10h139v115q0 181 49 272q68 131 225 131q57 0 84 -12q7 -2 7 -12v-72q0 -11 -11 -8q-32 14 -75 14q-42 0 -72 -12t-56 -44t-39.5 -94t-13.5 -155v-123h209q10 0 10 -8v-70q0 -9 -10 -12h-209v-881q0 -10 -10 -10h-78q-10 0 -10 10
v881zM655 1479h78q10 0 10 -9v-522q114 51 252 51q203 0 328 -131.5t125 -341.5q0 -104 -30 -193.5t-81.5 -153.5t-120 -109.5t-147 -67.5t-160.5 -22q-141 0 -254 38q-10 2 -10 17v1435q0 9 10 9zM1348 520q2 172 -96.5 281.5t-268.5 109.5q-136 0 -240 -49v-772
q77 -22 172 -22q85 0 162 29t138 84t97 143t36 196z" />
    <glyph glyph-name="f_h" unicode="fh" horiz-adv-x="1552" 
d="M172 891h-139q-8 3 -8 12v68q0 10 8 10h139v115q0 181 49 272q68 131 225 131q57 0 84 -12q7 -2 7 -12v-72q0 -11 -11 -8q-32 14 -75 14q-42 0 -72 -12t-56 -44t-39.5 -94t-13.5 -155v-123h209q10 0 10 -8v-70q0 -9 -10 -12h-209v-881q0 -10 -10 -10h-78q-10 0 -10 10
v881zM741 760v-750q0 -10 -10 -10h-76q-12 0 -12 12v1456q0 11 10 11h78q10 0 10 -9l2 -610q133 139 326 139q45 0 86 -8.5t86 -34t77.5 -66t53.5 -111.5t21 -163v-604q0 -12 -13 -12h-73q-13 0 -13 12v594q0 138 -61 220.5t-182 82.5q-93 0 -174 -38.5t-136 -110.5z" />
    <glyph glyph-name="f_i" unicode="fi" horiz-adv-x="901" 
d="M645 12v957q0 12 10 12h78q10 0 10 -10v-961q0 -10 -12 -10h-74q-7 0 -9.5 2t-2.5 10zM694 1237q-30 0 -47.5 18.5t-17.5 47.5t18 48t47 19q30 0 47 -19t17 -48q0 -27 -18 -46.5t-46 -19.5zM172 891h-139q-8 3 -8 12v68q0 10 8 10h139v115q0 181 49 272q68 131 225 131
q57 0 84 -12q7 -2 7 -12v-72q0 -11 -11 -8q-32 14 -75 14q-42 0 -72 -12t-56 -44t-39.5 -94t-13.5 -155v-123h209q10 0 10 -8v-70q0 -9 -10 -12h-209v-881q0 -10 -10 -10h-78q-10 0 -10 10v881z" />
    <glyph glyph-name="f_j" unicode="fj" horiz-adv-x="892" 
d="M172 891h-139q-8 3 -8 12v68q0 10 8 10h139v115q0 181 49 272q68 131 225 131q57 0 84 -12q7 -2 7 -12v-72q0 -11 -11 -8q-32 14 -75 14q-42 0 -72 -12t-56 -44t-39.5 -94t-13.5 -155v-123h209q10 0 10 -8v-70q0 -9 -10 -12h-209v-881q0 -10 -10 -10h-78q-10 0 -10 10
v881zM655 981h78q10 0 10 -10v-1043q0 -148 -26.5 -223.5t-73.5 -126.5q-36 -38 -91.5 -55t-102.5 -17q-13 0 -21 2t-8 13v65q0 13 10 13q37 1 63.5 6.5t57.5 24.5t49.5 51.5t31.5 91t13 139.5v1059q0 10 10 10zM694 1235q-31 0 -49 19t-18 49q0 31 18.5 51t48.5 20
q31 0 48.5 -19.5t17.5 -51.5q0 -29 -18 -48.5t-48 -19.5z" />
    <glyph glyph-name="f_k" unicode="fk" horiz-adv-x="1374" 
d="M172 891h-139q-8 3 -8 12v68q0 10 8 10h139v115q0 181 49 272q68 131 225 131q57 0 84 -12q7 -2 7 -12v-72q0 -11 -11 -8q-32 14 -75 14q-42 0 -72 -12t-56 -44t-39.5 -94t-13.5 -155v-123h209q10 0 10 -8v-70q0 -9 -10 -12h-209v-881q0 -10 -10 -10h-78q-10 0 -10 10
v881zM758 500q-10 12 0 24q52 47 257.5 242.5t217.5 206.5q5 8 16 8h97q7 0 8.5 -4.5t-2.5 -7.5q-32 -32 -243 -225t-237 -218q-2 -2 0 -6q183 -177 547 -508q3 -4 1.5 -8t-7.5 -4h-110q-11 0 -19 8q-77 72 -295.5 276.5t-230.5 215.5zM743 1470v-1460q0 -10 -10 -10h-78
q-10 0 -10 10v1460q0 9 10 9h78q10 0 10 -9z" />
    <glyph glyph-name="f_l" unicode="fl" horiz-adv-x="935" 
d="M172 891h-139q-8 3 -8 12v68q0 10 8 10h139v115q0 181 49 272q68 131 225 131q57 0 84 -12q7 -2 7 -12v-72q0 -11 -11 -8q-32 14 -75 14q-42 0 -72 -12t-56 -44t-39.5 -94t-13.5 -155v-123h209q10 0 10 -8v-70q0 -9 -10 -12h-209v-881q0 -10 -10 -10h-78q-10 0 -10 10
v881zM645 172v1298q0 9 12 9h76q10 0 10 -9v-1292q0 -65 23 -87.5t65 -22.5q16 0 46 6q4 1 5 -0.5t1 -7.5v-62q0 -10 -9 -12q-21 -12 -71 -12q-32 0 -56.5 6.5t-49.5 25t-38.5 59t-13.5 101.5z" />
    <glyph glyph-name="f_t" unicode="ft" horiz-adv-x="1024" 
d="M270 981h377q0 61 5.5 151.5t11.5 120.5q2 7 10 11l74 16q12 4 12 -6q-15 -114 -15 -293h234q10 0 10 -12v-66q0 -9 -10 -12h-236v-664q0 -74 33.5 -115.5t102.5 -41.5q58 0 118 24q9 4 9 -6v-61q0 -10 -7 -15q-55 -32 -131 -32q-105 0 -163 57.5t-58 191.5v662h-377
v-881q0 -10 -8 -10h-80q-10 0 -10 10v881h-137q-1 0 -4 1q-6 1 -6 9v72q0 8 10 8h137v115q0 181 49 272q68 131 228 131q61 0 92 -14q8 -3 8 -15v-69q0 -11 -12 -8q-37 16 -84 16q-43 0 -74 -12t-57 -43.5t-39 -93.5t-13 -154v-125z" />
    <glyph glyph-name="f_f_b" unicode="ffb" horiz-adv-x="1996" 
d="M270 981h375v141q1 107 23.5 183.5t62.5 117t86 58.5t103 18q67 0 96 -16q6 -4 6 -13v-69q0 -6 -3 -9.5t-7 -0.5q-38 18 -88 18q-28 0 -50 -4.5t-48 -22t-43 -47.5t-28.5 -86t-11.5 -133v-135h209q11 0 11 -8v-70q0 -8 -11 -12h-209v-881q0 -10 -10 -10h-78q-10 0 -10 10
v881h-375v-881q0 -10 -8 -10h-80q-10 0 -10 10v881h-141q-6 0 -6 8v74q0 8 8 8h139v115q0 181 49 272q68 131 225 131q57 0 84 -12q7 -2 7 -12v-72q0 -11 -11 -8q-32 14 -75 14q-42 0 -72 -12t-56 -44t-39.5 -94t-13.5 -155v-123zM1128 1479h78q11 0 11 -11v-522
q109 53 251 53q203 0 328 -132.5t125 -342.5q0 -104 -30 -193t-81.5 -152.5t-120 -109t-147 -67.5t-160.5 -22q-147 0 -254 36q-10 2 -10 17v1435q0 11 10 11zM1821 518q0 172 -98.5 281.5t-266.5 109.5q-132 0 -239 -47v-774q67 -20 172 -20q85 0 162 29t137.5 84t96.5 142
t36 195z" />
    <glyph glyph-name="f_f_h" unicode="ffh" horiz-adv-x="2025" 
d="M270 981h375v141q1 107 23.5 183.5t62.5 117t86 58.5t103 18q67 0 96 -16q6 -4 6 -13v-69q0 -6 -3 -9.5t-7 -0.5q-38 18 -88 18q-28 0 -50 -4.5t-48 -22t-43 -47.5t-28.5 -86t-11.5 -133v-135h209q11 0 11 -8v-70q0 -8 -11 -12h-209v-881q0 -10 -10 -10h-78q-10 0 -10 10
v881h-375v-881q0 -10 -8 -10h-80q-10 0 -10 10v881h-141q-6 0 -6 8v74q0 8 8 8h139v115q0 181 49 272q68 131 225 131q57 0 84 -12q7 -2 7 -12v-72q0 -11 -11 -8q-32 14 -75 14q-42 0 -72 -12t-56 -44t-39.5 -94t-13.5 -155v-123zM1214 760v-750q0 -10 -10 -10h-76
q-10 0 -10 12v1456q0 11 8 11h80q8 0 8 -9l3 -610q133 139 325 139q45 0 86 -8.5t86.5 -34t78 -66t54 -111.5t21.5 -163v-604q0 -12 -13 -12h-75q-11 0 -11 12v594q0 138 -62 220.5t-183 82.5q-91 0 -172 -38.5t-138 -110.5z" />
    <glyph glyph-name="f_f_j" unicode="ffj" horiz-adv-x="1374" 
d="M270 981h375v141q1 107 23.5 183.5t62.5 117t86 58.5t103 18q67 0 96 -16q6 -4 6 -13v-69q0 -6 -3 -9.5t-7 -0.5q-38 18 -88 18q-28 0 -50 -4.5t-48 -22t-43 -47.5t-28.5 -86t-11.5 -133v-135h209q11 0 11 -8v-70q0 -8 -11 -12h-209v-881q0 -10 -10 -10h-78q-10 0 -10 10
v881h-375v-881q0 -10 -8 -10h-80q-10 0 -10 10v881h-141q-6 0 -6 8v74q0 8 8 8h139v115q0 181 49 272q68 131 225 131q57 0 84 -12q7 -2 7 -12v-72q0 -11 -11 -8q-32 14 -75 14q-42 0 -72 -12t-56 -44t-39.5 -94t-13.5 -155v-123zM1126 981h80q8 0 8 -10v-1043
q0 -149 -25.5 -224.5t-72.5 -125.5q-37 -38 -92 -55t-102 -17q-13 0 -23 2q-8 3 -8 13v65q0 13 10 13q38 1 65 6.5t58 24.5t50 51.5t31.5 91t12.5 139.5v1059q0 10 8 10zM1165 1235q-30 0 -47.5 19t-17.5 49q0 31 18.5 51t48.5 20q31 0 48.5 -19.5t17.5 -51.5
q0 -29 -18.5 -48.5t-49.5 -19.5z" />
    <glyph glyph-name="f_f_k" unicode="ffk" horiz-adv-x="1847" 
d="M270 981h375v141q1 107 23.5 183.5t62.5 117t86 58.5t103 18q67 0 96 -16q6 -4 6 -13v-69q0 -6 -3 -9.5t-7 -0.5q-38 18 -88 18q-28 0 -50 -4.5t-48 -22t-43 -47.5t-28.5 -86t-11.5 -133v-135h209q11 0 11 -8v-70q0 -8 -11 -12h-209v-881q0 -10 -10 -10h-78q-10 0 -10 10
v881h-375v-881q0 -10 -8 -10h-80q-10 0 -10 10v881h-141q-6 0 -6 8v74q0 8 8 8h139v115q0 181 49 272q68 131 225 131q57 0 84 -12q7 -2 7 -12v-72q0 -11 -11 -8q-32 14 -75 14q-42 0 -72 -12t-56 -44t-39.5 -94t-13.5 -155v-123zM1231 500q-10 12 0 24q52 47 257.5 242.5
t217.5 206.5q5 8 16 8h97q6 0 7.5 -4.5t-3.5 -7.5q-30 -31 -238.5 -222.5t-238.5 -220.5q-2 -2 0 -6q248 -241 546 -508q3 -4 1.5 -8t-7.5 -4h-110q-14 0 -19 8q-18 17 -240.5 224.5t-285.5 267.5zM1217 1470v-1460q0 -10 -11 -10h-78q-10 0 -10 10v1460q0 9 10 9h78
q11 0 11 -9z" />
    <glyph glyph-name="f_f_t" unicode="fft" horiz-adv-x="1480" 
d="M1204 891v-664q0 -157 135 -157q60 0 113 22q10 3 10 -6v-61q0 -11 -8 -15q-53 -30 -137 -30q-104 0 -157.5 57t-53.5 192v662h-113h-39h-213v-881q0 -10 -8 -10h-80q-8 0 -8 10v881h-375v-881q0 -10 -8 -10h-80q-10 0 -10 10v881h-141q-6 0 -6 8v74q0 8 8 8h139v115
q0 181 49 272q68 131 225 131q57 0 84 -12q7 -2 7 -12v-72q0 -11 -11 -8q-32 14 -75 14q-42 0 -72 -12t-56 -44t-39.5 -94t-13.5 -155v-123h373v141q1 107 24 183.5t63 117t86 58.5t102 18q70 0 96 -16q8 -4 8 -13v-69q0 -16 -12 -10q-38 18 -88 18q-28 0 -49.5 -4.5
t-47.5 -22t-43 -47.5t-29 -86t-12 -133v-135h213h39h113q0 63 5 152.5t11 119.5q4 11 8 13l76 14q13 4 13 -4q-15 -114 -15 -295h234q10 0 10 -12v-66q0 -9 -10 -12h-234z" />
    <glyph glyph-name="t_t" unicode="tt" horiz-adv-x="1091" 
d="M715 891h-449v-664q0 -157 135 -157q57 0 117 24q10 5 10 -6v-61q0 -11 -8 -15q-55 -32 -141 -32q-104 0 -157.5 57t-53.5 192v662h-145q-11 2 -11 14v64q0 12 11 12h145q0 60 6 150.5t12 121.5q0 7 9 11l73 16q13 3 13 -6q-15 -142 -15 -293h449q0 60 6 150.5t12 121.5
q0 7 8 11l74 16q12 3 12 -6q-14 -133 -14 -293h236q10 0 10 -12v-66q0 -9 -10 -12h-236v-664q0 -157 135 -157q57 0 117 24q10 5 10 -6v-61q0 -11 -8 -15q-52 -32 -141 -32q-104 0 -157.5 57t-53.5 192v662z" />
    <glyph glyph-name=".notdef" horiz-adv-x="1024" 
d="M0 0v1434h1024v-1434h-1024zM164 102h696l-348 523zM571 717l351 -522v1044zM102 1239v-1044l349 522zM164 1331l348 -522l348 522h-696z" />
    <glyph glyph-name=".null" horiz-adv-x="0" 
 />
    <glyph glyph-name="nonmarkingreturn" horiz-adv-x="682" 
 />
    <glyph glyph-name="space" unicode=" " horiz-adv-x="479" 
 />
    <glyph glyph-name="exclam" unicode="!" horiz-adv-x="491" 
d="M295 1382q33 0 45 -6q8 -5 8 -12v-160q0 -116 -5 -436.5t-7 -376.5q0 -10 -10 -10h-62q-7 0 -10 8q0 14 -5 361t-5 446v164q0 10 6 14q16 8 45 8zM295 -14q-30 0 -49 18.5t-19 46.5t19.5 48t48.5 20q31 0 50.5 -19.5t19.5 -48.5q0 -30 -20 -47.5t-50 -17.5z" />
    <glyph glyph-name="quotedbl" unicode="&#x22;" horiz-adv-x="557" 
d="M94 995l4 475q-1 4 2 6.5t9 2.5h77q9 0 9 -9l-15 -475q0 -10 -10 -10h-66q-10 0 -10 10zM365 993l2 477q0 9 10 9h78q8 0 8 -9l-14 -477q0 -8 -9 -8h-67q-8 0 -8 8z" />
    <glyph glyph-name="numbersign" unicode="#" horiz-adv-x="991" 
d="M217 82h-59q-8 0 -6 10l84 375h-181q-8 0 -8 10v62q0 10 8 10h197l70 303h-164q-8 0 -8 8v64q0 8 8 8h180l78 336q2 10 12 10h59q10 0 7 -12l-74 -334h264l74 338q3 8 10 8h59q12 0 9 -10l-78 -336h180q10 0 10 -8v-64q0 -8 -8 -8h-197l-67 -303h155q11 0 11 -10v-64
q0 -8 -11 -8h-172l-84 -377q-5 -8 -12 -8h-59q-11 0 -6 10l84 375h-267l-88 -377q-3 -8 -10 -8zM397 852l-67 -303h266l70 303h-269z" />
    <glyph glyph-name="dollar" unicode="$" horiz-adv-x="948" 
d="M514 4v-176q0 -12 -10 -12h-70q-10 0 -10 12v172q-85 -2 -180 20.5t-152 57.5q-10 5 -10 22v82q0 6 4 9t8 -1q71 -55 162 -78.5t174 -23.5q148 0 231.5 64t83.5 167q0 99 -64.5 164.5t-246.5 141.5q-134 56 -209.5 113.5t-102 114.5t-26.5 134q0 129 92 216t240 106v172
q0 8 8 8h72q10 0 10 -8v-170q86 -3 158 -22t112 -48q7 -7 7 -14v-82q0 -5 -3.5 -7t-9.5 1q-107 84 -290 84q-80 0 -141.5 -21t-95.5 -56t-50.5 -73t-16.5 -78q0 -89 59 -150t228 -130q109 -45 181 -89t112 -92t56 -96t16 -110q0 -137 -94 -223.5t-232 -100.5z" />
    <glyph glyph-name="percent" unicode="%" horiz-adv-x="1613" 
d="M1292 1300l-889 -1292q-5 -8 -16 -8h-72q-5 0 -6 4t2 8l891 1293q5 8 17 8h69q6 0 6.5 -5t-2.5 -8zM393 1331q149 0 226 -102t77 -268q0 -58 -10.5 -112t-34 -103.5t-58 -86t-86 -58t-114.5 -21.5q-101 0 -172 53.5t-102 136.5t-31 186q0 166 87.5 270.5t217.5 104.5z
M172 956q0 -128 58 -212.5t167 -84.5q101 0 158 80.5t57 221.5q0 129 -57 211.5t-160 82.5q-97 0 -160 -80t-63 -219zM1221 731q148 0 226.5 -103.5t78.5 -267.5q0 -71 -17.5 -136.5t-53 -121t-96 -89t-138.5 -33.5q-148 0 -227 109.5t-79 268.5q0 165 88 269t218 104z
M999 358q0 -127 59 -213t167 -86q102 0 158.5 78.5t56.5 222.5q0 129 -57 211t-160 82q-97 0 -160.5 -79t-63.5 -216z" />
    <glyph glyph-name="ampersand" unicode="&#x26;" horiz-adv-x="1357" 
d="M1214 711h-563q74 -60 174.5 -177.5t182.5 -244.5q80 -121 132 -168t115 -47q35 0 68 10q10 0 10 -8v-66q0 -11 -10 -16q-25 -14 -82 -14q-41 0 -70.5 8t-67 34t-80 78t-95.5 136q-109 172 -234 305.5t-188 165.5q-45 -1 -96 -20t-100.5 -55.5t-82 -100t-32.5 -142.5
q0 -61 23.5 -117.5t66.5 -100.5t109.5 -70.5t146.5 -26.5q153 0 247 51q11 5 11 -8v-74q0 -7 -11 -14q-91 -49 -258 -49q-187 0 -310.5 109.5t-123.5 293.5q0 150 94.5 254t243.5 143q-33 29 -57 54t-53 64t-44.5 85t-15.5 96q0 97 48 167t125 103t173 33q151 0 219 -45
q9 -6 9 -16v-76q0 -15 -13 -6q-80 53 -217 53q-111 0 -178.5 -52t-67.5 -159q0 -81 58 -153t143 -127h670q11 0 8 -13l-14 -69q-3 -8 -13 -8z" />
    <glyph glyph-name="quotesingle" unicode="'" horiz-adv-x="288" 
d="M94 993l4 477q0 9 11 9h79q7 0 7 -9l-19 -477q0 -8 -8 -8h-66q-8 0 -8 8z" />
    <glyph glyph-name="parenleft" unicode="(" horiz-adv-x="643" 
d="M98 606q0 160 31 310t84.5 269.5t111 210t124.5 167.5q12 8 14 8h84q15 0 8 -10q-360 -431 -360 -953t360 -950q6 -12 -8 -12h-84q-2 0 -14 8q-67 78 -124 168t-111 209t-85 267.5t-31 307.5z" />
    <glyph glyph-name="parenright" unicode=")" horiz-adv-x="626" 
d="M535 606q0 -159 -31 -307.5t-85 -267.5t-111 -209t-124 -168q-8 -8 -14 -8h-84q-15 0 -6 12q358 430 358 950t-358 953q-4 5 -2 7.5t8 2.5h84q6 0 14 -8q53 -61 100 -128.5t94 -160t81 -191.5t55 -223t21 -254z" />
    <glyph glyph-name="asterisk" unicode="*" horiz-adv-x="772" 
d="M424 1014l197 -289q2 -6 -3 -14l-57 -35q-11 -3 -14 6l-182 299l-238 -242q-5 -10 -12 0l-43 43q-7 10 0 15l247 231l-274 127q-10 3 -4 12l33 64q3 6 10 4l262 -150l37 324q0 8 8 8l76 -10q6 -3 6 -10l-59 -320l297 66q9 5 12 -4l12 -68q0 -10 -8 -12z" />
    <glyph glyph-name="plus" unicode="+" horiz-adv-x="1130" 
d="M532 1047h68q8 0 8 -11v-465h449q10 0 10 -10v-59q0 -8 -10 -8h-449v-471q0 -9 -8 -9h-68q-8 0 -8 9v471h-450q-11 0 -11 8v61q0 8 11 8h450v467q0 9 8 9z" />
    <glyph glyph-name="comma" unicode="," horiz-adv-x="278" 
d="M86 -324h-70q-14 0 -8 11q58 130 79.5 246.5t12.5 248.5q0 11 9 11h75q11 0 11 -13q21 -272 -99 -495q-4 -9 -10 -9z" />
    <glyph glyph-name="hyphen" unicode="-" horiz-adv-x="602" 
d="M518 465h-434q-10 0 -10 8v72q0 10 8 10h436q10 0 10 -10v-72q0 -8 -10 -8z" />
    <glyph glyph-name="period" unicode="." horiz-adv-x="278" 
d="M139 -20q-32 0 -51.5 19.5t-19.5 53.5q0 30 19 51t52 21q32 0 52 -20.5t20 -51.5q0 -33 -19.5 -53t-52.5 -20z" />
    <glyph glyph-name="slash" unicode="/" horiz-adv-x="694" 
d="M604 1438l-428 -1514q-3 -6 -10 -6h-70q-8 0 -6 10l428 1512q3 8 10 8h70q9 0 6 -10z" />
    <glyph glyph-name="zero" unicode="0" horiz-adv-x="1038" 
d="M518 1243q-142 0 -231.5 -150t-89.5 -431q0 -169 35 -299.5t111.5 -211.5t186.5 -81t181.5 78t101 205t29.5 302q0 284 -84.5 436t-239.5 152zM528 -20q-89 0 -161.5 35t-121.5 96.5t-82 148t-48 185.5t-15 212q0 138 26 258.5t76.5 214t133 147.5t186.5 54
q73 0 134 -23.5t103.5 -62t75.5 -94t52.5 -114t31.5 -127.5t16.5 -129t4.5 -124q0 -103 -10.5 -193t-39 -181.5t-73 -156.5t-119 -105.5t-170.5 -40.5z" />
    <glyph glyph-name="one" unicode="1" horiz-adv-x="618" 
d="M397 0h-80q-10 0 -10 10v1198q-52 -36 -131.5 -70t-138.5 -48q-10 -3 -10 8v67q0 11 6 13q76 24 156 62.5t128 72.5q11 8 25 8h57q7 0 7 -10v-1301q0 -10 -9 -10z" />
    <glyph glyph-name="two" unicode="2" horiz-adv-x="921" 
d="M825 0h-782q-10 0 -10 10v51q0 10 8 15q245 210 408 375q137 139 190 249.5t53 231.5q0 131 -74 219t-221 88q-154 0 -305 -98q-14 -7 -14 6v76q0 7 10 14q142 94 322 94q96 0 171 -32t120 -87.5t68 -124.5t24 -149q0 -129 -57 -251t-199 -267q-140 -147 -357 -336
q95 6 342 6h328q10 0 8 -10l-18 -70q-2 -10 -15 -10z" />
    <glyph glyph-name="three" unicode="3" horiz-adv-x="956" 
d="M344 653h-57q-11 0 -11 11v71q0 10 9 10h53q160 0 251 65.5t91 184.5q0 107 -68 175.5t-211 68.5q-153 0 -297 -88q-8 -4 -8 6v76q0 12 6 14q138 84 312 84q178 0 271 -92t93 -235q0 -65 -23.5 -119t-61.5 -88.5t-77 -56.5t-79 -33q52 -8 103 -31t100 -62t79.5 -103.5
t30.5 -143.5q0 -182 -125.5 -284.5t-333.5 -102.5q-203 0 -321 79q-9 3 -9 17v82q0 6 4 8.5t7 -0.5q142 -94 321 -94q92 0 162.5 23.5t112 64t62 91.5t20.5 111q0 145 -112 218t-294 73z" />
    <glyph glyph-name="four" unicode="4" horiz-adv-x="970" 
d="M670 369h-613q-8 0 -8 6v65q0 11 4 17l590 846q7 10 14 10h99q8 0 8 -10v-848h176q10 0 6 -11l-12 -69q-3 -6 -14 -6h-156v-359q0 -10 -8 -10h-78q-8 0 -8 10v359zM670 455v317q0 317 8 449h-2q-24 -48 -262.5 -394t-255.5 -372h512z" />
    <glyph glyph-name="five" unicode="5" horiz-adv-x="940" 
d="M756 1223h-455q-39 -136 -96 -385q318 -31 472 -142.5t154 -312.5q0 -176 -121 -289.5t-327 -113.5q-179 0 -299 65q-6 2 -6 16v84q0 8 8 5q138 -78 299 -78q91 0 161 26.5t109 71t58.5 96t19.5 107.5q0 172 -142.5 264.5t-471.5 118.5q-10 0 -10 10v41q1 11 64 253
t63 243q2 10 12 10h536q10 0 7 -10l-23 -72q-3 -8 -12 -8z" />
    <glyph glyph-name="six" unicode="6" horiz-adv-x="1036" 
d="M535 737q-174 0 -330 -131q-8 -56 -8 -108q0 -195 94.5 -310.5t243.5 -115.5q145 0 228 97t83 239q0 149 -83 238.5t-228 90.5zM834 1323v-72q0 -8 -7 -10q-234 -48 -392 -188.5t-212 -352.5q61 51 147 87t185 36q173 0 281 -114t108 -297q0 -115 -47 -212t-143 -158.5
t-224 -61.5q-195 0 -312.5 144.5t-117.5 371.5q0 163 55.5 306t153.5 249t230.5 178.5t287.5 101.5q4 1 5.5 -1.5t1.5 -6.5z" />
    <glyph glyph-name="seven" unicode="7" horiz-adv-x="839" 
d="M29 1313h780q6 0 6 -8v-54q0 -12 -4 -22q-384 -846 -559 -1219q-5 -10 -12 -10h-88q-10 0 -7 10q118 240 249 520t219.5 472t101.5 219h-703q-6 0 -6 10l14 76q3 6 9 6z" />
    <glyph glyph-name="eight" unicode="8" horiz-adv-x="1009" 
d="M502 1243q-124 0 -194 -72.5t-70 -183.5q0 -75 31.5 -139t84.5 -103q19 -14 47 -14h207q33 0 60 21q45 43 71.5 95.5t26.5 131.5q0 127 -75 195.5t-189 68.5zM510 68q141 0 221.5 79.5t83.5 202.5q2 187 -153 277q-26 16 -52 16h-202q-19 0 -39 -10q-75 -38 -124.5 -109
t-49.5 -162q0 -138 91.5 -216t223.5 -78zM506 1331q165 0 259.5 -100t94.5 -246q0 -185 -149 -295q38 -21 70.5 -48t64 -67.5t49.5 -98t18 -124.5q0 -167 -114.5 -269.5t-294.5 -102.5q-187 0 -296.5 106t-109.5 272q0 104 57.5 191.5t149.5 134.5q-73 47 -118.5 124
t-45.5 179q0 90 40.5 166.5t125.5 127t199 50.5z" />
    <glyph glyph-name="nine" unicode="9" horiz-adv-x="1015" 
d="M221 -8v69q0 6 10 9q217 64 359 202t196 322q-133 -90 -292 -90q-188 0 -296 111t-108 290q0 81 28 157t79.5 136.5t131 96.5t175.5 36q187 0 298 -140.5t111 -377.5q0 -137 -39 -260t-105 -216t-154 -167t-185 -120.5t-199 -69.5q-4 -1 -6 1t-3 5t-1 6zM510 592
q169 0 297 100q10 88 10 121q0 194 -85.5 312t-233.5 118q-97 0 -168.5 -48t-105.5 -122.5t-34 -163.5q0 -160 90.5 -238.5t229.5 -78.5z" />
    <glyph glyph-name="colon" unicode=":" horiz-adv-x="370" 
d="M184 737q-32 0 -51.5 20t-19.5 54q0 30 20 51t51 21q33 0 53.5 -20.5t20.5 -51.5q0 -34 -20 -54t-54 -20zM184 -20q-32 0 -51.5 19.5t-19.5 53.5q0 30 20 51t51 21q33 0 53.5 -20.5t20.5 -51.5q0 -33 -20 -53t-54 -20z" />
    <glyph glyph-name="semicolon" unicode=";" horiz-adv-x="370" 
d="M184 737q-32 0 -51.5 20t-19.5 54q0 30 20 51t51 21q33 0 53.5 -20.5t20.5 -51.5q0 -33 -20.5 -53.5t-53.5 -20.5zM125 -324h-70q-13 0 -8 11q58 130 79.5 246.5t12.5 248.5q0 11 8 11h76q10 0 10 -13q9 -134 -16.5 -263t-81.5 -232q-5 -9 -10 -9z" />
    <glyph glyph-name="less" unicode="&#x3c;" horiz-adv-x="1112" 
d="M113 500v65q0 6 4 10l872 469q10 3 10 -4v-71q0 -10 -8 -13l-786 -421v-3l788 -423q6 -3 6 -11v-71q0 -10 -8 -7l-872 469q-6 3 -6 11z" />
    <glyph glyph-name="equal" unicode="=" horiz-adv-x="1118" 
d="M61 750q0 8 13 8h970q11 0 11 -8v-60q0 -7 -2.5 -8.5t-12.5 -1.5h-968q-11 0 -11 8v62zM61 375q0 10 13 10h970q11 0 11 -10v-60q0 -10 -15 -10h-968q-11 0 -11 10v60z" />
    <glyph glyph-name="greater" unicode="&#x3e;" horiz-adv-x="1112" 
d="M999 565v-61q0 -9 -6 -12l-874 -472q-3 -1 -4.5 0.5t-1.5 6.5v67q0 10 4 12l788 424v5l-788 421q-4 4 -4 13v69q0 3 1.5 5t4.5 1l874 -469q6 -3 6 -10z" />
    <glyph glyph-name="question" unicode="?" horiz-adv-x="770" 
d="M387 1382q150 0 235 -86.5t85 -222.5q0 -90 -35.5 -157t-100.5 -138q-10 -11 -33.5 -35t-34.5 -35.5t-29.5 -32.5t-27.5 -35t-19.5 -32t-14.5 -35t-4 -34q0 -73 49 -140q3 -3 1.5 -6.5t-7.5 -3.5h-70q-8 0 -14 6q-52 63 -52 150q0 25 8 50.5t17.5 44.5t30.5 46.5t34.5 43
t44 47.5t44.5 48q62 66 87 118t25 124q0 99 -60.5 160t-168.5 61q-139 0 -244 -74q-12 -4 -12 7v77q0 10 6 13q37 27 108 49t152 22zM403 -20q-31 0 -49 18.5t-18 50.5q0 29 18.5 48.5t48.5 19.5t49 -20t19 -48q0 -31 -18.5 -50t-49.5 -19z" />
    <glyph glyph-name="at" unicode="@" horiz-adv-x="1652" 
d="M1008 74l43 731q-54 12 -107 12q-163 0 -263.5 -110.5t-100.5 -276.5q0 -162 89 -262t255 -100q43 0 84 6zM1145 860l-47 -772q39 6 82 23t95.5 55t93 90t68 137t27.5 187q0 137 -45 250t-124 187t-184.5 114t-227.5 40q-112 0 -214.5 -30t-189.5 -91t-150.5 -147
t-99.5 -204t-36 -257q0 -486 425 -698q9 -7 9 -14l-2 -78q0 -10 -9 -6q-235 94 -376.5 300t-141.5 490q0 239 101 426.5t281 291t407 103.5q135 0 255 -44.5t212.5 -126.5t147 -210.5t54.5 -285.5q0 -123 -35 -225.5t-94 -172t-139.5 -118t-170.5 -70.5t-187 -22
q-200 0 -320.5 113t-120.5 329q0 140 64.5 250t169.5 167.5t231 57.5q121 0 183 -27q8 -4 8 -12z" />
    <glyph glyph-name="A" unicode="A" horiz-adv-x="1159" 
d="M852 496h-553l-176 -486q-3 -10 -12 -10h-78q-11 0 -8 12l471 1284q8 25 10 58q0 8 8 8h119q9 0 12 -8l490 -1342q3 -12 -9 -12h-84q-9 0 -12 8zM330 588h493q-9 25 -70.5 195.5t-109.5 307t-65 195.5h-3q-11 -37 -29 -92t-47 -137.5t-50 -140.5t-61.5 -170t-57.5 -158z
" />
    <glyph glyph-name="B" unicode="B" horiz-adv-x="1093" 
d="M174 14v1332q0 12 8 14q246 6 314 6q112 0 196 -25.5t129 -62t72.5 -87t35 -90t7.5 -81.5q0 -76 -29 -140.5t-60 -97t-67 -57.5q39 -16 74.5 -40t73 -63t60 -98t22.5 -129q0 -103 -42.5 -181.5t-117 -125t-168 -69.5t-203.5 -23q-75 -2 -295 4q-10 2 -10 14zM270 682
v-594q94 -4 191 -4q204 -3 327 74.5t123 234.5q0 101 -60 172.5t-169 100.5q-58 16 -180 16h-232zM270 1274v-502h226q124 0 196 -14q64 36 106 99t42 151q0 137 -93.5 203.5t-263.5 66.5q-143 0 -213 -4z" />
    <glyph glyph-name="C" unicode="C" horiz-adv-x="1120" 
d="M1051 104v-69q0 -13 -11 -17q-86 -38 -268 -38q-97 0 -189.5 22t-183.5 75t-159 131.5t-110 202t-42 277.5q0 151 51 280t143 220t224 142.5t289 51.5q188 0 258 -36q8 -3 8 -15v-80q0 -7 -3.5 -8.5t-6.5 2.5q-89 47 -263 47q-265 0 -432.5 -164.5t-167.5 -435.5
q0 -143 41.5 -255.5t104.5 -178.5t145.5 -109.5t156 -59t144.5 -15.5q170 0 258 37q13 4 13 -7z" />
    <glyph glyph-name="D" unicode="D" horiz-adv-x="1308" 
d="M174 14v1332q0 12 10 14q135 6 332 6q330 0 517.5 -180t187.5 -479q0 -112 -23 -208.5t-63.5 -168.5t-97 -129t-121.5 -95t-139 -63t-147 -36t-149 -11q-149 0 -297 4q-10 0 -10 14zM272 1274v-1184q78 -4 205 -4q112 0 208.5 23.5t177 72.5t137.5 121.5t88.5 174.5
t31.5 227q0 140 -46.5 250.5t-129 180t-192 106t-238.5 36.5q-106 0 -242 -4z" />
    <glyph glyph-name="E" unicode="E" horiz-adv-x="1003" 
d="M958 82l-14 -72q-2 -10 -12 -10h-744q-14 0 -14 14v1334q0 14 12 14h709q9 0 12 -10l11 -70q3 -12 -11 -12h-635v-527h572q10 0 10 -10v-69q0 -13 -10 -13h-572v-559h678q11 0 8 -10z" />
    <glyph glyph-name="F" unicode="F" horiz-adv-x="956" 
d="M272 635v-625q0 -10 -12 -10h-78q-8 0 -8 10v1340q0 12 10 12h713q9 0 12 -10l11 -70q2 -12 -11 -12h-637v-543h568q10 0 10 -10v-72q0 -10 -12 -10h-566z" />
    <glyph glyph-name="G" unicode="G" horiz-adv-x="1282" 
d="M1061 610h-338q-10 2 -10 11v71q0 8 8 8h428q10 0 10 -10v-629q3 -11 -8 -14q-153 -67 -358 -67q-221 0 -382.5 91.5t-242 247.5t-80.5 357q0 160 53.5 292.5t149 222.5t228.5 139.5t290 49.5q219 0 321 -51q9 -3 9 -14v-80q0 -13 -11 -8q-114 63 -319 63
q-279 0 -450 -164.5t-171 -445.5q0 -126 40 -236t115 -194t192 -132t262 -48q165 0 264 45v495z" />
    <glyph glyph-name="H" unicode="H" horiz-adv-x="1331" 
d="M1145 0h-78q-10 0 -10 10v660h-783v-658q0 -12 -10 -12h-78q-10 0 -10 12v1340q0 10 10 10h78q10 0 10 -10v-590h783v588q0 12 10 12h78q10 0 10 -12v-1340q0 -10 -10 -10z" />
    <glyph glyph-name="I" unicode="I" horiz-adv-x="448" 
d="M272 1352v-1340q0 -12 -10 -12h-78q-10 0 -10 12v1338q0 12 10 12h78q10 0 10 -10z" />
    <glyph glyph-name="J" unicode="J" horiz-adv-x="526" 
d="M270 315v1037q0 10 11 10h77q11 0 11 -10v-1024q0 -108 -15 -181q-16 -72 -49.5 -123t-78.5 -78.5t-91.5 -39.5t-99.5 -12q-48 0 -66 6q-10 2 -10 16v68q0 13 12 10q20 -4 56 -4q123 0 183 75t60 250z" />
    <glyph glyph-name="K" unicode="K" horiz-adv-x="1101" 
d="M987 1362h92q6 0 7.5 -5t-3.5 -9l-645 -643q-10 -7 0 -13l701 -678q3 -4 1.5 -9t-7.5 -5h-103q-12 0 -20 10l-693 666q-14 11 2 24l650 652q7 10 18 10zM272 1350v-1338q0 -12 -10 -12h-76q-12 0 -12 14v1338q0 10 10 10h78q10 0 10 -12z" />
    <glyph glyph-name="L" unicode="L" horiz-adv-x="937" 
d="M915 0h-727q-14 0 -14 14v1336q0 12 10 12h78q10 0 10 -10v-1260h666q10 0 6 -12l-14 -70q-2 -10 -15 -10z" />
    <glyph glyph-name="M" unicode="M" horiz-adv-x="1691" 
d="M252 1352q2 10 12 10h131q11 0 13 -10q11 -30 69 -191t107 -297t107.5 -300.5t99 -283.5t53.5 -165h2q23 73 120 330t209 548.5t136 356.5q9 11 12 12h125q10 0 12 -10l80 -1342q0 -10 -8 -10h-80q-12 0 -12 10q-60 1034 -64 1284h-2q-29 -96 -235.5 -640t-241.5 -644
q-4 -10 -12 -10h-88q-12 0 -15 10q-32 91 -151.5 430t-196 560t-100.5 296h-2q-2 -68 -14.5 -265t-38.5 -569t-31 -452q0 -10 -12 -10h-76q-10 0 -10 10z" />
    <glyph glyph-name="N" unicode="N" horiz-adv-x="1349" 
d="M260 0h-74q-12 0 -12 12v1340q0 10 10 10h119q9 0 14 -8q695 -1121 766 -1248h2q-6 76 -6 304v942q0 10 13 10h73q11 0 11 -12v-1338q0 -12 -13 -12h-112q-13 0 -17 10q-26 45 -384 625t-388 643h-2q8 -114 8 -342v-924q0 -12 -8 -12z" />
    <glyph glyph-name="O" unicode="O" horiz-adv-x="1380" 
d="M688 1380q136 0 249.5 -53t190 -145.5t119 -219.5t43.5 -274q1 -167 -44.5 -302.5t-126 -223.5t-188.5 -135t-235 -47q-141 0 -256 53t-192 147t-118.5 223t-41.5 281q0 158 46.5 289.5t127 220t190.5 137.5t236 49zM188 686q0 -99 20.5 -189.5t62.5 -168t101.5 -134.5
t142.5 -89.5t181 -32.5q232 0 363 167.5t131 446.5q0 172 -62.5 309.5t-178 216t-263.5 78.5q-102 0 -191.5 -39t-158.5 -113t-108.5 -190.5t-39.5 -261.5z" />
    <glyph glyph-name="P" unicode="P" horiz-adv-x="1056" 
d="M174 10v1338q0 12 10 12q153 6 295 6q239 0 370.5 -118.5t131.5 -303.5q0 -110 -41.5 -196.5t-114 -140t-167 -81.5t-203.5 -28q-60 0 -116 2t-67 2v-492q0 -10 -10 -10h-78q-10 0 -10 10zM272 1272v-678q70 -4 183 -4q70 0 131.5 11.5t117 38t94.5 66.5t62 99.5
t23 134.5q0 161 -114 249.5t-290 88.5q-84 0 -207 -6z" />
    <glyph glyph-name="Q" unicode="Q" horiz-adv-x="1380" 
d="M197 686q0 -125 33 -235t95.5 -195t161 -134.5t220.5 -49.5q230 0 361.5 167.5t131.5 446.5q0 262 -141 433t-363 171q-102 0 -192 -39t-158.5 -113t-108.5 -190.5t-40 -261.5zM1346 -291h-125q-9 0 -21 6q-11 10 -128.5 110t-207.5 175q-70 -20 -159 -20
q-187 0 -326 91.5t-210 250t-71 362.5q0 158 46.5 289.5t127 220t190.5 137.5t236 49q136 0 249.5 -53t190 -145.5t119 -219.5t43.5 -274q0 -239 -88 -405t-241 -242q306 -262 379 -322q3 -1 2.5 -5.5t-6.5 -4.5z" />
    <glyph glyph-name="R" unicode="R" horiz-adv-x="1110" 
d="M262 0h-78q-4 0 -5.5 0.5t-3 2.5t-1.5 7v1336q0 14 10 14q216 6 312 6q218 0 350.5 -96t132.5 -283q0 -75 -24.5 -137.5t-67.5 -106t-94.5 -72.5t-112.5 -46q67 -96 227.5 -330.5t190.5 -282.5q3 -3 3.5 -6t-1.5 -4.5t-6 -1.5h-93q-11 0 -16 8q-33 48 -177 260t-204 299
q-19 31 -45 31h-289v-588q0 -10 -8 -10zM270 686h260q161 0 256 83.5t95 213.5q0 136 -99.5 215.5t-292.5 79.5q-78 0 -219 -6v-586z" />
    <glyph glyph-name="S" unicode="S" horiz-adv-x="944" 
d="M424 -20q-211 0 -338 81q-8 5 -8 19v86q0 5 4 7t8 -1q137 -100 336 -100q163 0 247.5 72t84.5 194q0 93 -60 162.5t-217 140.5l-84 35q-91 40 -153.5 85t-94 92.5t-44.5 91t-13 93.5q0 156 112 250t296 94q203 0 293 -57q8 -5 8 -16v-78q0 -6 -4.5 -8.5t-8.5 0.5
q-100 69 -292 69q-72 0 -128 -16.5t-89 -41.5t-54.5 -58.5t-29 -64t-7.5 -62.5q0 -89 58.5 -157.5t204.5 -131.5l92 -39q172 -76 243.5 -167.5t71.5 -207.5q0 -160 -113.5 -263t-320.5 -103z" />
    <glyph glyph-name="T" unicode="T" horiz-adv-x="1019" 
d="M461 12v1258h-463q-10 0 -8 12l16 70q3 10 12 10h988q10 0 12 -10l10 -70q3 -12 -8 -12h-461v-1258q0 -12 -12 -12h-74q-12 0 -12 12z" />
    <glyph glyph-name="U" unicode="U" horiz-adv-x="1292" 
d="M254 1352v-875q0 -191 105 -298t292 -107q59 0 110.5 10t104 38t89.5 72t60 118.5t23 172.5v869q0 10 11 10h77q11 0 11 -10v-863q0 -135 -37 -235t-104 -158.5t-154 -87t-195 -28.5q-229 0 -360 125.5t-131 371.5v875q0 10 10 10h78q10 0 10 -10z" />
    <glyph glyph-name="V" unicode="V" horiz-adv-x="1193" 
d="M606 92q95 294 461 1260q3 10 12 10h82q5 0 7 -3t-1 -7l-503 -1342q-5 -10 -17 -10h-92q-9 0 -14 8l-514 1344q-3 10 8 10h86q9 0 12 -8q417 -1083 473 -1262z" />
    <glyph glyph-name="W" unicode="W" horiz-adv-x="1740" 
d="M950 1352q35 -140 147.5 -581.5t168.5 -674.5h2q76 279 327 1258q3 8 13 8h80q11 0 8 -10l-365 -1342q-3 -10 -14 -10h-107q-11 0 -16 10q-20 81 -94.5 381t-138 555t-78.5 322h-2q-28 -139 -346 -1256q-3 -12 -15 -12h-102q-9 0 -15 12l-358 1340q-3 10 8 10h82
q10 0 15 -8q61 -237 123 -474.5t91.5 -350t56 -216.5t37 -148t15.5 -69h2q8 35 41.5 152.5t117 418t187.5 687.5q5 8 15 8h104q8 0 10 -10z" />
    <glyph glyph-name="X" unicode="X" horiz-adv-x="1024" 
d="M993 1352l-426 -654l457 -684q7 -14 -6 -14h-92q-14 0 -19 8q-54 82 -194 294.5t-217 328.5h-2q-225 -367 -385 -621q-5 -10 -17 -10h-88q-13 0 -6 14l434 678l-424 658q-3 4 -1.5 8t7.5 4h90q13 0 17 -6q170 -265 383 -602h2q69 109 198.5 312.5t182.5 287.5q5 8 16 8
h84q13 0 6 -10z" />
    <glyph glyph-name="Y" unicode="Y" horiz-adv-x="1017" 
d="M446 567l-460 785q-4 4 -1.5 7t7.5 3h90q9 0 12 -6q382 -653 418 -725q51 99 416 723q3 8 10 8h90q4 0 5.5 -2.5t-1.5 -5.5l-463 -787q-14 -22 -14 -45v-510q0 -12 -8 -12h-76q-8 0 -10 2.5t-2 9.5v512q0 22 -13 43z" />
    <glyph glyph-name="Z" unicode="Z" horiz-adv-x="1050" 
d="M999 0h-966q-10 0 -10 10v51q0 8 6 17l854 1192h-817q-11 0 -9 12l17 70q5 10 14 10h913q11 0 11 -10v-49q0 -10 -8 -21l-852 -1190h872q9 0 6 -10l-18 -72q-2 -10 -13 -10z" />
    <glyph glyph-name="bracketleft" unicode="[" horiz-adv-x="577" 
d="M225 1466v-1720l283 -2q8 0 8 -10v-64q0 -6 -1.5 -7t-6.5 -1h-361q-10 0 -10 12v1860q0 12 13 12h356q8 0 8 -8v-61q0 -11 -8 -11h-281z" />
    <glyph glyph-name="backslash" unicode="\" horiz-adv-x="684" 
d="M506 -72l-416 1510q-2 3 0 6.5t8 3.5h64q9 0 12 -8l420 -1510q1 -7 -0.5 -9.5t-7.5 -2.5h-68q-10 0 -12 10z" />
    <glyph glyph-name="bracketright" unicode="]" horiz-adv-x="602" 
d="M367 -256v1718l-285 2q-8 0 -8 11v63q2 8 10 8h358q13 0 13 -12v-1860q0 -12 -13 -12h-356q-10 0 -10 8v64q0 10 10 10h281z" />
    <glyph glyph-name="asciicircum" unicode="^" horiz-adv-x="968" 
d="M891 547h-72q-7 0 -14 10l-322 680h-2l-305 -680q-7 -10 -14 -10h-68q-11 0 -8 10l342 748q4 8 8 8h90q8 0 11 -8l360 -746q6 -12 -6 -12z" />
    <glyph glyph-name="underscore" unicode="_" horiz-adv-x="1062" 
d="M0 -152h1063v-100h-1063v100z" />
    <glyph glyph-name="grave" unicode="`" 
d="M268 1442l230 -295q1 -3 -1.5 -5.5t-7.5 -2.5h-83q-8 0 -11 8l-245 293q-3 3 -1.5 6.5t5.5 3.5h102q7 0 12 -8z" />
    <glyph glyph-name="a" unicode="a" horiz-adv-x="925" 
d="M674 113v385q-62 10 -154 10q-175 0 -264.5 -57t-89.5 -164q0 -42 15 -79.5t46.5 -70.5t89 -52t134.5 -19q120 0 223 47zM770 635v-494q0 -46 2 -69q0 -7 -4 -9q-153 -83 -342 -83q-161 0 -258.5 80t-97.5 227q0 79 35.5 139t99 95t142 52t171.5 17q87 0 156 -6v71
q0 28 -5 57.5t-21 66t-42 64.5t-74 47t-110 19q-145 0 -254 -61q-3 -3 -6.5 -1.5t-3.5 7.5v74q0 6 6 12q118 59 272 59q87 0 153 -28t104.5 -79t57.5 -115t19 -142z" />
    <glyph glyph-name="b" unicode="b" horiz-adv-x="1038" 
d="M170 1479h76q10 0 10 -9v-522q114 51 252 51q203 0 328 -131.5t125 -341.5q0 -130 -45.5 -235.5t-121.5 -172.5t-172 -102.5t-200 -35.5q-141 0 -254 38q-10 3 -10 17v1435q0 9 12 9zM862 520q0 173 -98 282t-266 109q-138 0 -242 -49v-772q77 -22 172 -22q86 0 163 29
t138 84t97 142.5t36 196.5z" />
    <glyph glyph-name="c" unicode="c" horiz-adv-x="837" 
d="M788 96v-69q0 -13 -6 -15q-83 -32 -219 -32q-98 0 -179.5 27.5t-137.5 75.5t-95 112.5t-57 138t-18 153.5q0 221 142 366.5t368 145.5q136 0 194 -26q11 -5 11 -17l-3 -75q0 -7 -10 -4q-80 34 -200 34q-177 0 -289.5 -116.5t-112.5 -302.5q0 -196 113 -308t286 -112
q126 0 203 30q10 2 10 -6z" />
    <glyph glyph-name="d" unicode="d" horiz-adv-x="1036" 
d="M565 -20q-104 0 -192.5 32.5t-155 94t-104 158.5t-37.5 218q0 226 152 371t384 145q96 0 168 -16v485q0 11 11 11h77q11 0 11 -11v-1341q0 -35 2 -64q0 -6 -9 -12q-139 -71 -307 -71zM780 104v779q-57 28 -172 28q-103 0 -186.5 -34t-136.5 -92.5t-81 -134.5t-28 -161
q0 -89 22.5 -161t60.5 -119.5t89.5 -79t107.5 -45.5t117 -14q135 0 207 34z" />
    <glyph glyph-name="e" unicode="e" horiz-adv-x="946" 
d="M649 506h-475q-8 -192 91 -313t284 -121q150 0 256 57q10 7 10 -6v-68q0 -11 -8 -14q-106 -61 -272 -61q-97 0 -175.5 28.5t-130.5 76.5t-87 113.5t-50.5 136.5t-15.5 148q0 221 117.5 368.5t308.5 147.5q81 0 147.5 -25.5t108.5 -66t70.5 -93t40.5 -103.5t12 -101
q0 -58 -7 -86q0 -12 -14 -12q-46 -6 -211 -6zM178 586h453q139 0 151 4q2 6 2 26q0 31 -7 66t-27 77t-50 75.5t-82 56t-118 22.5q-139 0 -221 -94t-101 -233z" />
    <glyph glyph-name="f" unicode="f" horiz-adv-x="464" 
d="M172 891h-139q-10 3 -10 12v68q0 10 10 10h139v102q0 181 51 275q77 141 236 141q60 0 88 -14q8 -3 8 -12v-70q0 -14 -12 -8q-30 12 -78 12q-45 0 -78.5 -14t-61 -47.5t-41.5 -96t-14 -153.5v-115h209q10 0 10 -8v-70q0 -9 -10 -12h-209v-881q0 -10 -10 -10h-78
q-10 0 -10 10v881z" />
    <glyph glyph-name="g" unicode="g" horiz-adv-x="958" 
d="M547 33l-209 12q-78 -55 -128 -125t-50 -117q0 -90 94 -159.5t242 -69.5q91 0 163.5 23t116 60.5t66 83t22.5 93.5q0 54 -25.5 92.5t-72.5 60t-99 32t-120 14.5zM469 920q-115 0 -186.5 -74t-71.5 -191q0 -118 67.5 -190t186.5 -72q117 0 184.5 68.5t67.5 191.5
q0 113 -63 190t-185 77zM356 135l207 -10q395 -21 395 -281q0 -152 -129.5 -254t-336.5 -102q-198 0 -313.5 93.5t-115.5 217.5q0 119 209 293q-53 68 -53 154q0 69 33 125q-137 91 -137 282q0 146 97 246t259 100q73 0 131 -14q16 -4 37 -4h297q10 0 10 -10v-70
q0 -10 -10 -10q-142 0 -221 6q98 -90 98 -242q0 -164 -100 -254t-248 -90q-62 0 -137 21q-23 -47 -17 -92q7 -64 45 -105z" />
    <glyph glyph-name="h" unicode="h" horiz-adv-x="1067" 
d="M254 760v-750q0 -10 -10 -10h-76q-10 0 -10 12v1456q0 11 8 11h80q8 0 8 -9l2 -610q133 139 326 139q45 0 86 -8.5t86 -34t77.5 -66t54 -111.5t21.5 -163v-604q0 -12 -12 -12h-76q-10 0 -10 12v594q0 138 -62 220.5t-184 82.5q-91 0 -171.5 -38.5t-137.5 -110.5z" />
    <glyph glyph-name="i" unicode="i" horiz-adv-x="415" 
d="M158 12v957q0 12 10 12h78q10 0 10 -10v-961q0 -10 -10 -10h-74q-14 0 -14 12zM207 1235q-31 0 -48.5 19t-17.5 49q0 31 18.5 51t47.5 20q31 0 49 -19.5t18 -51.5q0 -29 -18.5 -48.5t-48.5 -19.5z" />
    <glyph glyph-name="j" unicode="j" horiz-adv-x="419" 
d="M172 981h78q10 0 10 -10v-1043q0 -149 -25.5 -224.5t-72.5 -125.5q-37 -38 -92.5 -55t-102.5 -17q-12 0 -22 2q-8 2 -8 13v65q0 13 10 13q37 1 63.5 6.5t57.5 24.5t49.5 51.5t31.5 91t13 139.5v1059q0 10 10 10zM211 1235q-31 0 -48.5 19t-17.5 49q0 31 18.5 51t47.5 20
q33 0 50.5 -19.5t17.5 -51.5q0 -28 -19 -48t-49 -20z" />
    <glyph glyph-name="k" unicode="k" horiz-adv-x="886" 
d="M270 500q-10 12 0 24q52 47 257.5 242.5t217.5 206.5q5 8 17 8h96q6 0 7.5 -4.5t-3.5 -7.5q-30 -31 -238.5 -222.5t-238.5 -220.5q-2 -2 0 -6q211 -205 545 -508q4 -4 2.5 -8t-6.5 -4h-111q-13 0 -18 8q-392 362 -527 492zM254 1470v-1460q0 -10 -8 -10h-80q-10 0 -10 10
v1460q0 9 10 9h80q8 0 8 -9z" />
    <glyph glyph-name="l" unicode="l" horiz-adv-x="446" 
d="M158 172v1298q0 9 10 9h78q8 0 8 -9v-1292q0 -65 23 -87.5t65 -22.5q18 0 45 6q4 1 5 -0.5t1 -7.5v-62q0 -10 -6 -12q-24 -12 -74 -12q-31 0 -55 6.5t-48.5 25t-38 59t-13.5 101.5z" />
    <glyph glyph-name="m" unicode="m" horiz-adv-x="1677" 
d="M246 0h-80q-8 0 -8 12v760q0 125 -8 199q0 10 8 10h71q11 0 13 -10q10 -38 10 -113q138 141 319 141q195 0 275 -159q155 159 350 159q45 0 86.5 -9t86 -34.5t76.5 -66t52.5 -109.5t20.5 -159v-611q0 -10 -13 -10h-73q-13 0 -13 12v606q0 127 -62 210t-179 83
q-179 0 -304 -153q13 -59 13 -140v-606q0 -12 -10 -12h-76q-13 0 -13 12v613q0 133 -61 208.5t-176 75.5q-88 0 -158.5 -36t-138.5 -113v-750q0 -10 -8 -10z" />
    <glyph glyph-name="n" unicode="n" horiz-adv-x="1064" 
d="M158 12v742q0 109 -8 217q0 10 10 10h69q11 0 13 -10q7 -34 10 -123q139 151 330 151q45 0 86 -8.5t86 -34t77.5 -66.5t54 -112t21.5 -164v-602q0 -12 -12 -12h-76q-10 0 -10 12v594q0 137 -62.5 220t-183.5 83q-186 0 -309 -164v-733q0 -12 -10 -12h-78q-8 0 -8 12z" />
    <glyph glyph-name="o" unicode="o" horiz-adv-x="1046" 
d="M524 999q199 0 322 -140.5t123 -369.5q0 -227 -123 -368t-320 -141q-91 0 -167 30t-127.5 79.5t-87.5 116t-52 137.5t-16 146q0 220 125 365t323 145zM518 911q-153 0 -248.5 -116t-95.5 -301q0 -115 40.5 -210t123.5 -154.5t194 -59.5q63 0 121 24.5t107.5 72.5
t79.5 131t30 189q0 65 -12 125t-39.5 115t-67.5 95.5t-100 64.5t-133 24z" />
    <glyph glyph-name="p" unicode="p" horiz-adv-x="1036" 
d="M502 999q205 0 332 -128.5t127 -342.5q0 -108 -32.5 -199t-87 -154.5t-127.5 -108t-153 -65.5t-164 -21q-69 0 -143 12v-449q0 -10 -8 -12q-8 -1 -27.5 -3.5t-35 -4.5t-17.5 -2q-5 0 -6.5 1t-1.5 7v1323q0 24 -6 61q0 7 6 9q181 77 344 77zM485 911q-129 0 -231 -45v-782
q53 -14 149 -14q89 0 170 28.5t145.5 83t103 142t38.5 196.5q0 178 -99 284.5t-276 106.5z" />
    <glyph glyph-name="q" unicode="q" horiz-adv-x="1038" 
d="M553 -20q-96 0 -181 32t-151.5 93t-105.5 157.5t-39 216.5q0 235 149.5 377.5t382.5 142.5q167 0 271 -49q6 -2 6 -10q-6 -49 -6 -61v-1336q0 -9 -11 -12q-78 -10 -80 -10q-8 0 -8 10v492q-101 -43 -227 -43zM780 111v772q-65 28 -182 28q-198 0 -310 -120t-112 -308
q0 -83 22.5 -152t60.5 -116.5t88.5 -81t105 -48.5t110.5 -15q131 0 217 41z" />
    <glyph glyph-name="r" unicode="r" horiz-adv-x="589" 
d="M156 981h71q8 0 15 -10q5 -22 12 -158q56 81 149 133.5t185 52.5q6 0 8 -1t2 -7v-84q0 -10 -10 -10q-100 0 -193 -54.5t-137 -133.5l-2 -699q0 -10 -8 -10h-80q-10 0 -10 10v709q0 164 -11 250q-2 12 9 12z" />
    <glyph glyph-name="s" unicode="s" horiz-adv-x="731" 
d="M610 854q-85 59 -223 59q-109 0 -161 -47t-52 -114q0 -63 45.5 -108t173.5 -97q142 -58 205.5 -123.5t63.5 -171.5q0 -131 -95.5 -201.5t-236.5 -70.5q-164 0 -258 61q-9 6 -9 14v84q0 15 11 8q103 -79 260 -79q110 0 170.5 48.5t60.5 125.5q0 73 -46.5 120t-162.5 95
q-146 58 -212 123.5t-66 167.5q0 108 85.5 179.5t227.5 71.5q156 0 223 -45q9 -6 9 -16v-76q0 -6 -4.5 -8.5t-8.5 0.5z" />
    <glyph glyph-name="t" unicode="t" horiz-adv-x="555" 
d="M537 86v-61q0 -11 -9 -15q-53 -30 -137 -30q-104 0 -157.5 57t-53.5 192v662h-151q-13 3 -13 14v64q0 12 13 12h151q0 61 5.5 151.5t11.5 120.5q4 11 8 13l76 14q12 4 12 -4q-14 -106 -14 -295h231q12 0 12 -12v-66q0 -9 -12 -12h-234v-664q0 -157 138 -157q59 0 112 22
q11 4 11 -6z" />
    <glyph glyph-name="u" unicode="u" horiz-adv-x="1048" 
d="M889 969v-758q0 -126 10 -201q3 -10 -8 -10h-74q-7 0 -12 8q-10 68 -10 101q-121 -129 -308 -129q-65 0 -119.5 16.5t-105 56t-79.5 117t-29 186.5v613q0 12 10 12h78q10 0 10 -12v-598q0 -142 66 -221.5t188 -79.5q178 0 285 135v764q0 12 12 12h76q10 0 10 -12z" />
    <glyph glyph-name="v" unicode="v" horiz-adv-x="892" 
d="M492 0h-101q-10 0 -14 8q-16 45 -173.5 475.5t-178.5 485.5q-4 12 8 12h84q9 0 12 -10q83 -235 159 -447t110.5 -309t45.5 -129h2q7 21 46.5 127t113.5 307.5t164 450.5q5 10 12 10h78q11 0 8 -12q-343 -912 -362 -959q-5 -10 -14 -10z" />
    <glyph glyph-name="w" unicode="w" horiz-adv-x="1417" 
d="M1069 0h-100q-12 0 -15 12q-208 711 -247 875h-2q-11 -44 -37 -132t-53 -177t-80.5 -262.5t-92.5 -303.5q-2 -12 -16 -12h-96q-17 0 -19 12l-268 957q-4 12 8 12h84q7 0 10 -8q179 -630 236 -887h4q49 209 264 883q3 12 13 12h100q7 0 10 -12q217 -728 252 -881h4
q47 216 248 885q3 8 10 8h84q7 0 4 -10l-293 -961q-3 -10 -12 -10z" />
    <glyph glyph-name="x" unicode="x" horiz-adv-x="819" 
d="M344 494l-328 475q-3 5 -0.5 8.5t7.5 3.5h92q11 0 16 -8l281 -418h2l293 416q7 10 14 10h86q6 0 7.5 -3.5t-1.5 -8.5q-23 -31 -153.5 -212t-188.5 -259q57 -85 176.5 -251t171.5 -235q4 -3 2.5 -7.5t-8.5 -4.5h-94q-12 0 -17 8l-296 426h-3l-292 -426q-5 -8 -15 -8h-86
q-12 0 -6 12q56 77 177 250t163 232z" />
    <glyph glyph-name="y" unicode="y" horiz-adv-x="903" 
d="M29 981h92q5 0 10 -8q315 -802 330 -844q101 260 321 844q4 8 13 8h77q13 0 9 -12q-245 -685 -580 -1430q-3 -10 -18 -10l-84 -8q-10 0 -6 12q75 155 215 479q3 10 -2 23q-14 34 -86 208.5t-156.5 381.5t-140.5 346q-3 10 6 10z" />
    <glyph glyph-name="z" unicode="z" horiz-adv-x="759" 
d="M727 0h-698q-9 0 -9 14v39q0 7 7 17q85 125 325 461t258 362q-35 -2 -225 -2h-336q-11 0 -8 12l14 70q4 8 13 8h655q8 0 8 -10v-47q0 -10 -8 -21q-242 -355 -576 -815h263h342q8 0 6 -10l-19 -70q-3 -8 -12 -8z" />
    <glyph glyph-name="braceleft" unicode="{" horiz-adv-x="720" 
d="M55 557q-6 0 -6 10v70q0 8 6 8q78 -1 129.5 14.5t78.5 47.5t37 71t9 94q1 47 -5.5 156t-6.5 148q0 42 6.5 80t29 85t59 83t102.5 65.5t153 40.5q8 0 8 -6v-62q0 -6 -8 -8q-79 -15 -133.5 -44.5t-81.5 -69.5t-38 -80t-11 -89q0 -42 7 -146t7 -151q0 -117 -42 -183
t-144 -91v-4q59 -12 98.5 -39t59 -67.5t27 -81.5t7.5 -95q0 -55 -10 -167.5t-10 -163.5q0 -114 64.5 -178t201.5 -89q6 -2 6 -10v-61q0 -6 -8 -6q-101 10 -173 44t-109 83.5t-52.5 100t-15.5 107.5q0 56 9 170.5t9 159.5t-5.5 79t-21.5 68.5t-44 56.5t-76 36t-113 14z" />
    <glyph glyph-name="bar" unicode="|" horiz-adv-x="364" 
d="M227 -401h-90v2007h90v-2007z" />
    <glyph glyph-name="braceright" unicode="}" horiz-adv-x="720" 
d="M653 643q6 0 6 -8v-72q0 -8 -6 -8q-78 1 -129.5 -14.5t-78.5 -47.5t-37 -71t-9 -94q-1 -47 6 -172.5t7 -163.5q0 -41 -6.5 -78t-29 -83t-59 -82t-102.5 -66t-154 -43q-8 -3 -8 4v65q0 6 8 8q80 15 135 44t82 68.5t37.5 79t10.5 87.5q0 42 -7.5 162.5t-7.5 167.5
q0 118 42 183.5t145 90.5v4q-59 12 -99 39t-59.5 67.5t-27 82.5t-7.5 96q0 53 10.5 148.5t10.5 148.5q0 113 -65.5 178t-201.5 84q-6 0 -6 8v66q0 8 8 8q82 -8 145 -33t101 -58t62.5 -76t33.5 -84t9 -87q0 -58 -9.5 -154t-9.5 -141t5.5 -79t21.5 -68.5t44 -56.5t76 -36
t113 -14z" />
    <glyph glyph-name="asciitilde" unicode="~" horiz-adv-x="1132" 
d="M156 397h-68q-6 0 -6 9q-10 161 54 247t169 86q67 0 120.5 -26.5t147.5 -104.5q91 -77 143 -106t111 -29q152 0 140 248q0 6 8 6h65q9 0 9 -6q6 -91 -11 -158.5t-51 -103.5t-74 -53t-86 -17q-65 0 -122.5 25.5t-151.5 101.5q-12 10 -38.5 31t-36 28.5t-30 22.5t-30 21
t-26 15t-28.5 12t-27 6t-30 3q-68 0 -109 -57.5t-34 -191.5q0 -9 -8 -9z" />
    <glyph glyph-name="uni00A0" unicode="&#xa0;" horiz-adv-x="479" 
 />
    <glyph glyph-name="exclamdown" unicode="&#xa1;" horiz-adv-x="409" 
d="M182 -399q-33 0 -45 6q-6 4 -6 12v160q0 135 4.5 453t7.5 362q0 8 9 8h63q8 0 8 -8q0 -14 5 -361t5 -446v-164q0 -10 -4 -12q-13 -10 -47 -10zM184 997q29 0 47.5 -18.5t18.5 -46.5t-19 -47t-47 -19q-32 0 -51.5 18.5t-19.5 47.5q0 30 20 47.5t51 17.5z" />
    <glyph glyph-name="cent" unicode="&#xa2;" horiz-adv-x="925" 
d="M625 184v-196q0 -11 -9 -11h-69q-8 0 -8 13v196q-102 13 -181.5 55.5t-128.5 106t-74.5 142t-25.5 167.5q0 99 32.5 185t89 146t130.5 98.5t158 50.5v194q0 10 8 10h69q9 0 9 -10v-190q59 3 113 -7t83 -28q8 -4 8 -12v-80q0 -9 -10 -6q-71 43 -205 43
q-170 0 -278.5 -106.5t-108.5 -282.5q0 -96 34.5 -172.5t91.5 -121.5t123.5 -68.5t135.5 -23.5q126 0 205 35q8 3 8 -6v-72q0 -9 -8 -12q-68 -37 -192 -37z" />
    <glyph glyph-name="sterling" unicode="&#xa3;" horiz-adv-x="899" 
d="M870 0h-831q-8 0 -8 6v62q0 7 8 10q119 51 174 179t55 294v74h-184q-8 0 -8 8v63q0 9 10 9h180q0 42 -2 86t-2 57q0 125 29.5 219.5t82 151t120.5 84.5t149 28q123 0 178 -37q10 -5 10 -16v-76q0 -14 -12 -8q-75 45 -180 45q-133 0 -203.5 -93.5t-70.5 -283.5
q0 -96 2 -157h323q8 0 8 -9v-63q0 -8 -8 -8h-323q3 -197 -38.5 -321.5t-140.5 -211.5h699q9 0 6 -10l-12 -74q-3 -8 -11 -8z" />
    <glyph glyph-name="currency" unicode="&#xa4;" horiz-adv-x="1026" 
d="M229 653q0 -77 26 -137t69 -94.5t91 -52t97 -17.5q53 0 101 15.5t90 48t67 92.5t25 141q0 56 -18 110t-52.5 100t-91 74t-125.5 28q-129 0 -204 -87t-75 -221zM145 653q0 138 82 242l-135 135q-6 10 0 14l41 43q7 7 14 0l136 -133q94 80 227 80q139 0 231 -82l140 135
q7 5 14 -2l41 -41q4 -6 -2 -14l-137 -133q80 -96 80 -248q0 -140 -72 -233l133 -135q4 -9 0 -13l-41 -41q-8 -6 -14 0l-133 133q-40 -36 -103 -60t-135 -24q-147 0 -236 82l-131 -131q-6 -8 -12 -2l-41 43q-9 6 -2 13l131 135q-76 97 -76 237z" />
    <glyph glyph-name="yen" unicode="&#xa5;" horiz-adv-x="929" 
d="M500 0h-72q-12 2 -12 10v373h-273q-12 0 -12 10v56q0 10 12 10h273v153h-273q-12 0 -12 15v51q0 10 12 10h246l-375 615q-3 10 6 10h91q7 0 12 -8q212 -354 269.5 -453.5t74.5 -140.5h4q7 16 16.5 34.5t34 61t55 95t94 163t136.5 238.5q10 10 14 10h88q11 0 4 -13
l-370 -612h250q8 0 8 -10v-55q0 -11 -10 -11h-279v-153h279q10 0 10 -8v-60q0 -8 -13 -8h-276v-373q-4 -10 -12 -10z" />
    <glyph glyph-name="brokenbar" unicode="&#xa6;" horiz-adv-x="364" 
d="M227 -401h-90v802h90v-802zM227 1606v-803h-90v803h90z" />
    <glyph glyph-name="section" unicode="&#xa7;" horiz-adv-x="962" 
d="M637 -63q141 119 141 321q0 118 -60 227t-216 271q-114 118 -167.5 190t-68.5 119.5t-10 108.5q-104 -133 -104 -302q0 -36 7.5 -71t16 -62.5t32 -65.5t39 -62t55 -72t62 -74t76.5 -88q120 -138 169.5 -237.5t27.5 -202.5zM121 -147v84q0 11 10 4q112 -86 266 -86
q79 0 122.5 27t43.5 81q0 83 -37 149.5t-161 204.5q-112 127 -169.5 205.5t-91.5 163t-34 174.5q0 135 60 255t168.5 193.5t238.5 73.5q150 0 221 -53q6 -6 6 -12v-78q0 -4 -5 -5.5t-9 1.5q-88 61 -222 61q-94 0 -145 -35t-51 -96q0 -24 1 -35t11.5 -37.5t31.5 -54.5
t62.5 -76t104.5 -112q56 -58 85 -90t74 -85.5t68.5 -93.5t49 -92t36 -105.5t10.5 -111.5q0 -139 -65.5 -256.5t-174.5 -184.5t-235 -67q-85 0 -157 22t-105 50q-8 5 -8 17z" />
    <glyph glyph-name="dieresis" unicode="&#xa8;" 
d="M221 1239q-27 0 -44 18t-17 46q0 31 18 49t45 18q25 0 42.5 -18.5t17.5 -48.5q0 -28 -18 -46t-44 -18zM573 1239q-27 0 -44 17.5t-17 46.5q0 31 17.5 49t43.5 18q28 0 45 -19t17 -48q0 -26 -18 -45t-44 -19z" />
    <glyph glyph-name="copyright" unicode="&#xa9;" horiz-adv-x="1587" 
d="M115 682q0 191 87.5 348.5t243.5 248.5t347 91q192 0 347 -91t241.5 -248t86.5 -349q0 -199 -86.5 -356.5t-240.5 -245.5t-348 -88q-145 0 -271.5 52.5t-215.5 143.5t-140 219t-51 275zM190 682q0 -133 46.5 -248t127 -195t192 -125.5t237.5 -45.5q176 0 313.5 78.5
t213 218.5t73.5 317q-2 176 -82.5 317.5t-217.5 220t-302 78.5q-131 0 -243.5 -48t-190.5 -130.5t-122.5 -196t-44.5 -241.5zM1069 412v-62q0 -6 -10 -14q-83 -51 -217 -51q-102 0 -183 33t-130 89.5t-75 126t-26 146.5q0 173 117.5 288t306.5 115q109 0 203 -43q6 -4 6 -14
v-68q0 -3 -2.5 -5t-7.5 1q-79 50 -199 50q-152 0 -244 -89.5t-92 -230.5q0 -148 94 -232.5t238 -84.5q118 0 209 49q5 3 8.5 1t3.5 -5z" />
    <glyph glyph-name="ordfeminine" unicode="&#xaa;" horiz-adv-x="657" 
d="M311 1192q117 0 179.5 -66.5t62.5 -173.5v-368q0 -9 -8 -13q-109 -41 -226 -41t-191.5 51.5t-74.5 151.5q0 66 35.5 111.5t98 67t132.5 28.5t154 2v19q0 157 -174 157q-91 0 -178 -47q-8 -4 -8 6v58q0 5 6 8q87 49 192 49zM131 737q0 -65 50.5 -101t142.5 -36
q80 0 149 21v256q-64 7 -125.5 2.5t-109.5 -18t-77.5 -45.5t-29.5 -79z" />
    <glyph glyph-name="guillemotleft" unicode="&#xab;" horiz-adv-x="1046" 
d="M115 469v55q0 8 8 11l395 350q12 6 12 -6v-80q0 -11 -8 -15l-321 -288l323 -293q6 -6 6 -15v-84q0 -14 -12 -8l-395 359q-8 3 -8 14zM516 469v55q0 8 6 11l396 350q12 6 12 -6v-80q0 -11 -8 -15l-320 -288l320 -293q8 -5 8 -15v-84q0 -14 -12 -8l-396 359q-6 3 -6 14z
" />
    <glyph glyph-name="logicalnot" unicode="&#xac;" horiz-adv-x="1126" 
d="M70 760h981q10 0 10 -10v-486q0 -8 -8 -8h-68q-10 0 -10 8v416h-905q-9 0 -9 10v64q0 6 9 6z" />
    <glyph glyph-name="uni00AD" unicode="&#xad;" horiz-adv-x="602" 
d="M518 465h-434q-10 0 -10 8v72q0 10 8 10h436q10 0 10 -10v-72q0 -8 -10 -8z" />
    <glyph glyph-name="registered" unicode="&#xae;" horiz-adv-x="434" 
d="M238 874q-106 0 -179 73t-73 181q0 106 72.5 180t179.5 74q106 0 177.5 -73.5t71.5 -180.5q0 -109 -71.5 -181.5t-177.5 -72.5zM244 920q91 0 144.5 59t53.5 147q0 91 -57.5 152t-148.5 61q-88 0 -145.5 -59t-57.5 -152q0 -89 59 -148.5t152 -59.5zM184 1110v-104
q0 -5 -6 -5h-28q-5 0 -5 5v258q0 6 5 6h77q105 0 105 -78q0 -55 -60 -72q3 -5 40 -52t44 -60q6 -3 2 -6l-4 -1h-32q-8 0 -11 3q-21 24 -75 100q-6 6 -13 6h-39zM184 1233v-88h35q39 0 54.5 10.5t15.5 32.5q0 45 -62 45h-43z" />
    <glyph glyph-name="macron" unicode="&#xaf;" 
d="M156 1335h491q8 0 8 -8v-65q0 -9 -8 -9h-491q-9 0 -9 11v63q0 8 9 8z" />
    <glyph glyph-name="degree" unicode="&#xb0;" horiz-adv-x="528" 
d="M264 1331q99 0 165.5 -67.5t66.5 -173.5q0 -105 -65.5 -175.5t-166.5 -70.5q-98 0 -165.5 71.5t-67.5 174.5q0 100 67.5 170.5t165.5 70.5zM264 1266q-67 0 -113.5 -51t-46.5 -125q0 -76 46 -126.5t114 -50.5q70 0 116 50t46 127q0 73 -47 124.5t-115 51.5z" />
    <glyph glyph-name="plusminus" unicode="&#xb1;" horiz-adv-x="1130" 
d="M532 1225h68q8 0 8 -11v-452h449q10 0 10 -10v-60q0 -10 -10 -10h-449v-467q0 -8 -8 -8h-68q-8 0 -8 8v467h-450q-11 0 -11 10v62q0 8 11 8h450v452q0 11 8 11zM74 80h983q10 0 10 -10v-60q0 -7 -2.5 -8.5t-7.5 -1.5h-983q-11 0 -11 10v60q0 10 11 10z" />
    <glyph glyph-name="twosuperior" unicode="&#xb2;" horiz-adv-x="645" 
d="M580 872h-514q-7 0 -7 7v45q0 4 4 8q190 143 257 206q150 143 151 265q0 76 -42.5 125t-133.5 49q-120 0 -209 -61q-8 -4 -8 6v63q0 8 6 12q99 58 221 58t185 -71t63 -175q0 -44 -12.5 -85.5t-40.5 -83t-55 -74t-76 -75.5t-81.5 -69.5t-92.5 -73.5h401q6 0 6 -6l-12 -63
q-2 -7 -10 -7z" />
    <glyph glyph-name="threesuperior" unicode="&#xb3;" horiz-adv-x="643" 
d="M201 1247v56q0 8 6 8h63q97 0 140 39t43 96q0 62 -45 97.5t-127 35.5q-102 0 -193 -55q-6 -3 -6 4v61q0 6 4 10q88 56 207 56q107 0 172 -55.5t65 -141.5q0 -67 -33 -110t-87 -62v-2q65 -18 111 -65.5t46 -128.5q0 -105 -81 -166.5t-199 -61.5q-125 0 -211 49q-8 3 -8 13
v69q0 2 2.5 3.5t5.5 0.5q94 -61 209 -61q99 0 150.5 43.5t51.5 105.5q0 76 -55.5 116t-161.5 40h-63q-6 0 -6 6z" />
    <glyph glyph-name="acute" unicode="&#xb4;" 
d="M346 1149l219 293q10 10 15 10h92q13 0 8 -10l-236 -295q-5 -8 -14 -8h-78q-5 0 -7 2.5t1 7.5z" />
    <glyph glyph-name="uni00B5" unicode="&#xb5;" horiz-adv-x="1083" 
d="M963 -20q-24 0 -40.5 2t-40.5 12.5t-39.5 30t-27.5 57.5t-14 92v72q-100 -266 -348 -266q-57 0 -112 22t-89 72q6 -214 2 -535q0 -8 -8 -10q-45 -10 -80 -10q-8 0 -8 12v1438q0 12 10 12h76q10 0 10 -12v-682q0 -99 56 -158t149 -59q152 0 244 125.5t92 341.5v434
q0 10 10 10h78q8 0 8 -10v-766q0 -79 23 -108t67 -29q16 0 43 6q4 1 6 -1t2 -7v-62q0 -9 -8 -12q-24 -12 -61 -12z" />
    <glyph glyph-name="paragraph" unicode="&#xb6;" horiz-adv-x="1130" 
d="M623 1362h301q11 0 8 -8q-4 -40 -4 -68l-4 -1038q0 -303 10 -379q2 -10 -8 -10h-49q-8 0 -11 8q-14 69 -14 434v979l-147 -2v-979q0 -357 -17 -434q-3 -8 -12 -8h-51q-7 0 -7 12q11 86 11 377v407q-110 -5 -207 12t-178 58t-128.5 116.5t-47.5 176.5q0 81 29 142t92 108
t172.5 71.5t261.5 24.5z" />
    <glyph glyph-name="periodcentered" unicode="&#xb7;" horiz-adv-x="376" 
d="M188 436q-32 0 -51.5 20t-19.5 54q0 30 20 51t51 21q32 0 52 -21t20 -51q0 -34 -19 -54t-53 -20z" />
    <glyph glyph-name="cedilla" unicode="&#xb8;" 
d="M377 8h82l-74 -110q176 -44 176 -179q0 -76 -54 -119.5t-136 -43.5q-83 0 -131 28q-9 3 -9 13v55q0 3 3.5 5t7.5 1q64 -31 125 -31q110 0 110 88q0 101 -192 127q-8 3 -2 27z" />
    <glyph glyph-name="onesuperior" unicode="&#xb9;" horiz-adv-x="499" 
d="M319 872h-67q-8 0 -8 9v678q-66 -31 -160 -62q-8 -3 -8 6v60q0 6 4 8q68 20 172 65q9 6 16 6h51q7 0 7 -8v-753q0 -9 -7 -9z" />
    <glyph glyph-name="ordmasculine" unicode="&#xba;" horiz-adv-x="729" 
d="M367 1192q132 0 218.5 -92.5t86.5 -241.5q0 -147 -85.5 -237.5t-217.5 -90.5q-62 0 -114.5 19.5t-88.5 52t-61 75.5t-36.5 89.5t-11.5 93.5q0 144 86.5 238t223.5 94zM362 1120q-102 0 -161.5 -70.5t-59.5 -187.5q0 -106 60 -184t170 -78q90 0 154.5 64.5t64.5 193.5
q0 46 -13 90.5t-39 84t-71.5 63.5t-104.5 24z" />
    <glyph glyph-name="guillemotright" unicode="&#xbb;" horiz-adv-x="1046" 
d="M932 514v-55q0 -8 -8 -13l-396 -348q-12 -9 -12 6v78q0 11 8 17l322 288l-324 291q-6 6 -6 15v86q0 11 12 6l396 -357q8 -5 8 -14zM530 514v-55q0 -7 -6 -10l-395 -351q-12 -9 -12 6v78q0 11 8 17l319 288l-319 291q-8 8 -8 15v86q0 12 12 6l395 -357q6 -6 6 -14z" />
    <glyph glyph-name="onequarter" unicode="&#xbc;" horiz-adv-x="1374" 
d="M297 -20h-64q-11 0 -6 8l754 1337q4 6 8 6h68q8 0 4 -8l-752 -1335q-3 -8 -12 -8zM319 543h-67q-8 0 -8 8v678q-66 -31 -160 -62q-8 -3 -8 7v59q0 6 4 8q61 18 172 66q9 6 16 6h51q7 0 7 -8v-754q0 -8 -7 -8zM1159 0h-59q-8 0 -8 8v203h-367q-6 0 -6 6v43q0 6 4 10
q226 315 364 492q4 8 11 8h61q8 0 8 -8v-483h136q6 0 6 -7l-9 -55q-3 -6 -8 -6h-125v-203q0 -8 -8 -8zM803 279h289q0 286 6 403h-2q-44 -73 -293 -403z" />
    <glyph glyph-name="onehalf" unicode="&#xbd;" horiz-adv-x="1456" 
d="M279 -20h-64q-11 0 -6 10l754 1335q2 6 8 6h67q8 0 4 -8l-751 -1335q-5 -8 -12 -8zM322 543h-66q-8 0 -8 8v678q-70 -33 -162 -62q-3 -1 -4.5 1t-1.5 6v59q0 6 4 8q76 23 170 66q12 6 16 6h54q6 0 6 -8v-754q0 -8 -8 -8zM1362 0h-514q-6 0 -6 6v45q0 4 4 8
q191 144 259 208q147 142 148 263q0 76 -42.5 125.5t-133.5 49.5q-118 0 -209 -62q-8 -4 -8 6v64q0 6 6 12q97 57 221 57q122 0 185 -71t63 -174q0 -44 -12.5 -85.5t-40.5 -83t-55 -74t-76 -75.5t-81.5 -69.5t-92.5 -73.5h401q6 0 6 -6l-12 -64q-2 -6 -10 -6z" />
    <glyph glyph-name="threequarters" unicode="&#xbe;" horiz-adv-x="1435" 
d="M420 -20h-62q-11 0 -6 10l752 1335q4 6 10 6h66q8 0 4 -8l-752 -1335q-3 -8 -12 -8zM1235 0h-61q-7 0 -7 8v203h-366q-8 0 -8 6v43q0 4 6 10q226 315 364 492q4 8 11 8h61q6 0 6 -8v-483h137q6 0 6 -7l-10 -55q0 -6 -8 -6h-125v-203q0 -8 -6 -8zM879 279h288q0 267 7 403
h-3q-48 -79 -292 -403zM213 918v55q0 8 6 8h64q97 0 139.5 39t42.5 96q0 62 -45.5 97.5t-128.5 35.5q-102 0 -191 -55q-6 -3 -6 4v62q0 8 4 10q83 55 207 55q107 0 172.5 -55.5t65.5 -141.5q0 -67 -33.5 -110t-87.5 -62v-2q65 -18 111.5 -65.5t46.5 -128.5
q0 -104 -82.5 -166t-198.5 -62q-122 0 -213 50q-6 3 -6 12v70q0 2 2.5 3.5t5.5 0.5q95 -62 209 -62q99 0 151 44t52 106q0 76 -56 115.5t-161 39.5h-64q-6 0 -6 7z" />
    <glyph glyph-name="questiondown" unicode="&#xbf;" horiz-adv-x="669" 
d="M383 -403q-150 0 -235 85.5t-85 221.5q0 91 35.5 159t100.5 136q10 11 33.5 35t34.5 35.5t29.5 32.5t27.5 35t19.5 32t14.5 35t4 34q0 76 -49 140q-3 3 -1.5 6.5t7.5 3.5h70q8 0 14 -6q52 -63 52 -150q0 -21 -4.5 -41.5t-16 -42t-20.5 -36.5t-30 -39.5t-32 -37t-39 -41
t-39 -40.5q-60 -65 -85 -118t-25 -126q0 -100 59.5 -160.5t169.5 -60.5q137 0 244 73q3 2 6.5 0t3.5 -6v-78q0 -10 -6 -12q-37 -26 -107.5 -47.5t-150.5 -21.5zM367 997q31 0 49 -18.5t18 -50.5q0 -29 -18.5 -48.5t-48.5 -19.5t-49 20t-19 48q0 32 18 50.5t50 18.5z" />
    <glyph glyph-name="Agrave" unicode="&#xc0;" horiz-adv-x="1159" 
d="M852 496h-553l-176 -486q-3 -10 -12 -10h-78q-11 0 -8 12l471 1284q8 25 10 58q0 8 8 8h119q9 0 12 -8l490 -1342q3 -12 -9 -12h-84q-9 0 -12 8zM330 588h493q-9 25 -70.5 195.5t-109.5 307t-65 195.5h-3q-11 -37 -29 -92t-47 -137.5t-50 -140.5t-61.5 -170t-57.5 -158z
M391 1722l254 -215q9 -12 -6 -12h-92q-10 0 -21 8l-268 215q-4 4 -2.5 7.5t6.5 3.5h113q9 0 16 -7z" />
    <glyph glyph-name="Aacute" unicode="&#xc1;" horiz-adv-x="1159" 
d="M852 496h-553l-176 -486q-3 -10 -12 -10h-78q-11 0 -8 12l471 1284q8 25 10 58q0 8 8 8h119q9 0 12 -8l490 -1342q3 -12 -9 -12h-84q-9 0 -12 8zM330 588h493q-9 25 -70.5 195.5t-109.5 307t-65 195.5h-3q-11 -37 -29 -92t-47 -137.5t-50 -140.5t-61.5 -170t-57.5 -158z
M496 1505l260 221q5 7 14 7h107q13 0 4 -13l-271 -219q-6 -6 -16 -6h-94q-5 0 -6.5 3.5t2.5 6.5z" />
    <glyph glyph-name="Acircumflex" unicode="&#xc2;" horiz-adv-x="1159" 
d="M852 496h-553l-176 -486q-3 -10 -12 -10h-78q-11 0 -8 12l471 1284q8 25 10 58q0 8 8 8h119q9 0 12 -8l490 -1342q3 -12 -9 -12h-84q-9 0 -12 8zM330 588h493q-9 25 -70.5 195.5t-109.5 307t-65 195.5h-3q-11 -37 -29 -92t-47 -137.5t-50 -140.5t-61.5 -170t-57.5 -158z
M741 1477l-172 174l-166 -174q-5 -9 -16 -9h-82q-4 0 -4.5 6t2.5 9l209 217q6 6 10 6h96q14 0 17 -8l219 -221q3 -3 1 -6t-7 -3h-88q-13 0 -19 9z" />
    <glyph glyph-name="Atilde" unicode="&#xc3;" horiz-adv-x="1159" 
d="M852 496h-553l-176 -486q-3 -10 -12 -10h-78q-11 0 -8 12l471 1284q8 25 10 58q0 8 8 8h119q9 0 12 -8l490 -1342q3 -12 -9 -12h-84q-9 0 -12 8zM330 588h493q-9 25 -70.5 195.5t-109.5 307t-65 195.5h-3q-11 -37 -29 -92t-47 -137.5t-50 -140.5t-61.5 -170t-57.5 -158z
M358 1491h-63q-5 0 -8 8q3 80 51 134.5t119 54.5q42 0 80.5 -18.5t62.5 -40t53.5 -40t55.5 -18.5q71 0 84 102q0 8 8 8h63q6 0 6 -8q-8 -98 -51 -141t-108 -43q-39 0 -76.5 18.5t-61.5 41t-55 41t-59 18.5q-36 0 -61 -28t-31 -81q-3 -8 -9 -8z" />
    <glyph glyph-name="Adieresis" unicode="&#xc4;" horiz-adv-x="1159" 
d="M852 496h-553l-176 -486q-3 -10 -12 -10h-78q-11 0 -8 12l471 1284q8 25 10 58q0 8 8 8h119q9 0 12 -8l490 -1342q3 -12 -9 -12h-84q-9 0 -12 8zM330 588h493q-9 25 -70.5 195.5t-109.5 307t-65 195.5h-3q-11 -37 -29 -92t-47 -137.5t-50 -140.5t-61.5 -170t-57.5 -158z
M395 1513q-29 0 -47 18t-18 46q0 27 19.5 45t47.5 18q29 0 46.5 -18t17.5 -45q0 -28 -19 -46t-47 -18zM756 1513q-28 0 -46 17.5t-18 46.5q0 27 19.5 45t46.5 18q28 0 46.5 -17.5t18.5 -45.5q0 -29 -18 -46.5t-49 -17.5z" />
    <glyph glyph-name="Aring" unicode="&#xc5;" horiz-adv-x="1159" 
d="M852 496h-553l-176 -486q-3 -10 -12 -10h-78q-11 0 -8 12l471 1284q8 25 10 58q0 8 8 8h119q9 0 12 -8l490 -1342q3 -12 -9 -12h-84q-9 0 -12 8zM330 588h493q-9 25 -70.5 195.5t-109.5 307t-65 195.5h-3q-11 -37 -29 -92t-47 -137.5t-50 -140.5t-61.5 -170t-57.5 -158z
M375 1602q0 76 55.5 121.5t142.5 45.5q90 0 144.5 -47t54.5 -120q0 -74 -56 -122t-143 -48q-90 0 -144 48t-54 122zM446 1602q0 -47 35.5 -77t91.5 -30q57 0 92 29t35 78q0 50 -35 78t-92 28q-56 0 -91.5 -28.5t-35.5 -77.5z" />
    <glyph glyph-name="AE" unicode="&#xc6;" horiz-adv-x="1581" 
d="M78 0h-90q-11 0 -4 10l692 1286q11 19 24 60q6 6 11 6h759q7 0 9 -2t2 -8l8 -72q5 -10 -8 -10h-613l41 -531h543q9 0 6 -8l-2 -76q0 -6 -10 -6h-531l43 -557h590q9 0 6 -10l-14 -74q-3 -8 -10 -8h-658q-8 0 -8 6l-39 510h-465l-270 -508q-5 -8 -12 -8zM406 606h417
l-35 461q-15 196 -16 229h-2q-64 -124 -115 -229z" />
    <glyph glyph-name="Ccedilla" unicode="&#xc7;" horiz-adv-x="1120" 
d="M586 -131l80 117q-88 12 -168 42t-156.5 86.5t-131.5 133.5t-88.5 190t-33.5 250q0 151 51 280t143 220t224 142.5t289 51.5q188 0 258 -36q8 -3 8 -15v-80q0 -7 -3.5 -8.5t-6.5 2.5q-89 47 -263 47q-265 0 -432.5 -164.5t-167.5 -435.5q0 -143 41.5 -255.5t104.5 -178.5
t145.5 -109.5t156 -59t144.5 -15.5q170 0 258 37q13 4 13 -7v-69q0 -13 -11 -17q-86 -38 -268 -38h-29l-55 -82q174 -44 174 -179q0 -76 -53.5 -119.5t-134.5 -43.5q-83 0 -131 28q-8 3 -8 10v58q0 8 10 6q60 -31 125 -31q52 0 81 22.5t29 65.5q0 100 -192 127q-8 3 -2 27z
" />
    <glyph glyph-name="Egrave" unicode="&#xc8;" horiz-adv-x="1003" 
d="M958 82l-14 -72q-2 -10 -12 -10h-744q-14 0 -14 14v1334q0 14 12 14h709q9 0 12 -10l11 -70q3 -12 -11 -12h-635v-527h572q10 0 10 -10v-69q0 -13 -10 -13h-572v-559h678q11 0 8 -10zM377 1722l254 -217q9 -12 -4 -12h-95q-9 0 -20 8l-268 215q-4 4 -2.5 8.5t6.5 4.5h112
q10 0 17 -7z" />
    <glyph glyph-name="Eacute" unicode="&#xc9;" horiz-adv-x="1003" 
d="M958 82l-14 -72q-2 -10 -12 -10h-744q-14 0 -14 14v1334q0 14 12 14h709q9 0 12 -10l11 -70q3 -12 -11 -12h-635v-527h572q10 0 10 -10v-69q0 -13 -10 -13h-572v-559h678q11 0 8 -10zM438 1501l260 223q7 5 15 5h106q6 0 6.5 -4t-2.5 -7l-268 -221q-9 -6 -16 -6h-97
q-4 0 -5.5 3.5t1.5 6.5z" />
    <glyph glyph-name="Ecircumflex" unicode="&#xca;" horiz-adv-x="1003" 
d="M958 82l-14 -72q-2 -10 -12 -10h-744q-14 0 -14 14v1334q0 14 12 14h709q9 0 12 -10l11 -70q3 -12 -11 -12h-635v-527h572q10 0 10 -10v-69q0 -13 -10 -13h-572v-559h678q11 0 8 -10zM702 1489l-172 176l-168 -174q-4 -8 -14 -8h-82q-4 0 -5 2.5t-0.5 5.5t1.5 4l209 219
q6 4 12 4h95q12 0 18 -6l217 -221q8 -8 -4 -8h-88q-13 0 -19 6z" />
    <glyph glyph-name="Edieresis" unicode="&#xcb;" horiz-adv-x="1003" 
d="M958 82l-14 -72q-2 -10 -12 -10h-744q-14 0 -14 14v1334q0 14 12 14h709q9 0 12 -10l11 -70q3 -12 -11 -12h-635v-527h572q10 0 10 -10v-69q0 -13 -10 -13h-572v-559h678q11 0 8 -10zM348 1532q-28 0 -45.5 18.5t-17.5 46.5q0 27 19.5 45.5t47.5 18.5q27 0 45.5 -19.5
t18.5 -44.5q0 -28 -19.5 -46.5t-48.5 -18.5zM711 1532q-28 0 -46 18t-18 47q0 27 19.5 45.5t46.5 18.5q28 0 46.5 -18t18.5 -46q0 -31 -18 -48t-49 -17z" />
    <glyph glyph-name="Igrave" unicode="&#xcc;" horiz-adv-x="448" 
d="M272 1352v-1340q0 -12 -10 -12h-78q-10 0 -10 12v1338q0 12 10 12h78q10 0 10 -10zM39 1716l254 -217q4 -5 2.5 -7.5t-6.5 -2.5h-94q-10 0 -21 8l-268 215q-4 4 -2.5 7t6.5 3h113q10 0 16 -6z" />
    <glyph glyph-name="Iacute" unicode="&#xcd;" horiz-adv-x="448" 
d="M272 1352v-1340q0 -12 -10 -12h-78q-10 0 -10 12v1338q0 12 10 12h78q10 0 10 -10zM150 1505l260 224q4 4 14 4h106q6 0 7 -4.5t-2 -8.5l-271 -219q-6 -6 -16 -6h-94q-5 0 -6.5 3.5t2.5 6.5z" />
    <glyph glyph-name="Icircumflex" unicode="&#xce;" horiz-adv-x="448" 
d="M272 1352v-1340q0 -12 -10 -12h-78q-10 0 -10 12v1338q0 12 10 12h78q10 0 10 -10zM387 1466l-172 174l-168 -172q-5 -10 -14 -10h-82q-4 0 -4.5 6t2.5 9l209 219q4 4 10 4h94q16 0 19 -6l219 -224q3 -3 1 -5.5t-7 -2.5h-88q-11 0 -19 8z" />
    <glyph glyph-name="Idieresis" unicode="&#xcf;" horiz-adv-x="448" 
d="M272 1352v-1340q0 -12 -10 -12h-78q-10 0 -10 12v1338q0 12 10 12h78q10 0 10 -10zM41 1516q-28 0 -46 17.5t-18 45.5q0 27 19.5 45t46.5 18q28 0 45.5 -18.5t17.5 -44.5q0 -28 -18 -45.5t-47 -17.5zM403 1516q-28 0 -45.5 17t-17.5 46q0 27 19.5 45t46.5 18
q28 0 46.5 -17.5t18.5 -45.5q0 -30 -18.5 -46.5t-49.5 -16.5z" />
    <glyph glyph-name="Eth" unicode="&#xd0;" horiz-adv-x="1323" 
d="M291 666v-576q78 -4 207 -4q141 0 256.5 37.5t202 112t134.5 194.5t48 275q0 140 -47 250.5t-129.5 180t-192 106t-238.5 36.5q-105 0 -241 -4v-526h409q9 0 9 -9v-65q0 -8 -9 -8h-409zM193 748v598q0 12 12 14q135 6 332 6q328 0 515 -180t187 -479q0 -112 -23 -208.5
t-63.5 -168.5t-97 -129t-121 -95t-138.5 -63t-147 -36t-149 -11q-149 0 -297 4q-10 0 -10 14v652h-168q-9 0 -9 8v65q0 9 9 9h168z" />
    <glyph glyph-name="Ntilde" unicode="&#xd1;" horiz-adv-x="1349" 
d="M260 0h-74q-12 0 -12 12v1340q0 10 10 10h119q9 0 14 -8q695 -1121 766 -1248h2q-6 76 -6 304v942q0 10 13 10h73q11 0 11 -12v-1338q0 -12 -13 -12h-112q-13 0 -17 10q-26 45 -384 625t-388 643h-2q8 -114 8 -342v-924q0 -12 -8 -12zM463 1499h-62q-8 0 -8 8
q3 79 51 134t119 55q41 0 79.5 -18.5t62 -41t53.5 -41t57 -18.5q69 0 82 104q0 9 8 9h64q8 0 8 -9q-10 -99 -53 -141.5t-107 -42.5q-39 0 -76.5 18.5t-61.5 40t-55.5 40t-60.5 18.5q-36 0 -61 -28t-31 -81q0 -6 -8 -6z" />
    <glyph glyph-name="Ograve" unicode="&#xd2;" horiz-adv-x="1380" 
d="M688 1380q136 0 249.5 -53t190 -145.5t119 -219.5t43.5 -274q1 -167 -44.5 -302.5t-126 -223.5t-188.5 -135t-235 -47q-141 0 -256 53t-192 147t-118.5 223t-41.5 281q0 158 46.5 289.5t127 220t190.5 137.5t236 49zM188 686q0 -99 20.5 -189.5t62.5 -168t101.5 -134.5
t142.5 -89.5t181 -32.5q232 0 363 167.5t131 446.5q0 172 -62.5 309.5t-178 216t-263.5 78.5q-102 0 -191.5 -39t-158.5 -113t-108.5 -190.5t-39.5 -261.5zM532 1739l254 -217q4 -4 2 -7.5t-8 -3.5h-92q-11 0 -20 7l-269 215q-9 12 4 12h113q10 0 16 -6z" />
    <glyph glyph-name="Oacute" unicode="&#xd3;" horiz-adv-x="1380" 
d="M688 1380q136 0 249.5 -53t190 -145.5t119 -219.5t43.5 -274q1 -167 -44.5 -302.5t-126 -223.5t-188.5 -135t-235 -47q-141 0 -256 53t-192 147t-118.5 223t-41.5 281q0 158 46.5 289.5t127 220t190.5 137.5t236 49zM188 686q0 -99 20.5 -189.5t62.5 -168t101.5 -134.5
t142.5 -89.5t181 -32.5q232 0 363 167.5t131 446.5q0 172 -62.5 309.5t-178 216t-263.5 78.5q-102 0 -191.5 -39t-158.5 -113t-108.5 -190.5t-39.5 -261.5zM588 1511l260 224q6 4 16 4h105q6 0 6.5 -3.5t-2.5 -6.5l-268 -222q-9 -6 -17 -6h-94q-6 0 -7.5 3.5t1.5 6.5z" />
    <glyph glyph-name="Ocircumflex" unicode="&#xd4;" horiz-adv-x="1380" 
d="M688 1380q136 0 249.5 -53t190 -145.5t119 -219.5t43.5 -274q1 -167 -44.5 -302.5t-126 -223.5t-188.5 -135t-235 -47q-141 0 -256 53t-192 147t-118.5 223t-41.5 281q0 158 46.5 289.5t127 220t190.5 137.5t236 49zM188 686q0 -99 20.5 -189.5t62.5 -168t101.5 -134.5
t142.5 -89.5t181 -32.5q232 0 363 167.5t131 446.5q0 172 -62.5 309.5t-178 216t-263.5 78.5q-102 0 -191.5 -39t-158.5 -113t-108.5 -190.5t-39.5 -261.5zM852 1501l-172 174l-166 -174q-8 -8 -16 -8h-82q-4 0 -4.5 5.5t2.5 8.5l209 217q5 7 10 7h96q13 0 16 -7l220 -223
q3 -3 0.5 -5.5t-7.5 -2.5h-88q-13 0 -18 8z" />
    <glyph glyph-name="Otilde" unicode="&#xd5;" horiz-adv-x="1380" 
d="M688 1380q136 0 249.5 -53t190 -145.5t119 -219.5t43.5 -274q1 -167 -44.5 -302.5t-126 -223.5t-188.5 -135t-235 -47q-141 0 -256 53t-192 147t-118.5 223t-41.5 281q0 158 46.5 289.5t127 220t190.5 137.5t236 49zM188 686q0 -99 20.5 -189.5t62.5 -168t101.5 -134.5
t142.5 -89.5t181 -32.5q232 0 363 167.5t131 446.5q0 172 -62.5 309.5t-178 216t-263.5 78.5q-102 0 -191.5 -39t-158.5 -113t-108.5 -190.5t-39.5 -261.5zM471 1522h-63q-9 0 -9 8q3 80 51 134t119 54q42 0 80.5 -18t62 -40t53 -40t56.5 -18q71 0 84 104q0 6 8 6h62
q8 0 8 -8q-10 -97 -53.5 -140.5t-106.5 -43.5q-39 0 -76.5 18.5t-61.5 40.5t-55 40.5t-59 18.5q-37 0 -62.5 -28t-31.5 -80q0 -8 -6 -8z" />
    <glyph glyph-name="Odieresis" unicode="&#xd6;" horiz-adv-x="1380" 
d="M688 1380q136 0 249.5 -53t190 -145.5t119 -219.5t43.5 -274q1 -167 -44.5 -302.5t-126 -223.5t-188.5 -135t-235 -47q-141 0 -256 53t-192 147t-118.5 223t-41.5 281q0 158 46.5 289.5t127 220t190.5 137.5t236 49zM188 686q0 -99 20.5 -189.5t62.5 -168t101.5 -134.5
t142.5 -89.5t181 -32.5q232 0 363 167.5t131 446.5q0 172 -62.5 309.5t-178 216t-263.5 78.5q-102 0 -191.5 -39t-158.5 -113t-108.5 -190.5t-39.5 -261.5zM508 1546q-29 0 -47.5 18t-18.5 46q0 27 20 45t48 18q29 0 46 -18t17 -45q0 -28 -18.5 -46t-46.5 -18zM868 1546
q-28 0 -45.5 17.5t-17.5 46.5q0 27 19 45t46 18q28 0 47 -18t19 -45q0 -29 -18.5 -46.5t-49.5 -17.5z" />
    <glyph glyph-name="multiply" unicode="&#xd7;" horiz-adv-x="1138" 
d="M96 969l43 43q5 5 15 -2l415 -430l416 428q9 10 19 0l38 -41q7 -10 -2 -19l-415 -422l415 -426q9 -9 0 -18l-39 -39q-10 -7 -16 2l-418 426l-413 -426q-9 -9 -15 -2l-41 41q-8 8 0 16l416 424l-418 428q-6 8 0 17z" />
    <glyph glyph-name="Oslash" unicode="&#xd8;" horiz-adv-x="1380" 
d="M1049 1126l-660 -950q125 -106 307 -106q233 0 365.5 168.5t132.5 447.5q0 268 -145 440zM336 227l661 951q-129 114 -311 114q-103 0 -193.5 -39.5t-159.5 -114t-109 -191t-40 -261.5q0 -135 39 -254.5t113 -204.5zM1204 1352l-100 -144q89 -93 136.5 -227t49.5 -293
q1 -167 -44.5 -302.5t-126 -223.5t-188.5 -135t-235 -47q-212 0 -362 116l-62 -90q-2 -6 -12 -6h-70q-10 0 -6 8l97 137q-94 95 -143.5 234t-49.5 305q0 158 46.5 290t127 221t190.5 138t236 49q215 0 365 -125l67 99q6 6 10 6h68q5 0 7 -3t-1 -7z" />
    <glyph glyph-name="Ugrave" unicode="&#xd9;" horiz-adv-x="1292" 
d="M254 1352v-875q0 -191 105 -298t292 -107q59 0 110.5 10t104 38t89.5 72t60 118.5t23 172.5v869q0 10 11 10h77q11 0 11 -10v-863q0 -135 -37 -235t-104 -158.5t-154 -87t-195 -28.5q-229 0 -360 125.5t-131 371.5v875q0 10 10 10h78q10 0 10 -10zM504 1737l254 -217
q4 -4 2 -7.5t-8 -3.5h-93q-8 0 -20 9l-268 215q-4 5 -2.5 7.5t6.5 2.5h112q11 0 17 -6z" />
    <glyph glyph-name="Uacute" unicode="&#xda;" horiz-adv-x="1292" 
d="M254 1352v-875q0 -191 105 -298t292 -107q59 0 110.5 10t104 38t89.5 72t60 118.5t23 172.5v869q0 10 11 10h77q11 0 11 -10v-863q0 -135 -37 -235t-104 -158.5t-154 -87t-195 -28.5q-229 0 -360 125.5t-131 371.5v875q0 10 10 10h78q10 0 10 -10zM539 1509l260 224
q4 4 14 4h107q6 0 6.5 -4t-2.5 -7l-271 -219q-4 -6 -16 -6h-94q-5 0 -6.5 2.5t2.5 5.5z" />
    <glyph glyph-name="Ucircumflex" unicode="&#xdb;" horiz-adv-x="1292" 
d="M254 1352v-875q0 -191 105 -298t292 -107q59 0 110.5 10t104 38t89.5 72t60 118.5t23 172.5v869q0 10 11 10h77q11 0 11 -10v-863q0 -135 -37 -235t-104 -158.5t-154 -87t-195 -28.5q-229 0 -360 125.5t-131 371.5v875q0 10 10 10h78q10 0 10 -10zM815 1491l-174 176
l-166 -174q-4 -8 -16 -8h-80q-4 0 -5 2.5t-0.5 5.5t1.5 4l209 219q9 6 12 6h94q11 0 19 -8l217 -221q5 -8 -4 -8h-88q-16 0 -19 6z" />
    <glyph glyph-name="Udieresis" unicode="&#xdc;" horiz-adv-x="1292" 
d="M254 1352v-875q0 -191 105 -298t292 -107q59 0 110.5 10t104 38t89.5 72t60 118.5t23 172.5v869q0 10 11 10h77q11 0 11 -10v-863q0 -135 -37 -235t-104 -158.5t-154 -87t-195 -28.5q-229 0 -360 125.5t-131 371.5v875q0 10 10 10h78q10 0 10 -10zM465 1530q-28 0 -47 18
t-19 45t20 45.5t48 18.5t45.5 -19t17.5 -45q0 -28 -18.5 -45.5t-46.5 -17.5zM827 1530q-28 0 -45.5 17t-17.5 46q0 27 19 45.5t46 18.5q28 0 47 -18t19 -46q0 -30 -19 -46.5t-49 -16.5z" />
    <glyph glyph-name="Yacute" unicode="&#xdd;" horiz-adv-x="1017" 
d="M446 567l-460 785q-4 4 -1.5 7t7.5 3h90q9 0 12 -6q382 -653 418 -725q51 99 416 723q3 8 10 8h90q4 0 5.5 -2.5t-1.5 -5.5l-463 -787q-14 -22 -14 -45v-510q0 -12 -8 -12h-76q-8 0 -10 2.5t-2 9.5v512q0 22 -13 43zM410 1507l260 222q6 6 16 6h105q6 0 6.5 -5t-2.5 -8
l-269 -219q-6 -6 -16 -6h-96q-11 0 -4 10z" />
    <glyph glyph-name="Thorn" unicode="&#xde;" horiz-adv-x="999" 
d="M174 8v1378q0 9 8 9h84q6 0 6 -9v-284h195q222 0 340.5 -102t118.5 -291q0 -195 -129.5 -300.5t-376.5 -105.5h-148v-293q0 -10 -8 -10h-80q-10 0 -10 8zM272 1014v-623h154q208 0 305.5 82.5t97.5 231.5q0 146 -92.5 227.5t-277.5 81.5h-187z" />
    <glyph glyph-name="germandbls" unicode="&#xdf;" horiz-adv-x="1087" 
d="M264 0h-84q-8 0 -8 10v881h-141q-6 0 -6 12v68q0 10 6 10h141v35q0 235 108.5 359t292.5 124q96 0 169.5 -37t115.5 -98t60.5 -135.5t13.5 -155.5q-91 -22 -156 -52.5t-96 -63t-44 -60.5t-13 -55q1 -42 38 -79.5t123 -96.5q76 -53 124.5 -101t71.5 -93t30.5 -81.5
t7.5 -85.5q0 -144 -108 -234.5t-277 -90.5q-151 0 -238 51q-8 4 -8 18v80q0 11 8 6q92 -65 244 -65q120 0 200 60.5t81 162.5q1 38 -5.5 68.5t-26.5 67.5t-62.5 77t-108.5 84q-107 71 -149 123.5t-42 117.5q0 95 89 175t223 120q-2 119 -72.5 202t-192.5 83
q-301 0 -301 -412l-2 -989q0 -10 -6 -10z" />
    <glyph glyph-name="agrave" unicode="&#xe0;" horiz-adv-x="925" 
d="M674 113v385q-62 10 -154 10q-175 0 -264.5 -57t-89.5 -164q0 -42 15 -79.5t46.5 -70.5t89 -52t134.5 -19q120 0 223 47zM770 635v-494q0 -46 2 -69q0 -7 -4 -9q-153 -83 -342 -83q-161 0 -258.5 80t-97.5 227q0 79 35.5 139t99 95t142 52t171.5 17q87 0 156 -6v71
q0 28 -5 57.5t-21 66t-42 64.5t-74 47t-110 19q-145 0 -254 -61q-3 -3 -6.5 -1.5t-3.5 7.5v74q0 6 6 12q118 59 272 59q87 0 153 -28t104.5 -79t57.5 -115t19 -142zM307 1442l230 -295q3 -3 0.5 -5.5t-7.5 -2.5h-84q-9 0 -12 8l-246 293q-2 3 0.5 6.5t6.5 3.5h102q7 0 10 -8
z" />
    <glyph glyph-name="aacute" unicode="&#xe1;" horiz-adv-x="925" 
d="M674 113v385q-62 10 -154 10q-175 0 -264.5 -57t-89.5 -164q0 -42 15 -79.5t46.5 -70.5t89 -52t134.5 -19q120 0 223 47zM770 635v-494q0 -46 2 -69q0 -7 -4 -9q-153 -83 -342 -83q-161 0 -258.5 80t-97.5 227q0 79 35.5 139t99 95t142 52t171.5 17q87 0 156 -6v71
q0 28 -5 57.5t-21 66t-42 64.5t-74 47t-110 19q-145 0 -254 -61q-3 -3 -6.5 -1.5t-3.5 7.5v74q0 6 6 12q118 59 272 59q87 0 153 -28t104.5 -79t57.5 -115t19 -142zM369 1149l219 293q10 10 14 10h92q13 0 8 -10l-235 -295q-5 -8 -14 -8h-78q-5 0 -7 2.5t1 7.5z" />
    <glyph glyph-name="acircumflex" unicode="&#xe2;" horiz-adv-x="925" 
d="M674 113v385q-62 10 -154 10q-175 0 -264.5 -57t-89.5 -164q0 -42 15 -79.5t46.5 -70.5t89 -52t134.5 -19q120 0 223 47zM770 635v-494q0 -46 2 -69q0 -7 -4 -9q-153 -83 -342 -83q-161 0 -258.5 80t-97.5 227q0 79 35.5 139t99 95t142 52t171.5 17q87 0 156 -6v71
q0 28 -5 57.5t-21 66t-42 64.5t-74 47t-110 19q-145 0 -254 -61q-3 -3 -6.5 -1.5t-3.5 7.5v74q0 6 6 12q118 59 272 59q87 0 153 -28t104.5 -79t57.5 -115t19 -142zM602 1145l-160 231l-155 -233q-6 -6 -15 -6h-69q-4 0 -5 4.5t1 7.5l192 281q4 6 10 6h86q6 0 15 -9
l196 -280q3 -3 1 -6.5t-7 -3.5h-74q-8 0 -16 8z" />
    <glyph glyph-name="atilde" unicode="&#xe3;" horiz-adv-x="925" 
d="M674 113v385q-62 10 -154 10q-175 0 -264.5 -57t-89.5 -164q0 -42 15 -79.5t46.5 -70.5t89 -52t134.5 -19q120 0 223 47zM770 635v-494q0 -46 2 -69q0 -7 -4 -9q-153 -83 -342 -83q-161 0 -258.5 80t-97.5 227q0 79 35.5 139t99 95t142 52t171.5 17q87 0 156 -6v71
q0 28 -5 57.5t-21 66t-42 64.5t-74 47t-110 19q-145 0 -254 -61q-3 -3 -6.5 -1.5t-3.5 7.5v74q0 6 6 12q118 59 272 59q87 0 153 -28t104.5 -79t57.5 -115t19 -142zM211 1182h-59q-9 0 -9 12q9 86 55 136t121 50q51 0 105 -29t101.5 -58t80.5 -29q42 0 62.5 26t25.5 76
q0 10 8 10h62q8 0 8 -8q-19 -188 -162 -188q-38 0 -80 19t-73 41t-69 41t-69 19q-85 0 -100 -108q0 -10 -8 -10z" />
    <glyph glyph-name="adieresis" unicode="&#xe4;" horiz-adv-x="925" 
d="M674 113v385q-62 10 -154 10q-175 0 -264.5 -57t-89.5 -164q0 -42 15 -79.5t46.5 -70.5t89 -52t134.5 -19q120 0 223 47zM770 635v-494q0 -46 2 -69q0 -7 -4 -9q-153 -83 -342 -83q-161 0 -258.5 80t-97.5 227q0 79 35.5 139t99 95t142 52t171.5 17q87 0 156 -6v71
q0 28 -5 57.5t-21 66t-42 64.5t-74 47t-110 19q-145 0 -254 -61q-3 -3 -6.5 -1.5t-3.5 7.5v74q0 6 6 12q118 59 272 59q87 0 153 -28t104.5 -79t57.5 -115t19 -142zM285 1239q-28 0 -45 18t-17 46q0 31 18.5 49t45.5 18q25 0 42 -18.5t17 -48.5q0 -29 -18 -46.5t-43 -17.5z
M637 1239q-27 0 -44.5 17.5t-17.5 46.5q0 31 18 49t44 18q27 0 44 -18.5t17 -48.5q0 -27 -17.5 -45.5t-43.5 -18.5z" />
    <glyph glyph-name="aring" unicode="&#xe5;" horiz-adv-x="925" 
d="M674 113v385q-62 10 -154 10q-175 0 -264.5 -57t-89.5 -164q0 -42 15 -79.5t46.5 -70.5t89 -52t134.5 -19q120 0 223 47zM770 635v-494q0 -46 2 -69q0 -7 -4 -9q-153 -83 -342 -83q-161 0 -258.5 80t-97.5 227q0 79 35.5 139t99 95t142 52t171.5 17q87 0 156 -6v71
q0 28 -5 57.5t-21 66t-42 64.5t-74 47t-110 19q-145 0 -254 -61q-3 -3 -6.5 -1.5t-3.5 7.5v74q0 6 6 12q118 59 272 59q87 0 153 -28t104.5 -79t57.5 -115t19 -142zM274 1290q0 80 52 128t131 48t132.5 -49t53.5 -127t-53.5 -127t-132.5 -49t-131 47.5t-52 128.5zM344 1290
q0 -51 32.5 -80.5t80.5 -29.5t81 29t33 81t-33 83.5t-81 31.5t-80.5 -31t-32.5 -84z" />
    <glyph glyph-name="ae" unicode="&#xe6;" horiz-adv-x="1554" 
d="M168 283q0 -103 69 -159t185 -56q177 0 317 143q-55 113 -53 283h-174q-99 0 -173.5 -19.5t-122.5 -68t-48 -123.5zM70 276q0 142 116 220.5t326 78.5h176v87q0 30 -5.5 60.5t-22.5 65t-43.5 60.5t-73.5 43.5t-107 17.5q-143 0 -272 -84q-10 -3 -10 9v77q0 10 8 13
q137 75 293 75q112 0 189.5 -53.5t109.5 -157.5q58 101 150 156t210 55q77 0 140.5 -24t105 -63t70 -90t41 -102t12.5 -102q0 -41 -5 -75t-10 -37q-22 -12 -217 -12h-471q-3 -192 94.5 -307t278.5 -115q83 0 141 13.5t115 45.5q10 7 10 -6v-72q0 -9 -8 -14q-99 -59 -268 -59
q-231 0 -359 161q-176 -161 -381 -161q-141 0 -237 76.5t-96 219.5zM1102 911q-138 0 -228.5 -92t-91.5 -246h486q102 0 116 9q5 8 5 51t-14.5 87.5t-45 89t-89.5 73t-138 28.5z" />
    <glyph glyph-name="ccedilla" unicode="&#xe7;" horiz-adv-x="837" 
d="M791 956l-3 -75q0 -7 -10 -4q-80 34 -200 34q-177 0 -289.5 -116.5t-112.5 -302.5q0 -196 113 -308t286 -112q126 0 203 30q10 2 10 -6v-69q0 -13 -6 -15q-83 -32 -219 -32l-55 -82q176 -44 176 -179q0 -76 -54 -119.5t-136 -43.5q-84 0 -132 28q-8 3 -8 13v55q0 3 3.5 5
t7.5 1q64 -31 124 -31q111 0 111 88q0 101 -192 127q-8 3 -2 27l77 115q-102 13 -181.5 60t-128 116t-73 152t-24.5 175q0 221 142 366.5t368 145.5q136 0 194 -26q11 -5 11 -17z" />
    <glyph glyph-name="egrave" unicode="&#xe8;" horiz-adv-x="946" 
d="M649 506h-475q-8 -192 91 -313t284 -121q150 0 256 57q10 7 10 -6v-68q0 -11 -8 -14q-106 -61 -272 -61q-97 0 -175.5 28.5t-130.5 76.5t-87 113.5t-50.5 136.5t-15.5 148q0 221 117.5 368.5t308.5 147.5q81 0 147.5 -25.5t108.5 -66t70.5 -93t40.5 -103.5t12 -101
q0 -58 -7 -86q0 -12 -14 -12q-46 -6 -211 -6zM178 586h453q139 0 151 4q2 6 2 26q0 31 -7 66t-27 77t-50 75.5t-82 56t-118 22.5q-139 0 -221 -94t-101 -233zM354 1442l230 -295q4 -8 -6 -8h-84q-10 0 -13 8l-245 293q-2 3 -0.5 6.5t4.5 3.5h104q7 0 10 -8z" />
    <glyph glyph-name="eacute" unicode="&#xe9;" horiz-adv-x="946" 
d="M649 506h-475q-8 -192 91 -313t284 -121q150 0 256 57q10 7 10 -6v-68q0 -11 -8 -14q-106 -61 -272 -61q-97 0 -175.5 28.5t-130.5 76.5t-87 113.5t-50.5 136.5t-15.5 148q0 221 117.5 368.5t308.5 147.5q81 0 147.5 -25.5t108.5 -66t70.5 -93t40.5 -103.5t12 -101
q0 -58 -7 -86q0 -12 -14 -12q-46 -6 -211 -6zM178 586h453q139 0 151 4q2 6 2 26q0 31 -7 66t-27 77t-50 75.5t-82 56t-118 22.5q-139 0 -221 -94t-101 -233zM416 1149l219 293q10 10 14 10h92q14 0 9 -10l-236 -295q-5 -8 -14 -8h-78q-5 0 -7 2.5t1 7.5z" />
    <glyph glyph-name="ecircumflex" unicode="&#xea;" horiz-adv-x="946" 
d="M649 506h-475q-8 -192 91 -313t284 -121q150 0 256 57q10 7 10 -6v-68q0 -11 -8 -14q-106 -61 -272 -61q-97 0 -175.5 28.5t-130.5 76.5t-87 113.5t-50.5 136.5t-15.5 148q0 221 117.5 368.5t308.5 147.5q81 0 147.5 -25.5t108.5 -66t70.5 -93t40.5 -103.5t12 -101
q0 -58 -7 -86q0 -12 -14 -12q-46 -6 -211 -6zM178 586h453q139 0 151 4q2 6 2 26q0 31 -7 66t-27 77t-50 75.5t-82 56t-118 22.5q-139 0 -221 -94t-101 -233zM643 1145l-160 231l-155 -233q-6 -6 -15 -6h-69q-4 0 -5.5 4.5t1.5 7.5l192 281q4 6 8 6h86q10 0 15 -9l198 -280
q3 -3 1 -6.5t-7 -3.5h-76q-10 0 -14 8z" />
    <glyph glyph-name="edieresis" unicode="&#xeb;" horiz-adv-x="946" 
d="M649 506h-475q-8 -192 91 -313t284 -121q150 0 256 57q10 7 10 -6v-68q0 -11 -8 -14q-106 -61 -272 -61q-97 0 -175.5 28.5t-130.5 76.5t-87 113.5t-50.5 136.5t-15.5 148q0 221 117.5 368.5t308.5 147.5q81 0 147.5 -25.5t108.5 -66t70.5 -93t40.5 -103.5t12 -101
q0 -58 -7 -86q0 -12 -14 -12q-46 -6 -211 -6zM178 586h453q139 0 151 4q2 6 2 26q0 31 -7 66t-27 77t-50 75.5t-82 56t-118 22.5q-139 0 -221 -94t-101 -233zM313 1239q-27 0 -44 18t-17 46q0 31 18 49t45 18q25 0 42.5 -18.5t17.5 -48.5q0 -28 -18 -46t-44 -18zM666 1239
q-27 0 -44.5 17.5t-17.5 46.5q0 31 18 49t44 18q27 0 44 -18.5t17 -48.5q0 -27 -17.5 -45.5t-43.5 -18.5z" />
    <glyph glyph-name="igrave" unicode="&#xec;" horiz-adv-x="415" 
d="M158 12v957q0 12 10 12h78q10 0 10 -10v-961q0 -10 -10 -10h-74q-14 0 -14 12zM45 1442l229 -295q4 -8 -6 -8h-84q-9 0 -12 8l-246 293q-2 3 -0.5 6.5t4.5 3.5h105q7 0 10 -8z" />
    <glyph glyph-name="iacute" unicode="&#xed;" horiz-adv-x="415" 
d="M158 12v957q0 12 10 12h78q10 0 10 -10v-961q0 -10 -10 -10h-74q-14 0 -14 12zM147 1149l220 293q10 10 14 10h92q13 0 8 -10l-235 -295q-5 -8 -15 -8h-77q-5 0 -7.5 2.5t0.5 7.5z" />
    <glyph glyph-name="icircumflex" unicode="&#xee;" horiz-adv-x="415" 
d="M158 12v957q0 12 10 12h78q10 0 10 -10v-961q0 -10 -10 -10h-74q-14 0 -14 12zM362 1145l-161 231l-156 -233q0 -6 -12 -6h-70q-4 0 -5.5 4.5t1.5 7.5l193 281q4 6 8 6h86q10 0 14 -9l199 -280q3 -3 1 -6.5t-7 -3.5h-76q-11 0 -15 8z" />
    <glyph glyph-name="idieresis" unicode="&#xef;" horiz-adv-x="415" 
d="M158 12v957q0 12 10 12h78q10 0 10 -10v-961q0 -10 -10 -10h-74q-14 0 -14 12zM31 1239q-28 0 -45 18t-17 46q0 31 18.5 49t45.5 18q25 0 42 -18.5t17 -48.5q0 -29 -18 -46.5t-43 -17.5zM383 1239q-27 0 -44 17.5t-17 46.5q0 31 17.5 49t43.5 18q27 0 44 -18.5t17 -48.5
q0 -27 -17.5 -45.5t-43.5 -18.5z" />
    <glyph glyph-name="eth" unicode="&#xf0;" horiz-adv-x="1060" 
d="M528 70q53 0 101 14.5t92.5 48.5t77 84.5t52 127.5t19.5 173q0 74 -20 164q-8 22 -25 39q-97 123 -282 123q-164 0 -262.5 -100t-98.5 -285q0 -76 22.5 -145t64.5 -124t109 -87.5t150 -32.5zM874 1358l-188 -109q136 -130 209.5 -311t73.5 -403q0 -258 -121.5 -406.5
t-325.5 -148.5q-88 0 -162 28t-124 75t-85 109.5t-51 130.5t-16 138q0 213 128 341t331 128q182 0 284 -99q-56 219 -225 369l-297 -170q-3 -2 -6.5 -0.5t-3.5 4.5v58q0 8 8 12l244 141q-147 109 -359 162q-10 3 -10 12v72q0 8 8 8q24 0 45 -6q230 -55 404 -197l239 140
q9 3 9 -4v-62q0 -8 -9 -12z" />
    <glyph glyph-name="ntilde" unicode="&#xf1;" horiz-adv-x="1064" 
d="M158 12v742q0 109 -8 217q0 10 10 10h69q11 0 13 -10q7 -34 10 -123q139 151 330 151q45 0 86 -8.5t86 -34t77.5 -66.5t54 -112t21.5 -164v-602q0 -12 -12 -12h-76q-10 0 -10 12v594q0 137 -62.5 220t-183.5 83q-186 0 -309 -164v-733q0 -12 -10 -12h-78q-8 0 -8 12z
M272 1182h-57q-10 0 -10 12q9 86 55 136t121 50q51 0 105.5 -29t102 -58t79.5 -29q42 0 62.5 26t25.5 76q0 10 10 10h59q9 0 9 -8q-19 -188 -162 -188q-38 0 -80 19t-73 41t-69 41t-69 19q-86 0 -100 -110q0 -8 -9 -8z" />
    <glyph glyph-name="ograve" unicode="&#xf2;" horiz-adv-x="1046" 
d="M524 999q199 0 322 -140.5t123 -369.5q0 -227 -123 -368t-320 -141q-91 0 -167 30t-127.5 79.5t-87.5 116t-52 137.5t-16 146q0 220 125 365t323 145zM518 911q-153 0 -248.5 -116t-95.5 -301q0 -115 40.5 -210t123.5 -154.5t194 -59.5q63 0 121 24.5t107.5 72.5
t79.5 131t30 189q0 65 -12 125t-39.5 115t-67.5 95.5t-100 64.5t-133 24zM377 1442l227 -295q3 -3 1 -5.5t-7 -2.5h-84q-7 0 -12 8l-246 293q-2 3 0 6.5t6 3.5h103q7 0 12 -8z" />
    <glyph glyph-name="oacute" unicode="&#xf3;" horiz-adv-x="1046" 
d="M524 999q199 0 322 -140.5t123 -369.5q0 -227 -123 -368t-320 -141q-91 0 -167 30t-127.5 79.5t-87.5 116t-52 137.5t-16 146q0 220 125 365t323 145zM518 911q-153 0 -248.5 -116t-95.5 -301q0 -115 40.5 -210t123.5 -154.5t194 -59.5q63 0 121 24.5t107.5 72.5
t79.5 131t30 189q0 65 -12 125t-39.5 115t-67.5 95.5t-100 64.5t-133 24zM436 1149l219 293q10 10 15 10h92q13 0 8 -10l-235 -295q-5 -8 -15 -8h-78q-5 0 -7 2.5t1 7.5z" />
    <glyph glyph-name="ocircumflex" unicode="&#xf4;" horiz-adv-x="1046" 
d="M524 999q199 0 322 -140.5t123 -369.5q0 -227 -123 -368t-320 -141q-91 0 -167 30t-127.5 79.5t-87.5 116t-52 137.5t-16 146q0 220 125 365t323 145zM518 911q-153 0 -248.5 -116t-95.5 -301q0 -115 40.5 -210t123.5 -154.5t194 -59.5q63 0 121 24.5t107.5 72.5
t79.5 131t30 189q0 65 -12 125t-39.5 115t-67.5 95.5t-100 64.5t-133 24zM674 1145l-162 231l-156 -233q0 -6 -12 -6h-70q-12 0 -6 12l193 281q4 6 10 6h86q9 0 14 -9l197 -280q3 -3 1 -6.5t-7 -3.5h-74q-10 0 -14 8z" />
    <glyph glyph-name="otilde" unicode="&#xf5;" horiz-adv-x="1046" 
d="M524 999q199 0 322 -140.5t123 -369.5q0 -227 -123 -368t-320 -141q-91 0 -167 30t-127.5 79.5t-87.5 116t-52 137.5t-16 146q0 220 125 365t323 145zM518 911q-153 0 -248.5 -116t-95.5 -301q0 -115 40.5 -210t123.5 -154.5t194 -59.5q63 0 121 24.5t107.5 72.5
t79.5 131t30 189q0 65 -12 125t-39.5 115t-67.5 95.5t-100 64.5t-133 24zM276 1182h-57q-10 0 -10 12q9 86 55 136t121 50q51 0 105.5 -29t102 -58t79.5 -29q42 0 62.5 26t25.5 76q0 10 10 10h59q9 0 9 -8q-19 -188 -162 -188q-38 0 -80 19t-73 41t-69 41t-69 19
q-86 0 -100 -110q0 -8 -9 -8z" />
    <glyph glyph-name="odieresis" unicode="&#xf6;" horiz-adv-x="1046" 
d="M524 999q199 0 322 -140.5t123 -369.5q0 -227 -123 -368t-320 -141q-91 0 -167 30t-127.5 79.5t-87.5 116t-52 137.5t-16 146q0 220 125 365t323 145zM518 911q-153 0 -248.5 -116t-95.5 -301q0 -115 40.5 -210t123.5 -154.5t194 -59.5q63 0 121 24.5t107.5 72.5
t79.5 131t30 189q0 65 -12 125t-39.5 115t-67.5 95.5t-100 64.5t-133 24zM342 1239q-27 0 -44 18t-17 46q0 31 18 49t45 18q25 0 42 -18.5t17 -48.5q0 -29 -17.5 -46.5t-43.5 -17.5zM694 1239q-27 0 -44 17.5t-17 46.5q0 31 17.5 49t43.5 18q28 0 45 -19t17 -48
q0 -26 -18 -45t-44 -19z" />
    <glyph glyph-name="divide" unicode="&#xf7;" horiz-adv-x="1128" 
d="M561 811q-28 0 -44.5 19.5t-14.5 48.5q0 29 16.5 47t46.5 18q27 0 44.5 -18.5t17.5 -46.5q0 -30 -17.5 -49t-48.5 -19zM561 113q-27 0 -44 19t-15 46q0 30 16.5 49t46.5 19q27 0 44.5 -19t17.5 -49q0 -28 -17.5 -46.5t-48.5 -18.5zM61 563q0 8 9 8h987q8 0 8 -6v-63
q0 -6 -1.5 -7t-6.5 -1h-987q-9 0 -9 8v61z" />
    <glyph glyph-name="oslash" unicode="&#xf8;" horiz-adv-x="1046" 
d="M786 780l-469 -637q88 -75 215 -75q63 0 121.5 24.5t108.5 73t80 131.5t30 190q0 176 -86 293zM266 195l473 639q-90 77 -221 77q-155 0 -250.5 -116t-95.5 -301q0 -179 94 -299zM926 969l-80 -109q123 -142 123 -371q0 -227 -123 -368t-320 -141q-156 0 -266 86l-47 -64
q-6 -6 -16 -6h-64q-10 0 -4 12l78 107q-65 72 -98 171t-33 203q0 218 125.5 364t322.5 146q157 0 271 -90l49 66q5 8 12 8h64q6 0 8 -4t-2 -10z" />
    <glyph glyph-name="ugrave" unicode="&#xf9;" horiz-adv-x="1048" 
d="M889 969v-758q0 -126 10 -201q3 -10 -8 -10h-74q-7 0 -12 8q-10 68 -10 101q-121 -129 -308 -129q-65 0 -119.5 16.5t-105 56t-79.5 117t-29 186.5v613q0 12 10 12h78q10 0 10 -12v-598q0 -142 66 -221.5t188 -79.5q178 0 285 135v764q0 12 12 12h76q10 0 10 -12z
M375 1442l229 -295q4 -8 -6 -8h-84q-9 0 -12 8l-246 293q-2 3 -0.5 6.5t4.5 3.5h105q7 0 10 -8z" />
    <glyph glyph-name="uacute" unicode="&#xfa;" horiz-adv-x="1048" 
d="M889 969v-758q0 -126 10 -201q3 -10 -8 -10h-74q-7 0 -12 8q-10 68 -10 101q-121 -129 -308 -129q-65 0 -119.5 16.5t-105 56t-79.5 117t-29 186.5v613q0 12 10 12h78q10 0 10 -12v-598q0 -142 66 -221.5t188 -79.5q178 0 285 135v764q0 12 12 12h76q10 0 10 -12z
M453 1149l219 293q10 10 14 10h92q13 0 8 -10l-235 -295q-5 -8 -14 -8h-78q-5 0 -7 2.5t1 7.5z" />
    <glyph glyph-name="ucircumflex" unicode="&#xfb;" horiz-adv-x="1048" 
d="M889 969v-758q0 -126 10 -201q3 -10 -8 -10h-74q-7 0 -12 8q-10 68 -10 101q-121 -129 -308 -129q-65 0 -119.5 16.5t-105 56t-79.5 117t-29 186.5v613q0 12 10 12h78q10 0 10 -12v-598q0 -142 66 -221.5t188 -79.5q178 0 285 135v764q0 12 12 12h76q10 0 10 -12z
M678 1147l-160 231l-156 -233q-3 -6 -14 -6h-69q-4 0 -5.5 4.5t0.5 5.5l193 281q4 6 10 6h86q9 0 15 -9l196 -280q3 -3 1 -5.5t-7 -2.5h-74q-11 0 -16 8z" />
    <glyph glyph-name="udieresis" unicode="&#xfc;" horiz-adv-x="1048" 
d="M889 969v-758q0 -126 10 -201q3 -10 -8 -10h-74q-7 0 -12 8q-10 68 -10 101q-121 -129 -308 -129q-65 0 -119.5 16.5t-105 56t-79.5 117t-29 186.5v613q0 12 10 12h78q10 0 10 -12v-598q0 -142 66 -221.5t188 -79.5q178 0 285 135v764q0 12 12 12h76q10 0 10 -12z
M352 1239q-27 0 -44 18t-17 46q0 31 18 49t45 18q25 0 42.5 -18.5t17.5 -48.5q0 -28 -18 -46t-44 -18zM705 1239q-27 0 -44.5 17.5t-17.5 46.5q0 31 18 49t44 18q27 0 44 -18.5t17 -48.5q0 -27 -17.5 -45.5t-43.5 -18.5z" />
    <glyph glyph-name="yacute" unicode="&#xfd;" horiz-adv-x="903" 
d="M29 981h92q5 0 10 -8q315 -802 330 -844q101 260 321 844q4 8 13 8h77q13 0 9 -12q-245 -685 -580 -1430q-3 -10 -18 -10l-84 -8q-10 0 -6 12q75 155 215 479q3 10 -2 23q-14 34 -86 208.5t-156.5 381.5t-140.5 346q-3 10 6 10zM383 1149l219 293q10 10 14 10h93
q13 0 8 -10l-236 -295q-5 -8 -14 -8h-78q-5 0 -7 2.5t1 7.5z" />
    <glyph glyph-name="thorn" unicode="&#xfe;" horiz-adv-x="1067" 
d="M256 946q139 53 279 53q200 0 324 -133.5t124 -351.5q0 -129 -44 -233t-117.5 -168.5t-164.5 -98.5t-190 -34q-115 0 -211 30v-487q0 -9 -8 -12q-10 -1 -29.5 -3.5t-35 -5t-17.5 -2.5q-5 0 -6.5 1t-1.5 7v1995q0 8 10 8h78q10 0 10 -8v-557zM514 907q-143 0 -258 -49
v-747q94 -43 213 -43q111 0 204 49t152.5 151.5t59.5 241.5q0 175 -100.5 286t-270.5 111z" />
    <glyph glyph-name="ydieresis" unicode="&#xff;" horiz-adv-x="903" 
d="M29 981h92q5 0 10 -8q315 -802 330 -844q101 260 321 844q4 8 13 8h77q13 0 9 -12q-245 -685 -580 -1430q-3 -10 -18 -10l-84 -8q-10 0 -6 12q75 155 215 479q3 10 -2 23q-14 34 -86 208.5t-156.5 381.5t-140.5 346q-3 10 6 10zM279 1241q-28 0 -45 17.5t-17 46.5
q0 30 18.5 47.5t45.5 17.5q26 0 42.5 -17.5t16.5 -47.5q0 -29 -18 -46.5t-43 -17.5zM631 1241q-28 0 -45 17.5t-17 46.5q0 30 18 47.5t44 17.5q28 0 44.5 -18t16.5 -47q0 -28 -17.5 -46t-43.5 -18z" />
    <glyph glyph-name="Amacron" unicode="&#x100;" horiz-adv-x="1159" 
d="M852 496h-553l-176 -486q-3 -10 -12 -10h-78q-11 0 -8 12l471 1284q8 25 10 58q0 8 8 8h119q9 0 12 -8l490 -1342q3 -12 -9 -12h-84q-9 0 -12 8zM330 588h493q-9 25 -70.5 195.5t-109.5 307t-65 195.5h-3q-11 -37 -29 -92t-47 -137.5t-50 -140.5t-61.5 -170t-57.5 -158z
M324 1616h510q8 0 8 -10v-68q0 -8 -11 -8h-503q-13 0 -13 8v70q0 8 9 8z" />
    <glyph glyph-name="amacron" unicode="&#x101;" horiz-adv-x="925" 
d="M674 113v385q-62 10 -154 10q-175 0 -264.5 -57t-89.5 -164q0 -42 15 -79.5t46.5 -70.5t89 -52t134.5 -19q120 0 223 47zM770 635v-494q0 -46 2 -69q0 -7 -4 -9q-153 -83 -342 -83q-161 0 -258.5 80t-97.5 227q0 79 35.5 139t99 95t142 52t171.5 17q87 0 156 -6v71
q0 28 -5 57.5t-21 66t-42 64.5t-74 47t-110 19q-145 0 -254 -61q-3 -3 -6.5 -1.5t-3.5 7.5v74q0 6 6 12q118 59 272 59q87 0 153 -28t104.5 -79t57.5 -115t19 -142zM213 1335h492q6 0 6 -8v-65q0 -9 -6 -9h-492q-8 0 -8 11v63q0 8 8 8z" />
    <glyph glyph-name="Abreve" unicode="&#x102;" horiz-adv-x="1159" 
d="M852 496h-553l-176 -486q-3 -10 -12 -10h-78q-11 0 -8 12l471 1284q8 25 10 58q0 8 8 8h119q9 0 12 -8l490 -1342q3 -12 -9 -12h-84q-9 0 -12 8zM330 588h493q-9 25 -70.5 195.5t-109.5 307t-65 195.5h-3q-11 -37 -29 -92t-47 -137.5t-50 -140.5t-61.5 -170t-57.5 -158z
M313 1710h70q5 0 8 -8q41 -135 182 -135q142 0 187 135q3 8 10 8h66q8 0 8 -10q-20 -100 -94 -160.5t-177 -60.5q-106 0 -176.5 57.5t-89.5 163.5q-3 10 6 10z" />
    <glyph glyph-name="abreve" unicode="&#x103;" horiz-adv-x="925" 
d="M674 113v385q-62 10 -154 10q-175 0 -264.5 -57t-89.5 -164q0 -42 15 -79.5t46.5 -70.5t89 -52t134.5 -19q120 0 223 47zM770 635v-494q0 -46 2 -69q0 -7 -4 -9q-153 -83 -342 -83q-161 0 -258.5 80t-97.5 227q0 79 35.5 139t99 95t142 52t171.5 17q87 0 156 -6v71
q0 28 -5 57.5t-21 66t-42 64.5t-74 47t-110 19q-145 0 -254 -61q-3 -3 -6.5 -1.5t-3.5 7.5v74q0 6 6 12q118 59 272 59q87 0 153 -28t104.5 -79t57.5 -115t19 -142zM178 1382h68q6 0 8 -6q47 -139 188 -139q69 0 121 34.5t74 102.5q2 8 10 8h64q10 0 6 -8q-18 -99 -91 -160
t-184 -61q-107 0 -179 57t-93 166q-1 4 0.5 5t7.5 1z" />
    <glyph glyph-name="Aogonek" unicode="&#x104;" horiz-adv-x="1159" 
d="M330 588h493q-9 25 -70.5 195.5t-109.5 307t-65 195.5h-3q-11 -37 -29 -92t-47 -137.5t-50 -140.5t-61.5 -170t-57.5 -158zM1026 25l-174 471h-553l-176 -486q-3 -10 -12 -10h-78q-11 0 -8 12l471 1284q8 25 10 58q0 8 8 8h119q9 0 12 -8l488 -1336q4 -15 -3 -18
q-194 -127 -194 -258q0 -58 37.5 -90.5t105.5 -32.5q77 0 121 23q10 3 10 -7v-57q0 -13 -10 -16q-51 -33 -147 -33q-87 0 -153 48.5t-66 143.5q0 151 202 289q-4 2 -10 15z" />
    <glyph glyph-name="aogonek" unicode="&#x105;" horiz-adv-x="925" 
d="M682 117v383q-40 8 -158 8q-173 0 -265.5 -57t-92.5 -164q0 -93 70 -157t219 -64q119 0 227 51zM430 -20q-163 0 -261.5 78t-98.5 227q0 79 36.5 139.5t100.5 95.5t143.5 52.5t173.5 17.5q98 0 158 -6v71q0 29 -4.5 58t-20.5 65.5t-41 64.5t-71 47t-107 19
q-139 0 -272 -82q-3 -2 -7.5 0.5t-4.5 6.5v75q0 9 8 13q121 77 289 77q85 0 149 -28t102 -79t57 -115t19 -142v-490q0 -46 4 -71q0 -11 -8 -15q-134 -80 -207 -159.5t-73 -151.5q0 -57 36.5 -90t100.5 -33q81 0 129 23q10 3 10 -6v-58q0 -13 -10 -16q-54 -33 -154 -33
q-38 0 -74.5 11.5t-68.5 33.5t-51 60.5t-19 87.5q0 133 182 264q-61 -12 -145 -12z" />
    <glyph glyph-name="Cacute" unicode="&#x106;" horiz-adv-x="1120" 
d="M1051 104v-69q0 -13 -11 -17q-86 -38 -268 -38q-97 0 -189.5 22t-183.5 75t-159 131.5t-110 202t-42 277.5q0 151 51 280t143 220t224 142.5t289 51.5q188 0 258 -36q8 -3 8 -15v-80q0 -7 -3.5 -8.5t-6.5 2.5q-89 47 -263 47q-265 0 -432.5 -164.5t-167.5 -435.5
q0 -143 41.5 -255.5t104.5 -178.5t145.5 -109.5t156 -59t144.5 -15.5q170 0 258 37q13 4 13 -7zM600 1536l262 223q4 4 15 4h106q6 0 6.5 -3.5t-2.5 -6.5l-270 -221q-6 -6 -17 -6h-94q-6 0 -7.5 3.5t1.5 6.5z" />
    <glyph glyph-name="cacute" unicode="&#x107;" horiz-adv-x="837" 
d="M788 96v-69q0 -13 -6 -15q-83 -32 -219 -32q-98 0 -179.5 27.5t-137.5 75.5t-95 112.5t-57 138t-18 153.5q0 221 142 366.5t368 145.5q136 0 194 -26q11 -5 11 -17l-3 -75q0 -7 -10 -4q-80 34 -200 34q-177 0 -289.5 -116.5t-112.5 -302.5q0 -196 113 -308t286 -112
q126 0 203 30q10 2 10 -6zM438 1149l219 293q10 10 15 10h92q13 0 8 -10l-235 -295q-5 -8 -15 -8h-78q-5 0 -7 2.5t1 7.5z" />
    <glyph glyph-name="Ccircumflex" unicode="&#x108;" horiz-adv-x="1120" 
d="M1051 104v-69q0 -13 -11 -17q-86 -38 -268 -38q-97 0 -189.5 22t-183.5 75t-159 131.5t-110 202t-42 277.5q0 151 51 280t143 220t224 142.5t289 51.5q188 0 258 -36q8 -3 8 -15v-80q0 -7 -3.5 -8.5t-6.5 2.5q-89 47 -263 47q-265 0 -432.5 -164.5t-167.5 -435.5
q0 -143 41.5 -255.5t104.5 -178.5t145.5 -109.5t156 -59t144.5 -15.5q170 0 258 37q13 4 13 -7zM854 1518l-174 176l-166 -174q-4 -9 -16 -9h-80q-5 0 -5.5 5.5t1.5 7.5l209 219q6 4 12 4h94q13 0 19 -6l217 -221q6 -9 -4 -9h-91q-12 0 -16 7z" />
    <glyph glyph-name="ccircumflex" unicode="&#x109;" horiz-adv-x="837" 
d="M788 96v-69q0 -13 -6 -15q-83 -32 -219 -32q-98 0 -179.5 27.5t-137.5 75.5t-95 112.5t-57 138t-18 153.5q0 221 142 366.5t368 145.5q136 0 194 -26q11 -5 11 -17l-3 -75q0 -7 -10 -4q-80 34 -200 34q-177 0 -289.5 -116.5t-112.5 -302.5q0 -196 113 -308t286 -112
q126 0 203 30q10 2 10 -6zM668 1145l-162 231l-156 -233q0 -6 -12 -6h-70q-4 0 -5.5 4.5t1.5 7.5l191 281q6 6 10 6h86q9 0 14 -9l199 -280q3 -3 1 -6.5t-7 -3.5h-76q-10 0 -14 8z" />
    <glyph glyph-name="Cdotaccent" unicode="&#x10a;" horiz-adv-x="1120" 
d="M1051 104v-69q0 -13 -11 -17q-86 -38 -268 -38q-97 0 -189.5 22t-183.5 75t-159 131.5t-110 202t-42 277.5q0 151 51 280t143 220t224 142.5t289 51.5q188 0 258 -36q8 -3 8 -15v-80q0 -7 -3.5 -8.5t-6.5 2.5q-89 47 -263 47q-265 0 -432.5 -164.5t-167.5 -435.5
q0 -143 41.5 -255.5t104.5 -178.5t145.5 -109.5t156 -59t144.5 -15.5q170 0 258 37q13 4 13 -7zM696 1567q-31 0 -48 18t-17 45q0 30 17.5 47t49.5 17q29 0 47.5 -18t18.5 -46t-17 -45.5t-51 -17.5z" />
    <glyph glyph-name="cdotaccent" unicode="&#x10b;" horiz-adv-x="837" 
d="M788 96v-69q0 -13 -6 -15q-83 -32 -219 -32q-98 0 -179.5 27.5t-137.5 75.5t-95 112.5t-57 138t-18 153.5q0 221 142 366.5t368 145.5q136 0 194 -26q11 -5 11 -17l-3 -75q0 -7 -10 -4q-80 34 -200 34q-177 0 -289.5 -116.5t-112.5 -302.5q0 -196 113 -308t286 -112
q126 0 203 30q10 2 10 -6zM518 1237q-31 0 -49 19t-18 49q0 31 18.5 51t48.5 20q31 0 48.5 -19.5t17.5 -51.5q0 -29 -18 -48.5t-48 -19.5z" />
    <glyph glyph-name="Ccaron" unicode="&#x10c;" horiz-adv-x="1120" 
d="M1051 104v-69q0 -13 -11 -17q-86 -38 -268 -38q-97 0 -189.5 22t-183.5 75t-159 131.5t-110 202t-42 277.5q0 151 51 280t143 220t224 142.5t289 51.5q188 0 258 -36q8 -3 8 -15v-80q0 -7 -3.5 -8.5t-6.5 2.5q-89 47 -263 47q-265 0 -432.5 -164.5t-167.5 -435.5
q0 -143 41.5 -255.5t104.5 -178.5t145.5 -109.5t156 -59t144.5 -15.5q170 0 258 37q13 4 13 -7zM526 1731l172 -177l168 175q4 8 15 8h82q5 0 5.5 -5.5t-1.5 -7.5l-209 -219q-9 -6 -13 -6h-94q-10 0 -18 8l-217 222q-8 8 4 8h88q12 0 18 -6z" />
    <glyph glyph-name="ccaron" unicode="&#x10d;" horiz-adv-x="837" 
d="M788 96v-69q0 -13 -6 -15q-83 -32 -219 -32q-98 0 -179.5 27.5t-137.5 75.5t-95 112.5t-57 138t-18 153.5q0 221 142 366.5t368 145.5q136 0 194 -26q11 -5 11 -17l-3 -75q0 -7 -10 -4q-80 34 -200 34q-177 0 -289.5 -116.5t-112.5 -302.5q0 -196 113 -308t286 -112
q126 0 203 30q10 2 10 -6zM360 1430l162 -232l156 234q0 6 12 6h70q4 0 5.5 -5t-1.5 -6l-191 -280q-5 -8 -10 -8h-86q-10 0 -14 8l-199 280q-3 5 -1 8t7 3h76q10 0 14 -8z" />
    <glyph glyph-name="Dcaron" unicode="&#x10e;" horiz-adv-x="1308" 
d="M174 14v1332q0 12 10 14q135 6 332 6q330 0 517.5 -180t187.5 -479q0 -112 -23 -208.5t-63.5 -168.5t-97 -129t-121.5 -95t-139 -63t-147 -36t-149 -11q-149 0 -297 4q-10 0 -10 14zM272 1274v-1184q78 -4 205 -4q112 0 208.5 23.5t177 72.5t137.5 121.5t88.5 174.5
t31.5 227q0 140 -46.5 250.5t-129 180t-192 106t-238.5 36.5q-106 0 -242 -4zM408 1726l172 -174l165 174q9 9 17 9h82q4 0 4.5 -6t-2.5 -9l-209 -219q-4 -4 -10 -4h-97q-13 0 -16 6l-219 223q-3 3 -1 6t5 3h90q10 0 19 -9z" />
    <glyph glyph-name="dcaron" unicode="&#x10f;" horiz-adv-x="1095" 
d="M1032 1014l6 459q0 10 11 10h67q10 0 10 -10l-18 -459q0 -10 -8 -10h-58q-10 0 -10 10zM571 -20q-104 0 -192.5 32.5t-155 94t-104 158.5t-37.5 218q0 226 152 371t384 145q96 0 168 -16v485q0 11 11 11h77q11 0 11 -11v-1341q0 -35 2 -64q0 -7 -8 -12q-139 -71 -308 -71
zM786 104v779q-57 28 -172 28q-103 0 -186.5 -34t-136.5 -92.5t-81 -134.5t-28 -161q0 -111 34 -194.5t92 -131t126.5 -70.5t145.5 -23q134 0 206 34z" />
    <glyph glyph-name="Dcroat" unicode="&#x110;" horiz-adv-x="1323" 
d="M291 666v-576q78 -4 207 -4q141 0 256.5 37.5t202 112t134.5 194.5t48 275q0 140 -47 250.5t-129.5 180t-192 106t-238.5 36.5q-105 0 -241 -4v-526h409q9 0 9 -9v-65q0 -8 -9 -8h-409zM193 748v598q0 12 12 14q135 6 332 6q328 0 515 -180t187 -479q0 -112 -23 -208.5
t-63.5 -168.5t-97 -129t-121 -95t-138.5 -63t-147 -36t-149 -11q-149 0 -297 4q-10 0 -10 14v652h-168q-9 0 -9 8v65q0 9 9 9h168z" />
    <glyph glyph-name="dcroat" unicode="&#x111;" horiz-adv-x="1036" 
d="M778 111v755q-67 37 -176 37q-103 0 -185.5 -34t-134 -92.5t-79 -133.5t-27.5 -160q0 -107 36.5 -189t96.5 -128.5t128 -69t141 -22.5q125 0 200 37zM877 1290h147q8 0 8 -8v-65q0 -9 -10 -9h-145v-1075q0 -13 1 -34t1 -27q0 -11 -9 -17q-73 -42 -142.5 -58.5
t-158.5 -16.5q-104 0 -193 32.5t-156 94t-105.5 157.5t-38.5 215q0 228 149 370t381 142q97 0 172 -22v239h-389q-10 0 -10 11v61q0 10 8 10h391v178q0 11 10 11h78q11 0 11 -11v-178z" />
    <glyph glyph-name="Emacron" unicode="&#x112;" horiz-adv-x="1003" 
d="M958 82l-14 -72q-2 -10 -12 -10h-744q-14 0 -14 14v1334q0 14 12 14h709q9 0 12 -10l11 -70q3 -12 -11 -12h-635v-527h572q10 0 10 -10v-69q0 -13 -10 -13h-572v-559h678q11 0 8 -10zM276 1645h510q9 0 9 -9v-67q0 -10 -11 -10h-503q-13 0 -13 10v67q0 9 8 9z" />
    <glyph glyph-name="emacron" unicode="&#x113;" horiz-adv-x="946" 
d="M649 506h-475q-8 -192 91 -313t284 -121q150 0 256 57q10 7 10 -6v-68q0 -11 -8 -14q-106 -61 -272 -61q-97 0 -175.5 28.5t-130.5 76.5t-87 113.5t-50.5 136.5t-15.5 148q0 221 117.5 368.5t308.5 147.5q81 0 147.5 -25.5t108.5 -66t70.5 -93t40.5 -103.5t12 -101
q0 -58 -7 -86q0 -12 -14 -12q-46 -6 -211 -6zM178 586h453q139 0 151 4q2 6 2 26q0 31 -7 66t-27 77t-50 75.5t-82 56t-118 22.5q-139 0 -221 -94t-101 -233zM248 1335h491q9 0 9 -8v-65q0 -9 -9 -9h-491q-8 0 -8 11v63q0 8 8 8z" />
    <glyph glyph-name="Ebreve" unicode="&#x114;" horiz-adv-x="1003" 
d="M958 82l-14 -72q-2 -10 -12 -10h-744q-14 0 -14 14v1334q0 14 12 14h709q9 0 12 -10l11 -70q3 -12 -11 -12h-635v-527h572q10 0 10 -10v-69q0 -13 -10 -13h-572v-559h678q11 0 8 -10zM270 1724h70q6 0 8 -10q41 -135 182 -135t187 137q4 8 10 8h66q8 0 8 -12
q-20 -99 -94.5 -159t-176.5 -60q-106 0 -177 57t-89 164q-3 10 6 10z" />
    <glyph glyph-name="ebreve" unicode="&#x115;" horiz-adv-x="946" 
d="M649 506h-475q-8 -192 91 -313t284 -121q150 0 256 57q10 7 10 -6v-68q0 -11 -8 -14q-106 -61 -272 -61q-97 0 -175.5 28.5t-130.5 76.5t-87 113.5t-50.5 136.5t-15.5 148q0 221 117.5 368.5t308.5 147.5q81 0 147.5 -25.5t108.5 -66t70.5 -93t40.5 -103.5t12 -101
q0 -58 -7 -86q0 -12 -14 -12q-46 -6 -211 -6zM178 586h453q139 0 151 4q2 6 2 26q0 31 -7 66t-27 77t-50 75.5t-82 56t-118 22.5q-139 0 -221 -94t-101 -233zM221 1384h68q6 0 8 -6q47 -139 188 -139q69 0 121 34.5t74 102.5q2 8 10 8h64q10 0 6 -8q-18 -99 -91 -160
t-184 -61q-107 0 -179 57t-93 166q-1 4 1 5t7 1z" />
    <glyph glyph-name="Edotaccent" unicode="&#x116;" horiz-adv-x="1003" 
d="M958 82l-14 -72q-2 -10 -12 -10h-744q-14 0 -14 14v1334q0 14 12 14h709q9 0 12 -10l11 -70q3 -12 -11 -12h-635v-527h572q10 0 10 -10v-69q0 -13 -10 -13h-572v-559h678q11 0 8 -10zM537 1540q-31 0 -49.5 18.5t-18.5 47.5q0 28 19 44.5t51 16.5q29 0 47 -17t18 -46
q0 -28 -17 -46t-50 -18z" />
    <glyph glyph-name="edotaccent" unicode="&#x117;" horiz-adv-x="946" 
d="M649 506h-475q-8 -192 91 -313t284 -121q150 0 256 57q10 7 10 -6v-68q0 -11 -8 -14q-106 -61 -272 -61q-97 0 -175.5 28.5t-130.5 76.5t-87 113.5t-50.5 136.5t-15.5 148q0 221 117.5 368.5t308.5 147.5q81 0 147.5 -25.5t108.5 -66t70.5 -93t40.5 -103.5t12 -101
q0 -58 -7 -86q0 -12 -14 -12q-46 -6 -211 -6zM178 586h453q139 0 151 4q2 6 2 26q0 31 -7 66t-27 77t-50 75.5t-82 56t-118 22.5q-139 0 -221 -94t-101 -233zM485 1237q-31 0 -49 19t-18 49q0 31 18.5 51t48.5 20q31 0 48.5 -19.5t17.5 -51.5q0 -29 -18 -48.5t-48 -19.5z
" />
    <glyph glyph-name="Eogonek" unicode="&#x118;" horiz-adv-x="1003" 
d="M272 92h678q11 0 8 -10l-14 -72q-2 -10 -12 -10h-84q-191 -131 -191 -254q0 -56 36.5 -88.5t103.5 -32.5q76 0 127 21q10 3 10 -6v-58q0 -9 -10 -16q-53 -31 -148 -31q-88 0 -153.5 48t-65.5 143q0 144 191 274h-560q-14 0 -14 14v1334q0 14 12 14h709q9 0 12 -10l11 -70
q3 -12 -11 -12h-635v-527h572q10 0 10 -10v-69q0 -13 -10 -13h-572v-559z" />
    <glyph glyph-name="eogonek" unicode="&#x119;" horiz-adv-x="946" 
d="M178 586h451q139 0 151 4q2 6 2 35q0 33 -7 68t-27.5 75t-51 71t-82.5 51.5t-118 20.5q-138 0 -218.5 -92.5t-99.5 -232.5zM600 -14q-117 -11 -210 13.5t-150.5 72.5t-95.5 118t-53 142t-15 151q0 222 117 369t309 147q82 0 148 -25t107.5 -64.5t69.5 -91.5t39 -102
t11 -100t-5 -90q-5 -14 -14 -14q-50 -6 -213 -6h-471q-8 -193 89.5 -313.5t283.5 -120.5q152 0 256 61q8 5 8 -6v-70q0 -13 -8 -18q-138 -67 -213.5 -143t-75.5 -152q0 -59 38 -94t105 -35q71 0 119 25q10 3 10 -7v-53q0 -13 -10 -16q-54 -33 -145 -33q-84 0 -146.5 49
t-62.5 144q0 77 47 140t131 122z" />
    <glyph glyph-name="Ecaron" unicode="&#x11a;" horiz-adv-x="1003" 
d="M958 82l-14 -72q-2 -10 -12 -10h-744q-14 0 -14 14v1334q0 14 12 14h709q9 0 12 -10l11 -70q3 -12 -11 -12h-635v-527h572q10 0 10 -10v-69q0 -13 -10 -13h-572v-559h678q11 0 8 -10zM362 1720l173 -176l167 174q4 8 15 8h82q4 0 4.5 -5t-2.5 -7l-209 -219q-4 -4 -10 -4
h-95q-15 0 -18 6l-217 221q-8 8 4 8h88q12 0 18 -6z" />
    <glyph glyph-name="ecaron" unicode="&#x11b;" horiz-adv-x="946" 
d="M649 506h-475q-8 -192 91 -313t284 -121q150 0 256 57q10 7 10 -6v-68q0 -11 -8 -14q-106 -61 -272 -61q-97 0 -175.5 28.5t-130.5 76.5t-87 113.5t-50.5 136.5t-15.5 148q0 221 117.5 368.5t308.5 147.5q81 0 147.5 -25.5t108.5 -66t70.5 -93t40.5 -103.5t12 -101
q0 -58 -7 -86q0 -12 -14 -12q-46 -6 -211 -6zM178 586h453q139 0 151 4q2 6 2 26q0 31 -7 66t-27 77t-50 75.5t-82 56t-118 22.5q-139 0 -221 -94t-101 -233zM319 1430l162 -232l156 234q0 6 12 6h70q5 0 6.5 -5t-0.5 -6l-193 -280q-5 -8 -10 -8h-86q-10 0 -14 8l-197 280
q-3 5 -1 8t7 3h74q10 0 14 -8z" />
    <glyph glyph-name="Gcircumflex" unicode="&#x11c;" horiz-adv-x="1282" 
d="M1061 610h-338q-10 2 -10 11v71q0 8 8 8h428q10 0 10 -10v-629q3 -11 -8 -14q-153 -67 -358 -67q-221 0 -382.5 91.5t-242 247.5t-80.5 357q0 160 53.5 292.5t149 222.5t228.5 139.5t290 49.5q219 0 321 -51q9 -3 9 -14v-80q0 -13 -11 -8q-114 63 -319 63
q-279 0 -450 -164.5t-171 -445.5q0 -126 40 -236t115 -194t192 -132t262 -48q165 0 264 45v495zM881 1520l-172 174l-168 -172q0 -9 -15 -9h-82q-4 0 -4.5 5t2.5 8l209 219q4 4 11 4h96q13 0 16 -6l219 -221q6 -9 -6 -9h-88q-11 0 -18 7z" />
    <glyph glyph-name="gcircumflex" unicode="&#x11d;" horiz-adv-x="958" 
d="M307 1137h-69q-4 0 -6 4.5t1 7.5l193 281q4 6 8 6h86q10 0 15 -9l198 -280q3 -3 1 -6.5t-7 -3.5h-76q-10 0 -14 8l-162 231l-153 -233q-6 -6 -15 -6zM547 33l-209 12q-78 -55 -128 -125t-50 -117q0 -90 94 -159.5t242 -69.5q91 0 163.5 23t116 60.5t66 83t22.5 93.5
q0 54 -25.5 92.5t-72.5 60t-99 32t-120 14.5zM469 920q-115 0 -186.5 -74t-71.5 -191q0 -118 67.5 -190t186.5 -72q117 0 184.5 68.5t67.5 191.5q0 113 -63 190t-185 77zM356 135l207 -10q395 -21 395 -281q0 -152 -129.5 -254t-336.5 -102q-198 0 -313.5 93.5t-115.5 217.5
q0 119 209 293q-53 68 -53 154q0 69 33 125q-137 91 -137 282q0 146 97 246t259 100q73 0 131 -14q16 -4 37 -4h297q10 0 10 -10v-70q0 -10 -10 -10q-142 0 -221 6q98 -90 98 -242q0 -164 -100 -254t-248 -90q-62 0 -137 21q-23 -47 -17 -92q7 -64 45 -105z" />
    <glyph glyph-name="Gbreve" unicode="&#x11e;" horiz-adv-x="1282" 
d="M1061 610h-338q-10 2 -10 11v71q0 8 8 8h428q10 0 10 -10v-629q3 -11 -8 -14q-153 -67 -358 -67q-221 0 -382.5 91.5t-242 247.5t-80.5 357q0 160 53.5 292.5t149 222.5t228.5 139.5t290 49.5q219 0 321 -51q9 -3 9 -14v-80q0 -13 -11 -8q-114 63 -319 63
q-279 0 -450 -164.5t-171 -445.5q0 -126 40 -236t115 -194t192 -132t262 -48q165 0 264 45v495zM461 1745h67q9 0 11 -8q41 -135 180 -135q142 0 188 137q3 6 11 6h65q9 0 6 -10q-19 -99 -92.5 -159t-177.5 -60q-105 0 -175.5 57t-90.5 164q0 8 8 8z" />
    <glyph glyph-name="gbreve" unicode="&#x11f;" horiz-adv-x="958" 
d="M666 1382h63q10 0 6 -8q-18 -99 -90.5 -160t-183.5 -61q-108 0 -180 57.5t-93 165.5q-1 4 1 5t8 1h67q6 0 8 -6q47 -139 189 -139q69 0 120.5 34.5t73.5 102.5q2 8 11 8zM547 33l-209 12q-78 -55 -128 -125t-50 -117q0 -90 94 -159.5t242 -69.5q91 0 163.5 23t116 60.5
t66 83t22.5 93.5q0 54 -25.5 92.5t-72.5 60t-99 32t-120 14.5zM469 920q-115 0 -186.5 -74t-71.5 -191q0 -118 67.5 -190t186.5 -72q117 0 184.5 68.5t67.5 191.5q0 113 -63 190t-185 77zM356 135l207 -10q395 -21 395 -281q0 -152 -129.5 -254t-336.5 -102
q-198 0 -313.5 93.5t-115.5 217.5q0 119 209 293q-53 68 -53 154q0 69 33 125q-137 91 -137 282q0 146 97 246t259 100q73 0 131 -14q16 -4 37 -4h297q10 0 10 -10v-70q0 -10 -10 -10q-142 0 -221 6q98 -90 98 -242q0 -164 -100 -254t-248 -90q-62 0 -137 21
q-23 -47 -17 -92q7 -64 45 -105z" />
    <glyph glyph-name="Gdotaccent" unicode="&#x120;" horiz-adv-x="1282" 
d="M1061 610h-338q-10 2 -10 11v71q0 8 8 8h428q10 0 10 -10v-629q3 -11 -8 -14q-153 -67 -358 -67q-221 0 -382.5 91.5t-242 247.5t-80.5 357q0 160 53.5 292.5t149 222.5t228.5 139.5t290 49.5q219 0 321 -51q9 -3 9 -14v-80q0 -13 -11 -8q-114 63 -319 63
q-279 0 -450 -164.5t-171 -445.5q0 -126 40 -236t115 -194t192 -132t262 -48q165 0 264 45v495zM729 1581q-31 0 -48 18t-17 46t18.5 45.5t48.5 17.5q29 0 47.5 -17.5t18.5 -45.5t-17 -46t-51 -18z" />
    <glyph glyph-name="gdotaccent" unicode="&#x121;" horiz-adv-x="958" 
d="M461 1237q-32 0 -50 19t-18 49q0 31 19 51t49 20q31 0 48 -19.5t17 -51.5q0 -29 -17.5 -48.5t-47.5 -19.5zM547 33l-209 12q-78 -55 -128 -125t-50 -117q0 -90 94 -159.5t242 -69.5q91 0 163.5 23t116 60.5t66 83t22.5 93.5q0 54 -25.5 92.5t-72.5 60t-99 32t-120 14.5z
M469 920q-115 0 -186.5 -74t-71.5 -191q0 -118 67.5 -190t186.5 -72q117 0 184.5 68.5t67.5 191.5q0 113 -63 190t-185 77zM356 135l207 -10q395 -21 395 -281q0 -152 -129.5 -254t-336.5 -102q-198 0 -313.5 93.5t-115.5 217.5q0 119 209 293q-53 68 -53 154q0 69 33 125
q-137 91 -137 282q0 146 97 246t259 100q73 0 131 -14q16 -4 37 -4h297q10 0 10 -10v-70q0 -10 -10 -10q-142 0 -221 6q98 -90 98 -242q0 -164 -100 -254t-248 -90q-62 0 -137 21q-23 -47 -17 -92q7 -64 45 -105z" />
    <glyph glyph-name="uni0122" unicode="&#x122;" horiz-adv-x="1282" 
d="M1061 610h-338q-10 2 -10 11v71q0 8 8 8h428q10 0 10 -10v-629q3 -11 -8 -14q-153 -67 -358 -67q-221 0 -382.5 91.5t-242 247.5t-80.5 357q0 160 53.5 292.5t149 222.5t228.5 139.5t290 49.5q219 0 321 -51q9 -3 9 -14v-80q0 -13 -11 -8q-114 63 -319 63
q-279 0 -450 -164.5t-171 -445.5q0 -126 40 -236t115 -194t192 -132t262 -48q165 0 264 45v495zM717 -492h-72q-5 0 -7 3t1 8q44 75 62 130.5t18 117.5q0 43 -27 112q-3 10 8 10h76q10 0 12 -6q25 -48 25 -104q0 -81 -21 -139t-65 -125q-3 -7 -10 -7z" />
    <glyph glyph-name="uni0123" unicode="&#x123;" horiz-adv-x="958" 
d="M524 1114h-78q-7 0 -12 8q-8 16 -15 48.5t-7 56.5q0 80 20.5 138t63.5 126q4 4 12 4h72q3 0 5 -2.5t-1 -7.5q-43 -76 -60.5 -130.5t-17.5 -117.5q0 -51 24 -113q2 -3 0 -6.5t-6 -3.5zM547 33l-209 12q-78 -55 -128 -125t-50 -117q0 -90 94 -159.5t242 -69.5
q91 0 163.5 23t116 60.5t66 83t22.5 93.5q0 54 -25.5 92.5t-72.5 60t-99 32t-120 14.5zM469 920q-115 0 -186.5 -74t-71.5 -191q0 -118 67.5 -190t186.5 -72q117 0 184.5 68.5t67.5 191.5q0 113 -63 190t-185 77zM356 135l207 -10q395 -21 395 -281q0 -152 -129.5 -254
t-336.5 -102q-198 0 -313.5 93.5t-115.5 217.5q0 119 209 293q-53 68 -53 154q0 69 33 125q-137 91 -137 282q0 146 97 246t259 100q73 0 131 -14q16 -4 37 -4h297q10 0 10 -10v-70q0 -10 -10 -10q-142 0 -221 6q98 -90 98 -242q0 -164 -100 -254t-248 -90q-62 0 -137 21
q-23 -47 -17 -92q7 -64 45 -105z" />
    <glyph glyph-name="Hcircumflex" unicode="&#x124;" horiz-adv-x="1331" 
d="M1145 0h-78q-10 0 -10 10v660h-783v-658q0 -12 -10 -12h-78q-10 0 -10 12v1340q0 10 10 10h78q10 0 10 -10v-590h783v588q0 12 10 12h78q10 0 10 -12v-1340q0 -10 -10 -10zM838 1493l-172 174l-168 -174q0 -2 -5 -5t-10 -3h-82q-4 0 -4.5 5.5t2.5 8.5l209 217q6 6 10 6
h97q13 0 16 -8l219 -221q3 -3 1 -5.5t-7 -2.5h-88q-13 0 -18 8z" />
    <glyph glyph-name="hcircumflex" unicode="&#x125;" horiz-adv-x="1067" 
d="M375 1546l-172 119l-156 -119q-6 -6 -16 -6h-88q-5 0 -6 2.5t2 5.5l213 170q4 6 10 6h88q11 0 16 -8l223 -168q3 -3 1 -5.5t-5 -2.5h-94q-10 0 -16 6zM254 760v-750q0 -10 -10 -10h-76q-10 0 -10 12v1456q0 11 8 11h80q8 0 8 -9l2 -610q133 139 326 139q45 0 86 -8.5
t86 -34t77.5 -66t54 -111.5t21.5 -163v-604q0 -12 -12 -12h-76q-10 0 -10 12v594q0 138 -62 220.5t-184 82.5q-91 0 -171.5 -38.5t-137.5 -110.5z" />
    <glyph glyph-name="Hbar" unicode="&#x126;" horiz-adv-x="1331" 
d="M1059 745v254h-785v-254h785zM1157 1079h103q10 0 10 -8v-65q0 -7 -10 -7h-103v-989q0 -10 -8 -10h-80q-10 0 -10 10v643h-785v-641q0 -12 -10 -12h-78q-10 0 -10 12v987h-110q-11 0 -11 9v61q0 10 8 10h113v273q0 10 10 10h78q10 0 10 -10v-273h785v271q0 12 10 12h80
q8 0 8 -12v-271z" />
    <glyph glyph-name="hbar" unicode="&#x127;" horiz-adv-x="1067" 
d="M254 1208l2 -356q133 139 326 139q46 0 87 -8.5t86 -34.5t77.5 -67t53.5 -111.5t21 -163.5v-594q0 -12 -12 -12h-74q-12 0 -12 12v586q0 138 -61.5 220.5t-182.5 82.5q-194 0 -311 -151v-740q0 -10 -10 -10h-76q-10 0 -10 12v1196h-162q-10 0 -10 11v61q0 10 8 10h164
v178q0 11 8 11h80q8 0 8 -9v-180h377q8 0 8 -8v-65q0 -9 -10 -9h-375z" />
    <glyph glyph-name="Itilde" unicode="&#x128;" horiz-adv-x="448" 
d="M272 1352v-1340q0 -12 -10 -12h-78q-10 0 -10 12v1338q0 12 10 12h78q10 0 10 -10zM4 1497h-61q-9 0 -9 8q3 80 51 134.5t119 54.5q42 0 80.5 -18.5t62 -40t53 -40t56.5 -18.5q36 0 56.5 27.5t25.5 74.5q3 9 11 9h61q8 0 8 -9q-10 -97 -53.5 -140.5t-106.5 -43.5
q-39 0 -76.5 18.5t-61.5 41t-55 41t-59 18.5q-37 0 -62.5 -28.5t-31.5 -80.5q0 -8 -8 -8z" />
    <glyph glyph-name="itilde" unicode="&#x129;" horiz-adv-x="415" 
d="M158 12v957q0 12 10 12h78q10 0 10 -10v-961q0 -10 -10 -10h-74q-14 0 -14 12zM-35 1182h-57q-10 0 -10 12q9 86 55 136t121 50q40 0 83.5 -18t74.5 -40t66.5 -40t61.5 -18q79 0 89 102q0 10 10 10h59q8 0 8 -8q-19 -188 -161 -188q-38 0 -80 19t-73 41t-69 41t-69 19
q-87 0 -101 -110q0 -8 -8 -8z" />
    <glyph glyph-name="Imacron" unicode="&#x12a;" horiz-adv-x="448" 
d="M272 1352v-1340q0 -12 -10 -12h-78q-10 0 -10 12v1338q0 12 10 12h78q10 0 10 -10zM-29 1622h512q6 0 6 -10v-68q0 -8 -8 -8h-506q-12 0 -12 8v68q0 10 8 10z" />
    <glyph glyph-name="imacron" unicode="&#x12b;" horiz-adv-x="415" 
d="M158 12v957q0 12 10 12h78q10 0 10 -10v-961q0 -10 -10 -10h-74q-14 0 -14 12zM-35 1335h492q8 0 8 -8v-65q0 -9 -8 -9h-492q-8 0 -8 11v63q0 8 8 8z" />
    <glyph glyph-name="Iogonek" unicode="&#x12e;" horiz-adv-x="448" 
d="M174 29v1323q0 10 10 10h80q8 0 8 -8v-1342q0 -9 -8 -14q-73 -70 -109 -126t-36 -118q0 -59 39.5 -95t105.5 -36q68 0 125 23q3 2 4.5 0t1.5 -8v-62q0 -10 -6 -14q-56 -27 -151 -27q-55 0 -103.5 19.5t-82.5 65.5t-34 112q0 44 15 86t43.5 80.5t48 59.5t51.5 52
q-2 6 -2 19z" />
    <glyph glyph-name="iogonek" unicode="&#x12f;" horiz-adv-x="415" 
d="M256 971v-959q0 -4 -8 -12q-69 -63 -101 -120t-32 -120q0 -61 38 -98t105 -37q81 0 125 23q8 4 8 -6v-60q0 -13 -8 -16q-54 -31 -150 -31q-89 0 -154 54t-65 151q0 138 148 274q-4 8 -4 17v938q0 12 10 12h78q10 0 10 -10zM207 1255q-29 0 -46.5 19t-17.5 47t18.5 48
t45.5 20q30 0 46.5 -19.5t16.5 -48.5q0 -27 -17.5 -46.5t-45.5 -19.5z" />
    <glyph glyph-name="Idotaccent" unicode="&#x130;" horiz-adv-x="448" 
d="M272 1352v-1340q0 -12 -10 -12h-78q-10 0 -10 12v1338q0 12 10 12h78q10 0 10 -10zM221 1532q-31 0 -48 18t-17 47q0 28 18.5 46t48.5 18q29 0 47.5 -18t18.5 -46t-17.5 -46.5t-50.5 -18.5z" />
    <glyph glyph-name="dotlessi" unicode="&#x131;" horiz-adv-x="415" 
d="M158 12v957q0 12 10 12h78q10 0 10 -10v-961q0 -10 -10 -10h-74q-14 0 -14 12z" />
    <glyph glyph-name="Jcircumflex" unicode="&#x134;" horiz-adv-x="526" 
d="M270 315v1037q0 10 11 10h77q11 0 11 -10v-1024q0 -108 -15 -181q-16 -72 -49.5 -123t-78.5 -78.5t-91.5 -39.5t-99.5 -12q-48 0 -66 6q-10 2 -10 16v68q0 13 12 10q20 -4 56 -4q123 0 183 75t60 250zM485 1470l-172 175l-168 -175q0 -8 -14 -8h-82q-4 0 -4.5 6t2.5 9
l209 217q6 6 10 6h96q14 0 17 -8l219 -222q3 -3 1 -5.5t-7 -2.5h-88q-14 0 -19 8z" />
    <glyph glyph-name="jcircumflex" unicode="&#x135;" horiz-adv-x="419" 
d="M172 981h78q10 0 10 -10v-1043q0 -149 -25.5 -224.5t-72.5 -125.5q-37 -38 -92.5 -55t-102.5 -17q-12 0 -22 2q-8 2 -8 13v65q0 13 10 13q37 1 63.5 6.5t57.5 24.5t49.5 51.5t31.5 91t13 139.5v1059q0 10 10 10zM365 1145l-162 231l-156 -233q0 -6 -12 -6h-70
q-4 0 -5.5 4.5t1.5 7.5l191 281q4 6 10 6h86q10 0 14 -9l199 -280q3 -3 1 -6.5t-7 -3.5h-76q-10 0 -14 8z" />
    <glyph glyph-name="uni0136" unicode="&#x136;" horiz-adv-x="1101" 
d="M987 1362h92q6 0 7.5 -5t-3.5 -9l-645 -643q-10 -7 0 -13l701 -678q3 -4 1.5 -9t-7.5 -5h-103q-12 0 -20 10l-693 666q-14 11 2 24l650 652q7 10 18 10zM272 1350v-1338q0 -12 -10 -12h-76q-12 0 -12 14v1338q0 10 10 10h78q10 0 10 -12zM543 -465h-74q-3 0 -5 2.5t1 7.5
q43 76 60.5 130.5t17.5 117.5q0 49 -25 113q-2 3 0 6.5t6 3.5h78q7 0 12 -8q9 -15 16 -47t7 -56q0 -81 -20.5 -139.5t-63.5 -126.5q-4 -4 -10 -4z" />
    <glyph glyph-name="uni0137" unicode="&#x137;" horiz-adv-x="886" 
d="M270 500q-10 12 0 24q52 47 257.5 242.5t217.5 206.5q5 8 17 8h96q6 0 7.5 -4.5t-3.5 -7.5q-30 -31 -238.5 -222.5t-238.5 -220.5q-2 -2 0 -6q211 -205 545 -508q4 -4 2.5 -8t-6.5 -4h-111q-13 0 -18 8q-392 362 -527 492zM254 1470v-1460q0 -10 -8 -10h-80q-10 0 -10 10
v1460q0 9 10 9h80q8 0 8 -9zM414 -461h-72q-9 0 -6 10q43 73 61.5 128.5t18.5 117.5q0 53 -27 115q-2 3 1 6.5t7 3.5h76q9 0 12 -8q25 -48 25 -105q0 -79 -21 -137t-65 -127q-4 -4 -10 -4z" />
    <glyph glyph-name="kgreenlandic" unicode="&#x138;" horiz-adv-x="888" 
d="M270 500q-10 12 0 24q232 217 473 449q8 8 17 8h96q7 0 8.5 -4.5t-2.5 -7.5q-30 -30 -236.5 -220t-240.5 -223q-2 -2 0 -4q175 -172 547 -510q4 -4 2.5 -8t-6.5 -4h-113q-11 0 -16 8q-250 231 -529 492zM254 971v-961q0 -10 -8 -10h-80q-10 0 -10 10v961q0 10 10 10h80
q8 0 8 -10z" />
    <glyph glyph-name="Lacute" unicode="&#x139;" horiz-adv-x="937" 
d="M915 0h-727q-14 0 -14 14v1336q0 12 10 12h78q10 0 10 -10v-1260h666q10 0 6 -12l-14 -70q-2 -10 -15 -10zM158 1497l262 223q4 4 14 4h107q6 0 6.5 -3.5t-2.5 -6.5l-271 -219q-4 -6 -16 -6h-94q-6 0 -7.5 2.5t1.5 5.5z" />
    <glyph glyph-name="lacute" unicode="&#x13a;" horiz-adv-x="446" 
d="M147 1573l189 160q8 8 22 8h101q4 0 6 -2t1.5 -5.5t-3.5 -7.5l-207 -159q-8 -6 -23 -6h-79q-7 0 -9.5 3.5t2.5 8.5zM158 172v1298q0 9 10 9h78q8 0 8 -9v-1292q0 -65 23 -87.5t65 -22.5q18 0 45 6q4 1 5 -0.5t1 -7.5v-62q0 -10 -6 -12q-24 -12 -74 -12q-31 0 -55 6.5
t-48.5 25t-38 59t-13.5 101.5z" />
    <glyph glyph-name="uni013B" unicode="&#x13b;" horiz-adv-x="937" 
d="M915 0h-727q-14 0 -14 14v1336q0 12 10 12h78q10 0 10 -10v-1260h666q10 0 6 -12l-14 -70q-2 -10 -15 -10zM518 -504h-72q-5 0 -7 4t1 8q42 74 60 129t18 117q0 52 -24 113q-4 12 6 12h78q9 0 12 -8q24 -46 24 -104q0 -81 -21 -139.5t-65 -125.5q-6 -6 -10 -6z" />
    <glyph glyph-name="uni013C" unicode="&#x13c;" horiz-adv-x="446" 
d="M158 172v1298q0 9 10 9h78q8 0 8 -9v-1292q0 -65 23 -87.5t65 -22.5q18 0 45 6q4 1 5 -0.5t1 -7.5v-62q0 -10 -6 -12q-24 -12 -74 -12q-31 0 -55 6.5t-48.5 25t-38 59t-13.5 101.5zM229 -477h-73q-3 0 -5 2.5t1 7.5q42 75 59.5 130t17.5 118q0 51 -24 113q-3 10 6 10h78
q10 0 12 -6q25 -48 25 -105q0 -81 -21 -139t-65 -127q-4 -4 -11 -4z" />
    <glyph glyph-name="Lcaron" unicode="&#x13d;" horiz-adv-x="937" 
d="M915 0h-727q-14 0 -14 14v1336q0 12 10 12h78q10 0 10 -10v-1260h666q10 0 6 -12l-14 -70q-2 -10 -15 -10zM641 893l4 461q0 10 10 10h76q11 0 8 -12l-20 -459q0 -8 -8 -8h-62q-8 0 -8 8z" />
    <glyph glyph-name="lcaron" unicode="&#x13e;" horiz-adv-x="489" 
d="M414 1012l4 458q0 9 10 9h68q10 0 10 -9l-17 -458q-4 -11 -10 -11h-57q-8 0 -8 11zM158 172v1298q0 9 10 9h78q8 0 8 -9v-1292q0 -65 23 -87.5t65 -22.5q18 0 45 6q4 1 5 -0.5t1 -7.5v-62q0 -10 -6 -12q-24 -12 -74 -12q-31 0 -55 6.5t-48.5 25t-38 59t-13.5 101.5z" />
    <glyph glyph-name="Ldot" unicode="&#x13f;" horiz-adv-x="937" 
d="M915 0h-727q-14 0 -14 14v1336q0 12 10 12h78q10 0 10 -10v-1260h666q10 0 6 -12l-14 -70q-2 -10 -15 -10zM698 692q-31 0 -49 19t-18 47t18.5 45.5t50.5 17.5q29 0 47.5 -17.5t18.5 -45.5t-17.5 -47t-50.5 -19z" />
    <glyph glyph-name="ldot" unicode="&#x140;" horiz-adv-x="460" 
d="M440 815q-28 0 -43.5 18t-15.5 50q0 30 15 48.5t44 18.5q30 0 45 -18t15 -49q0 -32 -16 -50t-44 -18zM158 172v1298q0 9 10 9h78q8 0 8 -9v-1292q0 -65 23 -87.5t65 -22.5q18 0 45 6q4 1 5 -0.5t1 -7.5v-62q0 -10 -6 -12q-24 -12 -74 -12q-31 0 -55 6.5t-48.5 25t-38 59
t-13.5 101.5z" />
    <glyph glyph-name="Lslash" unicode="&#x141;" horiz-adv-x="937" 
d="M272 92h666q10 0 6 -12l-14 -70q-2 -10 -15 -10h-727q-14 0 -14 14v586l-180 -88q-8 -4 -8 6v66q0 5 6 8l182 90v668q0 12 10 12h78q10 0 10 -10v-623l328 162q3 2 5.5 0t2.5 -8v-64q0 -9 -8 -12l-328 -160v-555z" />
    <glyph glyph-name="lslash" unicode="&#x142;" horiz-adv-x="468" 
d="M274 932l164 90q11 7 11 -6v-47q0 -19 -9 -23l-166 -92v-676q0 -65 23 -87.5t65 -22.5q19 0 46 6q4 1 5 -0.5t1 -7.5v-62q0 -10 -6 -12q-24 -12 -74 -12q-32 0 -55.5 6.5t-48.5 25t-38.5 59t-13.5 101.5v629l-127 -72q-10 -3 -10 6v58q0 8 6 14l131 72v591q0 9 10 9h78
q8 0 8 -9v-538z" />
    <glyph glyph-name="Nacute" unicode="&#x143;" horiz-adv-x="1349" 
d="M260 0h-74q-12 0 -12 12v1340q0 10 10 10h119q9 0 14 -8q695 -1121 766 -1248h2q-6 76 -6 304v942q0 10 13 10h73q11 0 11 -12v-1338q0 -12 -13 -12h-112q-13 0 -17 10q-26 45 -384 625t-388 643h-2q8 -114 8 -342v-924q0 -12 -8 -12zM580 1501l260 221q7 7 14 7h107
q13 0 4 -13l-271 -219q-4 -6 -14 -6h-96q-4 0 -5.5 3.5t1.5 6.5z" />
    <glyph glyph-name="nacute" unicode="&#x144;" horiz-adv-x="1064" 
d="M158 12v742q0 109 -8 217q0 10 10 10h69q11 0 13 -10q7 -34 10 -123q139 151 330 151q45 0 86 -8.5t86 -34t77.5 -66.5t54 -112t21.5 -164v-602q0 -12 -12 -12h-76q-10 0 -10 12v594q0 137 -62.5 220t-183.5 83q-186 0 -309 -164v-733q0 -12 -10 -12h-78q-8 0 -8 12z
M455 1149l219 293q10 10 14 10h92q13 0 8 -10l-235 -295q-5 -8 -14 -8h-78q-5 0 -7 2.5t1 7.5z" />
    <glyph glyph-name="uni0145" unicode="&#x145;" horiz-adv-x="1349" 
d="M260 0h-74q-12 0 -12 12v1340q0 10 10 10h119q9 0 14 -8q695 -1121 766 -1248h2q-6 76 -6 304v942q0 10 13 10h73q11 0 11 -12v-1338q0 -12 -13 -12h-112q-13 0 -17 10q-26 45 -384 625t-388 643h-2q8 -114 8 -342v-924q0 -12 -8 -12zM649 -463h-71q-11 0 -7 12
q43 73 61.5 128.5t18.5 117.5q0 54 -26 113q-1 5 1 8.5t7 3.5h76q9 0 12 -8q24 -46 24 -105q0 -81 -21 -139t-65 -125q-6 -6 -10 -6z" />
    <glyph glyph-name="uni0146" unicode="&#x146;" horiz-adv-x="1064" 
d="M158 12v742q0 109 -8 217q0 10 10 10h69q11 0 13 -10q7 -34 10 -123q139 151 330 151q45 0 86 -8.5t86 -34t77.5 -66.5t54 -112t21.5 -164v-602q0 -12 -12 -12h-76q-10 0 -10 12v594q0 137 -62.5 220t-183.5 83q-186 0 -309 -164v-733q0 -12 -10 -12h-78q-8 0 -8 12z
M506 -479h-72q-5 0 -7 2.5t1 7.5q42 74 60 129t18 117q0 50 -25 114q-2 3 0 7t6 4h78q10 0 13 -8q24 -46 24 -105q0 -79 -21 -137t-65 -127q-4 -4 -10 -4z" />
    <glyph glyph-name="Ncaron" unicode="&#x147;" horiz-adv-x="1349" 
d="M260 0h-74q-12 0 -12 12v1340q0 10 10 10h119q9 0 14 -8q695 -1121 766 -1248h2q-6 76 -6 304v942q0 10 13 10h73q11 0 11 -12v-1338q0 -12 -13 -12h-112q-13 0 -17 10q-26 45 -384 625t-388 643h-2q8 -114 8 -342v-924q0 -12 -8 -12zM506 1700l172 -174l166 174
q8 8 16 8h82q4 0 4.5 -5.5t-2.5 -8.5l-209 -217q-5 -7 -10 -7h-96q-14 0 -17 9l-219 221q-3 3 -1 5.5t5 2.5h90q14 0 19 -8z" />
    <glyph glyph-name="ncaron" unicode="&#x148;" horiz-adv-x="1064" 
d="M158 12v742q0 109 -8 217q0 10 10 10h69q11 0 13 -10q7 -34 10 -123q139 151 330 151q45 0 86 -8.5t86 -34t77.5 -66.5t54 -112t21.5 -164v-602q0 -12 -12 -12h-76q-10 0 -10 12v594q0 137 -62.5 220t-183.5 83q-186 0 -309 -164v-733q0 -12 -10 -12h-78q-8 0 -8 12z
M360 1430l162 -232l156 234q0 6 12 6h70q5 0 6.5 -5t-0.5 -6l-193 -280q-5 -8 -10 -8h-86q-10 0 -14 8l-197 280q-3 5 -1 8t7 3h74q10 0 14 -8z" />
    <glyph glyph-name="napostrophe" unicode="&#x149;" horiz-adv-x="1064" 
d="M49 1110l4 373q0 10 10 10h80q9 0 9 -10l-21 -373q0 -8 -8 -8h-64q-10 0 -10 8zM158 12v742q0 109 -8 217q0 10 10 10h69q11 0 13 -10q7 -34 10 -123q139 151 330 151q45 0 86 -8.5t86 -34t77.5 -66.5t54 -112t21.5 -164v-602q0 -12 -12 -12h-76q-10 0 -10 12v594
q0 137 -62.5 220t-183.5 83q-186 0 -309 -164v-733q0 -12 -10 -12h-78q-8 0 -8 12z" />
    <glyph glyph-name="Omacron" unicode="&#x14c;" horiz-adv-x="1380" 
d="M688 1380q136 0 249.5 -53t190 -145.5t119 -219.5t43.5 -274q1 -167 -44.5 -302.5t-126 -223.5t-188.5 -135t-235 -47q-141 0 -256 53t-192 147t-118.5 223t-41.5 281q0 158 46.5 289.5t127 220t190.5 137.5t236 49zM188 686q0 -99 20.5 -189.5t62.5 -168t101.5 -134.5
t142.5 -89.5t181 -32.5q232 0 363 167.5t131 446.5q0 172 -62.5 309.5t-178 216t-263.5 78.5q-102 0 -191.5 -39t-158.5 -113t-108.5 -190.5t-39.5 -261.5zM438 1653h510q8 0 8 -8v-68q0 -10 -10 -10h-506q-10 0 -10 10v68q0 8 8 8z" />
    <glyph glyph-name="omacron" unicode="&#x14d;" horiz-adv-x="1046" 
d="M524 999q199 0 322 -140.5t123 -369.5q0 -227 -123 -368t-320 -141q-91 0 -167 30t-127.5 79.5t-87.5 116t-52 137.5t-16 146q0 220 125 365t323 145zM518 911q-153 0 -248.5 -116t-95.5 -301q0 -115 40.5 -210t123.5 -154.5t194 -59.5q63 0 121 24.5t107.5 72.5
t79.5 131t30 189q0 65 -12 125t-39.5 115t-67.5 95.5t-100 64.5t-133 24zM276 1335h492q6 0 6 -8v-65q0 -9 -6 -9h-492q-8 0 -8 11v63q0 8 8 8z" />
    <glyph glyph-name="Ohungarumlaut" unicode="&#x150;" horiz-adv-x="1380" 
d="M688 1380q136 0 249.5 -53t190 -145.5t119 -219.5t43.5 -274q1 -167 -44.5 -302.5t-126 -223.5t-188.5 -135t-235 -47q-141 0 -256 53t-192 147t-118.5 223t-41.5 281q0 158 46.5 289.5t127 220t190.5 137.5t236 49zM188 686q0 -99 20.5 -189.5t62.5 -168t101.5 -134.5
t142.5 -89.5t181 -32.5q232 0 363 167.5t131 446.5q0 172 -62.5 309.5t-178 216t-263.5 78.5q-102 0 -191.5 -39t-158.5 -113t-108.5 -190.5t-39.5 -261.5zM463 1532l164 219q5 8 14 8h84q4 0 5.5 -3.5t-1.5 -6.5l-176 -221q-6 -6 -14 -6h-72q-9 0 -4 10zM768 1532l162 217
q3 10 14 10h84q11 0 4 -14l-172 -213q-6 -10 -20 -10h-66q-11 0 -6 10z" />
    <glyph glyph-name="ohungarumlaut" unicode="&#x151;" horiz-adv-x="1046" 
d="M524 999q199 0 322 -140.5t123 -369.5q0 -227 -123 -368t-320 -141q-91 0 -167 30t-127.5 79.5t-87.5 116t-52 137.5t-16 146q0 220 125 365t323 145zM518 911q-153 0 -248.5 -116t-95.5 -301q0 -115 40.5 -210t123.5 -154.5t194 -59.5q63 0 121 24.5t107.5 72.5
t79.5 131t30 189q0 65 -12 125t-39.5 115t-67.5 95.5t-100 64.5t-133 24zM324 1151l161 289q7 10 15 10h75q4 0 6.5 -3.5t0.5 -6.5l-176 -293q-5 -8 -17 -8h-59q-12 0 -6 12zM608 1151l164 291q5 8 14 8h76q4 0 6 -3.5t0 -6.5l-176 -291q-5 -10 -16 -10h-60q-13 0 -8 12z
" />
    <glyph glyph-name="OE" unicode="&#x152;" horiz-adv-x="1800" 
d="M973 86v1184q-55 8 -178 8q-282 0 -445.5 -157t-163.5 -435q0 -298 165.5 -451t449.5 -153q129 0 172 4zM1001 1362h691q10 0 12 -10l10 -70q3 -12 -8 -12h-635v-529h569q11 0 11 -10v-69q0 -13 -11 -13h-569v-559h678q11 0 8 -8l-14 -72q-2 -6 -6 -8t-17 -2h-692
q-63 -6 -244 -6q-319 0 -507.5 180t-188.5 508q0 168 56 300t154.5 215t227.5 126t281 43q132 0 194 -4z" />
    <glyph glyph-name="oe" unicode="&#x153;" horiz-adv-x="1740" 
d="M76 489q0 222 124.5 365t321.5 143q139 0 245.5 -72.5t152.5 -215.5q24 69 60 122t74.5 83.5t84 50t84 26t77.5 6.5q77 0 141.5 -24.5t106 -64t71 -90t42 -101t12.5 -99.5q0 -96 -12 -102q-26 -7 -62.5 -8.5t-164.5 -1.5h-463q-9 -191 88.5 -312.5t281.5 -121.5
q154 0 258 59q5 3 8 0.5t3 -8.5v-66q0 -11 -8 -16q-94 -58 -275 -61q-42 0 -83.5 6.5t-91.5 25.5t-92 48.5t-80 81.5t-60 120q-24 -68 -61.5 -119.5t-77.5 -82t-88 -49t-87.5 -25t-81.5 -6.5q-95 0 -172.5 31.5t-127.5 82.5t-84.5 118.5t-49 137t-14.5 139.5zM518 907
q-155 0 -249.5 -112.5t-94.5 -300.5q0 -84 22.5 -159.5t65 -135t111.5 -94.5t155 -35q64 0 121.5 21.5t108.5 67.5t81.5 130t30.5 196q0 85 -20 158.5t-60.5 134t-110 95t-161.5 34.5zM975 586h461q138 0 141 12q2 6 2 37q0 27 -7 59.5t-27 71.5t-50.5 70t-83.5 52t-119 21
q-141 0 -222 -89t-95 -234z" />
    <glyph glyph-name="Racute" unicode="&#x154;" horiz-adv-x="1110" 
d="M262 0h-78q-4 0 -5.5 0.5t-3 2.5t-1.5 7v1336q0 14 10 14q216 6 312 6q218 0 350.5 -96t132.5 -283q0 -75 -24.5 -137.5t-67.5 -106t-94.5 -72.5t-112.5 -46q67 -96 227.5 -330.5t190.5 -282.5q3 -3 3.5 -6t-1.5 -4.5t-6 -1.5h-93q-11 0 -16 8q-33 48 -177 260t-204 299
q-19 31 -45 31h-289v-588q0 -10 -8 -10zM270 686h260q161 0 256 83.5t95 213.5q0 136 -99.5 215.5t-292.5 79.5q-78 0 -219 -6v-586zM410 1511l260 224q6 4 16 4h105q6 0 6.5 -3.5t-2.5 -6.5l-269 -220q-6 -6 -16 -6h-96q-4 0 -5.5 2.5t1.5 5.5z" />
    <glyph glyph-name="racute" unicode="&#x155;" horiz-adv-x="589" 
d="M156 981h71q8 0 15 -10q5 -22 12 -158q56 81 149 133.5t185 52.5q6 0 8 -1t2 -7v-84q0 -10 -10 -10q-100 0 -193 -54.5t-137 -133.5l-2 -699q0 -10 -8 -10h-80q-10 0 -10 10v709q0 164 -11 250q-2 12 9 12zM236 1149l219 293q10 10 14 10h92q13 0 8 -10l-235 -295
q-5 -8 -15 -8h-77q-5 0 -7 2.5t1 7.5z" />
    <glyph glyph-name="uni0156" unicode="&#x156;" horiz-adv-x="1110" 
d="M262 0h-78q-4 0 -5.5 0.5t-3 2.5t-1.5 7v1336q0 14 10 14q216 6 312 6q218 0 350.5 -96t132.5 -283q0 -75 -24.5 -137.5t-67.5 -106t-94.5 -72.5t-112.5 -46q67 -96 227.5 -330.5t190.5 -282.5q3 -3 3.5 -6t-1.5 -4.5t-6 -1.5h-93q-11 0 -16 8q-33 48 -177 260t-204 299
q-19 31 -45 31h-289v-588q0 -10 -8 -10zM270 686h260q161 0 256 83.5t95 213.5q0 136 -99.5 215.5t-292.5 79.5q-78 0 -219 -6v-586zM549 -442h-72q-5 0 -7 3t1 7q43 76 60.5 130.5t17.5 117.5q0 48 -25 112q-4 11 6 11h78q10 0 13 -9q9 -15 16.5 -47t7.5 -55
q0 -81 -21 -139t-65 -127q-4 -4 -10 -4z" />
    <glyph glyph-name="uni0157" unicode="&#x157;" horiz-adv-x="589" 
d="M156 981h71q8 0 15 -10q5 -22 12 -158q56 81 149 133.5t185 52.5q6 0 8 -1t2 -7v-84q0 -10 -10 -10q-100 0 -193 -54.5t-137 -133.5l-2 -699q0 -10 -8 -10h-80q-10 0 -10 10v709q0 164 -11 250q-2 12 9 12zM170 -471h-74q-3 0 -5 2.5t1 7.5q43 76 60.5 130.5t17.5 115.5
q0 51 -25 115q-2 3 0.5 6.5t6.5 3.5h77q8 0 13 -8q22 -42 22 -105q0 -80 -20.5 -138t-63.5 -126q-4 -4 -10 -4z" />
    <glyph glyph-name="Rcaron" unicode="&#x158;" horiz-adv-x="1110" 
d="M262 0h-78q-4 0 -5.5 0.5t-3 2.5t-1.5 7v1336q0 14 10 14q216 6 312 6q218 0 350.5 -96t132.5 -283q0 -75 -24.5 -137.5t-67.5 -106t-94.5 -72.5t-112.5 -46q67 -96 227.5 -330.5t190.5 -282.5q3 -3 3.5 -6t-1.5 -4.5t-6 -1.5h-93q-11 0 -16 8q-33 48 -177 260t-204 299
q-19 31 -45 31h-289v-588q0 -10 -8 -10zM270 686h260q161 0 256 83.5t95 213.5q0 136 -99.5 215.5t-292.5 79.5q-78 0 -219 -6v-586zM340 1714l172 -174l168 174q0 2 4.5 5t9.5 3h82q4 0 4.5 -5.5t-2.5 -8.5l-209 -217q-4 -6 -10 -6h-96q-14 0 -17 8l-219 221q-3 3 -1 5.5
t7 2.5h89q13 0 18 -8z" />
    <glyph glyph-name="rcaron" unicode="&#x159;" horiz-adv-x="589" 
d="M156 981h71q8 0 15 -10q5 -22 12 -158q56 81 149 133.5t185 52.5q6 0 8 -1t2 -7v-84q0 -10 -10 -10q-100 0 -193 -54.5t-137 -133.5l-2 -699q0 -10 -8 -10h-80q-10 0 -10 10v709q0 164 -11 250q-2 12 9 12zM188 1430l160 -234l156 234q3 6 14 6h70q4 0 5 -4t-1 -7
l-193 -280q-4 -6 -8 -6h-86q-11 0 -16 8l-197 280q-3 3 -1 6t7 3h76q11 0 14 -6z" />
    <glyph glyph-name="Sacute" unicode="&#x15a;" horiz-adv-x="944" 
d="M424 -20q-211 0 -338 81q-8 5 -8 19v86q0 5 4 7t8 -1q137 -100 336 -100q163 0 247.5 72t84.5 194q0 93 -60 162.5t-217 140.5l-84 35q-91 40 -153.5 85t-94 92.5t-44.5 91t-13 93.5q0 156 112 250t296 94q203 0 293 -57q8 -5 8 -16v-78q0 -6 -4.5 -8.5t-8.5 0.5
q-100 69 -292 69q-72 0 -128 -16.5t-89 -41.5t-54.5 -58.5t-29 -64t-7.5 -62.5q0 -89 58.5 -157.5t204.5 -131.5l92 -39q172 -76 243.5 -167.5t71.5 -207.5q0 -160 -113.5 -263t-320.5 -103zM383 1532l260 221q6 6 16 6h105q12 0 4 -12l-268 -219q-6 -6 -17 -6h-94
q-6 0 -7.5 3.5t1.5 6.5z" />
    <glyph glyph-name="sacute" unicode="&#x15b;" horiz-adv-x="731" 
d="M610 854q-85 59 -223 59q-109 0 -161 -47t-52 -114q0 -63 45.5 -108t173.5 -97q142 -58 205.5 -123.5t63.5 -171.5q0 -131 -95.5 -201.5t-236.5 -70.5q-164 0 -258 61q-9 6 -9 14v84q0 15 11 8q103 -79 260 -79q110 0 170.5 48.5t60.5 125.5q0 73 -46.5 120t-162.5 95
q-146 58 -212 123.5t-66 167.5q0 108 85.5 179.5t227.5 71.5q156 0 223 -45q9 -6 9 -16v-76q0 -6 -4.5 -8.5t-8.5 0.5zM281 1149l219 293q10 10 14 10h92q13 0 8 -10l-235 -295q-5 -8 -14 -8h-78q-5 0 -7 2.5t1 7.5z" />
    <glyph glyph-name="Scircumflex" unicode="&#x15c;" horiz-adv-x="944" 
d="M424 -20q-211 0 -338 81q-8 5 -8 19v86q0 5 4 7t8 -1q137 -100 336 -100q163 0 247.5 72t84.5 194q0 93 -60 162.5t-217 140.5l-84 35q-91 40 -153.5 85t-94 92.5t-44.5 91t-13 93.5q0 156 112 250t296 94q203 0 293 -57q8 -5 8 -16v-78q0 -6 -4.5 -8.5t-8.5 0.5
q-100 69 -292 69q-72 0 -128 -16.5t-89 -41.5t-54.5 -58.5t-29 -64t-7.5 -62.5q0 -89 58.5 -157.5t204.5 -131.5l92 -39q172 -76 243.5 -167.5t71.5 -207.5q0 -160 -113.5 -263t-320.5 -103zM637 1497l-172 174l-166 -172q-5 -10 -16 -10h-82q-4 0 -4.5 5.5t2.5 8.5l209 219
q4 4 10 4h96q13 0 16 -6l220 -223q3 -3 0.5 -5.5t-7.5 -2.5h-88q-10 0 -18 8z" />
    <glyph glyph-name="scircumflex" unicode="&#x15d;" horiz-adv-x="731" 
d="M610 854q-85 59 -223 59q-109 0 -161 -47t-52 -114q0 -63 45.5 -108t173.5 -97q142 -58 205.5 -123.5t63.5 -171.5q0 -131 -95.5 -201.5t-236.5 -70.5q-164 0 -258 61q-9 6 -9 14v84q0 15 11 8q103 -79 260 -79q110 0 170.5 48.5t60.5 125.5q0 73 -46.5 120t-162.5 95
q-146 58 -212 123.5t-66 167.5q0 108 85.5 179.5t227.5 71.5q156 0 223 -45q9 -6 9 -16v-76q0 -6 -4.5 -8.5t-8.5 0.5zM520 1145l-162 231l-155 -233q0 -6 -13 -6h-69q-4 0 -5.5 4.5t1.5 7.5l190 281q6 6 10 6h86q11 0 15 -9l198 -280q3 -3 1 -6.5t-7 -3.5h-75q-11 0 -15 8z
" />
    <glyph glyph-name="uni015E" unicode="&#x15e;" horiz-adv-x="944" 
d="M451 760l92 -39q172 -76 243.5 -167.5t71.5 -207.5q0 -143 -92.5 -242.5t-263.5 -119.5l-58 -86q177 -45 177 -179q0 -76 -54 -119.5t-135 -43.5q-82 0 -133 28q-6 3 -6 10v58q0 9 8 6q64 -31 125 -31q111 0 111 88q0 100 -193 127q-3 2 -3 11.5t3 15.5l76 111
q-207 0 -334 81q-8 5 -8 19v86q0 5 4 7t8 -1q137 -100 336 -100q163 0 247.5 72t84.5 194q0 93 -60 162.5t-217 140.5l-84 35q-91 40 -153.5 85t-94 92.5t-44.5 91t-13 93.5q0 156 112 250t296 94q203 0 293 -57q8 -5 8 -16v-78q0 -6 -4.5 -8.5t-8.5 0.5q-100 69 -292 69
q-72 0 -128 -16.5t-89 -41.5t-54.5 -58.5t-29 -64t-7.5 -62.5q0 -89 58.5 -157.5t204.5 -131.5z" />
    <glyph glyph-name="uni015F" unicode="&#x15f;" horiz-adv-x="731" 
d="M623 938v-76q0 -6 -4.5 -8.5t-8.5 0.5q-85 59 -223 59q-109 0 -161 -47t-52 -114q0 -63 45.5 -108t173.5 -97q142 -58 205.5 -123.5t63.5 -171.5q0 -113 -72.5 -181.5t-186.5 -84.5l-57 -88q174 -44 174 -179q0 -76 -53.5 -119.5t-134.5 -43.5q-83 0 -131 28q-8 3 -8 13
v55q0 8 10 6q60 -31 125 -31q52 0 81 22.5t29 65.5q0 100 -192 127q-4 1 -4.5 11t2.5 16l75 111q-156 3 -247 61q-9 6 -9 14v84q0 15 11 8q103 -79 260 -79q110 0 170.5 48.5t60.5 125.5q0 73 -46.5 120t-162.5 95q-146 58 -212 123.5t-66 167.5q0 108 85.5 179.5
t227.5 71.5q156 0 223 -45q9 -6 9 -16z" />
    <glyph glyph-name="Scaron" unicode="&#x160;" horiz-adv-x="944" 
d="M424 -20q-211 0 -338 81q-8 5 -8 19v86q0 5 4 7t8 -1q137 -100 336 -100q163 0 247.5 72t84.5 194q0 93 -60 162.5t-217 140.5l-84 35q-91 40 -153.5 85t-94 92.5t-44.5 91t-13 93.5q0 156 112 250t296 94q203 0 293 -57q8 -5 8 -16v-78q0 -6 -4.5 -8.5t-8.5 0.5
q-100 69 -292 69q-72 0 -128 -16.5t-89 -41.5t-54.5 -58.5t-29 -64t-7.5 -62.5q0 -89 58.5 -157.5t204.5 -131.5l92 -39q172 -76 243.5 -167.5t71.5 -207.5q0 -160 -113.5 -263t-320.5 -103zM303 1731l174 -175l166 173q5 10 16 10h80q11 0 4 -15l-208 -219q-6 -4 -13 -4
h-94q-12 0 -18 6l-217 224q-3 3 -2 5.5t6 2.5h88q14 0 18 -8z" />
    <glyph glyph-name="scaron" unicode="&#x161;" horiz-adv-x="731" 
d="M610 854q-85 59 -223 59q-109 0 -161 -47t-52 -114q0 -63 45.5 -108t173.5 -97q142 -58 205.5 -123.5t63.5 -171.5q0 -131 -95.5 -201.5t-236.5 -70.5q-164 0 -258 61q-9 6 -9 14v84q0 15 11 8q103 -79 260 -79q110 0 170.5 48.5t60.5 125.5q0 73 -46.5 120t-162.5 95
q-146 58 -212 123.5t-66 167.5q0 108 85.5 179.5t227.5 71.5q156 0 223 -45q9 -6 9 -16v-76q0 -6 -4.5 -8.5t-8.5 0.5zM203 1430l162 -232l155 234q0 6 12 6h70q4 0 5.5 -5t-1.5 -6l-190 -280q-5 -8 -10 -8h-87q-10 0 -14 8l-199 280q-3 5 -0.5 8t7.5 3h75q11 0 15 -8z" />
    <glyph glyph-name="uni0162" unicode="&#x162;" horiz-adv-x="1054" 
d="M1028 1352l10 -70q3 -12 -8 -12h-461v-1258q0 -12 -12 -12l-63 -100q94 -22 140 -69t46 -107q0 -76 -54.5 -120t-136.5 -44q-77 0 -131 28q-8 3 -8 13v55q0 11 10 8q53 -31 125 -31q52 0 81.5 22t29.5 64q0 100 -193 127q-4 1 -4 11t2 16l86 127h-4q-12 0 -12 12v1258
h-463q-8 0 -6 12l14 70q3 10 13 10h987q10 0 12 -10z" />
    <glyph glyph-name="uni0163" unicode="&#x163;" horiz-adv-x="555" 
d="M276 891v-664q0 -157 138 -157q59 0 112 22q11 4 11 -6v-61q0 -11 -9 -15q-51 -30 -131 -30l-55 -82q176 -44 176 -179q0 -76 -54 -119.5t-136 -43.5q-83 0 -131 28q-9 3 -9 13v55q0 3 3.5 5t7.5 1q64 -31 125 -31q110 0 110 88q0 101 -192 127q-8 3 -2 27l79 119
q-69 16 -104 73.5t-35 167.5v662h-151q-13 3 -13 14v64q0 12 13 12h151q0 61 5.5 151.5t11.5 120.5q4 11 8 13l76 14q12 4 12 -4q-14 -106 -14 -295h231q12 0 12 -12v-66q0 -9 -12 -12h-234z" />
    <glyph glyph-name="Tcaron" unicode="&#x164;" horiz-adv-x="1019" 
d="M461 12v1258h-463q-10 0 -8 12l16 70q3 10 12 10h988q10 0 12 -10l10 -70q3 -12 -8 -12h-461v-1258q0 -12 -12 -12h-74q-12 0 -12 12zM344 1706l174 -174l166 174q8 8 14 8h82q11 0 4 -14l-209 -217q-6 -6 -12 -6h-94q-13 0 -18 8l-218 221q-3 3 -1.5 5.5t6.5 2.5h88
q15 0 18 -8z" />
    <glyph glyph-name="tcaron" unicode="&#x165;" horiz-adv-x="555" 
d="M444 1194l5 358q0 15 12 15h65q15 0 15 -15l-21 -358q0 -12 -10 -12h-55q-11 0 -11 12zM537 86v-61q0 -11 -9 -15q-53 -30 -137 -30q-104 0 -157.5 57t-53.5 192v662h-151q-13 3 -13 14v64q0 12 13 12h151q0 61 5.5 151.5t11.5 120.5q4 11 8 13l76 14q12 4 12 -4
q-14 -106 -14 -295h231q12 0 12 -12v-66q0 -9 -12 -12h-234v-664q0 -157 138 -157q59 0 112 22q11 4 11 -6z" />
    <glyph glyph-name="Utilde" unicode="&#x168;" horiz-adv-x="1292" 
d="M254 1352v-875q0 -191 105 -298t292 -107q59 0 110.5 10t104 38t89.5 72t60 118.5t23 172.5v869q0 10 11 10h77q11 0 11 -10v-863q0 -135 -37 -235t-104 -158.5t-154 -87t-195 -28.5q-229 0 -360 125.5t-131 371.5v875q0 10 10 10h78q10 0 10 -10zM430 1513h-61
q-9 0 -9 7q3 81 51 135.5t119 54.5q42 0 80.5 -18.5t62 -41t53 -41t56.5 -18.5q71 0 84 105q0 8 8 8h62q8 0 8 -8q-10 -99 -53.5 -143t-106.5 -44q-39 0 -76.5 18.5t-61.5 41t-55 41t-59 18.5q-37 0 -62.5 -28t-31.5 -80q0 -7 -8 -7z" />
    <glyph glyph-name="utilde" unicode="&#x169;" horiz-adv-x="1048" 
d="M889 969v-758q0 -126 10 -201q3 -10 -8 -10h-74q-7 0 -12 8q-10 68 -10 101q-121 -129 -308 -129q-65 0 -119.5 16.5t-105 56t-79.5 117t-29 186.5v613q0 12 10 12h78q10 0 10 -12v-598q0 -142 66 -221.5t188 -79.5q178 0 285 135v764q0 12 12 12h76q10 0 10 -12z
M279 1182h-58q-10 0 -10 12q9 86 55 136t121 50q51 0 105.5 -29t102 -58t79.5 -29q42 0 62.5 26t25.5 76q0 10 10 10h59q9 0 9 -8q-19 -188 -162 -188q-38 0 -80 19t-73 41t-69 41t-69 19q-86 0 -100 -110q0 -8 -8 -8z" />
    <glyph glyph-name="Umacron" unicode="&#x16a;" horiz-adv-x="1292" 
d="M254 1352v-875q0 -191 105 -298t292 -107q59 0 110.5 10t104 38t89.5 72t60 118.5t23 172.5v869q0 10 11 10h77q11 0 11 -10v-863q0 -135 -37 -235t-104 -158.5t-154 -87t-195 -28.5q-229 0 -360 125.5t-131 371.5v875q0 10 10 10h78q10 0 10 -10zM395 1626h510q8 0 8 -8
v-68q0 -10 -10 -10h-504q-12 0 -12 10v68q0 8 8 8z" />
    <glyph glyph-name="umacron" unicode="&#x16b;" horiz-adv-x="1048" 
d="M889 969v-758q0 -126 10 -201q3 -10 -8 -10h-74q-7 0 -12 8q-10 68 -10 101q-121 -129 -308 -129q-65 0 -119.5 16.5t-105 56t-79.5 117t-29 186.5v613q0 12 10 12h78q10 0 10 -12v-598q0 -142 66 -221.5t188 -79.5q178 0 285 135v764q0 12 12 12h76q10 0 10 -12z
M285 1335h491q8 0 8 -8v-65q0 -9 -8 -9h-491q-9 0 -9 11v63q0 8 9 8z" />
    <glyph glyph-name="Ubreve" unicode="&#x16c;" horiz-adv-x="1292" 
d="M254 1352v-875q0 -191 105 -298t292 -107q59 0 110.5 10t104 38t89.5 72t60 118.5t23 172.5v869q0 10 11 10h77q11 0 11 -10v-863q0 -135 -37 -235t-104 -158.5t-154 -87t-195 -28.5q-229 0 -360 125.5t-131 371.5v875q0 10 10 10h78q10 0 10 -10zM385 1690h68
q7 0 10 -11q42 -133 182 -133q141 0 186 135q5 9 11 9h65q8 0 8 -13q-20 -99 -94 -159t-176 -60q-106 0 -177 57t-91 164q0 11 8 11z" />
    <glyph glyph-name="ubreve" unicode="&#x16d;" horiz-adv-x="1048" 
d="M889 969v-758q0 -126 10 -201q3 -10 -8 -10h-74q-7 0 -12 8q-10 68 -10 101q-121 -129 -308 -129q-65 0 -119.5 16.5t-105 56t-79.5 117t-29 186.5v613q0 12 10 12h78q10 0 10 -12v-598q0 -142 66 -221.5t188 -79.5q178 0 285 135v764q0 12 12 12h76q10 0 10 -12z
M262 1384h68q6 0 8 -6q47 -139 188 -139q69 0 121 34.5t74 102.5q2 8 10 8h64q10 0 6 -8q-18 -99 -91 -160t-184 -61q-107 0 -179 57t-93 166q-1 4 0.5 5t7.5 1z" />
    <glyph glyph-name="Uring" unicode="&#x16e;" horiz-adv-x="1292" 
d="M254 1352v-875q0 -191 105 -298t292 -107q59 0 110.5 10t104 38t89.5 72t60 118.5t23 172.5v869q0 10 11 10h77q11 0 11 -10v-863q0 -135 -37 -235t-104 -158.5t-154 -87t-195 -28.5q-229 0 -360 125.5t-131 371.5v875q0 10 10 10h78q10 0 10 -10zM442 1606
q0 75 56.5 121.5t144.5 46.5q89 0 143 -48t54 -120q0 -75 -55.5 -122.5t-141.5 -47.5q-91 0 -146 47.5t-55 122.5zM516 1606q0 -47 35.5 -77t91.5 -30q57 0 92 28.5t35 78.5q0 49 -35.5 77.5t-91.5 28.5q-58 0 -92.5 -28.5t-34.5 -77.5z" />
    <glyph glyph-name="uring" unicode="&#x16f;" horiz-adv-x="1048" 
d="M889 969v-758q0 -126 10 -201q3 -10 -8 -10h-74q-7 0 -12 8q-10 68 -10 101q-121 -129 -308 -129q-65 0 -119.5 16.5t-105 56t-79.5 117t-29 186.5v613q0 12 10 12h78q10 0 10 -12v-598q0 -142 66 -221.5t188 -79.5q178 0 285 135v764q0 12 12 12h76q10 0 10 -12z
M344 1292q0 80 52 128t130 48q80 0 133.5 -48t53.5 -128q0 -78 -53.5 -127t-133.5 -49q-79 0 -130.5 47.5t-51.5 128.5zM414 1292q0 -51 32 -80.5t80 -29.5t81.5 29t33.5 81q0 53 -33.5 84t-81.5 31t-80 -30.5t-32 -84.5z" />
    <glyph glyph-name="Uhungarumlaut" unicode="&#x170;" horiz-adv-x="1292" 
d="M254 1352v-875q0 -191 105 -298t292 -107q59 0 110.5 10t104 38t89.5 72t60 118.5t23 172.5v869q0 10 11 10h77q11 0 11 -10v-863q0 -135 -37 -235t-104 -158.5t-154 -87t-195 -28.5q-229 0 -360 125.5t-131 371.5v875q0 10 10 10h78q10 0 10 -10zM424 1511l166 222
q3 6 14 6h82q9 0 6 -10l-178 -220q-4 -6 -14 -6h-70q-11 0 -6 8zM729 1513l162 218q5 8 16 8h82q6 0 7.5 -4.5t-1.5 -8.5l-172 -213q-6 -10 -20 -10h-66q-4 0 -5.5 0.5t-3.5 2.5t1 7z" />
    <glyph glyph-name="uhungarumlaut" unicode="&#x171;" horiz-adv-x="1048" 
d="M889 969v-758q0 -126 10 -201q3 -10 -8 -10h-74q-7 0 -12 8q-10 68 -10 101q-121 -129 -308 -129q-65 0 -119.5 16.5t-105 56t-79.5 117t-29 186.5v613q0 12 10 12h78q10 0 10 -12v-598q0 -142 66 -221.5t188 -79.5q178 0 285 135v764q0 12 12 12h76q10 0 10 -12z
M326 1151l161 289q7 10 15 10h76q4 0 6 -3.5t0 -6.5l-176 -293q-5 -8 -17 -8h-61q-10 0 -4 12zM610 1151l164 291q5 8 14 8h76q4 0 6 -3.5t0 -6.5l-176 -291q-5 -10 -16 -10h-60q-13 0 -8 12z" />
    <glyph glyph-name="Uogonek" unicode="&#x172;" horiz-adv-x="1292" 
d="M946 55q-266 -162 -266 -309q0 -58 38 -92.5t103 -34.5q66 0 119 23q10 3 10 -4v-56q0 -13 -10 -16q-51 -33 -143 -33q-83 0 -146 49t-63 144q0 132 162 262q-50 -8 -103 -8q-229 0 -360 125.5t-131 369.5v877q0 10 10 10h78q10 0 10 -10v-875q0 -192 105.5 -298.5
t291.5 -106.5q59 0 110.5 9.5t104.5 37.5t90 72t60.5 118t23.5 172v871q0 10 11 10h77q11 0 11 -10v-865q0 -309 -193 -432z" />
    <glyph glyph-name="uogonek" unicode="&#x173;" horiz-adv-x="1048" 
d="M981 -358v-60q0 -12 -12 -16q-51 -31 -135 -31t-145.5 50t-61.5 145q0 82 48 151.5t130 145.5q-8 28 -8 84q-122 -131 -310 -131q-50 0 -94 9t-89.5 34.5t-77 66t-52 109t-20.5 157.5v613q0 12 10 12h78q10 0 10 -12v-598q0 -142 66 -221.5t188 -79.5q175 0 287 137v762
q0 12 10 12h78q10 0 10 -12v-758q0 -143 10 -197q4 -11 -6 -14q-172 -137 -172 -252q0 -57 35.5 -90t99.5 -33q63 0 111 21q5 3 8.5 1.5t3.5 -5.5z" />
    <glyph glyph-name="Wcircumflex" unicode="&#x174;" horiz-adv-x="1740" 
d="M950 1352q35 -140 147.5 -581.5t168.5 -674.5h2q76 279 327 1258q3 8 13 8h80q11 0 8 -10l-365 -1342q-3 -10 -14 -10h-107q-11 0 -16 10q-20 81 -94.5 381t-138 555t-78.5 322h-2q-28 -139 -346 -1256q-3 -12 -15 -12h-102q-9 0 -15 12l-358 1340q-3 10 8 10h82
q10 0 15 -8q61 -237 123 -474.5t91.5 -350t56 -216.5t37 -148t15.5 -69h2q8 35 41.5 152.5t117 418t187.5 687.5q5 8 15 8h104q8 0 10 -10zM1053 1481l-172 174l-168 -174q-4 -8 -15 -8h-82q-4 0 -4.5 5.5t2.5 8.5l207 217q9 6 13 6h94q14 0 18 -8l217 -221q4 -3 2.5 -5.5
t-6.5 -2.5h-88q-13 0 -18 8z" />
    <glyph glyph-name="wcircumflex" unicode="&#x175;" horiz-adv-x="1417" 
d="M1069 0h-100q-12 0 -15 12q-208 711 -247 875h-2q-11 -44 -37 -132t-53 -177t-80.5 -262.5t-92.5 -303.5q-2 -12 -16 -12h-96q-17 0 -19 12l-268 957q-4 12 8 12h84q7 0 10 -8q179 -630 236 -887h4q49 209 264 883q3 12 13 12h100q7 0 10 -12q217 -728 252 -881h4
q47 216 248 885q3 8 10 8h84q7 0 4 -10l-293 -961q-3 -10 -12 -10zM864 1145l-162 231l-155 -233q0 -6 -12 -6h-70q-12 0 -6 12l192 281q4 6 11 6h86q10 0 14 -9l196 -280q3 -3 1 -6.5t-7 -3.5h-73q-11 0 -15 8z" />
    <glyph glyph-name="Ycircumflex" unicode="&#x176;" horiz-adv-x="1017" 
d="M446 567l-460 785q-4 4 -1.5 7t7.5 3h90q9 0 12 -6q382 -653 418 -725q51 99 416 723q3 8 10 8h90q4 0 5.5 -2.5t-1.5 -5.5l-463 -787q-14 -22 -14 -45v-510q0 -12 -8 -12h-76q-8 0 -10 2.5t-2 9.5v512q0 22 -13 43zM674 1483l-172 176l-168 -174q-4 -8 -15 -8h-81
q-4 0 -4.5 5.5t2.5 6.5l206 219q6 4 13 4h94q15 0 18 -6l217 -221q8 -8 -4 -8h-88q-12 0 -18 6z" />
    <glyph glyph-name="ycircumflex" unicode="&#x177;" horiz-adv-x="903" 
d="M29 981h92q5 0 10 -8q315 -802 330 -844q101 260 321 844q4 8 13 8h77q13 0 9 -12q-245 -685 -580 -1430q-3 -10 -18 -10l-84 -8q-10 0 -6 12q75 155 215 479q3 10 -2 23q-14 34 -86 208.5t-156.5 381.5t-140.5 346q-3 10 6 10zM604 1145l-162 231l-155 -233q0 -6 -13 -6
h-69q-4 0 -5.5 4.5t1.5 7.5l190 281q6 6 10 6h86q11 0 15 -9l198 -280q3 -3 1 -6.5t-7 -3.5h-76q-10 0 -14 8z" />
    <glyph glyph-name="Ydieresis" unicode="&#x178;" horiz-adv-x="1017" 
d="M446 567l-460 785q-4 4 -1.5 7t7.5 3h90q9 0 12 -6q382 -653 418 -725q51 99 416 723q3 8 10 8h90q4 0 5.5 -2.5t-1.5 -5.5l-463 -787q-14 -22 -14 -45v-510q0 -12 -8 -12h-76q-8 0 -10 2.5t-2 9.5v512q0 22 -13 43zM336 1495q-29 0 -47.5 18.5t-18.5 47.5q0 27 20 45
t48 18t45.5 -18.5t17.5 -44.5q0 -28 -18.5 -47t-46.5 -19zM698 1495q-28 0 -45.5 18t-17.5 46q0 27 19 46t46 19t45.5 -18t18.5 -45q0 -30 -18 -48t-48 -18z" />
    <glyph glyph-name="Zacute" unicode="&#x179;" horiz-adv-x="1050" 
d="M999 0h-966q-10 0 -10 10v51q0 8 6 17l854 1192h-817q-11 0 -9 12l17 70q5 10 14 10h913q11 0 11 -10v-49q0 -10 -8 -21l-852 -1190h872q9 0 6 -10l-18 -72q-2 -10 -13 -10zM430 1518l260 223q6 4 15 4h106q6 0 6.5 -3.5t-2.5 -6.5l-268 -222q-6 -4 -17 -4h-96
q-4 0 -5.5 3t1.5 6z" />
    <glyph glyph-name="zacute" unicode="&#x17a;" horiz-adv-x="759" 
d="M727 0h-698q-9 0 -9 14v39q0 7 7 17q85 125 325 461t258 362q-35 -2 -225 -2h-336q-11 0 -8 12l14 70q4 8 13 8h655q8 0 8 -10v-47q0 -10 -8 -21q-242 -355 -576 -815h263h342q8 0 6 -10l-19 -70q-3 -8 -12 -8zM309 1149l219 293q10 10 15 10h92q13 0 8 -10l-235 -295
q-5 -8 -15 -8h-78q-5 0 -7 2.5t1 7.5z" />
    <glyph glyph-name="Zdotaccent" unicode="&#x17b;" horiz-adv-x="1050" 
d="M999 0h-966q-10 0 -10 10v51q0 8 6 17l854 1192h-817q-11 0 -9 12l17 70q5 10 14 10h913q11 0 11 -10v-49q0 -10 -8 -21l-852 -1190h872q9 0 6 -10l-18 -72q-2 -10 -13 -10zM516 1546q-31 0 -49 18.5t-18 47.5q0 28 18.5 44.5t50.5 16.5q30 0 48 -17t18 -46
q0 -27 -17.5 -45.5t-50.5 -18.5z" />
    <glyph glyph-name="zdotaccent" unicode="&#x17c;" horiz-adv-x="759" 
d="M727 0h-698q-9 0 -9 14v39q0 7 7 17q85 125 325 461t258 362q-35 -2 -225 -2h-336q-11 0 -8 12l14 70q4 8 13 8h655q8 0 8 -10v-47q0 -10 -8 -21q-242 -355 -576 -815h263h342q8 0 6 -10l-19 -70q-3 -8 -12 -8zM379 1235q-32 0 -50 19t-18 49q0 31 19 51t49 20
q31 0 49 -19.5t18 -51.5q0 -29 -18.5 -48.5t-48.5 -19.5z" />
    <glyph glyph-name="Zcaron" unicode="&#x17d;" horiz-adv-x="1050" 
d="M999 0h-966q-10 0 -10 10v51q0 8 6 17l854 1192h-817q-11 0 -9 12l17 70q5 10 14 10h913q11 0 11 -10v-49q0 -10 -8 -21l-852 -1190h872q9 0 6 -10l-18 -72q-2 -10 -13 -10zM354 1729l174 -175l166 172q6 11 17 11h80q11 0 4 -15l-209 -219q-6 -4 -13 -4h-94q-12 0 -18 6
l-217 224q-3 3 -1.5 5.5t5.5 2.5h88q14 0 18 -8z" />
    <glyph glyph-name="zcaron" unicode="&#x17e;" horiz-adv-x="759" 
d="M727 0h-698q-9 0 -9 14v39q0 7 7 17q85 125 325 461t258 362q-35 -2 -225 -2h-336q-11 0 -8 12l14 70q4 8 13 8h655q8 0 8 -10v-47q0 -10 -8 -21q-242 -355 -576 -815h263h342q8 0 6 -10l-19 -70q-3 -8 -12 -8zM227 1430l162 -232l156 234q0 6 12 6h70q4 0 5.5 -5
t-1.5 -6l-191 -280q-5 -8 -10 -8h-86q-10 0 -14 8l-199 280q-3 5 -1 8t7 3h76q10 0 14 -8z" />
    <glyph glyph-name="uni018F" unicode="&#x18f;" horiz-adv-x="1290" 
d="M424 680h678v39q-3 123 -36.5 226.5t-95.5 181.5t-158.5 121.5t-217.5 43.5q-111 0 -223 -33.5t-203 -101.5q-4 -3 -7 -1t-3 7v78q0 11 6 14q77 54 191.5 90.5t250.5 36.5q127 0 230 -41t169.5 -108t112 -157.5t65 -184.5t19.5 -193q0 -332 -154.5 -525t-426.5 -193
q-116 0 -209.5 36t-154 94t-101 134t-57.5 152.5t-17 154.5q0 116 12 119q34 10 330 10zM1096 594h-660q-238 0 -250 -4q-2 -18 -2 -55q0 -60 14 -121.5t48 -123.5t83.5 -110t127 -78t172.5 -30q111 0 197 38.5t141.5 109.5t87 164t41.5 210z" />
    <glyph glyph-name="florin" unicode="&#x192;" horiz-adv-x="907" 
d="M190 750v61q0 8 9 8h204l25 168q11 78 27.5 141.5t43.5 121.5t62.5 97t86.5 62t114 23q70 0 125 -25q6 -4 6 -14v-72q0 -9 -10 -6q-51 31 -125 31q-52 0 -92 -26.5t-67 -77t-44.5 -113t-28.5 -146.5l-20 -164h242q10 0 10 -6v-63q0 -11 -8 -11h-256l-72 -565
q-27 -223 -104 -323.5t-212 -100.5q-102 4 -161 41q-6 4 -6 16v78q0 5 2.5 7t7.5 -1q73 -49 153 -49q101 0 150 80t70 264l71 553h-194q-9 0 -9 11z" />
    <glyph glyph-name="Ohorn" unicode="&#x1a0;" horiz-adv-x="1380" 
d="M705 72q230 0 361.5 167.5t131.5 446.5q0 172 -62.5 309.5t-178 216t-263.5 78.5q-102 0 -192 -39t-158.5 -113t-108.5 -190.5t-40 -261.5q0 -125 33 -235t95.5 -195t161 -134.5t220.5 -49.5zM1135 1524h69q12 0 15 -13q10 -33 10 -90q0 -74 -39 -122t-107 -62
q102 -93 157.5 -235.5t57.5 -313.5q1 -167 -44.5 -302.5t-125.5 -223.5t-188 -135t-235 -47q-187 0 -326.5 91.5t-211 250t-71.5 362.5q0 158 46.5 289.5t127 220t190.5 137.5t236 49q172 0 308 -84h8q74 1 100.5 34.5t26.5 88.5q0 39 -11 92q-3 13 7 13z" />
    <glyph glyph-name="ohorn" unicode="&#x1a1;" horiz-adv-x="1046" 
d="M532 70q63 0 121 24.5t107.5 72.5t79.5 131t30 189q0 65 -12 125t-39.5 115t-67.5 95.5t-100 64.5t-133 24q-153 0 -248.5 -116t-95.5 -301q0 -115 40.5 -210t123.5 -154.5t194 -59.5zM909 1141h70q13 0 16 -13q11 -37 11 -90q0 -75 -41 -123.5t-113 -62.5
q117 -139 117 -363q0 -227 -123 -368t-320 -141q-91 0 -167 30t-127.5 79.5t-87.5 116t-52 137.5t-16 146q0 220 125 365t323 145q151 0 264 -86q72 0 98.5 34t26.5 89q0 44 -10 92q-3 13 6 13z" />
    <glyph glyph-name="Uhorn" unicode="&#x1af;" horiz-adv-x="1310" 
d="M1217 1589h69q11 0 14 -12q13 -32 13 -90q0 -78 -45 -128t-121 -61l-4 5v-814q0 -108 -24.5 -194t-67.5 -144.5t-105.5 -97t-135.5 -56t-159 -17.5q-229 0 -359 125.5t-130 371.5v875q0 10 10 10h78q10 0 10 -10v-875q0 -191 105 -298t292 -107q59 0 110 10t103.5 38
t89.5 72t60.5 118.5t23.5 172.5v869q0 10 11 10h24h17q74 0 99.5 33.5t25.5 89.5q0 35 -11 92q-4 12 7 12z" />
    <glyph glyph-name="uhorn" unicode="&#x1b0;" horiz-adv-x="1048" 
d="M944 1208h70q11 0 14 -12q10 -33 10 -88q0 -82 -39.5 -133.5t-109.5 -61.5v-702q0 -126 10 -201q3 -10 -8 -10h-74q-7 0 -12 8q-10 68 -10 101q-121 -129 -308 -129q-65 0 -119.5 16.5t-105 56t-79.5 117t-29 186.5v613q0 12 10 12h78q10 0 10 -12v-598q0 -142 66 -221.5
t188 -79.5q178 0 285 135v764q0 12 12 12h20h17q108 0 108 125q0 40 -10 88q-4 14 6 14z" />
    <glyph glyph-name="uni01CD" unicode="&#x1cd;" horiz-adv-x="1159" 
d="M852 496h-553l-176 -486q-3 -10 -12 -10h-78q-11 0 -8 12l471 1284q8 25 10 58q0 8 8 8h119q9 0 12 -8l490 -1342q3 -12 -9 -12h-84q-9 0 -12 8zM330 588h493q-9 25 -70.5 195.5t-109.5 307t-65 195.5h-3q-11 -37 -29 -92t-47 -137.5t-50 -140.5t-61.5 -170t-57.5 -158z
M412 1698l174 -174l166 172q4 8 16 8h80q10 0 4 -12l-209 -219q-8 -5 -12 -5h-94q-12 0 -19 7l-217 223q-6 6 4 6h90q14 0 17 -6z" />
    <glyph glyph-name="uni01CE" unicode="&#x1ce;" horiz-adv-x="925" 
d="M674 113v385q-62 10 -154 10q-175 0 -264.5 -57t-89.5 -164q0 -42 15 -79.5t46.5 -70.5t89 -52t134.5 -19q120 0 223 47zM770 635v-494q0 -46 2 -69q0 -7 -4 -9q-153 -83 -342 -83q-161 0 -258.5 80t-97.5 227q0 79 35.5 139t99 95t142 52t171.5 17q87 0 156 -6v71
q0 28 -5 57.5t-21 66t-42 64.5t-74 47t-110 19q-145 0 -254 -61q-3 -3 -6.5 -1.5t-3.5 7.5v74q0 6 6 12q118 59 272 59q87 0 153 -28t104.5 -79t57.5 -115t19 -142zM303 1430l162 -232l156 234q0 6 12 6h69q4 0 6 -5t-1 -6l-191 -280q-5 -8 -10 -8h-86q-10 0 -14 8l-199 280
q-3 5 -1 8t7 3h76q10 0 14 -8z" />
    <glyph glyph-name="uni01CF" unicode="&#x1cf;" horiz-adv-x="448" 
d="M272 1352v-1340q0 -12 -10 -12h-78q-10 0 -10 12v1338q0 12 10 12h78q10 0 10 -10zM59 1704l172 -174l168 174q4 8 15 8h82q4 0 4.5 -5.5t-2.5 -8.5l-209 -217q-6 -6 -10 -6h-95q-14 0 -18 8l-219 221q-3 3 -1 5.5t7 2.5h88q13 0 18 -8z" />
    <glyph glyph-name="uni01D0" unicode="&#x1d0;" horiz-adv-x="415" 
d="M158 12v957q0 12 10 12h78q10 0 10 -10v-961q0 -10 -10 -10h-74q-14 0 -14 12zM55 1430l162 -232l156 234q0 6 12 6h70q4 0 5.5 -5t-1.5 -6l-191 -280q-5 -8 -10 -8h-86q-10 0 -14 8l-199 280q-3 5 -1 8t7 3h76q10 0 14 -8z" />
    <glyph glyph-name="uni01D1" unicode="&#x1d1;" horiz-adv-x="1380" 
d="M688 1380q136 0 249.5 -53t190 -145.5t119 -219.5t43.5 -274q1 -167 -44.5 -302.5t-126 -223.5t-188.5 -135t-235 -47q-141 0 -256 53t-192 147t-118.5 223t-41.5 281q0 158 46.5 289.5t127 220t190.5 137.5t236 49zM188 686q0 -99 20.5 -189.5t62.5 -168t101.5 -134.5
t142.5 -89.5t181 -32.5q232 0 363 167.5t131 446.5q0 172 -62.5 309.5t-178 216t-263.5 78.5q-102 0 -191.5 -39t-158.5 -113t-108.5 -190.5t-39.5 -261.5zM514 1724l172 -174l168 174q0 2 4.5 5.5t9.5 3.5h82q4 0 4.5 -6t-2.5 -9l-209 -217q-4 -6 -10 -6h-94q-15 0 -18 8
l-220 221q-3 3 -0.5 6t7.5 3h88q12 0 18 -9z" />
    <glyph glyph-name="uni01D2" unicode="&#x1d2;" horiz-adv-x="1046" 
d="M524 999q199 0 322 -140.5t123 -369.5q0 -227 -123 -368t-320 -141q-91 0 -167 30t-127.5 79.5t-87.5 116t-52 137.5t-16 146q0 220 125 365t323 145zM518 911q-153 0 -248.5 -116t-95.5 -301q0 -115 40.5 -210t123.5 -154.5t194 -59.5q63 0 121 24.5t107.5 72.5
t79.5 131t30 189q0 65 -12 125t-39.5 115t-67.5 95.5t-100 64.5t-133 24zM362 1430l162 -232l156 234q0 6 12 6h70q4 0 5.5 -5t-1.5 -6l-191 -280q-5 -8 -10 -8h-86q-10 0 -14 8l-199 280q-3 5 -1 8t7 3h76q10 0 14 -8z" />
    <glyph glyph-name="uni01D3" unicode="&#x1d3;" horiz-adv-x="1292" 
d="M254 1352v-875q0 -191 105 -298t292 -107q59 0 110.5 10t104 38t89.5 72t60 118.5t23 172.5v869q0 10 11 10h77q11 0 11 -10v-863q0 -135 -37 -235t-104 -158.5t-154 -87t-195 -28.5q-229 0 -360 125.5t-131 371.5v875q0 10 10 10h78q10 0 10 -10zM483 1704l172 -176
l168 174q4 8 15 8h82q4 0 4.5 -5t-2.5 -7l-209 -219q-4 -4 -11 -4h-94q-15 0 -18 6l-217 221q-8 8 4 8h88q12 0 18 -6z" />
    <glyph glyph-name="uni01D4" unicode="&#x1d4;" horiz-adv-x="1048" 
d="M889 969v-758q0 -126 10 -201q3 -10 -8 -10h-74q-7 0 -12 8q-10 68 -10 101q-121 -129 -308 -129q-65 0 -119.5 16.5t-105 56t-79.5 117t-29 186.5v613q0 12 10 12h78q10 0 10 -12v-598q0 -142 66 -221.5t188 -79.5q178 0 285 135v764q0 12 12 12h76q10 0 10 -12z
M371 1430l161 -232l156 234q0 6 12 6h70q4 0 5.5 -5t-1.5 -6l-190 -280q-5 -8 -11 -8h-86q-10 0 -14 8l-199 280q-3 5 -0.5 8t7.5 3h75q11 0 15 -8z" />
    <glyph glyph-name="uni01D5" unicode="&#x1d5;" horiz-adv-x="1292" 
d="M254 1352v-875q0 -191 105 -298t292 -107q59 0 110.5 10t104 38t89.5 72t60 118.5t23 172.5v869q0 10 11 10h77q11 0 11 -10v-863q0 -135 -37 -235t-104 -158.5t-154 -87t-195 -28.5q-229 0 -360 125.5t-131 371.5v875q0 10 10 10h78q10 0 10 -10zM408 1751h487q6 0 6 -8
v-57q0 -9 -8 -9h-485q-7 0 -7 11v55q0 8 7 8zM444 1462q-26 0 -41.5 16t-15.5 42q0 27 16.5 42t42.5 15q24 0 40 -15.5t16 -41.5t-17 -42t-41 -16zM862 1462q-25 0 -41 16t-16 42q0 27 16.5 42t40.5 15q25 0 41.5 -15.5t16.5 -41.5q0 -25 -16.5 -41.5t-41.5 -16.5z" />
    <glyph glyph-name="uni01D6" unicode="&#x1d6;" horiz-adv-x="1048" 
d="M889 969v-758q0 -126 10 -201q3 -10 -8 -10h-74q-7 0 -12 8q-10 68 -10 101q-121 -129 -308 -129q-65 0 -119.5 16.5t-105 56t-79.5 117t-29 186.5v613q0 12 10 12h78q10 0 10 -12v-598q0 -142 66 -221.5t188 -79.5q178 0 285 135v764q0 12 12 12h76q10 0 10 -12z
M350 1135q-26 0 -42.5 15.5t-16.5 41.5q0 28 17.5 44.5t43.5 16.5q24 0 41 -17t17 -44q0 -25 -18 -41t-42 -16zM696 1135q-26 0 -42.5 15.5t-16.5 41.5q0 28 17.5 44.5t41.5 16.5q26 0 43 -16.5t17 -44.5q0 -25 -17 -41t-43 -16zM293 1448h467q8 0 8 -8v-56q0 -8 -8 -8h-467
q-8 0 -8 10v54q0 8 8 8z" />
    <glyph glyph-name="uni01D7" unicode="&#x1d7;" horiz-adv-x="1292" 
d="M254 1352v-875q0 -191 105 -298t292 -107q59 0 110.5 10t104 38t89.5 72t60 118.5t23 172.5v869q0 10 11 10h77q11 0 11 -10v-863q0 -135 -37 -235t-104 -158.5t-154 -87t-195 -28.5q-229 0 -360 125.5t-131 371.5v875q0 10 10 10h78q10 0 10 -10zM592 1634l143 193
q6 6 10 6h86q5 0 6.5 -2.5t-1.5 -5.5l-148 -193q-3 -6 -12 -6h-78q-9 0 -6 8zM436 1473q-25 0 -41 15t-16 40q0 27 17 43t42 16q24 0 40 -16t16 -43q0 -25 -17 -40t-41 -15zM854 1473q-25 0 -41 14.5t-16 40.5q0 27 17 43t42 16t41 -16.5t16 -42.5q0 -24 -16.5 -39.5
t-42.5 -15.5z" />
    <glyph glyph-name="uni01D8" unicode="&#x1d8;" horiz-adv-x="1048" 
d="M889 969v-758q0 -126 10 -201q3 -10 -8 -10h-74q-7 0 -12 8q-10 68 -10 101q-121 -129 -308 -129q-65 0 -119.5 16.5t-105 56t-79.5 117t-29 186.5v613q0 12 10 12h78q10 0 10 -12v-598q0 -142 66 -221.5t188 -79.5q178 0 285 135v764q0 12 12 12h76q10 0 10 -12z
M469 1311l149 211q5 8 13 8h84q9 0 6 -10l-160 -211q-6 -6 -12 -6h-76q-9 0 -4 8zM350 1126q-26 0 -41.5 16.5t-15.5 41.5q0 28 16.5 43.5t42.5 15.5q24 0 40 -16t16 -43q0 -26 -17 -42t-41 -16zM696 1126q-25 0 -41 16t-16 42q0 28 16.5 43.5t40.5 15.5q26 0 42 -15.5
t16 -43.5q0 -24 -17 -41t-41 -17z" />
    <glyph glyph-name="uni01D9" unicode="&#x1d9;" horiz-adv-x="1292" 
d="M254 1352v-875q0 -191 105 -298t292 -107q59 0 110.5 10t104 38t89.5 72t60 118.5t23 172.5v869q0 10 11 10h77q11 0 11 -10v-863q0 -135 -37 -235t-104 -158.5t-154 -87t-195 -28.5q-229 0 -360 125.5t-131 371.5v875q0 10 10 10h78q10 0 10 -10zM649 1683
q83 66 144 111q4 8 16 8h78q5 0 6.5 -4t-0.5 -6l-191 -152q-4 -4 -12 -4h-88q-12 0 -18 6l-193 148q-3 4 -2 8t6 4h88q7 0 19 -8q38 -33 147 -111zM436 1468q-26 0 -41.5 15.5t-15.5 40.5q0 27 16.5 42t42.5 15q24 0 40 -15.5t16 -41.5q0 -25 -17 -40.5t-41 -15.5zM856 1468
q-25 0 -41 15t-16 41q0 27 16.5 42t40.5 15q25 0 41 -15.5t16 -41.5q0 -24 -16.5 -40t-40.5 -16z" />
    <glyph glyph-name="uni01DA" unicode="&#x1da;" horiz-adv-x="1048" 
d="M889 969v-758q0 -126 10 -201q3 -10 -8 -10h-74q-7 0 -12 8q-10 68 -10 101q-121 -129 -308 -129q-65 0 -119.5 16.5t-105 56t-79.5 117t-29 186.5v613q0 12 10 12h78q10 0 10 -12v-598q0 -142 66 -221.5t188 -79.5q178 0 285 135v764q0 12 12 12h76q10 0 10 -12z
M350 1126q-26 0 -41.5 16t-15.5 42q0 27 17 43t42 16q24 0 40 -16t16 -43q0 -26 -17 -42t-41 -16zM696 1126q-25 0 -41 15.5t-16 42.5t16.5 43t40.5 16q26 0 42 -16.5t16 -42.5q0 -25 -16.5 -41.5t-41.5 -16.5zM526 1354q16 17 71.5 69t72.5 68q12 6 16 6h78q4 0 5.5 -4.5
t-1.5 -7.5l-188 -176q-4 -6 -13 -6h-86q-12 0 -18 6l-193 178q-3 3 -1 6.5t7 3.5h86q7 0 19 -8q19 -18 72.5 -68t72.5 -67z" />
    <glyph glyph-name="uni01DB" unicode="&#x1db;" horiz-adv-x="1292" 
d="M254 1352v-875q0 -191 105 -298t292 -107q59 0 110.5 10t104 38t89.5 72t60 118.5t23 172.5v869q0 10 11 10h77q11 0 11 -10v-863q0 -135 -37 -235t-104 -158.5t-154 -87t-195 -28.5q-229 0 -360 125.5t-131 371.5v875q0 10 10 10h78q10 0 10 -10zM567 1815l142 -193
q4 -8 -4 -8h-80q-7 0 -13 6l-147 192q-2 3 -0.5 6t4.5 3h86q3 0 12 -6zM436 1460q-25 0 -41 16t-16 42q0 27 16.5 42t42.5 15q24 0 40 -15.5t16 -41.5t-17 -42t-41 -16zM854 1460q-25 0 -41 16t-16 42t17 41.5t42 15.5t41 -16t16 -41t-16.5 -41.5t-42.5 -16.5z" />
    <glyph glyph-name="uni01DC" unicode="&#x1dc;" horiz-adv-x="1048" 
d="M889 969v-758q0 -126 10 -201q3 -10 -8 -10h-74q-7 0 -12 8q-10 68 -10 101q-121 -129 -308 -129q-65 0 -119.5 16.5t-105 56t-79.5 117t-29 186.5v613q0 12 10 12h78q10 0 10 -12v-598q0 -142 66 -221.5t188 -79.5q178 0 285 135v764q0 12 12 12h76q10 0 10 -12z
M424 1520l164 -209q3 -8 -6 -8h-76q-9 0 -12 6l-172 209q-4 8 4 8h88q7 0 10 -6zM350 1126q-26 0 -41.5 16.5t-15.5 41.5q0 28 16.5 43.5t42.5 15.5q24 0 40 -16t16 -43q0 -26 -17 -42t-41 -16zM696 1126q-25 0 -41 16t-16 42q0 28 16.5 43.5t40.5 15.5q26 0 42 -15.5
t16 -43.5q0 -24 -17 -41t-41 -17z" />
    <glyph glyph-name="Gcaron" unicode="&#x1e6;" horiz-adv-x="1282" 
d="M1061 610h-338q-10 2 -10 11v71q0 8 8 8h428q10 0 10 -10v-629q3 -11 -8 -14q-153 -67 -358 -67q-221 0 -382.5 91.5t-242 247.5t-80.5 357q0 160 53.5 292.5t149 222.5t228.5 139.5t290 49.5q219 0 321 -51q9 -3 9 -14v-80q0 -13 -11 -8q-114 63 -319 63
q-279 0 -450 -164.5t-171 -445.5q0 -126 40 -236t115 -194t192 -132t262 -48q165 0 264 45v495zM565 1735l174 -174l166 174q8 8 17 8h79q4 0 5.5 -2.5t1 -6t-1.5 -5.5l-209 -218q-6 -6 -13 -6h-94q-12 0 -18 6l-217 224q-3 3 -1 5.5t5 2.5h90q12 0 16 -8z" />
    <glyph glyph-name="gcaron" unicode="&#x1e7;" horiz-adv-x="958" 
d="M410 1147l-199 280q-3 5 -1 8t7 3h76q10 0 14 -8l162 -232l156 234q0 6 12 6h70q4 0 5.5 -5t-1.5 -6l-191 -280q-5 -8 -10 -8h-86q-10 0 -14 8zM547 33l-209 12q-78 -55 -128 -125t-50 -117q0 -90 94 -159.5t242 -69.5q91 0 163.5 23t116 60.5t66 83t22.5 93.5
q0 54 -25.5 92.5t-72.5 60t-99 32t-120 14.5zM469 920q-115 0 -186.5 -74t-71.5 -191q0 -118 67.5 -190t186.5 -72q117 0 184.5 68.5t67.5 191.5q0 113 -63 190t-185 77zM356 135l207 -10q395 -21 395 -281q0 -152 -129.5 -254t-336.5 -102q-198 0 -313.5 93.5t-115.5 217.5
q0 119 209 293q-53 68 -53 154q0 69 33 125q-137 91 -137 282q0 146 97 246t259 100q73 0 131 -14q16 -4 37 -4h297q10 0 10 -10v-70q0 -10 -10 -10q-142 0 -221 6q98 -90 98 -242q0 -164 -100 -254t-248 -90q-62 0 -137 21q-23 -47 -17 -92q7 -64 45 -105z" />
    <glyph glyph-name="uni0218" unicode="&#x218;" horiz-adv-x="944" 
d="M424 -20q-211 0 -338 81q-8 5 -8 19v86q0 5 4 7t8 -1q137 -100 336 -100q163 0 247.5 72t84.5 194q0 93 -60 162.5t-217 140.5l-84 35q-91 40 -153.5 85t-94 92.5t-44.5 91t-13 93.5q0 156 112 250t296 94q203 0 293 -57q8 -5 8 -16v-78q0 -6 -4.5 -8.5t-8.5 0.5
q-100 69 -292 69q-72 0 -128 -16.5t-89 -41.5t-54.5 -58.5t-29 -64t-7.5 -62.5q0 -89 58.5 -157.5t204.5 -131.5l92 -39q172 -76 243.5 -167.5t71.5 -207.5q0 -160 -113.5 -263t-320.5 -103zM428 -492h-72q-5 0 -7 3t1 8q44 75 62 130t18 118q0 43 -27 112q-2 3 1.5 6.5
t7.5 3.5h75q10 0 13 -8q9 -15 16.5 -47t7.5 -57q0 -79 -21 -137t-65 -127q-5 -5 -10 -5z" />
    <glyph glyph-name="uni0219" unicode="&#x219;" horiz-adv-x="731" 
d="M610 854q-85 59 -223 59q-109 0 -161 -47t-52 -114q0 -63 45.5 -108t173.5 -97q142 -58 205.5 -123.5t63.5 -171.5q0 -131 -95.5 -201.5t-236.5 -70.5q-164 0 -258 61q-9 6 -9 14v84q0 15 11 8q103 -79 260 -79q110 0 170.5 48.5t60.5 125.5q0 73 -46.5 120t-162.5 95
q-146 58 -212 123.5t-66 167.5q0 108 85.5 179.5t227.5 71.5q156 0 223 -45q9 -6 9 -16v-76q0 -6 -4.5 -8.5t-8.5 0.5zM317 -487h-71q-11 0 -4 10q42 75 59.5 130t17.5 118q0 51 -24 112q-2 3 0 7t6 4h76q9 0 12 -9q9 -15 17 -47.5t8 -56.5q0 -79 -20.5 -136.5t-63.5 -127.5
q-4 -4 -13 -4z" />
    <glyph glyph-name="uni021A" unicode="&#x21a;" horiz-adv-x="1019" 
d="M461 12v1258h-463q-10 0 -8 12l16 70q3 10 12 10h988q10 0 12 -10l10 -70q3 -12 -8 -12h-461v-1258q0 -12 -12 -12h-74q-12 0 -12 12zM479 -479h-71q-5 0 -7.5 2.5t0.5 7.5q43 76 60.5 130.5t17.5 117.5q0 51 -24 112q-2 3 0 7t6 4h78q9 0 12 -8q9 -15 16.5 -47.5
t7.5 -55.5q0 -81 -21 -139t-65 -127q-4 -4 -10 -4z" />
    <glyph glyph-name="uni021B" unicode="&#x21b;" horiz-adv-x="555" 
d="M537 86v-61q0 -11 -9 -15q-53 -30 -137 -30q-104 0 -157.5 57t-53.5 192v662h-151q-13 3 -13 14v64q0 12 13 12h151q0 61 5.5 151.5t11.5 120.5q4 11 8 13l76 14q12 4 12 -4q-14 -106 -14 -295h231q12 0 12 -12v-66q0 -9 -12 -12h-234v-664q0 -157 138 -157q59 0 112 22
q11 4 11 -6zM293 -504h-72q-11 0 -4 10q43 76 60.5 130.5t17.5 117.5q0 52 -27 113q-3 10 8 10h76q11 0 13 -6q24 -46 24 -104q0 -80 -20.5 -138.5t-63.5 -128.5q-8 -4 -12 -4z" />
    <glyph glyph-name="uni0237" unicode="&#x237;" horiz-adv-x="419" 
d="M172 981h78q10 0 10 -10v-1043q0 -149 -25.5 -224.5t-72.5 -125.5q-37 -38 -92.5 -55t-102.5 -17q-12 0 -22 2q-8 2 -8 13v65q0 13 10 13q37 1 63.5 6.5t57.5 24.5t49.5 51.5t31.5 91t13 139.5v1059q0 10 10 10z" />
    <glyph glyph-name="uni0251" unicode="&#x251;" horiz-adv-x="1034" 
d="M569 -20q-104 0 -193 33t-156 95t-105.5 158.5t-38.5 216.5q0 230 149 373t381 143q155 0 258 -41q2 0 4.5 -1t5.5 -5t3 -10v-809q0 -13 1 -34t1 -27q0 -11 -9 -17q-73 -42 -142.5 -58.5t-158.5 -16.5zM778 111v774q-58 26 -176 26q-103 0 -185.5 -34t-134 -92.5
t-79 -134t-27.5 -161.5q0 -109 36.5 -192t96.5 -130t128 -70t141 -23q125 0 200 37z" />
    <glyph glyph-name="uni0259" unicode="&#x259;" horiz-adv-x="956" 
d="M303 500h471q5 75 -13.5 146t-58.5 130t-110.5 95t-161.5 36q-165 0 -280 -69q-11 -7 -11 6v71q0 10 8 15q49 29 127 49t170 20q91 0 164.5 -28.5t122 -76t81 -113t46.5 -136t14 -147.5q0 -232 -113.5 -375t-307.5 -143q-82 0 -148.5 27.5t-108.5 70.5t-70.5 98.5
t-40 108t-11.5 102.5q0 44 6 92q0 5 4 10t10 5q49 6 211 6zM772 420h-450h-63t-43.5 -0.5t-25.5 -1t-14.5 -0.5h-5.5q-2 -8 -2 -37q0 -33 7.5 -70.5t28 -81.5t51.5 -79t83.5 -58.5t118.5 -23.5q97 0 167 49.5t105 126.5t43 176z" />
    <glyph glyph-name="uni0261" unicode="&#x261;" horiz-adv-x="1028" 
d="M770 125v756q-80 30 -186 30q-100 0 -179 -34.5t-128.5 -94t-75 -136.5t-25.5 -165q0 -86 23 -155.5t60.5 -114.5t87.5 -75t100 -43t102 -13q148 0 221 45zM868 874v-825q0 -142 -16 -223q-19 -95 -63 -163.5t-106 -105t-129 -53t-146 -16.5q-174 0 -275 53q-10 5 -10 15
v90q0 3 3.5 4.5t6.5 -0.5q116 -66 277 -66q197 0 278.5 105t81.5 321v23q-91 -47 -231 -47q-89 0 -170 30.5t-147.5 89.5t-106 156t-39.5 219q0 231 144.5 374.5t367.5 143.5q176 0 280 -53q6 -2 6 -8q-6 -33 -6 -64z" />
    <glyph glyph-name="uni02BB" unicode="&#x2bb;" horiz-adv-x="487" 
d="M221 1479h68q11 0 6 -11q-74 -191 -74 -350q0 -61 10 -123q0 -10 -8 -10h-69q-8 0 -13 10q-10 44 -10 123q0 172 80 355q3 6 10 6z" />
    <glyph glyph-name="uni02BC" unicode="&#x2bc;" horiz-adv-x="487" 
d="M184 985h-69q-11 0 -6 10q73 188 73 351q0 70 -8 122q-4 11 8 11h68q9 0 12 -11q10 -44 10 -122q0 -172 -77 -355q-6 -6 -11 -6z" />
    <glyph glyph-name="uni02BE" unicode="&#x2be;" horiz-adv-x="817" 
d="M307 1415v68q91 3 147 -46.5t56 -129.5q0 -82 -56 -131t-147 -46v70q59 0 94 26.5t35 80.5q0 55 -35 81.5t-94 26.5z" />
    <glyph glyph-name="uni02BF" unicode="&#x2bf;" horiz-adv-x="817" 
d="M510 1196v-66q-91 -3 -147 46t-56 131q0 80 56.5 129t146.5 45v-70q-58 0 -93.5 -25t-35.5 -79q0 -55 35.5 -83t93.5 -28z" />
    <glyph glyph-name="circumflex" unicode="&#x2c6;" 
d="M553 1145l-162 231l-155 -233q0 -6 -13 -6h-69q-4 0 -5.5 4.5t1.5 7.5l190 281q6 6 10 6h86q10 0 15 -9l198 -280q3 -3 1 -6.5t-7 -3.5h-76q-10 0 -14 8z" />
    <glyph glyph-name="caron" unicode="&#x2c7;" 
d="M246 1430l162 -232l155 234q0 6 12 6h70q4 0 5.5 -5t-1.5 -6l-190 -280q-5 -8 -10 -8h-87q-10 0 -14 8l-198 280q-3 5 -1 8t7 3h75q11 0 15 -8z" />
    <glyph glyph-name="uni02C8" unicode="&#x2c8;" horiz-adv-x="817" 
d="M369 1133l-9 317q0 10 11 10h78q8 0 8 -10l-6 -317q0 -9 -9 -9h-65q-8 0 -8 9z" />
    <glyph glyph-name="uni02C9" unicode="&#x2c9;" 
d="M156 1335h491q8 0 8 -8v-65q0 -9 -8 -9h-491q-9 0 -9 11v63q0 8 9 8z" />
    <glyph glyph-name="uni02CA" unicode="&#x2ca;" 
d="M346 1149l219 293q10 10 15 10h92q13 0 8 -10l-236 -295q-5 -8 -14 -8h-78q-5 0 -7 2.5t1 7.5z" />
    <glyph glyph-name="uni02CB" unicode="&#x2cb;" 
d="M268 1442l230 -295q1 -3 -1.5 -5.5t-7.5 -2.5h-83q-8 0 -11 8l-245 293q-3 3 -1.5 6.5t5.5 3.5h102q7 0 12 -8z" />
    <glyph glyph-name="uni02CC" unicode="&#x2cc;" horiz-adv-x="817" 
d="M369 -442l-9 315q0 10 11 10h78q8 0 8 -8l-6 -319q0 -7 -9 -7h-65q-8 0 -8 9z" />
    <glyph glyph-name="breve" unicode="&#x2d8;" 
d="M133 1384h68q6 0 8 -6q47 -139 188 -139q69 0 121 34.5t74 102.5q2 8 10 8h64q10 0 6 -8q-18 -99 -91 -160t-184 -61q-107 0 -179 57t-93 166q-1 4 1 5t7 1z" />
    <glyph glyph-name="dotaccent" unicode="&#x2d9;" 
d="M397 1235q-31 0 -49 19t-18 49q0 31 18.5 51t48.5 20q31 0 48.5 -19.5t17.5 -51.5q0 -29 -18 -48.5t-48 -19.5z" />
    <glyph glyph-name="ring" unicode="&#x2da;" 
d="M215 1296q0 80 52 128.5t130 48.5q79 0 133 -49.5t54 -127.5t-53.5 -127t-133.5 -49q-79 0 -130.5 47.5t-51.5 128.5zM285 1296q0 -51 32 -80.5t80 -29.5t81.5 29t33.5 81t-33.5 83.5t-81.5 31.5t-80 -30.5t-32 -84.5z" />
    <glyph glyph-name="ogonek" unicode="&#x2db;" 
d="M203 -274q0 168 280 331h97q-277 -167 -277 -311q0 -56 36.5 -88.5t104.5 -32.5q83 0 127 21q9 4 9 -6v-58q0 -10 -9 -16q-55 -31 -149 -31q-87 0 -153 48t-66 143z" />
    <glyph glyph-name="tilde" unicode="&#x2dc;" 
d="M156 1182h-58q-10 0 -10 12q9 86 55 136t121 50q51 0 105.5 -29t102 -58t79.5 -29q42 0 62.5 26t25.5 76q0 10 10 10h60q8 0 8 -8q-19 -188 -162 -188q-38 0 -80 19t-73 41t-69 41t-69 19q-86 0 -100 -110q0 -8 -8 -8z" />
    <glyph glyph-name="hungarumlaut" unicode="&#x2dd;" 
d="M209 1151l162 289q7 10 14 10h76q4 0 6 -3.5t0 -6.5l-176 -293q-5 -8 -17 -8h-59q-12 0 -6 12zM494 1151l163 291q5 8 15 8h76q4 0 6 -3.5t0 -6.5l-176 -291q-5 -10 -17 -10h-59q-13 0 -8 12z" />
    <glyph glyph-name="gravecomb" unicode="&#x300;" horiz-adv-x="0" 
d="M-76 1442l228 -295q3 -3 0.5 -5.5t-7.5 -2.5h-84q-7 0 -12 8l-246 293q-2 3 0.5 6.5t6.5 3.5h102q7 0 12 -8z" />
    <glyph glyph-name="acutecomb" unicode="&#x301;" horiz-adv-x="0" 
d="M-143 1149l221 293q10 10 12 10h94q14 0 9 -10l-236 -295q-5 -8 -14 -8h-78q-11 0 -8 10z" />
    <glyph glyph-name="uni0302" unicode="&#x302;" horiz-adv-x="0" 
d="M154 1145l-162 231l-156 -233q0 -6 -12 -6h-70q-4 0 -5.5 4.5t1.5 7.5l191 281q4 6 10 6h86q9 0 14 -9l199 -280q3 -3 1 -6.5t-7 -3.5h-76q-10 0 -14 8z" />
    <glyph glyph-name="tildecomb" unicode="&#x303;" horiz-adv-x="0" 
d="M-246 1182h-59q-8 0 -8 12q8 86 54 136t120 50q51 0 106 -29t102.5 -58t80.5 -29q41 0 61.5 26t26.5 76q0 10 8 10h61q6 0 6 -8q-16 -188 -159 -188q-39 0 -81 19t-72.5 41t-69 41t-70.5 19q-85 0 -99 -110q0 -8 -8 -8z" />
    <glyph glyph-name="uni0304" unicode="&#x304;" horiz-adv-x="0" 
d="M-246 1335h492q8 0 8 -8v-65q0 -9 -8 -9h-492q-6 0 -6 11v63q0 8 6 8z" />
    <glyph glyph-name="uni0306" unicode="&#x306;" horiz-adv-x="0" 
d="M-266 1384h67q7 0 9 -6q47 -139 190 -139q69 0 120.5 34.5t72.5 102.5q2 8 10 8h65q6 0 6 -8q-18 -99 -91 -160t-183 -61q-109 0 -180.5 57t-91.5 166q-2 6 6 6z" />
    <glyph glyph-name="uni0307" unicode="&#x307;" horiz-adv-x="0" 
d="M-2 1235q-31 0 -48.5 19t-17.5 49q0 31 18.5 51t47.5 20q33 0 50.5 -19.5t17.5 -51.5q0 -28 -19 -48t-49 -20z" />
    <glyph glyph-name="uni0308" unicode="&#x308;" horiz-adv-x="0" 
d="M-176 1239q-28 0 -45 18t-17 46q0 31 18.5 49t45.5 18q25 0 42 -18.5t17 -48.5q0 -29 -17.5 -46.5t-43.5 -17.5zM176 1239q-27 0 -44 17.5t-17 46.5q0 31 17.5 49t43.5 18q28 0 45 -19t17 -48q0 -26 -18 -45t-44 -19z" />
    <glyph glyph-name="hookabovecomb" unicode="&#x309;" horiz-adv-x="0" 
d="M-166 1374v56q0 8 6 10q67 43 154 43q79 0 125.5 -44.5t46.5 -115.5q0 -43 -20.5 -82.5t-53.5 -68.5t-64.5 -49t-62.5 -33q-8 0 -10 6v57q0 9 8 12q115 74 115 154q0 37 -25 61.5t-69 24.5q-73 0 -140 -37q-4 -3 -7 -1t-3 7z" />
    <glyph glyph-name="uni030A" unicode="&#x30a;" horiz-adv-x="0" 
d="M-186 1296q0 80 52.5 128.5t131.5 48.5t132.5 -49.5t53.5 -127.5t-53.5 -127t-132.5 -49t-131.5 47.5t-52.5 128.5zM-115 1296q0 -51 32.5 -80.5t80.5 -29.5t81.5 29t33.5 81t-33.5 83.5t-81.5 31.5q-49 0 -81 -30.5t-32 -84.5z" />
    <glyph glyph-name="uni030B" unicode="&#x30b;" horiz-adv-x="0" 
d="M-266 1151l164 289q3 10 12 10h78q4 0 6 -3.5t0 -6.5l-176 -293q-5 -8 -17 -8h-61q-9 0 -6 12zM20 1151l164 291q3 8 13 8h77q4 0 6.5 -3.5t0.5 -6.5l-177 -291q-5 -10 -16 -10h-59q-14 0 -9 12z" />
    <glyph glyph-name="uni030C" unicode="&#x30c;" horiz-adv-x="0" 
d="M-154 1430l160 -232l156 234q6 6 12 6h70q5 0 6.5 -5t-0.5 -6l-193 -280q-5 -8 -10 -8h-86q-10 0 -14 8l-197 280q-3 5 -1 8t7 3h74q8 0 16 -8z" />
    <glyph glyph-name="uni031B" unicode="&#x31b;" horiz-adv-x="0" 
d="M408 1208h69q12 0 15 -12q10 -33 10 -90q0 -78 -44.5 -127t-119.5 -61h-88q-10 0 -10 8v43q0 12 12 12h29q77 0 103 33.5t26 89.5q0 48 -9 92q-4 12 7 12z" />
    <glyph glyph-name="dotbelowcomb" unicode="&#x323;" horiz-adv-x="0" 
d="M-2 -334q-30 0 -49 20.5t-19 49.5q0 30 20 50.5t50 20.5q29 0 48.5 -20.5t19.5 -50.5q0 -28 -19 -49t-51 -21z" />
    <glyph glyph-name="uni0324" unicode="&#x324;" horiz-adv-x="0" 
d="M-176 -348q-28 0 -45 17t-17 46q0 30 18.5 48t45.5 18q25 0 42 -18t17 -48q0 -28 -17.5 -45.5t-43.5 -17.5zM176 -348q-27 0 -44 17t-17 46q0 30 17.5 48t43.5 18q28 0 45 -18.5t17 -47.5q0 -26 -18 -44.5t-44 -18.5z" />
    <glyph glyph-name="uni0326" unicode="&#x326;" horiz-adv-x="0" 
d="M-10 -467h-72q-3 0 -5 2.5t1 7.5q43 76 60.5 130.5t17.5 115.5q0 51 -25 115q-2 3 0 6.5t6 3.5h78q7 0 12 -8q9 -15 16 -47.5t7 -57.5q0 -80 -20.5 -138t-63.5 -126q-4 -4 -12 -4z" />
    <glyph glyph-name="uni0327" unicode="&#x327;" horiz-adv-x="0" 
d="M-20 8h81l-73 -110q174 -44 174 -179q0 -76 -54 -119.5t-135 -43.5q-83 0 -131 28q-8 3 -8 13v55q0 8 10 6q60 -31 125 -31q52 0 81.5 22.5t29.5 65.5q0 100 -193 127q-8 3 -2 27z" />
    <glyph glyph-name="uni0328" unicode="&#x328;" horiz-adv-x="0" 
d="M-190 -274q0 169 278 331h98q-276 -164 -276 -311q0 -57 35.5 -89t103.5 -32q83 0 127 21q10 3 10 -6v-58q0 -9 -10 -16q-55 -31 -147 -31q-88 0 -153.5 48t-65.5 143z" />
    <glyph glyph-name="uni032E" unicode="&#x32e;" horiz-adv-x="0" 
d="M-258 -150h68q6 0 8 -8q44 -135 182 -135q142 0 188 137q3 6 9 6h65q8 0 8 -10q-19 -98 -93 -158.5t-177 -60.5q-105 0 -177 57.5t-89 163.5q-3 8 8 8z" />
    <glyph glyph-name="uni0331" unicode="&#x331;" horiz-adv-x="0" 
d="M-231 -176h464q7 0 7 -10v-66q0 -8 -7 -8h-464q-9 0 -9 10v66q0 8 9 8z" />
    <glyph glyph-name="uni037E" unicode="&#x37e;" horiz-adv-x="370" 
d="M184 737q-32 0 -51.5 20t-19.5 54q0 30 20 51t51 21q33 0 53.5 -20.5t20.5 -51.5q0 -33 -20.5 -53.5t-53.5 -20.5zM125 -324h-70q-13 0 -8 11q58 130 79.5 246.5t12.5 248.5q0 11 8 11h76q10 0 10 -13q9 -134 -16.5 -263t-81.5 -232q-5 -9 -10 -9z" />
    <glyph glyph-name="tonos" unicode="&#x384;" 
d="M346 1165l219 293q7 10 15 10h92q11 0 8 -10l-236 -295q-3 -6 -14 -6h-78q-11 0 -6 8z" />
    <glyph glyph-name="dieresistonos" unicode="&#x385;" 
d="M301 1139l139 354q4 8 9 8h77q3 0 5 -3.5t1 -6.5l-153 -352q-3 -6 -10 -6h-64q-7 0 -4 6zM164 1229q-26 0 -42 16.5t-16 42.5q0 29 17.5 46.5t42.5 17.5q28 0 43.5 -19t15.5 -45q0 -25 -17 -42t-44 -17zM643 1229q-27 0 -43 16t-16 43q0 30 16.5 47t42.5 17t42.5 -17.5
t16.5 -46.5q0 -24 -16 -41.5t-43 -17.5z" />
    <glyph glyph-name="Alphatonos" unicode="&#x386;" horiz-adv-x="1202" 
d="M879 496h-553l-179 -486q-3 -10 -12 -10h-76q-11 0 -8 12l469 1284q8 15 10 58q0 8 9 8h120q8 0 11 -8l489 -1342q3 -12 -6 -12h-84q-9 0 -12 8zM354 588h496q-13 37 -72 198.5t-109 301t-67 198.5h-2q-13 -45 -43 -133t-55 -158t-76.5 -211t-71.5 -196zM33 961l121 393
q3 8 10 8h84q8 0 6 -10l-131 -394q-4 -6 -12 -6h-70q-11 0 -8 9z" />
    <glyph glyph-name="anoteleia" unicode="&#x387;" horiz-adv-x="294" 
d="M147 752q-31 0 -49 19t-18 50q0 29 18 48.5t49 19.5q30 0 49 -19t19 -49q0 -31 -18 -50t-50 -19z" />
    <glyph glyph-name="Epsilontonos" unicode="&#x388;" horiz-adv-x="1222" 
d="M1190 82l-14 -72q-2 -10 -13 -10h-743q-14 0 -14 14v1334q0 14 12 14h708q10 0 13 -10l10 -70q3 -12 -10 -12h-635v-527h573q8 0 8 -10v-69q0 -13 -10 -13h-571v-559h680q9 0 6 -10zM10 961l119 393q3 8 12 8h82q11 0 6 -10l-131 -394q-2 -6 -12 -6h-70q-9 0 -6 9z" />
    <glyph glyph-name="Etatonos" unicode="&#x389;" horiz-adv-x="1533" 
d="M1374 0h-78q-10 0 -10 10v660h-782v-658q0 -12 -10 -12h-78q-10 0 -10 12v1340q0 10 10 10h78q10 0 10 -10v-590h782v588q0 12 10 12h80q8 0 8 -12v-1340q0 -10 -10 -10zM4 961l119 393q3 8 12 8h82q11 0 8 -10l-133 -394q-2 -6 -10 -6h-72q-9 0 -6 9z" />
    <glyph glyph-name="Iotatonos" unicode="&#x38a;" horiz-adv-x="643" 
d="M487 1352v-1340q0 -12 -10 -12h-76q-12 0 -12 12v1338q0 12 10 12h78q10 0 10 -10zM-18 961l120 393q3 8 11 8h84q9 0 6 -10l-131 -394q-4 -6 -13 -6h-69q-11 0 -8 9z" />
    <glyph glyph-name="Omicrontonos" unicode="&#x38c;" horiz-adv-x="1581" 
d="M834 1380q136 0 249.5 -53t190 -145.5t119 -219.5t43.5 -274q1 -167 -44.5 -302.5t-126 -223.5t-188.5 -135t-235 -47q-187 0 -326.5 91.5t-211 250t-71.5 362.5q0 158 46.5 289.5t127.5 220t191 137.5t236 49zM334 686q0 -99 20.5 -189.5t62.5 -168t101.5 -134.5
t142.5 -89.5t181 -32.5q232 0 363.5 167.5t131.5 446.5q-2 262 -142.5 433t-363.5 171q-102 0 -191.5 -39t-158 -113t-108 -190.5t-39.5 -261.5zM-49 961l121 393q3 8 10 8h82q10 0 8 -10l-133 -394q-2 -6 -10 -6h-70q-11 0 -8 9z" />
    <glyph glyph-name="Upsilontonos" unicode="&#x38e;" horiz-adv-x="1439" 
d="M741 567l-460 785q-4 4 -1.5 7t7.5 3h90q9 0 12 -6q382 -653 418 -725q51 99 416 723q3 8 10 8h90q5 0 6 -2.5t-2 -5.5l-463 -787q-14 -22 -14 -45v-510q0 -12 -8 -12h-76q-8 0 -10 2.5t-2 9.5v512q0 22 -13 43zM-41 961l119 393q5 8 12 8h82q10 0 8 -10l-133 -394
q-2 -6 -10 -6h-70q-11 0 -8 9z" />
    <glyph glyph-name="Omegatonos" unicode="&#x38f;" horiz-adv-x="1570" 
d="M713 0h-504q-10 0 -10 10l-11 74q0 8 11 8h387q-316 250 -316 641q0 144 44.5 265.5t123.5 205.5t190 131t240 47q261 0 418.5 -176.5t157.5 -462.5q0 -386 -324 -651h396q10 0 10 -10l-10 -72q0 -10 -11 -10h-504q-10 0 -10 10v64q0 6 8 14q155 113 250 274.5t94 372.5
q-1 157 -54 280.5t-163.5 199t-263.5 75.5q-120 0 -215.5 -45.5t-154.5 -123.5t-90 -178.5t-31 -215.5q0 -109 29.5 -209t80.5 -179.5t108 -140t124 -110.5q10 -7 10 -12v-66q0 -10 -10 -10zM-23 961l121 393q3 8 11 8h84q9 0 6 -10l-131 -394q-4 -6 -13 -6h-69q-12 0 -9 9z
" />
    <glyph glyph-name="iotadieresistonos" unicode="&#x390;" horiz-adv-x="446" 
d="M254 971v-793q0 -65 23 -87.5t65 -22.5q18 0 45 6q4 1 5 -0.5t1 -7.5v-62q0 -10 -6 -12q-24 -12 -74 -12q-31 0 -55 6.5t-48.5 25t-38 59t-13.5 101.5v799q0 10 8 10h80q8 0 8 -10zM137 1139l139 354q4 8 11 8h78q3 0 4.5 -3.5t-0.5 -6.5l-154 -352q-3 -6 -10 -6h-62
q-9 0 -6 6zM2 1229q-26 0 -41.5 16.5t-15.5 42.5q0 29 16.5 46.5t40.5 17.5q29 0 44 -18.5t15 -45.5q0 -25 -16 -42t-43 -17zM479 1229q-25 0 -41 16t-16 43q0 30 16.5 47t40.5 17q27 0 43.5 -17.5t16.5 -46.5q0 -25 -16 -42t-44 -17z" />
    <glyph glyph-name="Alpha" unicode="&#x391;" horiz-adv-x="1159" 
d="M852 496h-553l-176 -486q-3 -10 -12 -10h-78q-11 0 -8 12l471 1284q8 25 10 58q0 8 8 8h119q9 0 12 -8l490 -1342q3 -12 -9 -12h-84q-9 0 -12 8zM330 588h493q-9 25 -70.5 195.5t-109.5 307t-65 195.5h-3q-11 -37 -29 -92t-47 -137.5t-50 -140.5t-61.5 -170t-57.5 -158z
" />
    <glyph glyph-name="Beta" unicode="&#x392;" horiz-adv-x="1093" 
d="M174 14v1332q0 12 8 14q246 6 314 6q112 0 196 -25.5t129 -62t72.5 -87t35 -90t7.5 -81.5q0 -76 -29 -140.5t-60 -97t-67 -57.5q39 -16 74.5 -40t73 -63t60 -98t22.5 -129q0 -103 -42.5 -181.5t-117 -125t-168 -69.5t-203.5 -23q-75 -2 -295 4q-10 2 -10 14zM270 682
v-594q94 -4 191 -4q204 -3 327 74.5t123 234.5q0 101 -60 172.5t-169 100.5q-58 16 -180 16h-232zM270 1274v-502h226q124 0 196 -14q64 36 106 99t42 151q0 137 -93.5 203.5t-263.5 66.5q-143 0 -213 -4z" />
    <glyph glyph-name="Gamma" unicode="&#x393;" horiz-adv-x="899" 
d="M176 1352q0 10 8 10h703q9 0 12 -8l10 -74q3 -10 -10 -10h-625v-1260q0 -10 -10 -10h-80q-8 0 -8 10v1342z" />
    <glyph glyph-name="uni0394" unicode="&#x394;" horiz-adv-x="1148" 
d="M1112 0h-1075q-10 0 -10 10v47q0 13 4 21l458 1210q10 28 15 66q3 8 8 8h117q7 0 10 -8l479 -1270q4 -6 4 -23v-49q0 -12 -10 -12zM131 92h883q-52 146 -157.5 427.5t-188 501t-95.5 259.5h-4q-13 -48 -83 -238t-185 -495.5t-170 -454.5z" />
    <glyph glyph-name="Epsilon" unicode="&#x395;" horiz-adv-x="1003" 
d="M958 82l-14 -72q-2 -10 -12 -10h-744q-14 0 -14 14v1334q0 14 12 14h709q9 0 12 -10l11 -70q3 -12 -11 -12h-635v-527h572q10 0 10 -10v-69q0 -13 -10 -13h-572v-559h678q11 0 8 -10z" />
    <glyph glyph-name="Zeta" unicode="&#x396;" horiz-adv-x="1050" 
d="M999 0h-966q-10 0 -10 10v51q0 8 6 17l854 1192h-817q-11 0 -9 12l17 70q5 10 14 10h913q11 0 11 -10v-49q0 -10 -8 -21l-852 -1190h872q9 0 6 -10l-18 -72q-2 -10 -13 -10z" />
    <glyph glyph-name="Eta" unicode="&#x397;" horiz-adv-x="1331" 
d="M1145 0h-78q-10 0 -10 10v660h-783v-658q0 -12 -10 -12h-78q-10 0 -10 12v1340q0 10 10 10h78q10 0 10 -10v-590h783v588q0 12 10 12h78q10 0 10 -12v-1340q0 -10 -10 -10z" />
    <glyph glyph-name="Theta" unicode="&#x398;" horiz-adv-x="1380" 
d="M346 739h692q11 0 11 -8v-72q0 -10 -11 -10h-692q-8 0 -8 8v74q0 8 8 8zM688 1380q136 0 249.5 -53t190 -145.5t119 -219.5t43.5 -274q1 -167 -44.5 -302.5t-126 -223.5t-188.5 -135t-235 -47q-141 0 -256 53t-192 147t-118.5 223t-41.5 281q0 158 46.5 289.5t127 220
t190.5 137.5t236 49zM188 686q0 -99 20.5 -189.5t62.5 -168t101.5 -134.5t142.5 -89.5t181 -32.5q232 0 363 167.5t131 446.5q0 172 -62.5 309.5t-178 216t-263.5 78.5q-102 0 -191.5 -39t-158.5 -113t-108.5 -190.5t-39.5 -261.5z" />
    <glyph glyph-name="Iota" unicode="&#x399;" horiz-adv-x="448" 
d="M272 1352v-1340q0 -12 -10 -12h-78q-10 0 -10 12v1338q0 12 10 12h78q10 0 10 -10z" />
    <glyph glyph-name="Kappa" unicode="&#x39a;" horiz-adv-x="1101" 
d="M987 1362h92q6 0 7.5 -5t-3.5 -9l-645 -643q-10 -7 0 -13l701 -678q3 -4 1.5 -9t-7.5 -5h-103q-12 0 -20 10l-693 666q-14 11 2 24l650 652q7 10 18 10zM272 1350v-1338q0 -12 -10 -12h-76q-12 0 -12 14v1338q0 10 10 10h78q10 0 10 -12z" />
    <glyph glyph-name="Lambda" unicode="&#x39b;" horiz-adv-x="1159" 
d="M1030 8q-61 169 -135 374t-119 330.5t-90 250.5t-71 200t-37 113h-3q-37 -136 -452 -1266q-3 -10 -12 -10h-78q-11 0 -8 12l471 1284q8 25 10 58q0 8 8 8h119q9 0 12 -8l490 -1342q3 -12 -9 -12h-84q-9 0 -12 8z" />
    <glyph glyph-name="Mu" unicode="&#x39c;" horiz-adv-x="1691" 
d="M252 1352q2 10 12 10h131q11 0 13 -10q11 -30 69 -191t107 -297t107.5 -300.5t99 -283.5t53.5 -165h2q23 73 120 330t209 548.5t136 356.5q9 11 12 12h125q10 0 12 -10l80 -1342q0 -10 -8 -10h-80q-12 0 -12 10q-60 1034 -64 1284h-2q-29 -96 -235.5 -640t-241.5 -644
q-4 -10 -12 -10h-88q-12 0 -15 10q-32 91 -151.5 430t-196 560t-100.5 296h-2q-2 -68 -14.5 -265t-38.5 -569t-31 -452q0 -10 -12 -10h-76q-10 0 -10 10z" />
    <glyph glyph-name="Nu" unicode="&#x39d;" horiz-adv-x="1349" 
d="M260 0h-74q-12 0 -12 12v1340q0 10 10 10h119q9 0 14 -8q695 -1121 766 -1248h2q-6 76 -6 304v942q0 10 13 10h73q11 0 11 -12v-1338q0 -12 -13 -12h-112q-13 0 -17 10q-26 45 -384 625t-388 643h-2q8 -114 8 -342v-924q0 -12 -8 -12z" />
    <glyph glyph-name="Xi" unicode="&#x39e;" horiz-adv-x="972" 
d="M901 0h-835q-8 0 -11 8l-10 72q-3 12 8 12h867q11 0 8 -12l-15 -72q-2 -8 -12 -8zM84 1362h803q9 0 12 -8l10 -74q3 -10 -8 -10h-831q-10 0 -7 8l11 74q2 10 10 10zM834 735v-76q0 -8 -9 -8h-678q-10 0 -10 11v71q0 10 8 10h680q9 0 9 -8z" />
    <glyph glyph-name="Omicron" unicode="&#x39f;" horiz-adv-x="1380" 
d="M688 1380q136 0 249.5 -53t190 -145.5t119 -219.5t43.5 -274q1 -167 -44.5 -302.5t-126 -223.5t-188.5 -135t-235 -47q-141 0 -256 53t-192 147t-118.5 223t-41.5 281q0 158 46.5 289.5t127 220t190.5 137.5t236 49zM188 686q0 -99 20.5 -189.5t62.5 -168t101.5 -134.5
t142.5 -89.5t181 -32.5q232 0 363 167.5t131 446.5q0 172 -62.5 309.5t-178 216t-263.5 78.5q-102 0 -191.5 -39t-158.5 -113t-108.5 -190.5t-39.5 -261.5z" />
    <glyph glyph-name="Pi" unicode="&#x3a0;" horiz-adv-x="1331" 
d="M1145 0h-78q-10 0 -10 10v1260h-783v-1258q0 -12 -10 -12h-78q-10 0 -10 12v1340q0 10 10 10h959q10 0 10 -12v-1340q0 -10 -10 -10z" />
    <glyph glyph-name="Rho" unicode="&#x3a1;" horiz-adv-x="1056" 
d="M174 10v1338q0 12 10 12q153 6 295 6q239 0 370.5 -118.5t131.5 -303.5q0 -110 -41.5 -196.5t-114 -140t-167 -81.5t-203.5 -28q-60 0 -116 2t-67 2v-492q0 -10 -10 -10h-78q-10 0 -10 10zM272 1272v-678q70 -4 183 -4q70 0 131.5 11.5t117 38t94.5 66.5t62 99.5
t23 134.5q0 161 -114 249.5t-290 88.5q-84 0 -207 -6z" />
    <glyph glyph-name="Sigma" unicode="&#x3a3;" horiz-adv-x="1026" 
d="M938 1362q8 0 10 -10l13 -72q1 -7 -2 -8.5t-9 -1.5h-794l520 -586q5 -8 0 -16l-529 -576h869q6 0 6 -8l-14 -76q-3 -8 -13 -8h-964q-11 0 -11 10v58q0 4 7 14l538 588l-532 604q-6 9 -6 18v60q0 10 8 10h903z" />
    <glyph glyph-name="Tau" unicode="&#x3a4;" horiz-adv-x="1019" 
d="M461 12v1258h-463q-10 0 -8 12l16 70q3 10 12 10h988q10 0 12 -10l10 -70q3 -12 -8 -12h-461v-1258q0 -12 -12 -12h-74q-12 0 -12 12z" />
    <glyph glyph-name="Upsilon" unicode="&#x3a5;" horiz-adv-x="1017" 
d="M446 567l-460 785q-4 4 -1.5 7t7.5 3h90q9 0 12 -6q382 -653 418 -725q51 99 416 723q3 8 10 8h90q4 0 5.5 -2.5t-1.5 -5.5l-463 -787q-14 -22 -14 -45v-510q0 -12 -8 -12h-76q-8 0 -10 2.5t-2 9.5v512q0 22 -13 43z" />
    <glyph glyph-name="Phi" unicode="&#x3a6;" horiz-adv-x="1378" 
d="M649 1407h76q10 0 10 -10v-119q86 -2 165.5 -25.5t151 -71t124 -114.5t83.5 -163.5t31 -211.5q0 -119 -31 -216.5t-83.5 -164.5t-124.5 -114t-151 -70t-165 -27v-131q0 -12 -10 -12h-76q-8 0 -8 12v131q-87 6 -165 29t-150 69t-124 111t-83 160.5t-31 210.5
q0 120 33.5 219.5t88.5 166.5t128.5 114.5t149 70.5t153.5 27v119q0 10 8 10zM641 182v1014q-63 -3 -125 -21t-122.5 -58t-106.5 -97t-74.5 -143.5t-28.5 -190.5q0 -121 37 -216.5t102 -155t145 -92.5t173 -40zM735 1196v-1014q93 5 172.5 37t144.5 91.5t102.5 157
t37.5 222.5q0 104 -27 189.5t-71.5 142t-104 96.5t-123.5 58t-131 20z" />
    <glyph glyph-name="Chi" unicode="&#x3a7;" horiz-adv-x="1024" 
d="M993 1352l-426 -654l457 -684q7 -14 -6 -14h-92q-14 0 -19 8q-54 82 -194 294.5t-217 328.5h-2q-225 -367 -385 -621q-5 -10 -17 -10h-88q-13 0 -6 14l434 678l-424 658q-3 4 -1.5 8t7.5 4h90q13 0 17 -6q170 -265 383 -602h2q69 109 198.5 312.5t182.5 287.5q5 8 16 8
h84q13 0 6 -10z" />
    <glyph glyph-name="Psi" unicode="&#x3a8;" horiz-adv-x="1300" 
d="M600 559v793q0 10 10 10h78q8 0 8 -10v-793q386 12 398 412q10 318 32 381q3 10 13 10h73q13 0 9 -12q-25 -101 -31 -383q-9 -247 -141 -366t-353 -130v-461q0 -10 -8 -10h-76q-12 0 -12 12v459q-109 6 -193.5 35t-150.5 86t-103.5 151.5t-41.5 223.5q-9 293 -31 383
q-2 4 1 8t7 4h72q9 0 12 -8q23 -61 33 -379q3 -94 27 -167t61 -117.5t89.5 -73.5t104 -41.5t113.5 -16.5z" />
    <glyph glyph-name="uni03A9" unicode="&#x3a9;" horiz-adv-x="1409" 
d="M561 0h-506q-10 0 -10 10l-8 74q0 8 10 8h387q-315 249 -315 641q0 144 44.5 265.5t123.5 205.5t190 131t240 47q261 0 417 -176.5t156 -462.5q0 -389 -321 -651h395q10 0 10 -10l-12 -72q0 -10 -10 -10h-504q-8 0 -8 10v64q0 6 8 14q155 113 250 275t94 372
q-1 157 -54 280.5t-163.5 199t-263.5 75.5q-120 0 -216 -45.5t-155.5 -123.5t-91 -178.5t-31.5 -215.5q0 -109 29.5 -209t81 -179.5t109 -140t124.5 -110.5q10 -7 10 -12v-66q0 -10 -10 -10z" />
    <glyph glyph-name="Iotadieresis" unicode="&#x3aa;" horiz-adv-x="448" 
d="M272 1352v-1340q0 -12 -10 -12h-78q-10 0 -10 12v1338q0 12 10 12h78q10 0 10 -10zM41 1516q-28 0 -46 17.5t-18 45.5q0 27 19.5 45t46.5 18q28 0 45.5 -18.5t17.5 -44.5q0 -28 -18 -45.5t-47 -17.5zM403 1516q-28 0 -45.5 17t-17.5 46q0 27 19.5 45t46.5 18
q28 0 46.5 -17.5t18.5 -45.5q0 -30 -18.5 -46.5t-49.5 -16.5z" />
    <glyph glyph-name="Upsilondieresis" unicode="&#x3ab;" horiz-adv-x="1017" 
d="M446 567l-460 785q-4 4 -1.5 7t7.5 3h90q9 0 12 -6q382 -653 418 -725q51 99 416 723q3 8 10 8h90q4 0 5.5 -2.5t-1.5 -5.5l-463 -787q-14 -22 -14 -45v-510q0 -12 -8 -12h-76q-8 0 -10 2.5t-2 9.5v512q0 22 -13 43zM332 1516q-28 0 -46 18t-18 47q0 27 19.5 45.5
t46.5 18.5q28 0 45.5 -19t17.5 -45q0 -28 -18.5 -46.5t-46.5 -18.5zM694 1516q-28 0 -45.5 17.5t-17.5 45.5q0 27 19.5 46.5t45.5 19.5q28 0 47 -18t19 -46q0 -30 -19 -47.5t-49 -17.5z" />
    <glyph glyph-name="alphatonos" unicode="&#x3ac;" horiz-adv-x="1060" 
d="M451 -20q-177 0 -276 136.5t-99 356.5q0 232 111 379t302 147q130 0 214 -69.5t112 -194.5q8 104 37 238q5 8 12 8h68q6 0 7.5 -2.5t0.5 -9.5q-68 -333 -68 -647v-62q0 -190 103 -190q37 0 51 4q3 2 6.5 0t3.5 -6v-64q0 -9 -8 -12q-28 -12 -74 -12q-74 0 -119.5 54.5
t-46.5 174.5v31q-44 -125 -129 -192.5t-208 -67.5zM176 475q0 -195 83 -299t210 -104q71 0 127 29.5t90.5 76t57 109t31.5 123.5t9 125q0 171 -73.5 274.5t-214.5 103.5q-108 0 -182 -62t-106 -158t-32 -218zM479 1165l219 293q7 10 15 10h92q11 0 8 -10l-235 -295
q-3 -6 -15 -6h-78q-11 0 -6 8z" />
    <glyph glyph-name="epsilontonos" unicode="&#x3ad;" horiz-adv-x="776" 
d="M289 514q-90 28 -134 87t-44 138q0 50 21.5 95.5t63.5 83t113 59.5t162 22q155 0 234 -43q8 -4 8 -14v-74q0 -5 -3.5 -7t-7.5 1q-86 51 -229 51q-129 0 -195.5 -49t-66.5 -127q0 -84 66 -131t192 -47h104q11 0 11 -10v-68q0 -10 -11 -10h-104q-139 1 -214 -50t-75 -142
q0 -99 81.5 -155t211.5 -56q156 0 250 51q10 5 10 -6v-66q0 -8 -8 -16q-91 -51 -262 -51q-105 0 -190 29t-141 96.5t-56 164.5q0 88 57.5 153.5t155.5 90.5zM344 1151l221 293q3 10 13 10h94q11 0 8 -10l-236 -293q-5 -8 -14 -8h-78q-11 0 -8 8z" />
    <glyph glyph-name="etatonos" unicode="&#x3ae;" horiz-adv-x="1062" 
d="M158 12v731q0 123 -23 228q-3 10 6 10h70q12 0 14 -8q9 -23 18 -103t9 -129q50 131 145 194.5t207 63.5q45 0 84.5 -9t80.5 -35.5t70 -68.5t47.5 -113.5t18.5 -164.5v-1069q0 -7 -8 -10q-54 -14 -80 -14q-10 0 -10 10v1079q0 63 -11 115t-36 96t-71.5 69t-110.5 25
q-76 0 -139 -37t-102.5 -96t-61 -130t-21.5 -142v-492q0 -12 -10 -12h-78q-8 0 -8 12zM446 1165l222 293q3 10 12 10h94q13 0 6 -10l-233 -295q-6 -6 -15 -6h-79q-10 0 -7 8z" />
    <glyph glyph-name="iotatonos" unicode="&#x3af;" horiz-adv-x="446" 
d="M254 971v-793q0 -65 23 -87.5t65 -22.5q18 0 45 6q4 1 5 -0.5t1 -7.5v-62q0 -10 -6 -12q-24 -12 -74 -12q-31 0 -55 6.5t-48.5 25t-38 59t-13.5 101.5v799q0 10 8 10h80q8 0 8 -10zM133 1151l221 293q7 10 13 10h94q6 0 8 -3.5t0 -6.5l-236 -295q-5 -8 -14 -8h-78
q-11 0 -8 10z" />
    <glyph glyph-name="upsilondieresistonos" unicode="&#x3b0;" horiz-adv-x="1001" 
d="M731 981h82q7 0 10 -8q29 -62 54.5 -182.5t25.5 -243.5q0 -94 -12 -174t-41.5 -154t-75 -126t-117 -82.5t-163.5 -30.5q-158 0 -251 88.5t-93 263.5v336q0 231 -19 303q-3 10 8 10h78q9 0 14 -8q17 -53 17 -176v-461q0 -62 15.5 -110t40.5 -77t59 -47t67 -25t70 -7
q98 0 164 45t103.5 152.5t37.5 279.5q0 228 -82 424q-3 10 8 10zM391 1139l139 354q4 8 9 8h77q4 0 6.5 -3.5t0.5 -6.5l-154 -352q-3 -6 -10 -6h-64q-7 0 -4 6zM254 1229q-26 0 -41.5 16.5t-15.5 42.5q0 29 17 46.5t42 17.5q28 0 43.5 -19t15.5 -45q0 -25 -17 -42t-44 -17z
M733 1229q-27 0 -43 16t-16 43q0 30 16.5 47t42.5 17q27 0 43.5 -17.5t16.5 -46.5q0 -24 -16.5 -41.5t-43.5 -17.5z" />
    <glyph glyph-name="alpha" unicode="&#x3b1;" horiz-adv-x="1060" 
d="M451 -20q-177 0 -276 136.5t-99 356.5q0 232 111 379t302 147q130 0 214 -69.5t112 -194.5q8 104 37 238q5 8 12 8h68q6 0 7.5 -2.5t0.5 -9.5q-68 -333 -68 -647v-62q0 -190 103 -190q37 0 51 4q3 2 6.5 0t3.5 -6v-64q0 -9 -8 -12q-28 -12 -74 -12q-74 0 -119.5 54.5
t-46.5 174.5v31q-44 -125 -129 -192.5t-208 -67.5zM176 475q0 -195 83 -299t210 -104q71 0 127 29.5t90.5 76t57 109t31.5 123.5t9 125q0 171 -73.5 274.5t-214.5 103.5q-108 0 -182 -62t-106 -158t-32 -218z" />
    <glyph glyph-name="beta" unicode="&#x3b2;" horiz-adv-x="1054" 
d="M256 1020v-852q48 -48 126.5 -75t162.5 -27q156 0 246 92.5t90 244.5q0 79 -22.5 140.5t-58.5 100t-86 63.5t-101 35t-107 10h-49q-8 0 -8 10v69q0 11 8 11h57q59 0 109.5 15.5t92.5 47t66.5 87t24.5 128.5q0 132 -69.5 211.5t-194.5 79.5q-287 0 -287 -391zM158 -475
v1505q0 125 30.5 218t85 146.5t122 79t149.5 25.5q165 0 260.5 -102.5t95.5 -266.5q0 -74 -20 -132.5t-54.5 -96t-70.5 -60t-78 -36.5q57 -15 106.5 -43.5t95.5 -74.5t72.5 -118.5t26.5 -162.5q0 -108 -37 -192t-99.5 -134t-137 -75t-156.5 -25q-173 0 -293 86v-529
q0 -8 -8 -10q-50 -10 -80 -10q-10 0 -10 8z" />
    <glyph glyph-name="gamma" unicode="&#x3b3;" horiz-adv-x="876" 
d="M446 -473q-78 -10 -79 -10q-9 0 -9 10q35 410 35 508q0 119 -130 424.5t-275 511.5q-3 3 -1.5 6.5t5.5 3.5h96q10 0 14 -6q87 -130 195 -364.5t156 -420.5h2q52 167 157 407t179 376q3 8 10 8h84q9 0 6 -10q-116 -218 -230 -476.5t-163 -418.5q-6 -25 -13 -64
q-6 -87 -16.5 -273.5t-11.5 -199.5q0 -8 -11 -12z" />
    <glyph glyph-name="delta" unicode="&#x3b4;" horiz-adv-x="993" 
d="M500 68q145 0 232 98.5t87 275.5q0 134 -62 225.5t-214 180.5q-4 2 -12.5 7t-12.5 7q-43 -4 -88 -20t-91.5 -49t-82.5 -77.5t-59 -111.5t-23 -145q0 -93 28 -169t74.5 -123.5t104 -73t119.5 -25.5zM872 1401v-86q0 -5 -2.5 -6t-5.5 2q-151 100 -329 100
q-142 0 -202.5 -45.5t-60.5 -112.5q0 -61 64.5 -129.5t238.5 -175.5q192 -115 267.5 -228t75.5 -274q0 -211 -115.5 -338.5t-302.5 -127.5t-305.5 131t-118.5 348q0 171 98.5 296t255.5 167q-51 36 -91 69.5t-78.5 76t-59.5 90t-21 95.5q0 44 19.5 85.5t59.5 78.5t113 59.5
t169 22.5q102 0 191 -25t136 -61q4 -4 4 -12z" />
    <glyph glyph-name="epsilon" unicode="&#x3b5;" horiz-adv-x="776" 
d="M289 514q-90 28 -134 87t-44 138q0 50 21.5 95.5t63.5 83t113 59.5t162 22q155 0 234 -43q8 -4 8 -14v-74q0 -5 -3.5 -7t-7.5 1q-86 51 -229 51q-129 0 -195.5 -49t-66.5 -127q0 -84 66 -131t192 -47h104q11 0 11 -10v-68q0 -10 -11 -10h-104q-139 1 -214 -50t-75 -142
q0 -99 81.5 -155t211.5 -56q156 0 250 51q10 5 10 -6v-66q0 -8 -8 -16q-91 -51 -262 -51q-105 0 -190 29t-141 96.5t-56 164.5q0 88 57.5 153.5t155.5 90.5z" />
    <glyph glyph-name="zeta" unicode="&#x3b6;" horiz-adv-x="688" 
d="M86 408q0 229 136 470.5t392 510.5h-219q-131 0 -200 6q-9 3 -9 10l13 72q3 8 10 8q87 -6 194 -6h345q8 0 8 -6v-56q0 -8 -6 -14q-23 -14 -56 -45q-241 -254 -375.5 -486t-134.5 -454q0 -83 15 -139.5t49.5 -94t80.5 -59t117 -37.5q156 -34 220.5 -88t64.5 -170
q0 -101 -69 -185t-199 -122q-10 -3 -10 8v76q0 8 6 10q91 33 134.5 89t43.5 118q-1 74 -48 109.5t-171 62.5q-67 15 -111.5 30t-90 45t-71.5 72t-42.5 108.5t-16.5 156.5z" />
    <glyph glyph-name="eta" unicode="&#x3b7;" horiz-adv-x="1062" 
d="M158 12v731q0 123 -23 228q-3 10 6 10h70q12 0 14 -8q9 -23 18 -103t9 -129q50 131 145 194.5t207 63.5q45 0 84.5 -9t80.5 -35.5t70 -68.5t47.5 -113.5t18.5 -164.5v-1069q0 -7 -8 -10q-54 -14 -80 -14q-10 0 -10 10v1079q0 63 -11 115t-36 96t-71.5 69t-110.5 25
q-76 0 -139 -37t-102.5 -96t-61 -130t-21.5 -142v-492q0 -12 -10 -12h-78q-8 0 -8 12z" />
    <glyph glyph-name="theta" unicode="&#x3b8;" horiz-adv-x="1038" 
d="M524 -20q-205 0 -319.5 195.5t-114.5 567.5q0 223 50 392.5t149.5 266.5t236.5 97q140 0 236 -97.5t141 -265t45 -393.5q0 -361 -107 -562t-317 -201zM186 805h666q-2 120 -21.5 224t-57 192t-102.5 139t-151 51q-82 0 -146.5 -50t-104 -136t-60.5 -192.5t-23 -227.5z
M852 713h-666q4 -308 95 -475.5t243 -167.5q71 0 126.5 33.5t92.5 91.5t61.5 141t35.5 175.5t12 201.5z" />
    <glyph glyph-name="iota" unicode="&#x3b9;" horiz-adv-x="446" 
d="M254 971v-793q0 -65 23 -87.5t65 -22.5q18 0 45 6q4 1 5 -0.5t1 -7.5v-62q0 -10 -6 -12q-24 -12 -74 -12q-31 0 -55 6.5t-48.5 25t-38 59t-13.5 101.5v799q0 10 8 10h80q8 0 8 -10z" />
    <glyph glyph-name="kappa" unicode="&#x3ba;" horiz-adv-x="886" 
d="M270 500q-10 12 0 24q50 45 484 449q8 8 16 8h96q7 0 8.5 -4.5t-2.5 -7.5q-31 -31 -243.5 -222.5t-243.5 -220.5q-2 -2 0 -6q203 -203 535 -508q3 -4 1 -8t-8 -4h-110q-14 0 -19 8q-432 412 -514 492zM254 971v-961q0 -10 -8 -10h-80q-10 0 -10 10v961q0 10 10 10h80
q8 0 8 -10z" />
    <glyph glyph-name="lambda" unicode="&#x3bb;" horiz-adv-x="919" 
d="M780 10l-323 864h-4q-22 -94 -318 -866q-3 -8 -12 -8h-82q-10 0 -8 12l366 953q11 20 2 45l-32 86q-70 177 -145.5 243t-180.5 66q-33 0 -53 -4q-10 0 -10 8v74q0 7 8 10q20 6 63 6q64 0 115.5 -17t104.5 -60t102 -124.5t96 -203.5q329 -843 418 -1082q3 -8 0 -10t-10 -2
h-84q-8 0 -13 10z" />
    <glyph glyph-name="uni03BC" unicode="&#x3bc;" horiz-adv-x="1083" 
d="M963 -20q-24 0 -40.5 2t-40.5 12.5t-39.5 30t-27.5 57.5t-14 92v72q-100 -266 -348 -266q-57 0 -112 22t-89 72q6 -214 2 -535q0 -8 -8 -10q-45 -10 -80 -10q-8 0 -8 12v1438q0 12 10 12h76q10 0 10 -12v-682q0 -99 56 -158t149 -59q152 0 244 125.5t92 341.5v434
q0 10 10 10h78q8 0 8 -10v-766q0 -79 23 -108t67 -29q16 0 43 6q4 1 6 -1t2 -7v-62q0 -9 -8 -12q-24 -12 -61 -12z" />
    <glyph glyph-name="nu" unicode="&#x3bd;" horiz-adv-x="860" 
d="M6 981h92q11 0 15 -6q73 -119 163.5 -378.5t135.5 -487.5h4q69 95 127 199.5t105.5 248t47.5 268.5q0 92 -12 146q-3 10 8 10h74q9 0 12 -8q15 -50 15 -135q0 -193 -96.5 -412t-247.5 -414q-12 -12 -19 -12h-72q-12 0 -14 10q-48 241 -147.5 528.5t-196.5 432.5
q-3 4 -0.5 7t6.5 3z" />
    <glyph glyph-name="xi" unicode="&#x3be;" horiz-adv-x="794" 
d="M547 1499q150 0 211 -39q4 -2 4 -12v-76q0 -6 -2.5 -8t-5.5 0q-71 47 -207 47q-77 0 -136 -25t-93.5 -67t-52 -92t-17.5 -105q0 -141 90 -211.5t235 -70.5h107q12 0 12 -11v-69q0 -12 -12 -12h-98q-181 0 -285 -93t-104 -237q0 -156 81.5 -231t268.5 -113
q150 -32 207 -93t57 -157q0 -100 -67.5 -179t-198.5 -116q-13 -3 -13 8v64q0 12 7 14q178 65 178 199q-1 27 -7.5 47.5t-25.5 43.5t-59 41t-101 29q-231 48 -330.5 145t-99.5 290q0 132 78 235.5t211 147.5q-109 39 -169 124.5t-60 208.5q0 76 26 142.5t74.5 118.5t125 82
t171.5 30z" />
    <glyph glyph-name="omicron" unicode="&#x3bf;" horiz-adv-x="1046" 
d="M524 999q199 0 322 -140.5t123 -369.5q0 -227 -123 -368t-320 -141q-91 0 -167 30t-127.5 79.5t-87.5 116t-52 137.5t-16 146q0 220 125 365t323 145zM518 911q-153 0 -248.5 -116t-95.5 -301q0 -115 40.5 -210t123.5 -154.5t194 -59.5q63 0 121 24.5t107.5 72.5
t79.5 131t30 189q0 65 -12 125t-39.5 115t-67.5 95.5t-100 64.5t-133 24z" />
    <glyph glyph-name="pi" unicode="&#x3c0;" horiz-adv-x="970" 
d="M240 0h-76h-4t-3 1t-1.5 3t0.5 6q40 122 45 299v582h-199q-11 0 -8 12l12 64q2 10 8 10q54 4 144 4h803q6 0 6 -8l-11 -74q0 -8 -8 -8h-178v-572q0 -195 45 -307q5 -12 -6 -12h-78q-9 0 -12 10q-48 85 -45 314v567h-379v-580q0 -193 -43 -303q-2 -8 -12 -8z" />
    <glyph glyph-name="rho" unicode="&#x3c1;" horiz-adv-x="1036" 
d="M553 999q130 0 224.5 -69.5t139 -180t44.5 -245.5q0 -123 -35.5 -224t-96.5 -165.5t-141 -99.5t-170 -35q-160 0 -262 88v-529q0 -7 -8 -10q-7 -1 -26 -4t-34 -5.5t-18 -2.5q-12 0 -12 10v1051q0 88 25 163.5t72.5 133.5t124 91t173.5 33zM543 911q-127 0 -207 -83.5
t-80 -252.5v-399q93 -108 260 -108q152 0 248 115.5t96 314.5q0 181 -82 297t-235 116z" />
    <glyph glyph-name="uni03C2" unicode="&#x3c2;" horiz-adv-x="763" 
d="M76 492q0 100 30.5 190.5t87.5 161.5t147 113t200 42q129 0 188 -32q8 -4 8 -15v-80q0 -4 -3 -6.5t-7 0.5q-82 45 -192 45q-163 0 -262 -114t-99 -301q0 -188 70.5 -283t240.5 -131q138 -29 199 -84.5t61 -153.5t-58.5 -174t-172.5 -110q-12 -6 -12 8v65v4v6t2 3.5t6 3.5
q79 33 109 79t30 107q0 57 -41.5 94.5t-150.5 57.5q-206 40 -293.5 161.5t-87.5 342.5z" />
    <glyph glyph-name="sigma" unicode="&#x3c3;" horiz-adv-x="1024" 
d="M76 483q0 232 124 365t328 133h525q9 0 6 -10l-10 -72q0 -10 -11 -10q-205 0 -303 4q90 -56 138.5 -166.5t48.5 -239.5q0 -130 -35 -230.5t-94.5 -159t-131.5 -88t-153 -29.5q-190 0 -311 136.5t-121 366.5zM506 897q-153 0 -242.5 -115t-89.5 -297q0 -187 95.5 -301
t238.5 -114q144 0 229.5 112.5t85.5 309.5q0 181 -81.5 293t-235.5 112z" />
    <glyph glyph-name="tau" unicode="&#x3c4;" horiz-adv-x="741" 
d="M303 174v717h-315q-8 0 -8 10l10 70q1 3 8 6q46 4 137 4h619q8 0 8 -10l-10 -72q-3 -8 -13 -8h-338v-713q0 -112 101 -112q44 0 71 10q9 3 9 -8v-58q0 -9 -9 -12q-40 -18 -100 -18q-30 0 -55.5 7t-53.5 25.5t-44.5 60t-16.5 101.5z" />
    <glyph glyph-name="upsilon" unicode="&#x3c5;" horiz-adv-x="1001" 
d="M731 981h82q7 0 10 -8q29 -62 54.5 -182.5t25.5 -243.5q0 -94 -12 -174t-41.5 -154t-75 -126t-117 -82.5t-163.5 -30.5q-158 0 -251 88.5t-93 263.5v336q0 231 -19 303q-3 10 8 10h78q9 0 14 -8q17 -53 17 -176v-461q0 -62 15.5 -110t40.5 -77t59 -47t67 -25t70 -7
q98 0 164 45t103.5 152.5t37.5 279.5q0 228 -82 424q-3 10 8 10z" />
    <glyph glyph-name="phi" unicode="&#x3c6;" horiz-adv-x="1280" 
d="M602 1341h78q8 0 8 -14v-330q236 -14 375 -146.5t139 -363.5q0 -123 -39 -219t-110 -156t-162.5 -93t-202.5 -39v-439q0 -9 -8 -12q-36 -8 -78 -8q-10 0 -10 12v447q-237 12 -376.5 142.5t-139.5 356.5q0 118 40 214t110 159t163 99.5t203 43.5v332q0 9 2 11.5t8 2.5z
M592 63v852q-198 -13 -307 -130t-109 -304q0 -189 115.5 -297t300.5 -121zM688 915v-852q89 5 163 31.5t131.5 76.5t89.5 130t32 184q0 184 -110.5 301t-305.5 129z" />
    <glyph glyph-name="chi" unicode="&#x3c7;" horiz-adv-x="815" 
d="M14 981h95q7 0 10 -8q57 -124 153 -325.5t134 -282.5h2q8 16 57 115t113 229.5t127 263.5q5 8 14 8h80q15 0 6 -12l-344 -680l358 -740q6 -11 -2 -14q-74 -22 -80 -22q-8 0 -12 8q-40 85 -153.5 319t-172.5 363h-2q-14 -33 -66 -146t-130 -281t-119 -257q-4 -8 -10 -8
q-5 0 -74 24q-7 2 -4 12l348 740l-332 682q-6 12 4 12z" />
    <glyph glyph-name="psi" unicode="&#x3c8;" horiz-adv-x="1335" 
d="M623 -469v449q-224 15 -335 130.5t-128 364.5q-25 348 -60 496q-3 5 -1 7.5t7 2.5h80q9 0 13 -8q24 -61 57 -479q10 -120 40 -202t80.5 -127.5t109.5 -66t139 -24.5v1165q0 7 2.5 8.5t7.5 1.5h76q10 0 10 -8v-1167q86 3 148.5 24.5t112 68.5t78 128.5t36.5 200.5
q25 414 49 477q3 8 10 8h74q8 0 8 -10q-24 -115 -47 -482q-13 -254 -128.5 -374.5t-340.5 -134.5v-439q0 -8 -8 -10q-45 -10 -80 -10q-10 0 -10 10z" />
    <glyph glyph-name="omega" unicode="&#x3c9;" horiz-adv-x="1351" 
d="M725 692v-358q0 -116 54 -188t153 -72q46 0 86.5 22t76 68.5t56 131t20.5 196.5q0 274 -153 477q-3 3 -2.5 7.5t6.5 4.5h86q8 0 14 -6q64 -82 106 -208.5t42 -272.5q0 -134 -29 -236t-78.5 -161t-109 -88t-127.5 -29q-88 0 -155 52t-101 142q-35 -87 -104 -140.5
t-156 -53.5q-49 0 -94 15t-88 51t-74.5 90.5t-50.5 140.5t-19 194q0 147 45.5 279t110.5 223q4 8 16 8h76q15 0 6 -14q-68 -97 -113 -225t-45 -265q0 -92 14.5 -163.5t38 -115.5t56 -73t65 -40t68.5 -11q88 0 147.5 77.5t57.5 178.5v364q0 8 12 8h78q8 0 8 -10z" />
    <glyph glyph-name="iotadieresis" unicode="&#x3ca;" horiz-adv-x="446" 
d="M254 971v-793q0 -65 23 -87.5t65 -22.5q18 0 45 6q4 1 5 -0.5t1 -7.5v-62q0 -10 -6 -12q-24 -12 -74 -12q-31 0 -55 6.5t-48.5 25t-38 59t-13.5 101.5v799q0 10 8 10h80q8 0 8 -10zM49 1239q-27 0 -44 18t-17 46q0 31 18 49t45 18q25 0 42.5 -18.5t17.5 -48.5
q0 -28 -18 -46t-44 -18zM401 1239q-28 0 -44.5 17.5t-16.5 46.5q0 31 17.5 49t43.5 18q28 0 45 -19t17 -48q0 -26 -18 -45t-44 -19z" />
    <glyph glyph-name="upsilondieresis" unicode="&#x3cb;" horiz-adv-x="1001" 
d="M731 981h82q7 0 10 -8q29 -62 54.5 -182.5t25.5 -243.5q0 -94 -12 -174t-41.5 -154t-75 -126t-117 -82.5t-163.5 -30.5q-158 0 -251 88.5t-93 263.5v336q0 231 -19 303q-3 10 8 10h78q9 0 14 -8q17 -53 17 -176v-461q0 -62 15.5 -110t40.5 -77t59 -47t67 -25t70 -7
q98 0 164 45t103.5 152.5t37.5 279.5q0 228 -82 424q-3 10 8 10zM315 1239q-27 0 -44 18t-17 46q0 31 18 49t45 18q25 0 42.5 -18.5t17.5 -48.5q0 -28 -18 -46t-44 -18zM668 1239q-28 0 -45 17.5t-17 46.5q0 31 18 49t44 18t43.5 -19t17.5 -48q0 -27 -17.5 -45.5
t-43.5 -18.5z" />
    <glyph glyph-name="omicrontonos" unicode="&#x3cc;" horiz-adv-x="1046" 
d="M524 999q199 0 322 -140.5t123 -369.5q0 -227 -123 -368t-320 -141q-91 0 -167 30t-127.5 79.5t-87.5 116t-52 137.5t-16 146q0 220 125 365t323 145zM518 911q-153 0 -248.5 -116t-95.5 -301q0 -115 40.5 -210t123.5 -154.5t194 -59.5q63 0 121 24.5t107.5 72.5
t79.5 131t30 189q0 65 -12 125t-39.5 115t-67.5 95.5t-100 64.5t-133 24zM436 1165l221 293q5 10 13 10h92q13 0 8 -10l-235 -295q-3 -8 -13 -8h-80q-9 0 -6 10z" />
    <glyph glyph-name="upsilontonos" unicode="&#x3cd;" horiz-adv-x="1001" 
d="M731 981h82q7 0 10 -8q29 -62 54.5 -182.5t25.5 -243.5q0 -94 -12 -174t-41.5 -154t-75 -126t-117 -82.5t-163.5 -30.5q-158 0 -251 88.5t-93 263.5v336q0 231 -19 303q-3 10 8 10h78q9 0 14 -8q17 -53 17 -176v-461q0 -62 15.5 -110t40.5 -77t59 -47t67 -25t70 -7
q98 0 164 45t103.5 152.5t37.5 279.5q0 228 -82 424q-3 10 8 10zM426 1141l221 293q3 10 12 10h93q13 0 8 -10l-236 -295q-3 -9 -12 -9h-80q-10 0 -6 11z" />
    <glyph glyph-name="omegatonos" unicode="&#x3ce;" horiz-adv-x="1351" 
d="M725 692v-358q0 -116 54 -188t153 -72q46 0 86.5 22t76 68.5t56 131t20.5 196.5q0 274 -153 477q-3 3 -2.5 7.5t6.5 4.5h86q8 0 14 -6q64 -82 106 -208.5t42 -272.5q0 -134 -29 -236t-78.5 -161t-109 -88t-127.5 -29q-88 0 -155 52t-101 142q-35 -87 -104 -140.5
t-156 -53.5q-49 0 -94 15t-88 51t-74.5 90.5t-50.5 140.5t-19 194q0 147 45.5 279t110.5 223q4 8 16 8h76q15 0 6 -14q-68 -97 -113 -225t-45 -265q0 -92 14.5 -163.5t38 -115.5t56 -73t65 -40t68.5 -11q88 0 147.5 77.5t57.5 178.5v364q0 8 12 8h78q8 0 8 -10zM596 1118
l221 293q3 10 12 10h95q13 0 6 -10l-234 -295q-6 -6 -14 -6h-80q-9 0 -6 8z" />
    <glyph glyph-name="uni03D1" unicode="&#x3d1;" horiz-adv-x="991" 
d="M625 731q120 0 190 19q2 18 2 57q0 178 -37 312t-115 213t-190 79q-71 0 -126.5 -24.5t-88.5 -67t-50 -96t-17 -115.5q0 -167 121 -272t311 -105zM70 532h86q10 0 14 -6q37 -75 66 -184q44 -154 98 -214t145 -60q98 0 169.5 81.5t109 209.5t51.5 300q-79 -20 -193 -20
q-232 0 -376 128t-144 337q0 108 43 196t131.5 143.5t208.5 55.5q203 0 319.5 -179t116.5 -507q0 -134 -16.5 -255.5t-51.5 -227.5t-86 -183.5t-125 -122t-163 -44.5q-135 0 -206.5 78t-121.5 251q-36 123 -77 213q-7 10 2 10z" />
    <glyph glyph-name="uni03D7" unicode="&#x3d7;" horiz-adv-x="1028" 
d="M502 514q195 -35 312.5 -147.5t117.5 -288.5q0 -209 -142 -335t-376 -126q-208 0 -359 80q-8 3 -8 14v84q0 5 3.5 6t8.5 -2q131 -90 349 -90q199 0 311 100.5t112 266.5q0 98 -45.5 172.5t-124.5 117.5t-174 64t-204 21v-437q0 -14 -9 -14h-77q-13 0 -13 12v750
q0 136 -20 209q-2 10 10 10h76q12 0 12 -12q21 -49 21 -215v-217q17 0 42.5 -1.5t53 -4t37.5 -3.5l366 447q4 6 13 6h98q5 0 6 -3.5t-2 -8.5z" />
    <glyph glyph-name="uni0400" unicode="&#x400;" horiz-adv-x="1003" 
d="M958 82l-14 -72q-2 -10 -12 -10h-744q-14 0 -14 14v1334q0 14 12 14h709q9 0 12 -10l11 -70q3 -12 -11 -12h-635v-527h572q10 0 10 -10v-69q0 -13 -10 -13h-572v-559h678q11 0 8 -10zM377 1722l254 -217q9 -12 -4 -12h-95q-9 0 -20 8l-268 215q-4 4 -2.5 8.5t6.5 4.5h112
q10 0 17 -7z" />
    <glyph glyph-name="uni0401" unicode="&#x401;" horiz-adv-x="1003" 
d="M958 82l-14 -72q-2 -10 -12 -10h-744q-14 0 -14 14v1334q0 14 12 14h709q9 0 12 -10l11 -70q3 -12 -11 -12h-635v-527h572q10 0 10 -10v-69q0 -13 -10 -13h-572v-559h678q11 0 8 -10zM348 1532q-28 0 -45.5 18.5t-17.5 46.5q0 27 19.5 45.5t47.5 18.5q27 0 45.5 -19.5
t18.5 -44.5q0 -28 -19.5 -46.5t-48.5 -18.5zM711 1532q-28 0 -46 18t-18 47q0 27 19.5 45.5t46.5 18.5q28 0 46.5 -18t18.5 -46q0 -31 -18 -48t-49 -17z" />
    <glyph glyph-name="uni0402" unicode="&#x402;" horiz-adv-x="1280" 
d="M492 676v-664q0 -8 -2.5 -10t-10.5 -2h-76q-10 0 -10 12v1258h-395q-11 0 -8 10l16 74q0 8 10 8h1020q8 0 11 -8l12 -74q0 -10 -6 -10h-561v-508q120 24 253 24q208 0 328.5 -102t120.5 -293q0 -85 -26 -156.5t-65.5 -116t-89 -76.5t-93.5 -46t-82 -16q-11 0 -11 8v69
q0 7 7 11q28 5 56 14.5t67.5 33.5t68 56.5t49.5 89.5t21 127q0 149 -93.5 230t-269.5 81q-153 0 -241 -24z" />
    <glyph glyph-name="uni0403" unicode="&#x403;" horiz-adv-x="899" 
d="M176 1352q0 10 8 10h703q9 0 12 -8l10 -74q3 -10 -10 -10h-625v-1260q0 -10 -10 -10h-80q-8 0 -8 10v1342zM436 1499l262 223q7 7 15 7h104q6 0 7.5 -5t-3.5 -8l-268 -219q-6 -6 -16 -6h-95q-6 0 -7.5 2.5t1.5 5.5z" />
    <glyph glyph-name="uni0404" unicode="&#x404;" horiz-adv-x="1112" 
d="M1044 111v-70q0 -11 -10 -16q-96 -45 -286 -45q-97 0 -186.5 21t-177.5 72.5t-152 130t-104 203t-40 281.5q0 316 183 505t497 189q206 0 279 -43q8 -3 8 -12v-80q0 -13 -11 -8q-82 53 -278 53q-249 0 -402.5 -140t-173.5 -392h662q8 0 8 -8v-74q0 -8 -8 -8h-664
q2 -102 24 -187.5t56.5 -146t82 -107.5t97.5 -75.5t106.5 -47t105.5 -25.5t98 -7q181 0 274 43q12 4 12 -6z" />
    <glyph glyph-name="uni0405" unicode="&#x405;" horiz-adv-x="944" 
d="M424 -20q-211 0 -338 81q-8 5 -8 19v86q0 5 4 7t8 -1q137 -100 336 -100q163 0 247.5 72t84.5 194q0 93 -60 162.5t-217 140.5l-84 35q-91 40 -153.5 85t-94 92.5t-44.5 91t-13 93.5q0 156 112 250t296 94q203 0 293 -57q8 -5 8 -16v-78q0 -6 -4.5 -8.5t-8.5 0.5
q-100 69 -292 69q-72 0 -128 -16.5t-89 -41.5t-54.5 -58.5t-29 -64t-7.5 -62.5q0 -89 58.5 -157.5t204.5 -131.5l92 -39q172 -76 243.5 -167.5t71.5 -207.5q0 -160 -113.5 -263t-320.5 -103z" />
    <glyph glyph-name="uni0406" unicode="&#x406;" horiz-adv-x="448" 
d="M272 1352v-1340q0 -12 -10 -12h-78q-10 0 -10 12v1338q0 12 10 12h78q10 0 10 -10z" />
    <glyph glyph-name="uni0407" unicode="&#x407;" horiz-adv-x="448" 
d="M272 1352v-1340q0 -12 -10 -12h-78q-10 0 -10 12v1338q0 12 10 12h78q10 0 10 -10zM41 1516q-28 0 -46 17.5t-18 45.5q0 27 19.5 45t46.5 18q28 0 45.5 -18.5t17.5 -44.5q0 -28 -18 -45.5t-47 -17.5zM403 1516q-28 0 -45.5 17t-17.5 46q0 27 19.5 45t46.5 18
q28 0 46.5 -17.5t18.5 -45.5q0 -30 -18.5 -46.5t-49.5 -16.5z" />
    <glyph glyph-name="uni0408" unicode="&#x408;" horiz-adv-x="526" 
d="M270 315v1037q0 10 11 10h77q11 0 11 -10v-1024q0 -108 -15 -181q-16 -72 -49.5 -123t-78.5 -78.5t-91.5 -39.5t-99.5 -12q-48 0 -66 6q-10 2 -10 16v68q0 13 12 10q20 -4 56 -4q123 0 183 75t60 250z" />
    </font>
</defs>
</svg>
